<svg xmlns="http://www.w3.org/2000/svg" width="93.062" height="12.219"><path data-name="Save today for" d="M3.541 9.443a4.5 4.5 0 002.742-.737 2.366 2.366 0 00.986-2 1.99 1.99 0 00-.765-1.651 6.275 6.275 0 00-2.5-.984 7.306 7.306 0 01-1.15-.308 1.422 1.422 0 01-.575-.36.755.755 0 01-.17-.5.937.937 0 01.455-.819 2.155 2.155 0 011.213-.3 4.212 4.212 0 012.616.908l.632-1.412A3.771 3.771 0 005.609.524 6.125 6.125 0 003.764.247a4.561 4.561 0 00-1.87.359 2.945 2.945 0 00-1.258 1 2.472 2.472 0 00-.448 1.449A2.24 2.24 0 00.51 4.297a2.489 2.489 0 001.024.844 7.832 7.832 0 001.889.587 5.537 5.537 0 011.485.472.752.752 0 01.423.675.842.842 0 01-.461.762 2.633 2.633 0 01-1.321.271 4.961 4.961 0 01-2.906-.907L.011 8.412a4.472 4.472 0 001.561.763 7.05 7.05 0 001.965.271zm9.819-6.5v.907a2.1 2.1 0 00-.821-.782 2.467 2.467 0 00-1.2-.29 2.619 2.619 0 00-1.466.422 2.813 2.813 0 00-1 1.192 4.067 4.067 0 00-.361 1.752 3.947 3.947 0 00.361 1.733 2.623 2.623 0 002.47 1.556 2.553 2.553 0 001.2-.277 2.013 2.013 0 00.821-.769v.946h1.883V2.942h-1.883zm-1.466 5.042a1.346 1.346 0 01-1.106-.473 2.117 2.117 0 01-.385-1.367 2.234 2.234 0 01.392-1.4 1.311 1.311 0 011.1-.5 1.3 1.3 0 011.087.486 2.216 2.216 0 01.379 1.392 2.193 2.193 0 01-.379 1.387 1.306 1.306 0 01-1.087.479zm7.886-.895l-1.643-4.134h-2l2.781 6.378h1.617l2.818-6.378H21.47zm10.085-1.071a3.417 3.417 0 00-.784-2.364 2.72 2.72 0 00-2.136-.876 3.168 3.168 0 00-1.63.422 2.9 2.9 0 00-1.118 1.185 3.683 3.683 0 00-.4 1.733 3.212 3.212 0 00.922 2.427 3.511 3.511 0 002.54.888 4.591 4.591 0 001.359-.208 3.341 3.341 0 001.131-.573l-.506-1.286a3.179 3.179 0 01-1.9.643 1.7 1.7 0 01-1.239-.41 1.92 1.92 0 01-.467-1.3h4.221v-.277zm-2.869-1.9a1.181 1.181 0 011.226 1.235h-2.541a1.572 1.572 0 01.436-.92 1.229 1.229 0 01.878-.315zm12.157.252V2.947h-1.63V.829l-1.908.618v1.5h-1.214v1.424h1.214v2.521a2.641 2.641 0 00.625 1.878 2.363 2.363 0 001.814.668 3.059 3.059 0 001.1-.176V7.787a2.638 2.638 0 01-.632.088 1.049 1.049 0 01-.72-.245.984.984 0 01-.278-.776V4.371h1.63zm4.284 5.067a3.709 3.709 0 001.769-.4 2.788 2.788 0 001.169-1.16 3.993 3.993 0 000-3.529 2.794 2.794 0 00-1.169-1.16 3.721 3.721 0 00-1.769-.4 3.791 3.791 0 00-1.788.4 2.785 2.785 0 00-1.175 1.16 3.993 3.993 0 000 3.529 2.78 2.78 0 001.175 1.16 3.779 3.779 0 001.788.4zm0-1.449q-1.479 0-1.478-1.878a2.212 2.212 0 01.379-1.406 1.325 1.325 0 011.1-.472 1.3 1.3 0 011.081.472 2.852 2.852 0 010 2.817 1.3 1.3 0 01-1.081.467zM52.781.05v3.743a2 2 0 00-.821-.75 2.557 2.557 0 00-1.176-.271 2.667 2.667 0 00-1.472.41 2.763 2.763 0 00-1 1.159 3.963 3.963 0 00-.36 1.734 4.04 4.04 0 00.36 1.745 2.806 2.806 0 001 1.185 2.608 2.608 0 001.465.422 2.553 2.553 0 001.2-.277 2.007 2.007 0 00.821-.769v.946h1.883V.05h-1.9zm-1.44 7.928a1.32 1.32 0 01-1.1-.5 2.224 2.224 0 01-.392-1.405 2.1 2.1 0 01.392-1.362 1.342 1.342 0 011.1-.479 1.3 1.3 0 011.08.486 2.17 2.17 0 01.385 1.38 2.222 2.222 0 01-.379 1.393 1.3 1.3 0 01-1.086.485zm9.68-5.042v.914a2.1 2.1 0 00-.822-.782 2.463 2.463 0 00-1.2-.29 2.619 2.619 0 00-1.466.422 2.808 2.808 0 00-1 1.192 4.082 4.082 0 00-.36 1.752 3.961 3.961 0 00.36 1.733 2.626 2.626 0 002.471 1.556 2.549 2.549 0 001.2-.277 2.016 2.016 0 00.822-.769v.946h1.883V2.942h-1.883zm-1.466 5.042a1.346 1.346 0 01-1.106-.473 2.117 2.117 0 01-.385-1.367 2.234 2.234 0 01.391-1.4 1.313 1.313 0 011.1-.5 1.3 1.3 0 011.087.486 2.223 2.223 0 01.379 1.392 2.2 2.2 0 01-.379 1.387 1.306 1.306 0 01-1.087.479zm9.579-5.042l-1.693 4.147-1.643-4.147h-2l2.641 6.063-.189.416a1.928 1.928 0 01-.7.844 4.1 4.1 0 01-1.333.479l.442 1.462a4.6 4.6 0 002.029-.737 4.183 4.183 0 001.371-1.8l2.957-6.731h-1.883zm9.933-1.387a2.721 2.721 0 01.619.089V.15a3.087 3.087 0 00-1.087-.164 2.323 2.323 0 00-1.794.669 2.657 2.657 0 00-.619 1.878v.4h-1.2v1.424h1.2v4.967h1.908V4.357h1.339V2.933h-1.339V2.58a1.03 1.03 0 01.265-.788 1 1 0 01.708-.246zm4.752 7.878a3.712 3.712 0 001.769-.4 2.8 2.8 0 001.169-1.16 3.993 3.993 0 000-3.529 2.805 2.805 0 00-1.169-1.16 3.724 3.724 0 00-1.769-.4 3.792 3.792 0 00-1.789.4 2.8 2.8 0 00-1.175 1.16 3.993 3.993 0 000 3.529 2.791 2.791 0 001.175 1.16 3.78 3.78 0 001.789.4zm0-1.449q-1.479 0-1.479-1.878a2.212 2.212 0 01.379-1.406 1.327 1.327 0 011.1-.472 1.293 1.293 0 011.08.472 2.846 2.846 0 010 2.817 1.3 1.3 0 01-1.08.467zm8.555-5.193a2.131 2.131 0 00-1.156.321 1.873 1.873 0 00-.752.927l-.126-1.1h-1.795a14.9 14.9 0 01.1 1.828v4.563h1.908V5.983a1.568 1.568 0 01.4-1.14 1.542 1.542 0 011.157-.41 2.228 2.228 0 01.935.214l.013-1.739a1.653 1.653 0 00-.683-.126z" fill="#f36a20" fill-rule="evenodd"/></svg>