<svg xmlns="http://www.w3.org/2000/svg" width="141.313" height="11.843"><path data-name="tomorrow’s getaways." d="M4.737 4.016V2.591h-1.63V.474l-1.908.617v1.5H-.015v1.425h1.214v2.521a2.644 2.644 0 00.625 1.878 2.367 2.367 0 001.814.668 3.036 3.036 0 001.1-.177V7.432a2.689 2.689 0 01-.632.088 1.045 1.045 0 01-.72-.246.981.981 0 01-.278-.775V4.016h1.63zm4.282 5.065a3.71 3.71 0 001.769-.4 2.786 2.786 0 001.169-1.159 4 4 0 000-3.53 2.792 2.792 0 00-1.169-1.159 3.71 3.71 0 00-1.769-.4 3.779 3.779 0 00-1.788.4 2.783 2.783 0 00-1.175 1.159 4 4 0 000 3.53 2.778 2.778 0 001.175 1.159 3.779 3.779 0 001.788.4zm0-1.45q-1.479 0-1.478-1.878a2.209 2.209 0 01.379-1.4 1.325 1.325 0 011.1-.473 1.3 1.3 0 011.081.473 2.846 2.846 0 010 2.817 1.3 1.3 0 01-1.081.466zm12.663-5.206a2.442 2.442 0 00-1.232.322 2.342 2.342 0 00-.879.863 1.837 1.837 0 00-1.9-1.185 2.455 2.455 0 00-1.207.29 2.017 2.017 0 00-.815.832l-.114-.958H13.74a14.7 14.7 0 01.1 1.828v4.564h1.908V5.452a1.775 1.775 0 01.322-1.135 1.091 1.091 0 01.9-.4.811.811 0 01.7.3 1.645 1.645 0 01.221.958v3.806h1.928V5.452a1.805 1.805 0 01.315-1.135 1.074 1.074 0 01.9-.4.815.815 0 01.707.3 1.669 1.669 0 01.215.964v3.8h1.909v-3.87a3.175 3.175 0 00-.538-2.023 1.982 1.982 0 00-1.636-.662zm6.988 6.656a3.716 3.716 0 001.77-.4 2.8 2.8 0 001.169-1.159 4 4 0 000-3.53 2.8 2.8 0 00-1.169-1.159 3.716 3.716 0 00-1.77-.4 3.779 3.779 0 00-1.788.4 2.789 2.789 0 00-1.175 1.159 4 4 0 000 3.53 2.783 2.783 0 001.175 1.159 3.779 3.779 0 001.788.4zm0-1.45q-1.477 0-1.478-1.878a2.209 2.209 0 01.379-1.4 1.327 1.327 0 011.1-.473 1.3 1.3 0 011.081.473 2.846 2.846 0 010 2.817 1.3 1.3 0 01-1.081.466zm8.556-5.193a2.121 2.121 0 00-1.156.322 1.869 1.869 0 00-.752.926l-.127-1.1h-1.792a14.9 14.9 0 01.1 1.828v4.567h1.908v-3.34a1.569 1.569 0 01.4-1.141 1.542 1.542 0 011.157-.41 2.23 2.23 0 01.935.215l.012-1.74a1.645 1.645 0 00-.682-.126zm5.434 0a2.121 2.121 0 00-1.156.322 1.869 1.869 0 00-.752.926l-.127-1.1h-1.794a14.9 14.9 0 01.1 1.828v4.567h1.908v-3.34a1.569 1.569 0 01.4-1.141 1.542 1.542 0 011.157-.41 2.23 2.23 0 01.935.215l.012-1.74a1.645 1.645 0 00-.682-.126zm4.638 6.643a3.71 3.71 0 001.769-.4 2.792 2.792 0 001.169-1.159 4 4 0 000-3.53 2.8 2.8 0 00-1.169-1.159 3.71 3.71 0 00-1.769-.4 3.773 3.773 0 00-1.788.4 2.791 2.791 0 00-1.176 1.159 4 4 0 000 3.53 2.785 2.785 0 001.176 1.159 3.773 3.773 0 001.788.4zm0-1.45q-1.479 0-1.479-1.878a2.215 2.215 0 01.379-1.4 1.329 1.329 0 011.1-.473 1.293 1.293 0 011.08.473 2.846 2.846 0 010 2.817 1.3 1.3 0 01-1.08.466zm11.791-.882l-1.542-4.16h-1.3l-1.529 4.122-1.542-4.122H51.23l2.589 6.392h1.617l1.391-3.706 1.453 3.706h1.605l2.591-6.391h-1.845zm4.4-6.744v2.03h.948a2.727 2.727 0 01-.771 1.235l.746.592a4.174 4.174 0 00.878-1.222 3.3 3.3 0 00.259-1.336v-1.3h-2.06zm5.839 9.076a3.37 3.37 0 002.009-.53 1.68 1.68 0 00.733-1.437 1.66 1.66 0 00-.442-1.21 2.868 2.868 0 00-1.428-.68l-1.074-.24a1.353 1.353 0 01-.562-.22.43.43 0 01-.158-.347.509.509 0 01.265-.454 1.394 1.394 0 01.733-.164 3.027 3.027 0 01.992.177 4.174 4.174 0 011 .517l.53-1.273a4.032 4.032 0 00-1.175-.587 4.43 4.43 0 00-1.339-.208 3.682 3.682 0 00-1.428.259 2.247 2.247 0 00-.967.725 1.725 1.725 0 00-.348 1.058 1.6 1.6 0 00.436 1.173 2.681 2.681 0 001.359.642l1.049.24a1.848 1.848 0 01.669.239.444.444 0 01.19.379.48.48 0 01-.265.441 1.551 1.551 0 01-.759.151 4.178 4.178 0 01-1.263-.195 3.926 3.926 0 01-1.125-.561l-.506 1.323a4.707 4.707 0 002.869.782zm12.549-6.492v.908a2.088 2.088 0 00-.834-.782 2.54 2.54 0 00-1.213-.29 2.761 2.761 0 00-1.479.4 2.72 2.72 0 00-1.011 1.121 4 4 0 000 3.341 2.72 2.72 0 001.011 1.121 2.761 2.761 0 001.479.4 2.459 2.459 0 002.047-1.084v1.11a1.541 1.541 0 01-.4 1.166 1.725 1.725 0 01-1.226.384 5.114 5.114 0 01-2.3-.58l-.291 1.412a5.618 5.618 0 002.654.592 3.737 3.737 0 002.578-.794 2.954 2.954 0 00.885-2.319v-6.1h-1.9zm-1.491 4.765a1.4 1.4 0 01-1.112-.466 1.878 1.878 0 01-.4-1.274 1.851 1.851 0 01.4-1.266 1.4 1.4 0 011.112-.46 1.363 1.363 0 011.1.46 2.249 2.249 0 01-.006 2.546 1.368 1.368 0 01-1.093.46zm10.918-1.689a3.414 3.414 0 00-.783-2.363 2.722 2.722 0 00-2.136-.877 3.159 3.159 0 00-1.63.423 2.886 2.886 0 00-1.118 1.185 3.681 3.681 0 00-.4 1.733 3.21 3.21 0 00.923 2.426 3.507 3.507 0 002.54.889 4.624 4.624 0 001.359-.208 3.38 3.38 0 001.131-.574l-.506-1.285a3.162 3.162 0 01-.91.479 3.109 3.109 0 01-.985.163 1.7 1.7 0 01-1.239-.409 1.923 1.923 0 01-.467-1.305h4.22v-.277zm-2.868-1.9A1.18 1.18 0 0189.662 5h-2.543a1.581 1.581 0 01.436-.92 1.232 1.232 0 01.879-.315zm8.227.252V2.591h-1.63V.474l-1.909.617v1.5h-1.213v1.425h1.208v2.521a2.645 2.645 0 00.626 1.878 2.364 2.364 0 001.813.668 3.041 3.041 0 001.1-.177V7.432a2.689 2.689 0 01-.632.088 1.045 1.045 0 01-.72-.246.981.981 0 01-.278-.775V4.016h1.63zm5.762-1.425V3.5a2.1 2.1 0 00-.821-.782 2.467 2.467 0 00-1.2-.29 2.614 2.614 0 00-1.466.423 2.8 2.8 0 00-1 1.191 4.085 4.085 0 00-.36 1.752 3.961 3.961 0 00.36 1.733 2.626 2.626 0 002.47 1.557 2.553 2.553 0 001.2-.278 2 2 0 00.821-.768v.943h1.883v-6.39h-1.883zm-1.465 5.042a1.344 1.344 0 01-1.106-.472 2.12 2.12 0 01-.386-1.368 2.229 2.229 0 01.392-1.4 1.313 1.313 0 011.1-.5 1.3 1.3 0 011.086.485 2.22 2.22 0 01.379 1.393 2.19 2.19 0 01-.379 1.386 1.3 1.3 0 01-1.086.479zm12.233-.882l-1.542-4.16h-1.3l-1.529 4.122-1.542-4.122h-1.946l2.585 6.389h1.617l1.39-3.706 1.454 3.706h1.605l2.59-6.391h-1.845zm8.833-4.16V3.5a2.1 2.1 0 00-.821-.782 2.467 2.467 0 00-1.2-.29 2.612 2.612 0 00-1.466.423 2.8 2.8 0 00-1 1.191 4.07 4.07 0 00-.361 1.752 3.947 3.947 0 00.361 1.733 2.626 2.626 0 002.47 1.557 2.553 2.553 0 001.2-.278 2.011 2.011 0 00.821-.768v.943h1.883v-6.39h-1.883zm-1.466 5.042a1.345 1.345 0 01-1.106-.472 2.12 2.12 0 01-.385-1.368 2.229 2.229 0 01.392-1.4 1.455 1.455 0 012.186-.019 2.22 2.22 0 01.379 1.393 2.19 2.19 0 01-.379 1.386 1.3 1.3 0 01-1.087.479zm9.579-5.042l-1.693 4.147-1.643-4.147h-2l2.642 6.063-.19.416a1.929 1.929 0 01-.7.845 4.107 4.107 0 01-1.334.479l.443 1.462a4.6 4.6 0 002.028-.738 4.168 4.168 0 001.371-1.8l2.957-6.731h-1.883zm5.157 6.492a3.374 3.374 0 002.009-.53 1.682 1.682 0 00.733-1.437 1.664 1.664 0 00-.442-1.21 2.868 2.868 0 00-1.428-.68l-1.075-.24a1.359 1.359 0 01-.562-.22.433.433 0 01-.158-.347.509.509 0 01.265-.454 1.4 1.4 0 01.733-.164 3.027 3.027 0 01.992.177 4.137 4.137 0 011 .517l.531-1.273a4.044 4.044 0 00-1.175-.587 4.441 4.441 0 00-1.34-.208 3.69 3.69 0 00-1.428.259 2.253 2.253 0 00-.967.725 1.724 1.724 0 00-.347 1.058 1.594 1.594 0 00.436 1.173 2.673 2.673 0 001.358.642l1.049.24a1.855 1.855 0 01.67.239.446.446 0 01.189.379.48.48 0 01-.265.441 1.55 1.55 0 01-.758.151 4.184 4.184 0 01-1.264-.195 3.926 3.926 0 01-1.125-.561l-.5 1.323a4.7 4.7 0 002.869.782zm3.942-.1h2.06V6.955h-2.06v2.026z" fill="#f36a20" fill-rule="evenodd"/></svg>