<svg xmlns="http://www.w3.org/2000/svg" width="118.437" height="26.906"><path data-name="Earn AAdvantage® miles for saving." d="M6.443 9.455V7.929H2.159V5.661h4.019V4.123H2.159V2.005h4.284V.48h-6.2v8.975h6.2zm6.028-6.391v.911a2.1 2.1 0 00-.821-.782 2.467 2.467 0 00-1.2-.29 2.619 2.619 0 00-1.466.422 2.813 2.813 0 00-1 1.192 4.067 4.067 0 00-.361 1.752 3.947 3.947 0 00.361 1.733 2.623 2.623 0 002.47 1.556 2.553 2.553 0 001.2-.277 2.013 2.013 0 00.821-.769v.946h1.883V3.067h-1.883zm-1.466 5.042a1.346 1.346 0 01-1.106-.473 2.117 2.117 0 01-.385-1.367 2.234 2.234 0 01.392-1.4 1.311 1.311 0 011.1-.5 1.3 1.3 0 011.087.486 2.216 2.216 0 01.379 1.392 2.193 2.193 0 01-.379 1.387 1.306 1.306 0 01-1.087.479zm8.872-5.193a2.134 2.134 0 00-1.157.321 1.873 1.873 0 00-.752.927l-.126-1.1h-1.794a14.9 14.9 0 01.1 1.828v4.563h1.908V6.111a1.568 1.568 0 01.4-1.14 1.54 1.54 0 011.156-.41 2.229 2.229 0 01.936.214l.012-1.739a1.648 1.648 0 00-.682-.126zm5.661-.013a2.539 2.539 0 00-1.245.3 2.356 2.356 0 00-.891.869l-.126-1.008h-1.794a14.9 14.9 0 01.1 1.828v4.563h1.908V5.875a1.517 1.517 0 01.379-1.084 1.323 1.323 0 011.011-.4.933.933 0 01.777.309 1.56 1.56 0 01.247.977v3.782h1.908v-3.87q0-2.685-2.275-2.685zm16.795 6.555L38.201.48h-1.592l-4.133 8.975h1.984l.86-1.992h4.205l.859 1.992h1.946zm-4.9-6.857l1.453 3.365H35.98zm14.748 6.857L48.048.48h-1.592l-4.131 8.975h1.984l.859-1.992h4.208l.86 1.992h1.946zm-4.9-6.857l1.453 3.365h-2.909zM57.593.178v3.743a2.006 2.006 0 00-.822-.75 2.553 2.553 0 00-1.175-.271 2.665 2.665 0 00-1.472.41 2.758 2.758 0 00-1 1.159 3.963 3.963 0 00-.36 1.734 4.04 4.04 0 00.36 1.745 2.806 2.806 0 001 1.185 2.611 2.611 0 001.466.422 2.556 2.556 0 001.2-.277 2.019 2.019 0 00.821-.769v.946h1.883V.175h-1.908zm-1.441 7.928a1.318 1.318 0 01-1.1-.5 2.218 2.218 0 01-.392-1.405 2.1 2.1 0 01.392-1.362 1.34 1.34 0 011.1-.479 1.3 1.3 0 011.081.486 2.176 2.176 0 01.385 1.38 2.222 2.222 0 01-.379 1.393 1.3 1.3 0 01-1.087.485zm7.886-.895l-1.643-4.134h-2l2.78 6.378h1.618l2.818-6.378h-1.886zm8.871-4.147v.911a2.1 2.1 0 00-.821-.782 2.467 2.467 0 00-1.2-.29 2.619 2.619 0 00-1.466.422 2.813 2.813 0 00-1 1.192 4.067 4.067 0 00-.361 1.752 3.947 3.947 0 00.361 1.733 2.623 2.623 0 002.47 1.556 2.553 2.553 0 001.2-.277 2.013 2.013 0 00.821-.769v.946h1.883V3.067h-1.883zm-1.466 5.042a1.346 1.346 0 01-1.106-.473 2.117 2.117 0 01-.385-1.367 2.234 2.234 0 01.392-1.4 1.311 1.311 0 011.1-.5 1.3 1.3 0 011.087.486 2.216 2.216 0 01.379 1.392 2.193 2.193 0 01-.379 1.387 1.306 1.306 0 01-1.087.479zm9.1-5.206a2.539 2.539 0 00-1.245.3 2.356 2.356 0 00-.891.869l-.126-1.008h-1.794a14.9 14.9 0 01.1 1.828v4.563h1.908V5.875a1.517 1.517 0 01.379-1.084 1.323 1.323 0 011.011-.4.933.933 0 01.777.309 1.56 1.56 0 01.247.977v3.782h1.908v-3.87q0-2.685-2.275-2.685zm8.076 1.588V3.064h-1.631V.946l-1.908.618v1.5h-1.213v1.424h1.213v2.521a2.641 2.641 0 00.626 1.878 2.361 2.361 0 001.813.668 3.064 3.064 0 001.1-.176V7.904a2.638 2.638 0 01-.632.088 1.054 1.054 0 01-.721-.245.987.987 0 01-.278-.776V4.488h1.631zm5.762-1.424v.911a2.1 2.1 0 00-.821-.782 2.467 2.467 0 00-1.2-.29 2.619 2.619 0 00-1.466.422 2.813 2.813 0 00-1 1.192 4.067 4.067 0 00-.361 1.752 3.947 3.947 0 00.361 1.733 2.623 2.623 0 002.47 1.556 2.553 2.553 0 001.2-.277 2.013 2.013 0 00.821-.769v.946h1.883V3.067h-1.883zm-1.466 5.042a1.346 1.346 0 01-1.106-.473 2.117 2.117 0 01-.385-1.367 2.234 2.234 0 01.392-1.4 1.311 1.311 0 011.1-.5 1.3 1.3 0 011.087.486 2.216 2.216 0 01.379 1.392 2.193 2.193 0 01-.379 1.387 1.306 1.306 0 01-1.087.479zm9.731-5.042v.911a2.081 2.081 0 00-.834-.782 2.54 2.54 0 00-1.213-.29 2.681 2.681 0 00-2.49 1.519 3.993 3.993 0 000 3.34 2.729 2.729 0 001.011 1.122 2.761 2.761 0 001.479.4 2.465 2.465 0 002.047-1.084v1.109a1.539 1.539 0 01-.4 1.166 1.725 1.725 0 01-1.226.385 5.13 5.13 0 01-2.3-.58l-.291 1.412a5.633 5.633 0 002.654.592 3.742 3.742 0 002.578-.794 2.956 2.956 0 00.885-2.319v-6.1h-1.9zm-1.491 4.765a1.394 1.394 0 01-1.112-.467 1.875 1.875 0 01-.4-1.273 1.852 1.852 0 01.4-1.267 1.4 1.4 0 011.112-.46 1.366 1.366 0 011.1.46 2.249 2.249 0 01-.006 2.546 1.369 1.369 0 01-1.093.461zm10.919-1.689a3.417 3.417 0 00-.784-2.364 2.72 2.72 0 00-2.136-.876 3.168 3.168 0 00-1.63.422 2.9 2.9 0 00-1.118 1.185 3.683 3.683 0 00-.4 1.733 3.212 3.212 0 00.922 2.427 3.511 3.511 0 002.54.888 4.591 4.591 0 001.359-.208 3.351 3.351 0 001.131-.573l-.506-1.286a3.185 3.185 0 01-1.895.643 1.7 1.7 0 01-1.239-.41 1.92 1.92 0 01-.467-1.3h4.221v-.277zm-2.869-1.9a1.181 1.181 0 011.22 1.235h-2.54a1.572 1.572 0 01.436-.92 1.229 1.229 0 01.878-.315zm6.586-4.248a2.675 2.675 0 00-1.352.349 2.564 2.564 0 00-.957.952 2.765 2.765 0 000 2.693 2.583 2.583 0 00.957.959 2.76 2.76 0 002.7 0 2.579 2.579 0 00.961-.959 2.757 2.757 0 000-2.689 2.549 2.549 0 00-.958-.956 2.673 2.673 0 00-1.352-.349zm1.592 4.182l-.4-.794a.707.707 0 00-.233-.257.634.634 0 00-.305-.11 1 1 0 00.556-.35.952.952 0 00.195-.6.921.921 0 00-.309-.728 1.3 1.3 0 00-.884-.272h-1.5v3.145h.98V3.075h.176a.187.187 0 01.155.117l.5 1.014h1.046a2.046 2.046 0 01-.7.467 2.256 2.256 0 01-.866.165 2.207 2.207 0 01-1.123-.286 2.044 2.044 0 01-.778-.79 2.289 2.289 0 01-.279-1.128 2.25 2.25 0 01.279-1.117 2.047 2.047 0 01.778-.786 2.329 2.329 0 012.24 0 2.051 2.051 0 01.777.786 2.251 2.251 0 01.28 1.117 2.365 2.365 0 01-.151.849 2.067 2.067 0 01-.431.687zm-1.511-1.771h-.4v-.6h.4a.486.486 0 01.291.07.281.281 0 01.093.239.251.251 0 01-.093.22.5.5 0 01-.291.067zM7.947 17.521a2.442 2.442 0 00-1.232.322 2.332 2.332 0 00-.878.863 1.839 1.839 0 00-1.9-1.185 2.455 2.455 0 00-1.207.29 2.023 2.023 0 00-.815.832l-.114-.958H.007a14.9 14.9 0 01.1 1.828v4.562h1.918v-3.529a1.775 1.775 0 01.322-1.135 1.091 1.091 0 01.9-.4.811.811 0 01.7.3 1.637 1.637 0 01.221.958v3.806h1.909v-3.529a1.8 1.8 0 01.316-1.135 1.071 1.071 0 01.9-.4.818.818 0 01.708.3 1.678 1.678 0 01.214.964v3.8h1.91v-3.87a3.175 3.175 0 00-.537-2.023 1.986 1.986 0 00-1.637-.662zm5.839 6.555v-6.391h-1.909v6.39h1.909zm-1.972-7.6h2.035v-1.79h-2.035v1.79zm5.687 7.6v-9.277h-1.908v9.276h1.908zm7.557-3.315a3.41 3.41 0 00-.784-2.363 2.72 2.72 0 00-2.135-.877 3.162 3.162 0 00-1.631.423 2.886 2.886 0 00-1.118 1.185 3.692 3.692 0 00-.4 1.733 3.21 3.21 0 00.922 2.426 3.508 3.508 0 002.541.889 4.617 4.617 0 001.358-.208 3.361 3.361 0 001.131-.574l-.5-1.285a3.175 3.175 0 01-.91.479 3.115 3.115 0 01-.986.163 1.7 1.7 0 01-1.238-.409 1.928 1.928 0 01-.468-1.305h4.221v-.277zm-2.869-1.9a1.18 1.18 0 011.226 1.235h-2.54a1.575 1.575 0 01.436-.92 1.229 1.229 0 01.878-.315zm6.774 5.319a3.372 3.372 0 002.009-.53 1.68 1.68 0 00.733-1.437 1.66 1.66 0 00-.442-1.21 2.868 2.868 0 00-1.428-.68l-1.074-.24a1.358 1.358 0 01-.563-.22.433.433 0 01-.158-.347.51.51 0 01.266-.454 1.394 1.394 0 01.733-.164 3.032 3.032 0 01.992.177 4.15 4.15 0 011 .517l.531-1.273a4.032 4.032 0 00-1.175-.587 4.437 4.437 0 00-1.34-.208 3.69 3.69 0 00-1.428.259 2.253 2.253 0 00-.967.725 1.73 1.73 0 00-.347 1.058 1.594 1.594 0 00.436 1.173 2.677 2.677 0 001.358.642l1.049.24a1.855 1.855 0 01.67.239.444.444 0 01.19.379.481.481 0 01-.266.441 1.547 1.547 0 01-.758.151 4.184 4.184 0 01-1.264-.195 3.907 3.907 0 01-1.124-.561l-.506 1.323a4.7 4.7 0 002.869.782zm11.323-7.878a2.712 2.712 0 01.619.088v-1.487a3.087 3.087 0 00-1.087-.164 2.326 2.326 0 00-1.794.668 2.657 2.657 0 00-.62 1.878v.4h-1.2v1.425h1.2v4.965h1.909v-4.966h1.339v-1.424h-1.339v-.353a1.026 1.026 0 01.265-.787 1 1 0 01.708-.246zm4.752 7.878a3.712 3.712 0 001.769-.4 2.8 2.8 0 001.169-1.159 4 4 0 000-3.53 2.8 2.8 0 00-1.169-1.159 3.712 3.712 0 00-1.769-.4 3.78 3.78 0 00-1.789.4 2.794 2.794 0 00-1.175 1.159 4 4 0 000 3.53 2.789 2.789 0 001.175 1.159 3.78 3.78 0 001.789.4zm0-1.45q-1.479 0-1.479-1.878a2.209 2.209 0 01.379-1.4 1.327 1.327 0 011.1-.473 1.294 1.294 0 011.08.473 2.846 2.846 0 010 2.817 1.3 1.3 0 01-1.08.466zm8.555-5.193a2.121 2.121 0 00-1.156.322 1.875 1.875 0 00-.752.926l-.126-1.1h-1.795a14.9 14.9 0 01.1 1.828v4.562h1.908v-3.34a1.569 1.569 0 01.4-1.141 1.542 1.542 0 011.157-.41 2.23 2.23 0 01.935.215l.013-1.74a1.653 1.653 0 00-.683-.126zm7.962 6.643a3.374 3.374 0 002.009-.53 1.682 1.682 0 00.733-1.437 1.664 1.664 0 00-.442-1.21 2.868 2.868 0 00-1.428-.68l-1.075-.24a1.359 1.359 0 01-.562-.22.433.433 0 01-.158-.347.511.511 0 01.265-.454 1.4 1.4 0 01.733-.164 3.023 3.023 0 01.992.177 4.137 4.137 0 011 .517l.531-1.273a4.044 4.044 0 00-1.175-.587 4.441 4.441 0 00-1.34-.208 3.69 3.69 0 00-1.428.259 2.253 2.253 0 00-.967.725 1.724 1.724 0 00-.347 1.058 1.594 1.594 0 00.436 1.173 2.673 2.673 0 001.358.642l1.049.24a1.855 1.855 0 01.67.239.447.447 0 01.19.379.481.481 0 01-.266.441 1.55 1.55 0 01-.758.151 4.184 4.184 0 01-1.264-.195 3.926 3.926 0 01-1.125-.561l-.5 1.323a4.7 4.7 0 002.869.782zm8.694-6.492v.908a2.1 2.1 0 00-.821-.782 2.467 2.467 0 00-1.2-.29 2.612 2.612 0 00-1.466.423 2.806 2.806 0 00-1 1.191 4.085 4.085 0 00-.36 1.752 3.961 3.961 0 00.36 1.733 2.629 2.629 0 002.463 1.552 2.553 2.553 0 001.2-.278 2.011 2.011 0 00.821-.768v.946h1.883v-6.39h-1.883zm-1.466 5.042a1.345 1.345 0 01-1.106-.472 2.12 2.12 0 01-.385-1.368 2.223 2.223 0 01.392-1.4 1.455 1.455 0 012.186-.019 2.22 2.22 0 01.379 1.393 2.19 2.19 0 01-.379 1.386 1.3 1.3 0 01-1.087.479zm7.886-.895l-1.643-4.134h-2l2.781 6.378h1.618l2.818-6.378H78.36zm6.369 2.244v-6.394H81.13v6.39h1.908zm-1.971-7.6h2.034v-1.79h-2.034v1.79zm7.734 1.046a2.533 2.533 0 00-1.245.3 2.352 2.352 0 00-.891.87l-.126-1.009h-1.795a14.9 14.9 0 01.1 1.828v4.561h1.908v-3.58a1.518 1.518 0 01.38-1.084 1.319 1.319 0 011.011-.4.936.936 0 01.777.309 1.564 1.564 0 01.246.976v3.779h1.908v-3.87q0-2.685-2.274-2.685zm8.631.164v.908a2.088 2.088 0 00-.834-.782 2.54 2.54 0 00-1.213-.29 2.761 2.761 0 00-1.479.4 2.72 2.72 0 00-1.011 1.121 4 4 0 000 3.341 2.72 2.72 0 001.011 1.121 2.761 2.761 0 001.479.4 2.459 2.459 0 002.047-1.084v1.11a1.541 1.541 0 01-.4 1.166 1.725 1.725 0 01-1.226.384 5.117 5.117 0 01-2.3-.58l-.291 1.412a5.621 5.621 0 002.654.592 3.737 3.737 0 002.578-.794 2.954 2.954 0 00.885-2.319v-6.1h-1.9zm-1.491 4.765a1.4 1.4 0 01-1.112-.466 1.878 1.878 0 01-.4-1.274 1.851 1.851 0 01.4-1.266 1.4 1.4 0 011.112-.46 1.363 1.363 0 011.1.46 2.249 2.249 0 01-.006 2.546 1.368 1.368 0 01-1.093.46zm5.017 1.626h2.06v-2.029h-2.06v2.024z" fill="#fff" fill-rule="evenodd"/></svg>