<svg xmlns="http://www.w3.org/2000/svg" width="351.844" height="26.656"><path data-name="Save to earn AAdvantage®" d="M7.562 20.771a9.57 9.57 0 005.885-1.6 5.145 5.145 0 002.115-4.332 4.34 4.34 0 00-1.64-3.581 13.433 13.433 0 00-5.357-2.132 15.691 15.691 0 01-2.468-.67 3.032 3.032 0 01-1.234-.779 1.644 1.644 0 01-.366-1.093 2.038 2.038 0 01.976-1.777 4.6 4.6 0 012.6-.656 8.98 8.98 0 015.614 1.968l1.356-3.061a8.044 8.044 0 00-3.037-1.641 13.066 13.066 0 00-3.96-.6 9.722 9.722 0 00-4.014.779 6.345 6.345 0 00-2.7 2.173A5.4 5.4 0 00.37 6.913a4.895 4.895 0 00.691 2.692 5.363 5.363 0 002.2 1.832 16.773 16.773 0 004.055 1.271 11.812 11.812 0 013.186 1.025 1.631 1.631 0 01.909 1.462 1.832 1.832 0 01-.99 1.654 5.6 5.6 0 01-2.834.588 10.578 10.578 0 01-6.238-1.968L-.007 18.53a9.552 9.552 0 003.349 1.654 15.055 15.055 0 004.218.588zm20.53-14.1v1.968a4.529 4.529 0 00-1.762-1.695 5.248 5.248 0 00-2.577-.629 5.571 5.571 0 00-3.146.916 6.077 6.077 0 00-2.156 2.583 8.942 8.942 0 00-.773 3.8 8.664 8.664 0 00.773 3.758 5.861 5.861 0 002.142 2.5 5.737 5.737 0 003.16.875 5.449 5.449 0 002.577-.6 4.343 4.343 0 001.762-1.668v2.05h4.041V6.666h-4.039zm-3.146 10.934a2.875 2.875 0 01-2.373-1.025 4.625 4.625 0 01-.827-2.966 4.868 4.868 0 01.841-3.034 2.8 2.8 0 012.359-1.094 2.773 2.773 0 012.333 1.053 4.855 4.855 0 01.813 3.02 4.8 4.8 0 01-.813 3.007 2.788 2.788 0 01-2.333 1.039zm16.381-1.941l-3.526-8.966h-4.285l5.967 13.831h3.472l6.048-13.831h-4.042zm21.1-2.324a7.455 7.455 0 00-1.681-5.125 5.811 5.811 0 00-4.584-1.9 6.736 6.736 0 00-3.5.916 6.255 6.255 0 00-2.4 2.57 8.073 8.073 0 00-.854 3.758 7 7 0 001.98 5.262 7.482 7.482 0 005.451 1.927 9.767 9.767 0 002.916-.451 7.193 7.193 0 002.427-1.244l-1.088-2.793a6.711 6.711 0 01-1.952 1.039 6.608 6.608 0 01-2.116.355 3.625 3.625 0 01-2.658-.888 4.2 4.2 0 01-1-2.829h9.058v-.6zm-6.156-4.127q2.3 0 2.631 2.679H53.45a3.442 3.442 0 01.936-2 2.624 2.624 0 011.885-.683zm25 .547V6.671h-3.5V2.078l-4.1 1.34v3.253h-2.6V9.76h2.6v5.467a5.765 5.765 0 001.343 4.072 5.04 5.04 0 003.891 1.449 6.476 6.476 0 002.36-.383v-3.2a5.6 5.6 0 01-1.356.192 2.233 2.233 0 01-1.546-.533 2.147 2.147 0 01-.6-1.681V9.758h3.5zm8.652 10.988a7.886 7.886 0 003.8-.875 6.039 6.039 0 002.509-2.514 8.744 8.744 0 000-7.654 6.041 6.041 0 00-2.509-2.515 7.9 7.9 0 00-3.8-.875 8.043 8.043 0 00-3.838.875 6.015 6.015 0 00-2.522 2.515 8.744 8.744 0 000 7.654 6.013 6.013 0 002.522 2.514 8.031 8.031 0 003.838.875zm0-3.143q-3.174 0-3.174-4.073a4.836 4.836 0 01.814-3.048 2.835 2.835 0 012.36-1.025 2.765 2.765 0 012.318 1.025 6.231 6.231 0 010 6.109 2.778 2.778 0 01-2.318 1.012zm29.778-4.265a7.455 7.455 0 00-1.682-5.125 5.809 5.809 0 00-4.583-1.9 6.74 6.74 0 00-3.5.916 6.259 6.259 0 00-2.4 2.57 8.073 8.073 0 00-.854 3.758 7 7 0 001.98 5.262 7.479 7.479 0 005.451 1.927 9.772 9.772 0 002.916-.451 7.193 7.193 0 002.427-1.244l-1.085-2.788a6.729 6.729 0 01-1.953 1.039 6.6 6.6 0 01-2.115.355 3.623 3.623 0 01-2.658-.888 4.2 4.2 0 01-1-2.829h9.058v-.6zm-6.157-4.127q2.305 0 2.631 2.679h-5.451a3.43 3.43 0 01.936-2 2.621 2.621 0 011.884-.683zm18.47-2.542v1.968a4.531 4.531 0 00-1.763-1.695 5.248 5.248 0 00-2.577-.629 5.574 5.574 0 00-3.146.916 6.077 6.077 0 00-2.156 2.583 8.942 8.942 0 00-.773 3.8 8.664 8.664 0 00.773 3.758 5.857 5.857 0 002.143 2.5 5.731 5.731 0 003.159.875 5.449 5.449 0 002.577-.6 4.346 4.346 0 001.763-1.668v2.05h4.041V6.666h-4.041zm-3.146 10.934a2.872 2.872 0 01-2.373-1.025 4.625 4.625 0 01-.828-2.966 4.868 4.868 0 01.841-3.034 2.805 2.805 0 012.36-1.094 2.772 2.772 0 012.332 1.053 4.855 4.855 0 01.814 3.02 4.8 4.8 0 01-.814 3.007 2.786 2.786 0 01-2.332 1.039zm18.5-11.262a4.534 4.534 0 00-2.482.7 4.05 4.05 0 00-1.613 2.009l-.272-2.378h-3.851a32.391 32.391 0 01.217 3.963v9.9h4.1v-7.243a3.42 3.42 0 01.854-2.474 3.285 3.285 0 012.481-.888 4.752 4.752 0 012.007.464l.028-3.772a3.515 3.515 0 00-1.465-.273zm11.608-.028a5.409 5.409 0 00-2.672.656 5.081 5.081 0 00-1.91 1.879l-.271-2.187h-3.851a32.592 32.592 0 01.217 3.963v9.9h4.1v-7.763a3.31 3.31 0 01.814-2.35 2.82 2.82 0 012.169-.875 1.993 1.993 0 011.668.67 3.412 3.412 0 01.529 2.118v8.2h4.1v-8.391q0-5.823-4.881-5.823zm34.958 14.214l-8.868-19.462h-3.418l-8.868 19.462h4.258l1.844-4.318h9.031l1.845 4.318h4.176zM183.412 5.65l3.119 7.3h-6.237zm31.108 14.87l-8.869-19.462h-3.417l-8.869 19.462h4.258l1.845-4.318h9.031l1.844 4.318h4.177zM203.994 5.65l3.119 7.3h-6.238zM225.582.402V8.52a4.316 4.316 0 00-1.763-1.626 5.414 5.414 0 00-2.522-.588 5.678 5.678 0 00-3.16.889 5.961 5.961 0 00-2.142 2.515 8.65 8.65 0 00-.773 3.758 8.831 8.831 0 00.773 3.786 6.078 6.078 0 002.156 2.569 5.564 5.564 0 003.146.916 5.442 5.442 0 002.576-.6 4.34 4.34 0 001.763-1.668v2.05h4.041V.406h-4.1zM222.494 17.6a2.817 2.817 0 01-2.359-1.08 4.858 4.858 0 01-.841-3.048 4.582 4.582 0 01.841-2.952 2.864 2.864 0 012.359-1.039 2.782 2.782 0 012.319 1.053 4.747 4.747 0 01.827 2.993 4.855 4.855 0 01-.813 3.02 2.773 2.773 0 01-2.333 1.053zm16.381-1.941l-3.526-8.966h-4.285l5.967 13.831h3.471l6.048-13.831h-4.041zm18.5-8.993v1.968a4.529 4.529 0 00-1.762-1.695 5.248 5.248 0 00-2.577-.629 5.574 5.574 0 00-3.146.916 6.077 6.077 0 00-2.156 2.583 8.942 8.942 0 00-.773 3.8 8.664 8.664 0 00.773 3.758 5.861 5.861 0 002.142 2.5 5.737 5.737 0 003.16.875 5.449 5.449 0 002.577-.6 4.343 4.343 0 001.762-1.668v2.05h4.042V6.666h-4.042zM254.224 17.6a2.875 2.875 0 01-2.373-1.025 4.631 4.631 0 01-.827-2.966 4.868 4.868 0 01.841-3.034 2.8 2.8 0 012.359-1.094 2.773 2.773 0 012.333 1.053 4.855 4.855 0 01.813 3.02 4.8 4.8 0 01-.813 3.007 2.788 2.788 0 01-2.333 1.039zm18.985-11.29a5.4 5.4 0 00-2.671.656 5.073 5.073 0 00-1.912 1.887l-.272-2.187h-3.851a32.391 32.391 0 01.217 3.963v9.9h4.1v-7.763a3.314 3.314 0 01.814-2.35 2.821 2.821 0 012.17-.875 2 2 0 011.668.67 3.419 3.419 0 01.528 2.118v8.2h4.1v-8.391q0-5.823-4.882-5.823zm16.788 3.445V6.666h-3.5V2.073l-4.1 1.34v3.253h-2.6v3.089h2.6v5.467a5.765 5.765 0 001.342 4.072 5.041 5.041 0 003.892 1.449 6.48 6.48 0 002.36-.383v-3.2a5.61 5.61 0 01-1.356.192 2.233 2.233 0 01-1.546-.533 2.147 2.147 0 01-.6-1.681V9.753h3.5zm11.824-3.089v1.968a4.529 4.529 0 00-1.762-1.695 5.248 5.248 0 00-2.577-.629 5.574 5.574 0 00-3.146.916 6.077 6.077 0 00-2.156 2.583 8.942 8.942 0 00-.773 3.8 8.664 8.664 0 00.773 3.758 5.861 5.861 0 002.142 2.5 5.737 5.737 0 003.16.875 5.449 5.449 0 002.577-.6 4.343 4.343 0 001.762-1.668v2.05h4.042V6.666h-4.042zM298.675 17.6a2.875 2.875 0 01-2.373-1.025 4.631 4.631 0 01-.827-2.966 4.868 4.868 0 01.841-3.034 2.8 2.8 0 012.359-1.094 2.773 2.773 0 012.333 1.053 4.855 4.855 0 01.813 3.02 4.8 4.8 0 01-.813 3.007 2.788 2.788 0 01-2.333 1.039zm20.341-10.934v1.968a4.486 4.486 0 00-1.79-1.695 5.4 5.4 0 00-2.6-.629 5.749 5.749 0 00-5.343 3.294 8.738 8.738 0 000 7.244 5.749 5.749 0 005.343 3.294 5.08 5.08 0 002.577-.67 5.173 5.173 0 001.817-1.681v2.405a3.355 3.355 0 01-.868 2.529 3.67 3.67 0 01-2.631.834 10.909 10.909 0 01-4.936-1.258l-.623 3.062a11.958 11.958 0 005.695 1.284 7.972 7.972 0 005.533-1.722 6.446 6.446 0 001.9-5.029V6.666h-4.068zm-3.2 10.332a2.979 2.979 0 01-2.387-1.011 4.1 4.1 0 01-.868-2.761 4.044 4.044 0 01.868-2.747 3 3 0 012.387-1 2.916 2.916 0 012.359 1 4.921 4.921 0 01-.013 5.522 2.927 2.927 0 01-2.346 1zm22.89-3.663a7.455 7.455 0 00-1.682-5.125 5.81 5.81 0 00-4.583-1.9 6.74 6.74 0 00-3.5.916 6.246 6.246 0 00-2.4 2.57 8.061 8.061 0 00-.855 3.758 7 7 0 001.98 5.262 7.483 7.483 0 005.452 1.927 9.76 9.76 0 002.915-.451 7.2 7.2 0 002.428-1.244l-1.085-2.788a6.729 6.729 0 01-1.953 1.039 6.6 6.6 0 01-2.116.355 3.621 3.621 0 01-2.657-.888 4.2 4.2 0 01-1-2.829h9.059v-.6zm-6.157-4.127q2.305 0 2.631 2.679h-5.451a3.435 3.435 0 01.935-2 2.624 2.624 0 011.885-.683zm13.593-9.212a5.674 5.674 0 00-2.9.757 5.528 5.528 0 00-2.055 2.063 6.054 6.054 0 000 5.841 5.573 5.573 0 002.055 2.08 5.87 5.87 0 005.8 0 5.561 5.561 0 002.064-2.08 6.039 6.039 0 000-5.833A5.516 5.516 0 00349.043.75a5.67 5.67 0 00-2.9-.757zm3.415 9.067l-.87-1.721a1.536 1.536 0 00-.5-.557 1.385 1.385 0 00-.656-.239 2.139 2.139 0 001.194-.757 2.085 2.085 0 00.419-1.3 2 2 0 00-.664-1.578 2.767 2.767 0 00-1.9-.59h-3.226v6.821h2.1V6.688h.379a.4.4 0 01.332.255l1.076 2.2h2.253A4.417 4.417 0 01348 10.155a4.791 4.791 0 01-1.858.359 4.7 4.7 0 01-2.411-.622 4.4 4.4 0 01-1.669-1.713 4.993 4.993 0 01-.6-2.446 4.918 4.918 0 01.6-2.423 4.424 4.424 0 011.669-1.705 4.96 4.96 0 014.806 0 4.415 4.415 0 011.668 1.705 4.908 4.908 0 01.6 2.423 5.132 5.132 0 01-.324 1.84 4.431 4.431 0 01-.925 1.49zm-3.241-3.84h-.87V3.932h.87a1.038 1.038 0 01.624.151.613.613 0 01.2.518.55.55 0 01-.2.478 1.072 1.072 0 01-.624.144z" fill="#fff" fill-rule="evenodd"/></svg>