<svg xmlns="http://www.w3.org/2000/svg" width="181.094" height="26.375"><path data-name="Upgrade from" d="M8.311 20.49a7.441 7.441 0 008.3-8.283V.781h-4.176v11.617a5.243 5.243 0 01-1.058 3.54 3.842 3.842 0 01-3.065 1.217 3.883 3.883 0 01-3.078-1.217 5.193 5.193 0 01-1.071-3.54V.781H.013v11.426q0 4.074 2.116 6.178t6.183 2.105zM28.489 6.029a5.319 5.319 0 00-2.753.711 4.158 4.158 0 00-1.749 1.941l-.271-2.3h-3.852a32.391 32.391 0 01.217 3.963v15.8h4.1v-7.955a4.158 4.158 0 001.735 1.668 5.446 5.446 0 002.577.6 5.632 5.632 0 005.316-3.376 8.8 8.8 0 00.759-3.758 8.942 8.942 0 00-.773-3.8 6.077 6.077 0 00-2.156-2.583 5.574 5.574 0 00-3.146-.916zm-1.166 11.29a2.824 2.824 0 01-2.346-1.039 4.732 4.732 0 01-.827-3.007 4.79 4.79 0 01.827-3.02A2.809 2.809 0 0127.323 9.2a2.742 2.742 0 012.319 1.094 4.932 4.932 0 01.827 3.034 4.68 4.68 0 01-.814 2.966 2.8 2.8 0 01-2.332 1.025zM47.04 6.385v1.968a4.486 4.486 0 00-1.79-1.695 5.4 5.4 0 00-2.6-.629 5.749 5.749 0 00-5.343 3.294 8.738 8.738 0 000 7.244 5.749 5.749 0 005.343 3.294 5.08 5.08 0 002.577-.67 5.173 5.173 0 001.817-1.681v2.405a3.359 3.359 0 01-.868 2.529 3.67 3.67 0 01-2.631.834 10.906 10.906 0 01-4.936-1.258l-.624 3.062a11.962 11.962 0 005.7 1.284 7.97 7.97 0 005.532-1.722 6.443 6.443 0 001.9-5.029V6.385h-4.068zm-3.2 10.332a2.978 2.978 0 01-2.386-1.011 4.1 4.1 0 01-.868-2.761 4.044 4.044 0 01.868-2.747 3 3 0 012.386-1 2.918 2.918 0 012.36 1 4.919 4.919 0 01-.014 5.522 2.924 2.924 0 01-2.346 1zm18.551-10.66a4.534 4.534 0 00-2.482.7 4.05 4.05 0 00-1.613 2.009l-.272-2.378h-3.851a32.391 32.391 0 01.217 3.963v9.895h4.1v-7.243a3.42 3.42 0 01.854-2.474 3.285 3.285 0 012.481-.888 4.752 4.752 0 012.007.464l.028-3.772a3.515 3.515 0 00-1.465-.273zm12.584.328v1.968a4.525 4.525 0 00-1.763-1.695 5.241 5.241 0 00-2.576-.629 5.571 5.571 0 00-3.146.916 6.079 6.079 0 00-2.157 2.583 8.942 8.942 0 00-.772 3.8 8.664 8.664 0 00.772 3.758 5.87 5.87 0 002.143 2.5 5.735 5.735 0 003.16.875 5.442 5.442 0 002.576-.6 4.34 4.34 0 001.763-1.668v2.05h4.041V6.385h-4.041zm-3.146 10.934a2.872 2.872 0 01-2.373-1.025 4.625 4.625 0 01-.827-2.966 4.874 4.874 0 01.84-3.034 2.806 2.806 0 012.36-1.094 2.772 2.772 0 012.332 1.053 4.848 4.848 0 01.814 3.02 4.789 4.789 0 01-.814 3.007 2.786 2.786 0 01-2.332 1.039zM92.006.125v8.118a4.316 4.316 0 00-1.763-1.626 5.414 5.414 0 00-2.522-.588 5.678 5.678 0 00-3.16.889 5.961 5.961 0 00-2.142 2.515 8.65 8.65 0 00-.773 3.758 8.831 8.831 0 00.773 3.786 6.078 6.078 0 002.156 2.569 5.564 5.564 0 003.146.916 5.442 5.442 0 002.576-.6 4.34 4.34 0 001.763-1.668v2.05h4.046V.125h-4.1zm-3.092 17.194a2.817 2.817 0 01-2.359-1.08 4.858 4.858 0 01-.841-3.048 4.582 4.582 0 01.841-2.952A2.864 2.864 0 0188.914 9.2a2.782 2.782 0 012.319 1.053 4.747 4.747 0 01.827 2.993 4.848 4.848 0 01-.814 3.02 2.772 2.772 0 01-2.332 1.053zm22.836-4.265a7.455 7.455 0 00-1.682-5.125 5.81 5.81 0 00-4.583-1.9 6.74 6.74 0 00-3.5.916 6.252 6.252 0 00-2.4 2.57 8.061 8.061 0 00-.854 3.758 7 7 0 001.979 5.262 7.483 7.483 0 005.452 1.927 9.76 9.76 0 002.915-.451 7.2 7.2 0 002.429-1.242l-1.085-2.788a6.729 6.729 0 01-1.953 1.039 6.6 6.6 0 01-2.115.355 3.622 3.622 0 01-2.658-.888 4.2 4.2 0 01-1-2.829h9.059v-.6zm-6.157-4.127q2.306 0 2.631 2.679h-5.451a3.435 3.435 0 01.935-2 2.626 2.626 0 011.885-.683zm23.568-5.549a5.829 5.829 0 011.329.191V.344a6.551 6.551 0 00-2.332-.356 4.965 4.965 0 00-3.852 1.449 5.806 5.806 0 00-1.329 4.073v.875h-2.571v3.089h2.576v10.769h4.1V9.474h2.875V6.385h-2.875v-.766a2.247 2.247 0 01.569-1.708 2.135 2.135 0 011.519-.533zm11.228 2.679a4.534 4.534 0 00-2.482.7 4.05 4.05 0 00-1.613 2.009l-.271-2.378h-3.852a32.391 32.391 0 01.217 3.963v9.895h4.1v-7.243a3.42 3.42 0 01.854-2.474 3.285 3.285 0 012.481-.888 4.752 4.752 0 012.007.464l.028-3.772a3.515 3.515 0 00-1.465-.273zm9.411 14.4a7.893 7.893 0 003.8-.875 6.039 6.039 0 002.506-2.513 8.753 8.753 0 000-7.654 6.041 6.041 0 00-2.509-2.515 7.9 7.9 0 00-3.8-.875 8.043 8.043 0 00-3.838.875 6.015 6.015 0 00-2.522 2.515 8.753 8.753 0 000 7.654 6.013 6.013 0 002.522 2.514 8.031 8.031 0 003.838.875zm0-3.143q-3.174 0-3.173-4.073a4.836 4.836 0 01.813-3.048 2.836 2.836 0 012.36-1.025 2.768 2.768 0 012.319 1.025 6.231 6.231 0 010 6.109 2.781 2.781 0 01-2.319 1.012zm26.633-11.29a5.2 5.2 0 00-2.645.7 5.058 5.058 0 00-1.882 1.875 3.942 3.942 0 00-4.068-2.57 5.223 5.223 0 00-2.59.629 4.353 4.353 0 00-1.749 1.8l-.244-2.077h-3.852a32.391 32.391 0 01.217 3.963v9.895h4.1v-7.653a3.878 3.878 0 01.691-2.46 2.333 2.333 0 011.94-.875 1.734 1.734 0 011.5.656 3.59 3.59 0 01.474 2.077v8.255h4.1v-7.653a3.934 3.934 0 01.678-2.46 2.291 2.291 0 011.925-.875 1.743 1.743 0 011.519.642 3.668 3.668 0 01.461 2.091v8.255h4.1v-8.391a6.942 6.942 0 00-1.163-4.379 4.237 4.237 0 00-3.512-1.435z" fill="#f36a20" fill-rule="evenodd"/></svg>