<svg xmlns="http://www.w3.org/2000/svg" width="238.656" height="24.281"><path data-name="miles, not interest." d="M17.039 6.15a5.2 5.2 0 00-2.644.7 5.043 5.043 0 00-1.885 1.873 3.942 3.942 0 00-4.068-2.57 5.223 5.223 0 00-2.59.629 4.347 4.347 0 00-1.749 1.8l-.244-2.077H.007a32.391 32.391 0 01.217 3.963v9.9h4.1v-7.653a3.883 3.883 0 01.687-2.465 2.332 2.332 0 011.939-.874 1.732 1.732 0 011.506.656 3.59 3.59 0 01.474 2.077v8.255h4.1v-7.653a3.932 3.932 0 01.678-2.461 2.291 2.291 0 011.925-.874 1.743 1.743 0 011.519.642 3.666 3.666 0 01.461 2.091v8.255h4.1v-8.391a6.94 6.94 0 00-1.152-4.388 4.238 4.238 0 00-3.513-1.435zm11.988 14.214V6.501h-4.1v13.858h4.1zM24.796 3.881h4.367V0h-4.367v3.881zm11.662 16.483V.241h-4.1v20.118h4.1zm15.675-7.189a7.455 7.455 0 00-1.681-5.125 5.811 5.811 0 00-4.584-1.9 6.736 6.736 0 00-3.5.916 6.249 6.249 0 00-2.4 2.569 8.068 8.068 0 00-.855 3.759 7 7 0 001.98 5.262 7.482 7.482 0 005.451 1.927 9.762 9.762 0 002.916-.451 7.193 7.193 0 002.427-1.244L50.802 16.1a6.711 6.711 0 01-1.952 1.039 6.608 6.608 0 01-2.116.355 3.625 3.625 0 01-2.658-.888 4.2 4.2 0 01-1-2.829h9.058v-.6zm-6.156-4.127q2.305 0 2.631 2.679h-5.452a3.442 3.442 0 01.936-2 2.624 2.624 0 011.885-.683zm13.994 11.535a7.183 7.183 0 004.31-1.153 3.655 3.655 0 001.573-3.116 3.618 3.618 0 00-.949-2.624 6.123 6.123 0 00-3.065-1.476l-2.305-.52a2.911 2.911 0 01-1.207-.478.939.939 0 01-.339-.752 1.1 1.1 0 01.57-.984 2.963 2.963 0 011.573-.355 6.456 6.456 0 012.129.382 8.908 8.908 0 012.156 1.121l1.139-2.761a8.69 8.69 0 00-2.522-1.271 9.41 9.41 0 00-2.875-.451 7.828 7.828 0 00-3.065.561 4.835 4.835 0 00-2.074 1.571 3.768 3.768 0 00-.746 2.3 3.483 3.483 0 00.935 2.543 5.734 5.734 0 002.916 1.394l2.251.519a3.953 3.953 0 011.437.519.964.964 0 01.407.82 1.045 1.045 0 01-.569.957 3.3 3.3 0 01-1.628.328 8.861 8.861 0 01-2.712-.424 8.34 8.34 0 01-2.414-1.216l-1.084 2.87a10.014 10.014 0 006.156 1.695zm7.92-4.62v4.4h2.034a6.262 6.262 0 01-1.655 2.679l1.6 1.258a8.414 8.414 0 001.885-2.611 7.321 7.321 0 00.556-2.911v-2.816h-4.42zm23.54-9.813a5.4 5.4 0 00-2.671.656 5.078 5.078 0 00-1.912 1.886l-.271-2.186h-3.852a32.391 32.391 0 01.217 3.963v9.9h4.1v-7.763a3.318 3.318 0 01.809-2.356 2.823 2.823 0 012.17-.874 2 2 0 011.668.669 3.417 3.417 0 01.529 2.119v8.2h4.1v-8.391q0-5.823-4.882-5.823zm14.7 14.433a7.893 7.893 0 003.8-.875 6.028 6.028 0 002.508-2.515 8.742 8.742 0 000-7.653 6.028 6.028 0 00-2.508-2.515 7.9 7.9 0 00-3.8-.875 8.043 8.043 0 00-3.838.875 6.009 6.009 0 00-2.522 2.515 8.742 8.742 0 000 7.653 6.009 6.009 0 002.522 2.515 8.031 8.031 0 003.838.875zm0-3.143q-3.174 0-3.173-4.073a4.836 4.836 0 01.813-3.048 2.833 2.833 0 012.36-1.025 2.765 2.765 0 012.319 1.025 6.231 6.231 0 010 6.109 2.781 2.781 0 01-2.319 1.012zm18.334-7.846V6.506h-3.5V1.913l-4.094 1.337v3.253h-2.6v3.088h2.6v5.467a5.766 5.766 0 001.342 4.073 5.044 5.044 0 003.892 1.449 6.48 6.48 0 002.36-.383v-3.2a5.6 5.6 0 01-1.356.191 2.227 2.227 0 01-1.546-.533 2.144 2.144 0 01-.6-1.681V9.589h3.5zm13.8 10.77V6.501h-4.1v13.858h4.1zm-4.231-16.483h4.367V0h-4.367v3.881zm16.055 2.269a5.4 5.4 0 00-2.671.656 5.078 5.078 0 00-1.912 1.886l-.271-2.186h-3.852a32.391 32.391 0 01.217 3.963v9.9h4.1v-7.763a3.318 3.318 0 01.813-2.351 2.823 2.823 0 012.17-.874 2 2 0 011.668.669 3.417 3.417 0 01.529 2.119v8.2h4.095v-8.391q0-5.823-4.882-5.823zm16.788 3.444V6.506h-3.5V1.913l-4.1 1.34v3.253h-2.6v3.088h2.6v5.467a5.766 5.766 0 001.343 4.073 5.044 5.044 0 003.892 1.449 6.474 6.474 0 002.359-.383V17a5.592 5.592 0 01-1.356.191 2.23 2.23 0 01-1.546-.533 2.144 2.144 0 01-.6-1.681V9.592h3.5zm14.429 3.581a7.455 7.455 0 00-1.682-5.125 5.81 5.81 0 00-4.583-1.9 6.74 6.74 0 00-3.5.916 6.249 6.249 0 00-2.4 2.569 8.068 8.068 0 00-.855 3.759 7 7 0 001.98 5.262 7.483 7.483 0 005.452 1.927 9.76 9.76 0 002.915-.451 7.183 7.183 0 002.427-1.244l-1.084-2.788a6.729 6.729 0 01-1.953 1.039 6.6 6.6 0 01-2.116.355 3.621 3.621 0 01-2.657-.888 4.2 4.2 0 01-1-2.829h9.059v-.6zm-6.157-4.127q2.306 0 2.631 2.679h-5.452a3.442 3.442 0 01.936-2 2.624 2.624 0 011.885-.683zm16.733-2.87a4.528 4.528 0 00-2.481.7 4.052 4.052 0 00-1.614 2.009l-.271-2.378h-3.851a32.592 32.592 0 01.217 3.963v9.9h4.1v-7.243a3.424 3.424 0 01.854-2.474 3.287 3.287 0 012.482-.889 4.738 4.738 0 012.007.465l.027-3.772a3.512 3.512 0 00-1.465-.273zm15.188 7a7.46 7.46 0 00-1.681-5.125 5.812 5.812 0 00-4.584-1.9 6.734 6.734 0 00-3.5.916 6.258 6.258 0 00-2.4 2.569 8.08 8.08 0 00-.854 3.759 7 7 0 001.98 5.262 7.481 7.481 0 005.451 1.927 9.767 9.767 0 002.916-.451 7.193 7.193 0 002.427-1.244l-1.085-2.788a6.7 6.7 0 01-1.953 1.039 6.6 6.6 0 01-2.115.355 3.623 3.623 0 01-2.658-.888 4.2 4.2 0 01-1-2.829h9.058v-.6zm-6.156-4.127q2.3 0 2.63 2.679h-5.451a3.436 3.436 0 01.936-2 2.624 2.624 0 011.885-.683zm13.994 11.535a7.185 7.185 0 004.312-1.148 3.657 3.657 0 001.573-3.116 3.618 3.618 0 00-.949-2.624 6.128 6.128 0 00-3.065-1.476l-2.3-.52a2.911 2.911 0 01-1.207-.478.939.939 0 01-.339-.752 1.1 1.1 0 01.57-.984 2.958 2.958 0 011.573-.355 6.465 6.465 0 012.129.382 8.908 8.908 0 012.156 1.121l1.139-2.761a8.7 8.7 0 00-2.522-1.271 9.41 9.41 0 00-2.875-.451 7.824 7.824 0 00-3.065.561 4.838 4.838 0 00-2.075 1.571 3.774 3.774 0 00-.746 2.3 3.479 3.479 0 00.936 2.543 5.734 5.734 0 002.916 1.394l2.251.519a3.953 3.953 0 011.437.519.967.967 0 01.407.82 1.044 1.044 0 01-.57.957 3.293 3.293 0 01-1.627.328 8.861 8.861 0 01-2.712-.424 8.34 8.34 0 01-2.414-1.216l-1.085 2.87a10.019 10.019 0 006.157 1.695zm16.9-10.989V6.509h-3.5V1.916l-4.1 1.34v3.253h-2.6v3.088h2.6v5.467a5.766 5.766 0 001.343 4.073 5.044 5.044 0 003.892 1.449 6.474 6.474 0 002.359-.383v-3.2a5.592 5.592 0 01-1.356.191 2.23 2.23 0 01-1.546-.533 2.144 2.144 0 01-.6-1.681V9.595h3.5zm2.414 10.77h4.42v-4.4h-4.42v4.4z" fill="#fff" fill-rule="evenodd"/></svg>