<svg xmlns="http://www.w3.org/2000/svg" width="213.562" height="26.25"><path data-name="pennies to perks" d="M8.632 6.15a5.319 5.319 0 00-2.753.711A4.158 4.158 0 004.13 8.802l-.271-2.3H.007a32.391 32.391 0 01.217 3.963v15.8h4.1V18.31a4.158 4.158 0 001.735 1.668 5.446 5.446 0 002.577.6 5.632 5.632 0 005.316-3.376 8.8 8.8 0 00.759-3.758 8.942 8.942 0 00-.773-3.8 6.077 6.077 0 00-2.156-2.583 5.574 5.574 0 00-3.146-.916zM7.466 17.44a2.824 2.824 0 01-2.346-1.039 4.734 4.734 0 01-.827-3.007 4.8 4.8 0 01.827-3.021 2.811 2.811 0 012.346-1.052 2.744 2.744 0 012.319 1.093 4.937 4.937 0 01.827 3.035 4.675 4.675 0 01-.814 2.965 2.8 2.8 0 01-2.332 1.026zm22.215-4.27a7.455 7.455 0 00-1.682-5.125 5.81 5.81 0 00-4.583-1.9 6.74 6.74 0 00-3.5.916 6.262 6.262 0 00-2.4 2.569 8.068 8.068 0 00-.854 3.759 7 7 0 001.98 5.262 7.479 7.479 0 005.451 1.927 9.76 9.76 0 002.915-.451 7.2 7.2 0 002.428-1.244l-1.085-2.788a6.729 6.729 0 01-1.953 1.039 6.6 6.6 0 01-2.115.355 3.623 3.623 0 01-2.658-.888 4.2 4.2 0 01-1-2.829h9.056v-.6zm-6.157-4.127q2.306 0 2.631 2.679h-5.454a3.435 3.435 0 01.935-2 2.626 2.626 0 011.885-.683zm17.222-2.9a5.4 5.4 0 00-2.671.656 5.088 5.088 0 00-1.913 1.886l-.271-2.186H32.04a32.391 32.391 0 01.217 3.963v9.895h4.1v-7.763a3.318 3.318 0 01.814-2.351 2.82 2.82 0 012.17-.874 2 2 0 011.668.669 3.425 3.425 0 01.528 2.119v8.2h4.1v-8.391q0-5.823-4.882-5.823zm16.625 0a5.4 5.4 0 00-2.671.656 5.078 5.078 0 00-1.912 1.886l-.272-2.186h-3.851a32.391 32.391 0 01.217 3.963v9.895h4.1v-7.763a3.318 3.318 0 01.814-2.351 2.82 2.82 0 012.17-.874 2 2 0 011.668.669 3.424 3.424 0 01.529 2.119v8.2h4.1v-8.391q0-5.823-4.882-5.823zm12.231 14.214V6.501h-4.1v13.858h4.1zm-4.23-16.483h4.366V-.007h-4.366v3.881zm19.906 9.294a7.46 7.46 0 00-1.681-5.125 5.812 5.812 0 00-4.584-1.9 6.74 6.74 0 00-3.5.916 6.262 6.262 0 00-2.4 2.569 8.08 8.08 0 00-.854 3.759 7 7 0 001.98 5.262 7.481 7.481 0 005.451 1.927 9.772 9.772 0 002.916-.451 7.193 7.193 0 002.427-1.244l-1.085-2.788a6.717 6.717 0 01-1.953 1.039 6.6 6.6 0 01-2.115.355 3.623 3.623 0 01-2.658-.888 4.2 4.2 0 01-1-2.829h9.058v-.6zm-6.156-4.127q2.3 0 2.63 2.679h-5.451a3.43 3.43 0 01.936-2 2.624 2.624 0 011.885-.683zm13.994 11.535a7.185 7.185 0 004.312-1.148 3.657 3.657 0 001.573-3.116 3.618 3.618 0 00-.949-2.624 6.128 6.128 0 00-3.065-1.476l-2.3-.52a2.911 2.911 0 01-1.207-.478.939.939 0 01-.339-.752 1.106 1.106 0 01.569-.984 2.965 2.965 0 011.574-.355 6.465 6.465 0 012.129.382 8.926 8.926 0 012.156 1.121l1.139-2.761a8.7 8.7 0 00-2.523-1.271 9.4 9.4 0 00-2.874-.451 7.824 7.824 0 00-3.065.561 4.838 4.838 0 00-2.075 1.571 3.774 3.774 0 00-.746 2.3 3.479 3.479 0 00.936 2.543 5.734 5.734 0 002.916 1.394l2.251.519a3.953 3.953 0 011.437.519.967.967 0 01.407.82 1.044 1.044 0 01-.57.957 3.293 3.293 0 01-1.627.328 8.861 8.861 0 01-2.712-.424 8.34 8.34 0 01-2.414-1.216l-1.085 2.87a10.019 10.019 0 006.157 1.695zm24.652-10.989V6.499h-3.5V1.906l-4.1 1.34v3.253h-2.6v3.088h2.6v5.467a5.766 5.766 0 001.343 4.073 5.044 5.044 0 003.892 1.449 6.47 6.47 0 002.359-.383v-3.2a5.592 5.592 0 01-1.356.191 2.23 2.23 0 01-1.546-.533 2.147 2.147 0 01-.6-1.681V9.585h3.5zm8.652 10.989a7.893 7.893 0 003.8-.875 6.036 6.036 0 002.509-2.515 8.75 8.75 0 000-7.653 6.036 6.036 0 00-2.509-2.515 7.9 7.9 0 00-3.8-.875 8.043 8.043 0 00-3.838.875 6.009 6.009 0 00-2.522 2.515 8.75 8.75 0 000 7.653 6.009 6.009 0 002.522 2.515 8.031 8.031 0 003.838.875zm0-3.143q-3.173 0-3.173-4.073a4.836 4.836 0 01.813-3.048 2.833 2.833 0 012.36-1.025 2.765 2.765 0 012.319 1.025 6.231 6.231 0 010 6.109 2.781 2.781 0 01-2.319 1.012zm25.846-11.29a5.319 5.319 0 00-2.753.711 4.158 4.158 0 00-1.749 1.941l-.271-2.3h-3.852a32.391 32.391 0 01.217 3.963v15.8h4.1v-7.955a4.158 4.158 0 001.735 1.668 5.446 5.446 0 002.577.6 5.632 5.632 0 005.316-3.376 8.8 8.8 0 00.759-3.758 8.942 8.942 0 00-.773-3.8 6.077 6.077 0 00-2.156-2.583 5.574 5.574 0 00-3.146-.916zm-1.166 11.29a2.824 2.824 0 01-2.346-1.039 4.734 4.734 0 01-.828-3.007 4.8 4.8 0 01.828-3.021 2.811 2.811 0 012.346-1.052 2.744 2.744 0 012.319 1.093 4.937 4.937 0 01.827 3.035 4.675 4.675 0 01-.814 2.965 2.8 2.8 0 01-2.332 1.026zm22.212-4.265a7.455 7.455 0 00-1.682-5.125 5.81 5.81 0 00-4.583-1.9 6.74 6.74 0 00-3.5.916 6.262 6.262 0 00-2.4 2.569 8.068 8.068 0 00-.854 3.759 7 7 0 001.98 5.262 7.479 7.479 0 005.451 1.927 9.76 9.76 0 002.915-.451 7.2 7.2 0 002.428-1.244l-1.085-2.788a6.729 6.729 0 01-1.953 1.039 6.6 6.6 0 01-2.115.355 3.622 3.622 0 01-2.658-.888 4.2 4.2 0 01-1-2.829h9.059v-.6zm-6.157-4.127q2.306 0 2.631 2.679h-5.451a3.435 3.435 0 01.935-2 2.626 2.626 0 011.885-.683zm16.734-2.87a4.532 4.532 0 00-2.482.7 4.057 4.057 0 00-1.614 2.009l-.271-2.378h-3.851a32.391 32.391 0 01.217 3.963v9.895h4.093v-7.243a3.42 3.42 0 01.855-2.474 3.284 3.284 0 012.481-.889 4.738 4.738 0 012.007.465l.027-3.772a3.51 3.51 0 00-1.464-.273zm11.445 7l5.831-6.642h-4.909l-5.153 5.932V.241h-4.1v20.118h4.1v-6.2l5.4 6.2h5.017zm12.34 7.408a7.185 7.185 0 004.312-1.148 3.655 3.655 0 001.573-3.116 3.618 3.618 0 00-.949-2.624 6.123 6.123 0 00-3.065-1.476l-2.3-.52a2.911 2.911 0 01-1.207-.478.939.939 0 01-.339-.752 1.1 1.1 0 01.57-.984 2.961 2.961 0 011.573-.355 6.461 6.461 0 012.129.382 8.908 8.908 0 012.156 1.121l1.139-2.761a8.69 8.69 0 00-2.522-1.271 9.41 9.41 0 00-2.875-.451 7.824 7.824 0 00-3.065.561 4.838 4.838 0 00-2.075 1.571 3.774 3.774 0 00-.746 2.3 3.479 3.479 0 00.936 2.543 5.734 5.734 0 002.916 1.394l2.251.519a3.953 3.953 0 011.437.519.967.967 0 01.407.82 1.044 1.044 0 01-.57.957 3.293 3.293 0 01-1.627.328 8.861 8.861 0 01-2.712-.424 8.34 8.34 0 01-2.414-1.216l-1.085 2.87a10.019 10.019 0 006.157 1.695z" fill="#f36a20" fill-rule="evenodd"/></svg>