<svg width="89" height="22" xmlns="http://www.w3.org/2000/svg" xmlns:xlink="http://www.w3.org/1999/xlink"><svg width="88.69" height="10.59" viewBox="-1 -1 88.69 10.59" xmlns="http://www.w3.org/2000/svg"><path data-name="Get started" d="M4.2 3.965v1.094h1.857v2.118a6.3 6.3 0 01-1.664.223 2.653 2.653 0 01-2.086-.782 3.387 3.387 0 01-.7-2.324 3.343 3.343 0 01.681-2.27 2.528 2.528 0 012.008-.777 3.863 3.863 0 011.266.2 4.3 4.3 0 011.182.659L7.275 1a3.7 3.7 0 00-1.32-.729A5.4 5.4 0 004.261.012 4.665 4.665 0 002.012.53 3.568 3.568 0 00.535 2.012a4.752 4.752 0 00-.518 2.282A4.8 4.8 0 00.535 6.6a3.538 3.538 0 001.5 1.483 4.853 4.853 0 002.3.518 8.72 8.72 0 001.7-.165 6.047 6.047 0 001.423-.447V3.965H4.2zm11.348 4.53v-1.2h-4.221V4.836h3.967v-1.2h-3.967V1.318h4.217v-1.2h-5.74v8.377h5.74zm5.631 0v-7.13h2.81V.118h-7.175v1.247h2.8v7.13h1.568zm11.3.106a4.929 4.929 0 001.821-.306 2.612 2.612 0 001.182-.865 2.16 2.16 0 00.41-1.312 1.761 1.761 0 00-.362-1.135 2.6 2.6 0 00-1.037-.741 10.584 10.584 0 00-1.749-.536 5.179 5.179 0 01-1.465-.482.83.83 0 01-.428-.753 1.055 1.055 0 01.482-.912 2.273 2.273 0 011.314-.335 4.021 4.021 0 012.532.894l.519-1.106a3.606 3.606 0 00-1.333-.735 5.506 5.506 0 00-1.718-.265 4.326 4.326 0 00-1.743.332 2.729 2.729 0 00-1.164.906 2.219 2.219 0 00-.41 1.318 1.837 1.837 0 00.736 1.577 6.279 6.279 0 002.352.882 5.8 5.8 0 011.489.476.792.792 0 01.452.724.961.961 0 01-.488.859 2.6 2.6 0 01-1.381.306 4.873 4.873 0 01-1.489-.218 4.581 4.581 0 01-1.309-.676l-.531 1.1a4.293 4.293 0 001.465.742 6.427 6.427 0 001.851.259zm8.865-.106v-7.13h2.81V.118h-7.178v1.247h2.8v7.13h1.568zm11.54 0L48.989.118h-1.268l-3.883 8.377h1.568l.868-1.965h4.2l.856 1.965h1.556zm-4.51-6.73l1.58 3.588h-3.162zm12.059 4.047a1.485 1.485 0 00-1.1-1.035 2.451 2.451 0 001.284-.83 2.239 2.239 0 00.452-1.417 2.182 2.182 0 00-.76-1.789A3.429 3.429 0 0058.09.118h-3.677v8.377h1.544V5.012h1.556a1.735 1.735 0 01.784.153.939.939 0 01.446.541l1.1 2.789h1.64zm-4.5-1.976V1.294h1.941a2.193 2.193 0 011.308.312 1.108 1.108 0 01.416.947 1.13 1.13 0 01-.422.965 2.165 2.165 0 01-1.3.318h-1.943zm10.889 4.659v-7.13h2.81V.118h-7.175v1.247h2.8v7.13h1.568zm10.226 0v-1.2h-4.221V4.836h3.968v-1.2h-3.968V1.318h4.217v-1.2h-5.74v8.377h5.74zm2.038 0h3.158a4.581 4.581 0 003.274-1.1 4.687 4.687 0 000-6.183A4.6 4.6 0 0082.244.118h-3.159v8.377zm1.555-1.236V1.353h1.508q2.965 0 2.966 2.941a2.621 2.621 0 01-2.966 2.965h-1.505z" fill="#fff" fill-rule="evenodd"/></svg><svg width="88.69" height="10.59" viewBox="-1 -1 88.69 10.59" y="10.59" xmlns="http://www.w3.org/2000/svg"><path data-name="Get started" d="M4.2 3.965v1.094h1.857v2.118a6.3 6.3 0 01-1.664.223 2.653 2.653 0 01-2.086-.782 3.387 3.387 0 01-.7-2.324 3.343 3.343 0 01.681-2.27 2.528 2.528 0 012.008-.777 3.863 3.863 0 011.266.2 4.3 4.3 0 011.182.659L7.275 1a3.7 3.7 0 00-1.32-.729A5.4 5.4 0 004.261.012 4.665 4.665 0 002.012.53 3.568 3.568 0 00.535 2.012a4.752 4.752 0 00-.518 2.282A4.8 4.8 0 00.535 6.6a3.538 3.538 0 001.5 1.483 4.853 4.853 0 002.3.518 8.72 8.72 0 001.7-.165 6.047 6.047 0 001.423-.447V3.965H4.2zm11.348 4.53v-1.2h-4.221V4.836h3.967v-1.2h-3.967V1.318h4.217v-1.2h-5.74v8.377h5.74zm5.631 0v-7.13h2.81V.118h-7.175v1.247h2.8v7.13h1.568zm11.3.106a4.929 4.929 0 001.821-.306 2.612 2.612 0 001.182-.865 2.16 2.16 0 00.41-1.312 1.761 1.761 0 00-.362-1.135 2.6 2.6 0 00-1.037-.741 10.584 10.584 0 00-1.749-.536 5.179 5.179 0 01-1.465-.482.83.83 0 01-.428-.753 1.055 1.055 0 01.482-.912 2.273 2.273 0 011.314-.335 4.021 4.021 0 012.532.894l.519-1.106a3.606 3.606 0 00-1.333-.735 5.506 5.506 0 00-1.718-.265 4.326 4.326 0 00-1.743.332 2.729 2.729 0 00-1.164.906 2.219 2.219 0 00-.41 1.318 1.837 1.837 0 00.736 1.577 6.279 6.279 0 002.352.882 5.8 5.8 0 011.489.476.792.792 0 01.452.724.961.961 0 01-.488.859 2.6 2.6 0 01-1.381.306 4.873 4.873 0 01-1.489-.218 4.581 4.581 0 01-1.309-.676l-.531 1.1a4.293 4.293 0 001.465.742 6.427 6.427 0 001.851.259zm8.865-.106v-7.13h2.81V.118h-7.178v1.247h2.8v7.13h1.568zm11.54 0L48.989.118h-1.268l-3.883 8.377h1.568l.868-1.965h4.2l.856 1.965h1.556zm-4.51-6.73l1.58 3.588h-3.162zm12.059 4.047a1.485 1.485 0 00-1.1-1.035 2.451 2.451 0 001.284-.83 2.239 2.239 0 00.452-1.417 2.182 2.182 0 00-.76-1.789A3.429 3.429 0 0058.09.118h-3.677v8.377h1.544V5.012h1.556a1.735 1.735 0 01.784.153.939.939 0 01.446.541l1.1 2.789h1.64zm-4.5-1.976V1.294h1.941a2.193 2.193 0 011.308.312 1.108 1.108 0 01.416.947 1.13 1.13 0 01-.422.965 2.165 2.165 0 01-1.3.318h-1.943zm10.889 4.659v-7.13h2.81V.118h-7.175v1.247h2.8v7.13h1.568zm10.226 0v-1.2h-4.221V4.836h3.968v-1.2h-3.968V1.318h4.217v-1.2h-5.74v8.377h5.74zm2.038 0h3.158a4.581 4.581 0 003.274-1.1 4.687 4.687 0 000-6.183A4.6 4.6 0 0082.244.118h-3.159v8.377zm1.555-1.236V1.353h1.508q2.965 0 2.966 2.941a2.621 2.621 0 01-2.966 2.965h-1.505z" fill="#fff" fill-rule="evenodd"/></svg></svg>