<svg width="103" height="13" xmlns="http://www.w3.org/2000/svg" xmlns:xlink="http://www.w3.org/1999/xlink"><svg width="103" height="12.31" viewBox="-1 -1 103 12.31" xmlns="http://www.w3.org/2000/svg"><path data-name="Get started" d="M4.882 4.746v1.313h2.164V8.6a7.132 7.132 0 01-1.939.268 3.046 3.046 0 01-2.431-.938 4.15 4.15 0 01-.815-2.788 4.1 4.1 0 01.794-2.725 2.9 2.9 0 012.34-.932 4.4 4.4 0 011.475.24 4.985 4.985 0 011.377.791l.615-1.328A4.278 4.278 0 006.924.313 6.14 6.14 0 004.95.002a5.308 5.308 0 00-2.621.621A4.226 4.226 0 00.608 2.402a5.843 5.843 0 00-.6 2.739 5.9 5.9 0 00.6 2.766A4.188 4.188 0 002.35 9.686a5.52 5.52 0 002.684.621 9.948 9.948 0 001.981-.2 6.885 6.885 0 001.658-.537V4.742H4.882zm13.222 5.435v-1.44h-4.918V5.788h4.623v-1.44h-4.623V1.567h4.918V.127h-6.688v10.051h6.688zm6.561 0V1.627h3.274v-1.5h-8.36v1.5h3.26v8.554h1.823zm13.165.127a5.593 5.593 0 002.122-.367 3.052 3.052 0 001.377-1.037 2.646 2.646 0 00.478-1.574 2.16 2.16 0 00-.422-1.363 3.042 3.042 0 00-1.208-.889 12.143 12.143 0 00-2.038-.642 5.914 5.914 0 01-1.707-.579 1 1 0 01-.5-.9 1.277 1.277 0 01.562-1.094 2.583 2.583 0 011.532-.4 4.6 4.6 0 012.951 1.073l.6-1.327a4.2 4.2 0 00-1.553-.882 6.252 6.252 0 00-2-.318 4.892 4.892 0 00-2.03.4 3.18 3.18 0 00-1.356 1.086 2.716 2.716 0 00-.478 1.582 2.228 2.228 0 00.857 1.891 7.185 7.185 0 002.74 1.059 6.56 6.56 0 011.735.572.95.95 0 01.527.868 1.16 1.16 0 01-.569 1.03 2.962 2.962 0 01-1.609.367 5.528 5.528 0 01-1.735-.261 5.262 5.262 0 01-1.524-.812l-.62 1.317a4.954 4.954 0 001.708.89 7.259 7.259 0 002.156.31zm10.327-.127V1.627h3.274v-1.5h-8.36v1.5h3.26v8.554h1.831zm13.447 0L57.062.13h-1.475l-4.525 10.051h1.826L53.9 7.824h4.89l1 2.357h1.813zm-5.255-8.074l1.84 4.305h-3.681zm14.05 4.856a1.752 1.752 0 00-1.278-1.243 2.846 2.846 0 001.5-1 2.746 2.746 0 00.527-1.7 2.654 2.654 0 00-.885-2.146 3.913 3.913 0 00-2.585-.748h-4.286v10.051h1.8V5.999h1.812a1.973 1.973 0 01.913.183 1.122 1.122 0 01.52.65l1.279 3.345h1.911zm-5.237-2.375V1.539h2.262a2.5 2.5 0 011.524.374 1.345 1.345 0 01.485 1.136 1.373 1.373 0 01-.492 1.158 2.47 2.47 0 01-1.517.381h-2.262zm12.687 5.59V1.624h3.274v-1.5h-8.361v1.5h3.26v8.554h1.826zm11.915 0v-1.44h-4.918v-2.95h4.616v-1.44h-4.623V1.567h4.923V.127h-6.688v10.051h6.688zm2.374 0h3.682a5.239 5.239 0 003.814-1.32 5.75 5.75 0 000-7.418A5.258 5.258 0 0095.82.127h-3.682v10.051zm1.813-1.482V1.61h1.756q3.457 0 3.457 3.529 0 3.557-3.457 3.557h-1.756z" fill="#fff" fill-rule="evenodd"/></svg></svg>