<svg width="77" height="10" xmlns="http://www.w3.org/2000/svg" xmlns:xlink="http://www.w3.org/1999/xlink"><svg width="76.63" height="9.59" viewBox="-1 -1 76.63 9.59" xmlns="http://www.w3.org/2000/svg"><path data-name="get started" d="M3.609 3.494v.965h1.6v1.869a5.319 5.319 0 01-1.432.2 2.255 2.255 0 01-1.8-.69 3.043 3.043 0 01-.6-2.051 3 3 0 01.587-2 2.148 2.148 0 011.728-.685 3.26 3.26 0 011.09.176 3.675 3.675 0 011.017.582l.457-.976A3.17 3.17 0 005.119.24 4.558 4.558 0 003.661.012a3.929 3.929 0 00-1.936.457A3.106 3.106 0 00.453 1.777 4.276 4.276 0 00.007 3.79a4.328 4.328 0 00.446 2.035A3.094 3.094 0 001.74 7.133a4.1 4.1 0 001.983.457 7.334 7.334 0 001.464-.146 5.108 5.108 0 001.225-.394V3.5h-2.8zm9.768 4V6.435H9.744V4.266h3.415V3.2H9.744V1.155h3.633V.1H8.436v7.391h4.941zm4.847 0V1.2h2.419V.1h-6.174v1.1h2.408v6.29h1.349zm9.726.094a4.149 4.149 0 001.567-.27 2.253 2.253 0 001.017-.763 1.939 1.939 0 00.353-1.158 1.578 1.578 0 00-.312-1 2.229 2.229 0 00-.893-.654 9.013 9.013 0 00-1.505-.473 4.362 4.362 0 01-1.261-.425.735.735 0 01-.368-.665.935.935 0 01.415-.8 1.918 1.918 0 011.131-.3 3.408 3.408 0 012.18.789l.446-.976a3.094 3.094 0 00-1.147-.648 4.638 4.638 0 00-1.479-.234 3.632 3.632 0 00-1.5.291 2.348 2.348 0 00-1 .8 1.99 1.99 0 00-.353 1.163 1.632 1.632 0 00.633 1.39 5.316 5.316 0 002.024.779 4.938 4.938 0 011.282.42.7.7 0 01.389.639.853.853 0 01-.42.758 2.2 2.2 0 01-1.189.269 4.071 4.071 0 01-1.282-.192 3.912 3.912 0 01-1.126-.6l-.457.975a3.653 3.653 0 001.261.654 5.4 5.4 0 001.593.229zm7.63-.094V1.2h2.419V.1h-6.176v1.1h2.408v6.29h1.35zm9.934 0L42.161.1h-1.092l-3.34 7.39h1.349l.747-1.733h3.612l.737 1.733h1.339zm-3.882-5.937l1.36 3.166h-2.723zm10.38 3.57a1.291 1.291 0 00-.945-.913 2.1 2.1 0 001.106-.732 2.009 2.009 0 00.389-1.251 1.944 1.944 0 00-.654-1.577 2.9 2.9 0 00-1.91-.551h-3.165v7.391h1.329V4.422h1.339a1.462 1.462 0 01.675.135.825.825 0 01.384.477l.945 2.46h1.412zM48.14 3.384V1.141h1.671a1.848 1.848 0 011.126.276.985.985 0 01.358.835 1.007 1.007 0 01-.363.851 1.829 1.829 0 01-1.121.281h-1.67zm9.374 4.11V1.2h2.419V.1h-6.177v1.1h2.413v6.29h1.349zm8.8 0V6.435h-3.631V4.266h3.416V3.2h-3.416V1.155h3.633V.1h-4.941v7.391h4.941zm1.754 0h2.719a3.885 3.885 0 002.819-.97 4.216 4.216 0 000-5.455 3.9 3.9 0 00-2.819-.966h-2.718v7.391zm1.339-1.09V1.193h1.3a2.606 2.606 0 010 5.211h-1.3z" fill="#fff" fill-rule="evenodd"/></svg></svg>