<svg xmlns="http://www.w3.org/2000/svg" width="108.282" height="9.56"><path data-name="Outsmart Interest" d="M4.438 9.57a4.582 4.582 0 002.361-.58 3.913 3.913 0 001.535-1.67 6.332 6.332 0 00.006-5.09A3.827 3.827 0 006.805.57a5.2 5.2 0 00-4.735 0A3.87 3.87 0 00.529 2.23a6.251 6.251 0 00.007 5.09 3.927 3.927 0 001.547 1.67 4.59 4.59 0 002.355.58zm0-1.35a2.464 2.464 0 01-2.02-.89 4 4 0 01-.722-2.56 3.9 3.9 0 01.722-2.54 2.758 2.758 0 014.04 0 3.935 3.935 0 01.721 2.54 4 4 0 01-.721 2.56 2.464 2.464 0 01-2.02.89zm10.3-5.39v3.69a1.812 1.812 0 01-.432 1.26 1.507 1.507 0 01-1.155.47 1.164 1.164 0 01-.911-.34 1.607 1.607 0 01-.295-1.07V2.83h-1.627v4q0 2.73 2.427 2.73a2.487 2.487 0 001.206-.29 2.121 2.121 0 00.84-.84v1.02h1.6V2.83h-1.653zm7.149 1.23V2.83h-1.758V.67l-1.639.55v1.61h-1.282v1.23h1.273v3.05a2.527 2.527 0 00.6 1.81 2.284 2.284 0 001.731.63 3.212 3.212 0 001.05-.16v-1.3a2.337 2.337 0 01-.656.11 1 1 0 01-1.089-1.17V4.06h1.758zm3.423 5.5a3.325 3.325 0 002.007-.54 1.7 1.7 0 00.735-1.45 1.679 1.679 0 00-.453-1.22 2.857 2.857 0 00-1.436-.69l-1.128-.25a1.524 1.524 0 01-.649-.28.6.6 0 01-.191-.46.657.657 0 01.315-.58 1.574 1.574 0 01.879-.21 3.4 3.4 0 012.046.73l.486-1.11a3.528 3.528 0 00-1.155-.62 4.17 4.17 0 00-1.364-.22 3.719 3.719 0 00-1.43.26 2.283 2.283 0 00-.957.73 1.765 1.765 0 00-.341 1.07c0 .97.6 1.59 1.81 1.85l1.1.25a2.074 2.074 0 01.761.31.556.556 0 01.223.47.635.635 0 01-.322.56 1.769 1.769 0 01-.911.19 3.994 3.994 0 01-2.427-.78l-.459 1.15a4.483 4.483 0 002.859.84zm11.832-6.9a2.605 2.605 0 00-1.306.33 2.367 2.367 0 00-.9.93 1.888 1.888 0 00-1.981-1.26 2.449 2.449 0 00-1.252.31 2.1 2.1 0 00-.833.91l-.118-1.05h-1.535a15.066 15.066 0 01.1 1.88v4.74h1.621V5.76a2.025 2.025 0 01.394-1.32 1.316 1.316 0 011.075-.48 1.011 1.011 0 01.847.35 1.888 1.888 0 01.268 1.13v4.01h1.64V5.76a2.047 2.047 0 01.387-1.32 1.3 1.3 0 011.069-.48.962.962 0 01.846.35 1.943 1.943 0 01.256 1.13v4.01h1.639V5.39a3.188 3.188 0 00-.551-2.05 2.042 2.042 0 00-1.678-.68zm8.565.17v1a2.087 2.087 0 00-.866-.86 2.591 2.591 0 00-1.286-.31 2.732 2.732 0 00-1.521.44 2.893 2.893 0 00-1.043 1.23 4.244 4.244 0 00-.374 1.82 4.179 4.179 0 00.368 1.8 2.791 2.791 0 001.036 1.19 2.823 2.823 0 001.534.42 2.591 2.591 0 001.286-.31 2.087 2.087 0 00.866-.86v1.06h1.613V2.83h-1.622zm-1.706 5.44a1.554 1.554 0 01-1.279-.55 2.4 2.4 0 01-.452-1.57 2.593 2.593 0 01.452-1.62 1.7 1.7 0 012.539-.02 3.093 3.093 0 010 3.2 1.5 1.5 0 01-1.26.56zm8.539-5.6a2.293 2.293 0 00-1.22.34 1.991 1.991 0 00-.787.99l-.131-1.17h-1.534a15.274 15.274 0 01.1 1.88v4.74h1.627V5.87a1.827 1.827 0 01.439-1.28 1.617 1.617 0 011.279-.49 2.355 2.355 0 01.866.17l.013-1.49a1.837 1.837 0 00-.656-.11zm5.889 1.39V2.83h-1.757V.67l-1.64.55v1.61H53.76v1.23h1.272v3.05a2.523 2.523 0 00.6 1.81 2.284 2.284 0 001.731.63 3.2 3.2 0 001.049-.16v-1.3a2.332 2.332 0 01-.656.11 1 1 0 01-1.088-1.17V4.06h1.757zm6.27 5.39V.12h-1.701v9.33h1.692zm5.561-6.79a2.629 2.629 0 00-1.318.33 2.424 2.424 0 00-.925.93l-.118-1.09h-1.534a15.066 15.066 0 01.105 1.88v4.74h1.626V5.7a1.747 1.747 0 01.459-1.26 1.593 1.593 0 011.207-.48 1.146 1.146 0 01.931.36 1.773 1.773 0 01.3 1.15v3.98h1.639V5.39q0-2.73-2.374-2.73zm7.831 1.4V2.83h-1.758V.67l-1.639.55v1.61h-1.273v1.23h1.273v3.05a2.527 2.527 0 00.6 1.81 2.284 2.284 0 001.731.63 3.212 3.212 0 001.05-.16v-1.3a2.337 2.337 0 01-.656.11 1 1 0 01-1.089-1.17V4.06h1.758zm6.794 1.92a3.508 3.508 0 00-.793-2.43 2.724 2.724 0 00-2.158-.89 3.211 3.211 0 00-1.666.44 2.958 2.958 0 00-1.141 1.23 3.826 3.826 0 00-.406 1.79 3.371 3.371 0 00.931 2.52 3.494 3.494 0 002.558.92 4.473 4.473 0 001.4-.23 3.686 3.686 0 001.161-.61l-.472-1.13a3.284 3.284 0 01-2.02.71 1.861 1.861 0 01-1.423-.51 2.354 2.354 0 01-.531-1.56h4.564v-.25zm-2.912-2.14a1.391 1.391 0 011.03.38 1.832 1.832 0 01.453 1.13h-3.083a1.9 1.9 0 01.531-1.12 1.5 1.5 0 011.069-.39zm7.739-1.17a2.293 2.293 0 00-1.22.34 1.991 1.991 0 00-.787.99l-.131-1.17h-1.535a15.066 15.066 0 01.105 1.88v4.74h1.627V5.87a1.827 1.827 0 01.439-1.28 1.617 1.617 0 011.279-.49 2.355 2.355 0 01.866.17l.013-1.49a1.837 1.837 0 00-.656-.11zm7.109 3.31a3.508 3.508 0 00-.793-2.43 2.723 2.723 0 00-2.158-.89 3.211 3.211 0 00-1.666.44 2.965 2.965 0 00-1.141 1.23 3.826 3.826 0 00-.406 1.79 3.371 3.371 0 00.931 2.52 3.494 3.494 0 002.558.92 4.479 4.479 0 001.4-.23 3.692 3.692 0 001.16-.61l-.472-1.13a3.284 3.284 0 01-2.02.71 1.861 1.861 0 01-1.423-.51 2.354 2.354 0 01-.531-1.56h4.564v-.25zM93.91 3.84a1.39 1.39 0 011.029.38 1.832 1.832 0 01.453 1.13h-3.083a1.9 1.9 0 01.532-1.12 1.492 1.492 0 011.069-.39zm6.6 5.72a3.325 3.325 0 002.007-.54 1.7 1.7 0 00.735-1.45 1.679 1.679 0 00-.453-1.22 2.862 2.862 0 00-1.436-.69l-1.128-.25a1.529 1.529 0 01-.65-.28.6.6 0 01-.19-.46.657.657 0 01.315-.58 1.574 1.574 0 01.879-.21 3.408 3.408 0 012.046.73l.485-1.11a3.513 3.513 0 00-1.154-.62 4.17 4.17 0 00-1.364-.22 3.719 3.719 0 00-1.43.26 2.283 2.283 0 00-.957.73 1.765 1.765 0 00-.341 1.07c0 .97.6 1.59 1.81 1.85l1.1.25a2.059 2.059 0 01.76.31.553.553 0 01.223.47.634.634 0 01-.321.56 1.77 1.77 0 01-.912.19 3.993 3.993 0 01-2.426-.78l-.459 1.15a4.483 4.483 0 002.859.84zm7.791-5.5V2.83h-1.757V.67l-1.64.55v1.61h-1.272v1.23h1.272v3.05a2.523 2.523 0 00.6 1.81 2.284 2.284 0 001.731.63 3.2 3.2 0 001.049-.16v-1.3a2.331 2.331 0 01-.655.11 1 1 0 01-1.089-1.17V4.06h1.757z" fill="#5d5656" fill-rule="evenodd"/></svg>