<svg xmlns="http://www.w3.org/2000/svg" width="387.875" height="31.875"><path data-name="Earn AAdvantage® miles" d="M16.073 24.551V20.6h-11.1v-5.887h10.413v-3.988H4.972V5.234h11.1V1.278H-.006v23.273h16.079zM31.039 7.979v2.353a5.452 5.452 0 00-2.129-2.027 6.382 6.382 0 00-3.111-.752 6.774 6.774 0 00-3.8 1.095 7.283 7.283 0 00-2.6 3.089 10.6 10.6 0 00-.933 4.543 10.272 10.272 0 00.933 4.495 6.8 6.8 0 006.4 4.037 6.617 6.617 0 003.111-.719 5.222 5.222 0 002.129-1.993v2.452h4.88V7.979h-4.88zm-3.8 13.075a3.484 3.484 0 01-2.865-1.226 5.492 5.492 0 01-1-3.547 5.784 5.784 0 011.015-3.628 3.4 3.4 0 012.849-1.307 3.362 3.362 0 012.819 1.254 5.764 5.764 0 01.983 3.612 5.691 5.691 0 01-.983 3.6 3.379 3.379 0 01-2.816 1.242zM49.573 7.587a5.517 5.517 0 00-3 .834 4.857 4.857 0 00-1.948 2.4l-.327-2.844h-4.647a38.515 38.515 0 01.262 4.74v11.834h4.945v-8.662a4.068 4.068 0 011.032-2.958 3.988 3.988 0 013-1.062 5.776 5.776 0 012.424.556l.032-4.511a4.274 4.274 0 00-1.768-.327zm14.016-.033a6.576 6.576 0 00-3.226.784 6.106 6.106 0 00-2.309 2.255l-.327-2.615h-4.65a38.607 38.607 0 01.261 4.74v11.833h4.945v-9.283a3.94 3.94 0 01.983-2.811 3.424 3.424 0 012.62-1.046 2.422 2.422 0 012.014.8 4.063 4.063 0 01.638 2.533v9.806h4.945V14.517q0-6.962-5.894-6.962zm42.211 17L95.092 1.278h-4.126L80.257 24.551h5.142l2.227-5.165h10.905l2.226 5.165h5.044zM93.095 6.77l3.766 8.727h-7.532zm37.561 17.782L119.947 1.278h-4.128l-10.706 23.273h5.141l2.227-5.165h10.905l2.227 5.165h5.043zM117.95 6.77l3.769 8.73h-7.532zM144.019.494V10.2a5.184 5.184 0 00-2.128-1.945 6.6 6.6 0 00-3.046-.7 6.9 6.9 0 00-3.815 1.062 7.147 7.147 0 00-2.587 3.007 10.276 10.276 0 00-.933 4.494 10.491 10.491 0 00.933 4.527 7.294 7.294 0 002.6 3.073 6.772 6.772 0 003.8 1.095 6.617 6.617 0 003.111-.719 5.226 5.226 0 002.129-1.994v2.452h4.879V.494h-4.943zm-3.733 20.56a3.415 3.415 0 01-2.849-1.291 5.77 5.77 0 01-1.015-3.645 5.444 5.444 0 011.015-3.53 3.472 3.472 0 012.849-1.242 3.374 3.374 0 012.8 1.258 5.636 5.636 0 011 3.579 5.763 5.763 0 01-.983 3.612 3.361 3.361 0 01-2.816 1.258zm19.779-2.321l-4.257-10.721h-5.174l7.2 16.54h4.192l7.3-16.539h-4.879zm22.334-10.754v2.353a5.449 5.449 0 00-2.129-2.027 6.382 6.382 0 00-3.111-.752 6.771 6.771 0 00-3.8 1.095 7.279 7.279 0 00-2.6 3.089 10.6 10.6 0 00-.933 4.543 10.275 10.275 0 00.933 4.495 6.8 6.8 0 006.4 4.037 6.617 6.617 0 003.111-.719 5.219 5.219 0 002.129-1.994v2.452h4.879V7.979h-4.879zm-3.8 13.075a3.484 3.484 0 01-2.865-1.226 5.493 5.493 0 01-1-3.547 5.784 5.784 0 011.015-3.628 3.4 3.4 0 012.849-1.307 3.363 3.363 0 012.821 1.254 5.764 5.764 0 01.982 3.612 5.691 5.691 0 01-.982 3.6 3.38 3.38 0 01-2.817 1.242zm22.923-13.5a6.569 6.569 0 00-3.225.784 6.1 6.1 0 00-2.309 2.255l-.328-2.615h-4.65a38.4 38.4 0 01.262 4.74v11.833h4.947v-9.283a3.94 3.94 0 01.983-2.811 3.422 3.422 0 012.619-1.046 2.421 2.421 0 012.014.8 4.056 4.056 0 01.639 2.533v9.806h4.945V14.517q0-6.962-5.9-6.962zm20.271 4.119V7.979h-4.225V2.488l-4.945 1.6v3.89h-3.143v3.694h3.139v6.538a6.858 6.858 0 001.621 4.87 6.124 6.124 0 004.7 1.732 7.891 7.891 0 002.849-.458v-3.823a6.85 6.85 0 01-1.638.229 2.711 2.711 0 01-1.866-.637 2.55 2.55 0 01-.721-2.01v-6.44h4.225zm14.278-3.694v2.353a5.456 5.456 0 00-2.129-2.027 6.382 6.382 0 00-3.111-.752 6.777 6.777 0 00-3.8 1.095 7.284 7.284 0 00-2.6 3.089 10.6 10.6 0 00-.933 4.543 10.275 10.275 0 00.933 4.495 6.8 6.8 0 006.4 4.037 6.617 6.617 0 003.111-.719 5.226 5.226 0 002.127-1.993v2.452h4.879V7.979h-4.879zm-3.8 13.075a3.484 3.484 0 01-2.866-1.226 5.493 5.493 0 01-1-3.547 5.784 5.784 0 011.015-3.628 3.4 3.4 0 012.849-1.307 3.362 3.362 0 012.816 1.258 5.764 5.764 0 01.983 3.612 5.691 5.691 0 01-.983 3.6 3.379 3.379 0 01-2.816 1.242zm24.56-13.075v2.353a5.4 5.4 0 00-2.161-2.027 6.573 6.573 0 00-3.144-.752 7.147 7.147 0 00-3.831 1.03 7.073 7.073 0 00-2.62 2.909 9.467 9.467 0 00-.95 4.331 9.465 9.465 0 00.95 4.331 7.07 7.07 0 002.62 2.909 7.148 7.148 0 003.831 1.03 6.381 6.381 0 005.305-2.811v2.877a3.988 3.988 0 01-1.048 3.023 4.458 4.458 0 01-3.176 1 13.269 13.269 0 01-5.96-1.5l-.753 3.661a14.55 14.55 0 006.877 1.536q4.387 0 6.68-2.059a7.669 7.669 0 002.292-6.014V7.979h-4.912zm-3.864 12.356a3.613 3.613 0 01-2.882-1.209 4.869 4.869 0 01-1.048-3.3 4.807 4.807 0 011.048-3.285 3.637 3.637 0 012.882-1.193 3.539 3.539 0 012.849 1.193 4.91 4.91 0 011.015 3.285 4.913 4.913 0 01-1.031 3.318 3.549 3.549 0 01-2.833 1.193zm27.639-4.38a8.858 8.858 0 00-2.031-6.129 7.047 7.047 0 00-5.534-2.272 8.191 8.191 0 00-4.224 1.095 7.508 7.508 0 00-2.9 3.073 9.583 9.583 0 00-1.031 4.494 8.332 8.332 0 002.39 6.292 9.09 9.09 0 006.583 2.3 11.906 11.906 0 003.52-.539 8.712 8.712 0 002.931-1.487L279 19.448a8.129 8.129 0 01-2.358 1.242 8.044 8.044 0 01-2.554.425 4.4 4.4 0 01-3.209-1.062 4.991 4.991 0 01-1.212-3.383h10.938v-.715zm-7.434-4.936q2.783 0 3.176 3.2h-6.582a4.094 4.094 0 011.13-2.386 3.185 3.185 0 012.276-.817zM289.584 0a6.907 6.907 0 00-3.5.905 6.657 6.657 0 00-2.482 2.468 7.176 7.176 0 000 6.984 6.705 6.705 0 002.482 2.487 7.148 7.148 0 007 0 6.681 6.681 0 002.492-2.487 7.158 7.158 0 000-6.975 6.634 6.634 0 00-2.482-2.477 6.906 6.906 0 00-3.5-.905zm4.123 10.843l-1.05-2.058a1.846 1.846 0 00-.6-.667 1.7 1.7 0 00-.792-.286 2.584 2.584 0 001.441-.905 2.474 2.474 0 00.506-1.553 2.386 2.386 0 00-.8-1.887 3.362 3.362 0 00-2.291-.705h-3.902v8.156h2.54V8.007h.46a.485.485 0 01.4.3l1.3 2.63h2.711a5.335 5.335 0 01-1.8 1.21 5.834 5.834 0 01-2.243.429 5.723 5.723 0 01-2.912-.743 5.281 5.281 0 01-2.014-2.049 5.914 5.914 0 01-.726-2.925 5.824 5.824 0 01.726-2.9 5.3 5.3 0 012.014-2.039 6.037 6.037 0 015.8 0 5.308 5.308 0 012.014 2.039 5.824 5.824 0 01.726 2.9 6.087 6.087 0 01-.392 2.2 5.313 5.313 0 01-1.117 1.782zm-3.913-4.593h-1.05V4.71h1.05a1.258 1.258 0 01.754.181.73.73 0 01.238.619.656.656 0 01-.238.572 1.311 1.311 0 01-.754.171zm39.139 1.3a6.318 6.318 0 00-3.193.834 6.07 6.07 0 00-2.276 2.239q-1.212-3.072-4.912-3.073a6.351 6.351 0 00-3.127.752 5.234 5.234 0 00-2.112 2.157l-.3-2.484h-4.65a38.592 38.592 0 01.262 4.74v11.836h4.945V15.4a4.605 4.605 0 01.835-2.942 2.825 2.825 0 012.341-1.046 2.1 2.1 0 011.818.784 4.266 4.266 0 01.573 2.484v9.871h4.945V15.4a4.671 4.671 0 01.818-2.942 2.781 2.781 0 012.325-1.046 2.112 2.112 0 011.834.768 4.347 4.347 0 01.557 2.5v9.871h4.945V14.517a8.234 8.234 0 00-1.392-5.246 5.137 5.137 0 00-4.241-1.716zm14.474 17V7.979h-4.944v16.572h4.944zm-5.108-19.71h5.272V.2h-5.272v4.642zm14.081 19.71V.494h-4.945v24.057h4.945zm18.928-8.6a8.858 8.858 0 00-2.031-6.129 7.047 7.047 0 00-5.534-2.272 8.2 8.2 0 00-4.225 1.095 7.512 7.512 0 00-2.9 3.073 9.583 9.583 0 00-1.031 4.494 8.328 8.328 0 002.39 6.292 9.09 9.09 0 006.583 2.3 11.906 11.906 0 003.52-.539 8.712 8.712 0 002.931-1.487l-1.31-3.334a8.129 8.129 0 01-2.358 1.242 8.044 8.044 0 01-2.554.425 4.4 4.4 0 01-3.209-1.062 4.991 4.991 0 01-1.212-3.383h10.938v-.71zm-7.434-4.936q2.783 0 3.176 3.2h-6.582a4.094 4.094 0 011.13-2.386 3.185 3.185 0 012.276-.817zm16.9 13.794a8.735 8.735 0 005.207-1.373 4.36 4.36 0 001.9-3.726 4.306 4.306 0 00-1.147-3.138 7.42 7.42 0 00-3.7-1.765l-2.784-.621a3.531 3.531 0 01-1.457-.572 1.116 1.116 0 01-.409-.9 1.319 1.319 0 01.687-1.177 3.613 3.613 0 011.9-.425 7.865 7.865 0 012.57.458 10.762 10.762 0 012.6 1.34l1.375-3.3a10.489 10.489 0 00-3.045-1.52A11.436 11.436 0 00381 7.55a9.543 9.543 0 00-3.7.67 5.842 5.842 0 00-2.5 1.88 4.477 4.477 0 00-.9 2.746 4.138 4.138 0 001.13 3.04 6.941 6.941 0 003.52 1.667l2.719.621a4.8 4.8 0 011.735.621 1.15 1.15 0 01.491.981 1.246 1.246 0 01-.687 1.144 4.019 4.019 0 01-1.965.392 10.8 10.8 0 01-3.275-.507 10.107 10.107 0 01-2.914-1.455l-1.31 3.432a12.178 12.178 0 007.433 2.027z" fill="#fff" fill-rule="evenodd"/></svg>