<svg xmlns="http://www.w3.org/2000/svg" width="232.594" height="31.656"><path data-name="Save today for" d="M9.149 24.502a11.64 11.64 0 007.106-1.912 6.132 6.132 0 002.554-5.181 5.168 5.168 0 00-1.981-4.282 16.3 16.3 0 00-6.468-2.55 19.027 19.027 0 01-2.98-.8 3.68 3.68 0 01-1.49-.932 1.955 1.955 0 01-.442-1.308 2.432 2.432 0 011.179-2.125 5.6 5.6 0 013.144-.784 10.909 10.909 0 016.779 2.353l1.637-3.661a9.755 9.755 0 00-3.668-1.964A15.891 15.891 0 009.738.637a11.832 11.832 0 00-4.847.931 7.641 7.641 0 00-3.258 2.6A6.415 6.415 0 00.47 7.927a5.812 5.812 0 00.835 3.22 6.454 6.454 0 002.653 2.19 20.36 20.36 0 004.9 1.52 14.385 14.385 0 013.848 1.226 1.949 1.949 0 011.1 1.749 2.188 2.188 0 01-1.2 1.977 6.819 6.819 0 01-3.422.7 12.859 12.859 0 01-7.535-2.353L.012 21.817a11.575 11.575 0 004.044 1.977 18.309 18.309 0 005.092.7zm24.79-16.866v2.353a5.452 5.452 0 00-2.129-2.027 6.382 6.382 0 00-3.111-.752 6.774 6.774 0 00-3.8 1.095 7.283 7.283 0 00-2.6 3.089 10.6 10.6 0 00-.933 4.543 10.272 10.272 0 00.933 4.495 6.8 6.8 0 006.4 4.037 6.617 6.617 0 003.111-.719 5.222 5.222 0 002.128-1.994v2.452h4.881V7.635h-4.881zm-3.8 13.075a3.484 3.484 0 01-2.865-1.226 5.492 5.492 0 01-1-3.547 5.784 5.784 0 011.015-3.628 3.4 3.4 0 012.849-1.307 3.362 3.362 0 012.818 1.253 5.765 5.765 0 01.982 3.612 5.691 5.691 0 01-.982 3.6 3.379 3.379 0 01-2.816 1.242zm19.78-2.322L45.662 7.668h-5.174l7.2 16.54h4.192l7.3-16.539h-4.879zm25.477-2.778a8.862 8.862 0 00-2.03-6.129 7.048 7.048 0 00-5.534-2.272 8.2 8.2 0 00-4.225 1.095 7.512 7.512 0 00-2.9 3.073 9.571 9.571 0 00-1.032 4.494 8.329 8.329 0 002.391 6.292 9.087 9.087 0 006.582 2.3 11.912 11.912 0 003.521-.539 8.722 8.722 0 002.931-1.487l-1.31-3.334a8.155 8.155 0 01-2.358 1.242 8.049 8.049 0 01-2.554.425 4.4 4.4 0 01-3.21-1.062 5 5 0 01-1.211-3.383h10.937v-.715zm-7.433-4.936q2.782 0 3.176 3.2h-6.582a4.088 4.088 0 011.13-2.386 3.185 3.185 0 012.276-.817zm30.192.654V7.635h-4.224V2.144l-4.945 1.6v3.89h-3.144v3.694h3.144v6.538a6.854 6.854 0 001.621 4.87 6.123 6.123 0 004.7 1.732 7.888 7.888 0 002.849-.458v-3.823a6.836 6.836 0 01-1.637.229 2.712 2.712 0 01-1.867-.637 2.554 2.554 0 01-.72-2.01v-6.44h4.224zm10.447 13.14a9.61 9.61 0 004.584-1.046 7.25 7.25 0 003.033-3.007 9.442 9.442 0 001.065-4.576 9.444 9.444 0 00-1.065-4.576 7.253 7.253 0 00-3.029-3.007 9.617 9.617 0 00-4.584-1.046 9.786 9.786 0 00-4.634 1.046 7.231 7.231 0 00-3.046 3.007 9.455 9.455 0 00-1.064 4.576 9.453 9.453 0 001.057 4.576 7.228 7.228 0 003.046 3.007 9.779 9.779 0 004.634 1.046zm0-3.759q-3.833 0-3.832-4.87a5.74 5.74 0 01.983-3.645 3.435 3.435 0 012.849-1.226 3.355 3.355 0 012.8 1.226 5.818 5.818 0 01.966 3.645 5.806 5.806 0 01-.966 3.661 3.374 3.374 0 01-2.8 1.209zM132.147.15v9.706a5.193 5.193 0 00-2.129-1.945 6.6 6.6 0 00-3.045-.7 6.9 6.9 0 00-3.815 1.062 7.147 7.147 0 00-2.587 3.007 10.262 10.262 0 00-.934 4.494 10.476 10.476 0 00.934 4.527 7.294 7.294 0 002.6 3.073 6.767 6.767 0 003.8 1.095 6.617 6.617 0 003.111-.719 5.217 5.217 0 002.128-1.994v2.452h4.88V.15h-4.945zm-3.728 20.56a3.415 3.415 0 01-2.849-1.291 5.77 5.77 0 01-1.016-3.645 5.444 5.444 0 011.016-3.53 3.472 3.472 0 012.849-1.242 3.375 3.375 0 012.8 1.258 5.642 5.642 0 011 3.579 5.763 5.763 0 01-.982 3.612 3.361 3.361 0 01-2.816 1.258zm24.429-13.075v2.353a5.449 5.449 0 00-2.129-2.026 6.382 6.382 0 00-3.111-.752 6.771 6.771 0 00-3.8 1.095 7.279 7.279 0 00-2.6 3.089 10.6 10.6 0 00-.933 4.543 10.275 10.275 0 00.933 4.495 6.8 6.8 0 006.4 4.037 6.617 6.617 0 003.111-.719 5.219 5.219 0 002.129-1.994v2.452h4.871V7.635h-4.879zm-3.8 13.075a3.484 3.484 0 01-2.865-1.226 5.493 5.493 0 01-1-3.547 5.784 5.784 0 011.015-3.628 3.4 3.4 0 012.849-1.307 3.363 3.363 0 012.817 1.258 5.764 5.764 0 01.982 3.612 5.691 5.691 0 01-.982 3.6 3.38 3.38 0 01-2.817 1.242zm24.168-13.075l-4.397 10.754-4.257-10.754h-5.174l6.848 15.721-.491 1.079a4.994 4.994 0 01-1.817 2.19 10.627 10.627 0 01-3.455 1.242l1.146 3.789a11.916 11.916 0 005.256-1.912 10.827 10.827 0 003.553-4.658l7.663-17.455h-4.879zm24.429-3.6a7.075 7.075 0 011.6.229V.411a7.985 7.985 0 00-2.816-.425 6.026 6.026 0 00-4.65 1.732 6.9 6.9 0 00-1.6 4.87v1.046h-3.111v3.694h3.111v12.879h4.94V11.329h3.471V7.635h-3.471V6.72a2.668 2.668 0 01.688-2.043 2.589 2.589 0 011.834-.637zm11.654 20.434a9.614 9.614 0 004.585-1.046 7.256 7.256 0 003.029-3.007 9.453 9.453 0 001.064-4.576 9.455 9.455 0 00-1.064-4.576 7.259 7.259 0 00-3.029-3.007 9.621 9.621 0 00-4.585-1.046 9.791 9.791 0 00-4.634 1.046 7.229 7.229 0 00-3.045 3.007 9.444 9.444 0 00-1.065 4.576 9.442 9.442 0 001.064 4.576 7.225 7.225 0 003.045 3.007 9.784 9.784 0 004.634 1.046zm0-3.759q-3.831 0-3.831-4.87a5.74 5.74 0 01.982-3.645 3.437 3.437 0 012.849-1.226 3.353 3.353 0 012.8 1.226 5.812 5.812 0 01.966 3.645 5.8 5.8 0 01-.966 3.661 3.372 3.372 0 01-2.8 1.209zm21.52-13.467a5.517 5.517 0 00-3 .834 4.857 4.857 0 00-1.948 2.4l-.327-2.844h-4.651a38.4 38.4 0 01.262 4.74v11.834h4.945v-8.662a4.068 4.068 0 011.032-2.958 3.988 3.988 0 013-1.062 5.776 5.776 0 012.424.556l.032-4.511a4.274 4.274 0 00-1.768-.327z" fill="#f36a20" fill-rule="evenodd"/></svg>