<svg xmlns="http://www.w3.org/2000/svg" width="353.718" height="30.719"><path data-name="tomorrow’s getaways." d="M12.3 10.4V6.7H8.076V1.212l-4.945 1.6V6.7H-.013v3.7h3.144v6.537a6.855 6.855 0 001.621 4.87 6.123 6.123 0 004.7 1.732 7.889 7.889 0 002.849-.458v-3.826a6.841 6.841 0 01-1.637.229 2.711 2.711 0 01-1.867-.637 2.552 2.552 0 01-.721-2.01V10.4H12.3zm10.446 13.14a9.612 9.612 0 004.585-1.046 7.255 7.255 0 003.029-3.007 10.37 10.37 0 000-9.152 7.258 7.258 0 00-3.029-3.007 9.617 9.617 0 00-4.585-1.046 9.787 9.787 0 00-4.634 1.046 7.23 7.23 0 00-3.046 3.007 10.37 10.37 0 000 9.152 7.227 7.227 0 003.046 3.007 9.782 9.782 0 004.634 1.046zm0-3.759q-3.831 0-3.831-4.87a5.74 5.74 0 01.982-3.645 3.436 3.436 0 012.849-1.226 3.353 3.353 0 012.8 1.226 5.814 5.814 0 01.966 3.645 5.8 5.8 0 01-.966 3.661 3.372 3.372 0 01-2.8 1.209zm32.16-13.502a6.316 6.316 0 00-3.193.834 6.057 6.057 0 00-2.276 2.239q-1.212-3.072-4.912-3.073a6.357 6.357 0 00-3.128.752 5.233 5.233 0 00-2.112 2.157L38.989 6.7h-4.65a38.5 38.5 0 01.262 4.74v11.836h4.945v-9.153a4.606 4.606 0 01.835-2.942 2.826 2.826 0 012.341-1.046 2.1 2.1 0 011.818.785 4.259 4.259 0 01.573 2.484v9.871h4.945v-9.152a4.671 4.671 0 01.819-2.942 2.779 2.779 0 012.325-1.046 2.114 2.114 0 011.834.768 4.356 4.356 0 01.556 2.5v9.871h4.945V13.241a8.234 8.234 0 00-1.392-5.246 5.136 5.136 0 00-4.239-1.716zM72.36 23.538a9.614 9.614 0 004.585-1.046 7.261 7.261 0 003.029-3.007 10.373 10.373 0 000-9.152 7.265 7.265 0 00-3.029-3.007A9.62 9.62 0 0072.36 6.28a9.79 9.79 0 00-4.634 1.046 7.229 7.229 0 00-3.045 3.007 10.364 10.364 0 000 9.152 7.225 7.225 0 003.045 3.007 9.784 9.784 0 004.634 1.046zm0-3.759q-3.831 0-3.832-4.87a5.74 5.74 0 01.983-3.645 3.435 3.435 0 012.849-1.226 3.353 3.353 0 012.8 1.226 5.812 5.812 0 01.966 3.645 5.8 5.8 0 01-.966 3.661 3.373 3.373 0 01-2.8 1.209zM93.875 6.312a5.513 5.513 0 00-3 .834 4.857 4.857 0 00-1.948 2.4L88.606 6.7h-4.65a38.4 38.4 0 01.262 4.74v11.836h4.945v-8.662a4.068 4.068 0 011.032-2.958 3.988 3.988 0 013-1.062 5.775 5.775 0 012.423.556l.033-4.511a4.274 4.274 0 00-1.768-.327zm13.426 0a5.516 5.516 0 00-3 .834 4.857 4.857 0 00-1.948 2.4l-.325-2.846h-4.651a38.4 38.4 0 01.262 4.74v11.836h4.945v-8.662a4.068 4.068 0 011.032-2.958 3.988 3.988 0 013-1.062 5.768 5.768 0 012.423.556l.033-4.511a4.274 4.274 0 00-1.768-.327zm11.363 17.226a9.614 9.614 0 004.585-1.046 7.256 7.256 0 003.029-3.007 10.373 10.373 0 000-9.152 7.259 7.259 0 00-3.029-3.007 9.62 9.62 0 00-4.585-1.046 9.79 9.79 0 00-4.634 1.046 7.229 7.229 0 00-3.045 3.007 10.364 10.364 0 000 9.152 7.225 7.225 0 003.045 3.007 9.784 9.784 0 004.634 1.046zm0-3.759q-3.831 0-3.831-4.87a5.74 5.74 0 01.982-3.645 3.437 3.437 0 012.849-1.226 3.352 3.352 0 012.8 1.226 5.812 5.812 0 01.966 3.645 5.8 5.8 0 01-.966 3.661 3.371 3.371 0 01-2.8 1.209zm29.9-2.288l-4-10.787h-3.373l-3.962 10.689L133.236 6.7h-5.044l6.714 16.576h4.191l3.6-9.61 3.766 9.61h4.159L157.338 6.7h-4.781zM159.306 0v5.263h2.456a7.077 7.077 0 01-2 3.2l1.932 1.536a10.9 10.9 0 002.276-3.171 8.577 8.577 0 00.671-3.465V0h-5.335zm14.475 23.535a8.738 8.738 0 005.207-1.373 4.36 4.36 0 001.9-3.726 4.305 4.305 0 00-1.146-3.138 7.425 7.425 0 00-3.7-1.765l-2.784-.621a3.525 3.525 0 01-1.457-.572 1.116 1.116 0 01-.41-.9 1.32 1.32 0 01.688-1.177 3.612 3.612 0 011.9-.425 7.866 7.866 0 012.571.458 10.78 10.78 0 012.6 1.34l1.375-3.3a10.494 10.494 0 00-3.046-1.52 11.427 11.427 0 00-3.471-.539 9.541 9.541 0 00-3.7.67 5.842 5.842 0 00-2.5 1.88 4.477 4.477 0 00-.9 2.746 4.138 4.138 0 001.13 3.04 6.936 6.936 0 003.52 1.667l2.718.621a4.8 4.8 0 011.736.621 1.152 1.152 0 01.491.981 1.246 1.246 0 01-.688 1.144 4.014 4.014 0 01-1.965.392 10.8 10.8 0 01-3.274-.507 10.125 10.125 0 01-2.915-1.455l-1.31 3.432a12.181 12.181 0 007.434 2.027zM204.985 6.7v2.353a5.405 5.405 0 00-2.161-2.027 6.573 6.573 0 00-3.144-.752 7.153 7.153 0 00-3.832 1.03 7.08 7.08 0 00-2.62 2.909 10.357 10.357 0 000 8.662 7.077 7.077 0 002.62 2.909 7.154 7.154 0 003.832 1.03 6.381 6.381 0 005.305-2.811v2.876a3.992 3.992 0 01-1.048 3.023 4.461 4.461 0 01-3.177 1 13.276 13.276 0 01-5.96-1.5l-.753 3.661a14.553 14.553 0 006.877 1.536q4.387 0 6.681-2.059a7.669 7.669 0 002.292-6.014V6.7h-4.912zm-3.864 12.356a3.612 3.612 0 01-2.882-1.209 4.869 4.869 0 01-1.048-3.3 4.807 4.807 0 011.048-3.285 3.636 3.636 0 012.882-1.193 3.539 3.539 0 012.849 1.193 5.836 5.836 0 01-.017 6.6 3.546 3.546 0 01-2.832 1.193zm27.638-4.38a8.862 8.862 0 00-2.03-6.129 7.048 7.048 0 00-5.534-2.272 8.2 8.2 0 00-4.225 1.1 7.512 7.512 0 00-2.9 3.073 9.571 9.571 0 00-1.032 4.494 8.329 8.329 0 002.391 6.292 9.086 9.086 0 006.582 2.3 11.917 11.917 0 003.521-.539 8.722 8.722 0 002.931-1.487l-1.31-3.334a8.155 8.155 0 01-2.358 1.242 8.05 8.05 0 01-2.555.425 4.4 4.4 0 01-3.209-1.062 5 5 0 01-1.211-3.383h10.937v-.717zm-7.433-4.936q2.782 0 3.176 3.2h-6.582a4.088 4.088 0 011.13-2.386 3.185 3.185 0 012.276-.817zm20.663.66V6.7h-4.224V1.212l-4.945 1.6V6.7h-3.144v3.7h3.144v6.537a6.854 6.854 0 001.621 4.87 6.122 6.122 0 004.7 1.732 7.891 7.891 0 002.849-.458v-3.826a6.836 6.836 0 01-1.637.229 2.711 2.711 0 01-1.867-.637 2.553 2.553 0 01-.72-2.01V10.4h4.224zm14.278-3.7v2.353a5.455 5.455 0 00-2.129-2.027 6.382 6.382 0 00-3.111-.752 6.771 6.771 0 00-3.8 1.1 7.279 7.279 0 00-2.6 3.089 10.6 10.6 0 00-.933 4.543 10.275 10.275 0 00.931 4.494 6.8 6.8 0 006.4 4.037 6.617 6.617 0 003.111-.719 5.226 5.226 0 002.129-1.994v2.451h4.879V6.7h-4.879zm-3.8 13.075a3.482 3.482 0 01-2.865-1.226 5.493 5.493 0 01-1-3.547 5.784 5.784 0 011.015-3.628 3.4 3.4 0 012.849-1.308 3.363 3.363 0 012.817 1.258 5.771 5.771 0 01.982 3.612 5.7 5.7 0 01-.982 3.6 3.38 3.38 0 01-2.817 1.242zm31.045-2.288l-4-10.787h-3.373l-3.962 10.689-4-10.689h-5.043l6.713 16.572h4.192l3.6-9.61 3.766 9.61h4.159L292.289 6.7h-4.783zM305.748 6.7v2.353a5.446 5.446 0 00-2.128-2.027 6.384 6.384 0 00-3.111-.752 6.772 6.772 0 00-3.8 1.1 7.286 7.286 0 00-2.6 3.089 10.6 10.6 0 00-.933 4.543 10.275 10.275 0 00.93 4.494 6.8 6.8 0 006.4 4.037 6.62 6.62 0 003.111-.719 5.217 5.217 0 002.128-1.994v2.451h4.88V6.7h-4.88zm-3.8 13.075a3.484 3.484 0 01-2.865-1.226 5.493 5.493 0 01-1-3.547 5.784 5.784 0 011.015-3.628 3.4 3.4 0 012.849-1.308 3.363 3.363 0 012.817 1.258 5.764 5.764 0 01.982 3.612 5.691 5.691 0 01-.982 3.6 3.38 3.38 0 01-2.817 1.242zM326.117 6.7l-4.388 10.754L317.472 6.7h-5.175l6.845 15.722-.492 1.078a4.987 4.987 0 01-1.817 2.19 10.622 10.622 0 01-3.455 1.242l1.146 3.792a11.914 11.914 0 005.256-1.912 10.826 10.826 0 003.553-4.658L330.996 6.7h-4.879zm12.706 16.834a8.738 8.738 0 005.207-1.373 4.36 4.36 0 001.9-3.726 4.305 4.305 0 00-1.146-3.138 7.424 7.424 0 00-3.7-1.765l-2.783-.621a3.525 3.525 0 01-1.457-.572 1.113 1.113 0 01-.41-.9 1.32 1.32 0 01.688-1.177 3.609 3.609 0 011.9-.425 7.866 7.866 0 012.571.458 10.78 10.78 0 012.6 1.34l1.375-3.3a10.507 10.507 0 00-3.046-1.52 11.427 11.427 0 00-3.471-.539 9.541 9.541 0 00-3.7.67 5.851 5.851 0 00-2.506 1.88 4.482 4.482 0 00-.9 2.746 4.138 4.138 0 001.13 3.04 6.936 6.936 0 003.52 1.667l2.718.621a4.8 4.8 0 011.736.621 1.152 1.152 0 01.491.981 1.246 1.246 0 01-.688 1.144 4.014 4.014 0 01-1.965.392 10.8 10.8 0 01-3.274-.507 10.125 10.125 0 01-2.915-1.455l-1.31 3.432a12.181 12.181 0 007.434 2.027zm9.562-.261h5.338v-5.26h-5.338v5.263z" fill="#f36a20" fill-rule="evenodd"/></svg>