<svg xmlns="http://www.w3.org/2000/svg" width="166.562" height="31.656"><path data-name="for saving." d="M10.565 4.17a7.08 7.08 0 011.6.229V.542A7.992 7.992 0 009.349.117a6.027 6.027 0 00-4.65 1.732 6.9 6.9 0 00-1.6 4.87v1.043H-.013v3.7h3.111v12.876h4.945V11.462h3.471v-3.7H8.043V6.85a2.67 2.67 0 01.688-2.043 2.59 2.59 0 011.834-.637zm11.658 20.429a9.612 9.612 0 004.583-1.046 7.255 7.255 0 003.029-3.007 10.37 10.37 0 000-9.152 7.258 7.258 0 00-3.029-3.007 9.617 9.617 0 00-4.585-1.046 9.787 9.787 0 00-4.634 1.046 7.23 7.23 0 00-3.046 3.007 10.37 10.37 0 000 9.152 7.227 7.227 0 003.046 3.007 9.781 9.781 0 004.634 1.046zm0-3.759q-3.831 0-3.831-4.87a5.74 5.74 0 01.982-3.645 3.436 3.436 0 012.849-1.226 3.353 3.353 0 012.8 1.226 5.814 5.814 0 01.966 3.645 5.8 5.8 0 01-.966 3.661 3.372 3.372 0 01-2.8 1.209zM43.738 7.373a5.513 5.513 0 00-3 .834 4.859 4.859 0 00-1.948 2.4l-.324-2.845h-4.65a38.5 38.5 0 01.262 4.74v11.836h4.945v-8.662a4.069 4.069 0 011.032-2.958 3.99 3.99 0 013-1.062 5.776 5.776 0 012.424.556l.032-4.511a4.274 4.274 0 00-1.768-.327zm19.32 17.226a8.735 8.735 0 005.207-1.373 4.36 4.36 0 001.9-3.726 4.306 4.306 0 00-1.147-3.138 7.42 7.42 0 00-3.7-1.765l-2.784-.621a3.531 3.531 0 01-1.457-.572 1.115 1.115 0 01-.409-.9 1.319 1.319 0 01.687-1.177 3.613 3.613 0 011.9-.425 7.865 7.865 0 012.57.458 10.762 10.762 0 012.6 1.34L69.8 9.4a10.489 10.489 0 00-3.045-1.52 11.436 11.436 0 00-3.471-.539 9.543 9.543 0 00-3.7.67 5.842 5.842 0 00-2.5 1.88 4.477 4.477 0 00-.9 2.746 4.138 4.138 0 001.13 3.04 6.941 6.941 0 003.52 1.667l2.719.621a4.8 4.8 0 011.735.621 1.15 1.15 0 01.491.981 1.246 1.246 0 01-.687 1.144 4.019 4.019 0 01-1.965.392 10.8 10.8 0 01-3.275-.507 10.125 10.125 0 01-2.915-1.455l-1.309 3.432a12.178 12.178 0 007.433 2.027zM84.933 7.762v2.353a5.446 5.446 0 00-2.127-2.023 6.382 6.382 0 00-3.111-.752 6.772 6.772 0 00-3.8 1.1 7.284 7.284 0 00-2.6 3.089 10.587 10.587 0 00-.934 4.543 10.261 10.261 0 00.931 4.49 6.8 6.8 0 006.4 4.037 6.617 6.617 0 003.111-.719 5.217 5.217 0 002.128-1.994v2.451h4.88V7.762h-4.88zm-3.8 13.075a3.484 3.484 0 01-2.866-1.226 5.493 5.493 0 01-1-3.547 5.784 5.784 0 011.016-3.628 3.4 3.4 0 012.849-1.308 3.363 3.363 0 012.816 1.258 5.764 5.764 0 01.982 3.612 5.691 5.691 0 01-.982 3.6 3.379 3.379 0 01-2.816 1.242zm19.779-2.321L96.655 7.795h-5.174l7.2 16.54h4.192l7.3-16.54h-4.867zm15.849 5.818V7.762h-4.944v16.576h4.944zm-5.108-19.71h5.272V-.014h-5.272v4.642zm19.386 2.713a6.576 6.576 0 00-3.226.785 6.1 6.1 0 00-2.308 2.255l-.326-2.615h-4.65a38.6 38.6 0 01.262 4.74v11.836h4.945v-9.283a3.94 3.94 0 01.982-2.811 3.424 3.424 0 012.62-1.046 2.422 2.422 0 012.014.8 4.056 4.056 0 01.639 2.533v9.806h4.945V14.303q0-6.962-5.9-6.962zm21.713.425v2.353a5.4 5.4 0 00-2.161-2.027 6.573 6.573 0 00-3.144-.752 7.147 7.147 0 00-3.831 1.03 7.073 7.073 0 00-2.62 2.909 10.347 10.347 0 000 8.662 7.07 7.07 0 002.62 2.909 7.148 7.148 0 003.831 1.03 6.381 6.381 0 005.305-2.811v2.876a3.988 3.988 0 01-1.048 3.023 4.458 4.458 0 01-3.176 1 13.269 13.269 0 01-5.96-1.5l-.753 3.661a14.55 14.55 0 006.877 1.536q4.388 0 6.68-2.059a7.669 7.669 0 002.292-6.014V7.762h-4.912zm-3.864 12.356a3.613 3.613 0 01-2.882-1.206 4.869 4.869 0 01-1.048-3.3 4.807 4.807 0 011.048-3.285 3.637 3.637 0 012.882-1.193 3.538 3.538 0 012.849 1.193 5.839 5.839 0 01-.016 6.6 3.548 3.548 0 01-2.833 1.193zm12.346 4.217h5.337v-5.26h-5.337v5.263z" fill="#fff" fill-rule="evenodd"/></svg>