<svg xmlns="http://www.w3.org/2000/svg" width="79.969" height="8.125"><path data-name="GET STARTED" d="M3.853 3.745v1.036h1.713v2a5.673 5.673 0 01-1.535.211 2.415 2.415 0 01-1.925-.74 3.258 3.258 0 01-.645-2.2 3.217 3.217 0 01.628-2.147 2.3 2.3 0 011.853-.735 3.477 3.477 0 011.168.189 3.962 3.962 0 011.091.623L6.69.937a3.374 3.374 0 00-1.218-.69A4.884 4.884 0 003.909.002a4.219 4.219 0 00-2.075.489 3.334 3.334 0 00-1.363 1.4A4.579 4.579 0 00-.008 4.05a4.626 4.626 0 00.479 2.181 3.307 3.307 0 001.379 1.4 4.391 4.391 0 002.125.489 7.862 7.862 0 001.569-.156 5.419 5.419 0 001.313-.422V3.736h-3zm10.47 4.284V6.894h-3.894V4.569h3.66V3.434h-3.66V1.242h3.894V.107h-5.3v7.922h5.3zm5.2 0V1.286h2.592V.107h-6.621v1.179h2.581v6.743h1.447zm10.425.1a4.448 4.448 0 001.68-.289 2.417 2.417 0 001.091-.818 2.076 2.076 0 00.378-1.24 1.69 1.69 0 00-.334-1.074 2.392 2.392 0 00-.957-.7 9.536 9.536 0 00-1.613-.506 4.654 4.654 0 01-1.352-.457.788.788 0 01-.4-.712 1 1 0 01.445-.862 2.059 2.059 0 011.213-.317A3.649 3.649 0 0132.435 2l.479-1.046a3.313 3.313 0 00-1.23-.7 4.973 4.973 0 00-1.585-.25 3.913 3.913 0 00-1.608.311 2.528 2.528 0 00-1.074.857 2.135 2.135 0 00-.378 1.246 1.751 1.751 0 00.679 1.491 5.683 5.683 0 002.169.835 5.28 5.28 0 011.375.45.752.752 0 01.417.685.913.913 0 01-.451.812 2.354 2.354 0 01-1.274.289 4.37 4.37 0 01-1.374-.206 4.164 4.164 0 01-1.207-.639l-.49 1.046a3.928 3.928 0 001.352.7 5.752 5.752 0 001.708.245zm8.178-.1V1.286h2.593V.107h-6.625v1.179h2.582v6.743h1.446zm10.648 0L45.18.107h-1.168l-3.583 7.922h1.447l.8-1.858h3.872l.79 1.858h1.435zm-4.161-6.364l1.457 3.393h-2.915zm11.126 3.827a1.386 1.386 0 00-1.012-.979 2.259 2.259 0 001.185-.784 2.156 2.156 0 00.417-1.341 2.087 2.087 0 00-.7-1.691 3.106 3.106 0 00-2.047-.59h-3.394v7.922h1.424V4.736h1.436a1.576 1.576 0 01.723.144.886.886 0 01.411.512l1.013 2.637h1.513zm-4.15-1.869v-2.4h1.791a1.986 1.986 0 011.208.3 1.056 1.056 0 01.383.895 1.081 1.081 0 01-.389.913 1.965 1.965 0 01-1.2.3h-1.791zm10.047 4.406V1.286h2.593V.107h-6.62v1.179h2.581v6.743h1.446zm9.435 0V6.894h-3.894V4.569h3.661V3.434h-3.661V1.242h3.894V.107h-5.3v7.922h5.3zm1.881 0h2.915a4.165 4.165 0 003.021-1.04 4.519 4.519 0 000-5.847A4.176 4.176 0 0075.867.107h-2.915v7.922zm1.435-1.168V1.275h1.391q2.738 0 2.737 2.782 0 2.8-2.737 2.8h-1.391z" fill="#fff" fill-rule="evenodd"/></svg>