<svg xmlns="http://www.w3.org/2000/svg" width="245.531" height="26.656"><path data-name="Earn AAdvantage®" d="M13.312 20.524v-3.307H4.118v-4.92h8.625V8.962H4.118V4.37h9.194V1.062H-.004v19.462h13.316zM25.706 6.666v1.968a4.529 4.529 0 00-1.762-1.695 5.248 5.248 0 00-2.577-.629 5.571 5.571 0 00-3.146.916 6.077 6.077 0 00-2.156 2.583 8.942 8.942 0 00-.773 3.8 8.664 8.664 0 00.773 3.758 5.861 5.861 0 002.142 2.5 5.737 5.737 0 003.16.875 5.449 5.449 0 002.577-.6 4.343 4.343 0 001.762-1.668v2.05h4.041V6.666h-4.041zM22.56 17.6a2.875 2.875 0 01-2.373-1.025 4.625 4.625 0 01-.827-2.966 4.868 4.868 0 01.841-3.034 2.8 2.8 0 012.359-1.094 2.773 2.773 0 012.333 1.053 4.855 4.855 0 01.813 3.02 4.8 4.8 0 01-.813 3.007A2.788 2.788 0 0122.56 17.6zm18.5-11.262a4.532 4.532 0 00-2.482.7 4.057 4.057 0 00-1.614 2.009l-.271-2.378h-3.851a32.592 32.592 0 01.217 3.963v9.9h4.1v-7.243a3.42 3.42 0 01.855-2.474 3.283 3.283 0 012.481-.888 4.752 4.752 0 012.007.464l.027-3.772a3.51 3.51 0 00-1.464-.273zm11.607-.028a5.4 5.4 0 00-2.671.656 5.073 5.073 0 00-1.915 1.884l-.271-2.187h-3.852a32.391 32.391 0 01.217 3.963v9.9h4.1v-7.763a3.314 3.314 0 01.813-2.35 2.824 2.824 0 012.17-.875 2 2 0 011.668.67 3.419 3.419 0 01.529 2.118v8.2h4.1v-8.391q0-5.823-4.882-5.823zm34.959 14.214L78.757 1.062H75.34l-8.869 19.462h4.258l1.845-4.318h9.031l1.844 4.318h4.177zM77.1 5.65l3.119 7.3h-6.238zm31.108 14.87L99.339 1.058h-3.417L87.053 20.52h4.258l1.844-4.318h9.032l1.844 4.318h4.177zM97.681 5.65l3.119 7.3h-6.238zM119.269.402V8.52a4.316 4.316 0 00-1.763-1.626 5.417 5.417 0 00-2.522-.588 5.678 5.678 0 00-3.16.889 5.97 5.97 0 00-2.143 2.515 8.664 8.664 0 00-.773 3.758 8.846 8.846 0 00.773 3.786 6.085 6.085 0 002.156 2.569 5.569 5.569 0 003.147.916 5.442 5.442 0 002.576-.6 4.346 4.346 0 001.763-1.668v2.05h4.041V.406h-4.1zM116.181 17.6a2.82 2.82 0 01-2.36-1.08 4.865 4.865 0 01-.84-3.048 4.588 4.588 0 01.84-2.952 2.867 2.867 0 012.36-1.039 2.782 2.782 0 012.319 1.053 4.747 4.747 0 01.827 2.993 4.848 4.848 0 01-.814 3.02 2.772 2.772 0 01-2.332 1.053zm16.381-1.941l-3.526-8.966h-4.285l5.967 13.831h3.471l6.048-13.831h-4.041zm18.5-8.993v1.968a4.525 4.525 0 00-1.763-1.695 5.241 5.241 0 00-2.576-.629 5.571 5.571 0 00-3.146.916 6.077 6.077 0 00-2.156 2.583 8.927 8.927 0 00-.773 3.8 8.65 8.65 0 00.773 3.758 5.861 5.861 0 002.142 2.5 5.737 5.737 0 003.16.875 5.442 5.442 0 002.576-.6 4.34 4.34 0 001.763-1.668v2.05h4.041V6.666h-4.041zM147.916 17.6a2.874 2.874 0 01-2.373-1.025 4.625 4.625 0 01-.827-2.966 4.868 4.868 0 01.841-3.034 2.8 2.8 0 012.359-1.094 2.773 2.773 0 012.333 1.053 4.855 4.855 0 01.813 3.02 4.8 4.8 0 01-.813 3.007 2.788 2.788 0 01-2.333 1.039zm18.985-11.29a5.409 5.409 0 00-2.672.656 5.081 5.081 0 00-1.912 1.887l-.271-2.187h-3.855a32.592 32.592 0 01.217 3.963v9.9h4.1v-7.763a3.31 3.31 0 01.814-2.35 2.82 2.82 0 012.169-.875 1.993 1.993 0 011.668.67 3.412 3.412 0 01.529 2.118v8.2h4.093v-8.391q0-5.823-4.882-5.823zm16.787 3.445V6.666h-3.5V2.073l-4.1 1.34v3.253h-2.6v3.089h2.6v5.467a5.765 5.765 0 001.342 4.072 5.041 5.041 0 003.892 1.449 6.47 6.47 0 002.359-.383v-3.2a5.6 5.6 0 01-1.356.192 2.231 2.231 0 01-1.545-.533 2.147 2.147 0 01-.6-1.681V9.753h3.5zm11.825-3.089v1.968a4.525 4.525 0 00-1.763-1.695 5.241 5.241 0 00-2.576-.629 5.571 5.571 0 00-3.146.916 6.077 6.077 0 00-2.156 2.583 8.927 8.927 0 00-.773 3.8 8.65 8.65 0 00.773 3.758 5.861 5.861 0 002.142 2.5 5.735 5.735 0 003.16.875 5.442 5.442 0 002.576-.6 4.34 4.34 0 001.763-1.668v2.05h4.041V6.666h-4.041zM192.367 17.6a2.874 2.874 0 01-2.373-1.025 4.625 4.625 0 01-.827-2.966 4.868 4.868 0 01.841-3.034 2.8 2.8 0 012.359-1.094 2.773 2.773 0 012.333 1.053 4.855 4.855 0 01.813 3.02 4.8 4.8 0 01-.813 3.007 2.788 2.788 0 01-2.333 1.039zm20.341-10.934v1.968a4.486 4.486 0 00-1.79-1.695 5.4 5.4 0 00-2.6-.629 5.749 5.749 0 00-5.343 3.294 8.738 8.738 0 000 7.244 5.749 5.749 0 005.343 3.294 5.08 5.08 0 002.577-.67 5.173 5.173 0 001.817-1.681v2.405a3.359 3.359 0 01-.868 2.529 3.67 3.67 0 01-2.631.834 10.906 10.906 0 01-4.936-1.258l-.624 3.062a11.962 11.962 0 005.7 1.284 7.97 7.97 0 005.532-1.722 6.443 6.443 0 001.9-5.029V6.666h-4.068zm-3.2 10.332a2.978 2.978 0 01-2.386-1.011 4.1 4.1 0 01-.868-2.761 4.044 4.044 0 01.868-2.747 3 3 0 012.386-1 2.918 2.918 0 012.36 1 4.919 4.919 0 01-.014 5.522 2.924 2.924 0 01-2.346 1zm22.89-3.663a7.455 7.455 0 00-1.681-5.125 5.811 5.811 0 00-4.584-1.9 6.736 6.736 0 00-3.5.916 6.246 6.246 0 00-2.4 2.57 8.061 8.061 0 00-.855 3.758 7 7 0 001.98 5.262 7.482 7.482 0 005.451 1.927 9.767 9.767 0 002.916-.451 7.193 7.193 0 002.427-1.244l-1.085-2.788a6.711 6.711 0 01-1.952 1.039 6.608 6.608 0 01-2.116.355 3.625 3.625 0 01-2.658-.888 4.2 4.2 0 01-1-2.829h9.058v-.6zm-6.156-4.127q2.3 0 2.631 2.679h-5.452a3.442 3.442 0 01.936-2 2.624 2.624 0 011.885-.683zm13.593-9.212a5.674 5.674 0 00-2.9.757 5.521 5.521 0 00-2.055 2.063 6.054 6.054 0 000 5.841 5.566 5.566 0 002.055 2.08 5.87 5.87 0 005.795 0 5.561 5.561 0 002.064-2.08 6.039 6.039 0 000-5.833A5.516 5.516 0 00242.731.75a5.673 5.673 0 00-2.9-.757zm3.415 9.067l-.87-1.721a1.536 1.536 0 00-.5-.557 1.385 1.385 0 00-.656-.239 2.145 2.145 0 001.194-.757 2.085 2.085 0 00.419-1.3 2.007 2.007 0 00-.664-1.578 2.769 2.769 0 00-1.9-.59h-3.225v6.821h2.1V6.688h.379a.4.4 0 01.332.255l1.075 2.2h2.247a4.411 4.411 0 01-1.5 1.012 4.783 4.783 0 01-1.857.359 4.708 4.708 0 01-2.412-.622 4.4 4.4 0 01-1.668-1.713 4.983 4.983 0 01-.6-2.446 4.908 4.908 0 01.6-2.423 4.429 4.429 0 011.668-1.705 4.962 4.962 0 014.807 0 4.422 4.422 0 011.668 1.705 4.908 4.908 0 01.6 2.423 5.132 5.132 0 01-.324 1.84 4.447 4.447 0 01-.925 1.49zm-3.242-3.84h-.869V3.932h.869a1.039 1.039 0 01.625.151.613.613 0 01.2.518.55.55 0 01-.2.478 1.073 1.073 0 01-.625.144z" fill="#fff" fill-rule="evenodd"/></svg>