<svg xmlns="http://www.w3.org/2000/svg" width="169.781" height="25.906"><path data-name="Save to earn AAdvantage® miles, not interest." d="M3.541 9.568a4.5 4.5 0 002.742-.737 2.366 2.366 0 00.986-2 1.99 1.99 0 00-.765-1.651 6.275 6.275 0 00-2.5-.984 7.306 7.306 0 01-1.15-.308 1.422 1.422 0 01-.575-.36.755.755 0 01-.17-.5.937.937 0 01.455-.819 2.155 2.155 0 011.213-.3 4.212 4.212 0 012.616.908l.632-1.412A3.771 3.771 0 005.609.649 6.125 6.125 0 003.764.372a4.561 4.561 0 00-1.87.359 2.945 2.945 0 00-1.258 1A2.472 2.472 0 00.188 3.18 2.24 2.24 0 00.51 4.422a2.489 2.489 0 001.024.844 7.832 7.832 0 001.889.587 5.537 5.537 0 011.485.472.752.752 0 01.423.675.842.842 0 01-.461.762 2.633 2.633 0 01-1.321.271 4.961 4.961 0 01-2.906-.907L.011 8.537a4.472 4.472 0 001.561.763 7.05 7.05 0 001.965.271zm9.819-6.5v.907a2.1 2.1 0 00-.821-.782 2.467 2.467 0 00-1.2-.29 2.619 2.619 0 00-1.466.422 2.813 2.813 0 00-1 1.192 4.067 4.067 0 00-.361 1.752 3.947 3.947 0 00.361 1.733 2.623 2.623 0 002.47 1.556 2.553 2.553 0 001.2-.277 2.013 2.013 0 00.821-.769v.946h1.883V3.067h-1.883zM11.894 8.11a1.346 1.346 0 01-1.106-.473 2.117 2.117 0 01-.385-1.367 2.234 2.234 0 01.392-1.4 1.311 1.311 0 011.1-.5 1.3 1.3 0 011.087.486 2.216 2.216 0 01.379 1.392 2.193 2.193 0 01-.379 1.387 1.306 1.306 0 01-1.087.479zm7.886-.895l-1.643-4.134h-2l2.781 6.378h1.617l2.818-6.378H21.47zm10.085-1.071a3.417 3.417 0 00-.784-2.364 2.72 2.72 0 00-2.136-.876 3.168 3.168 0 00-1.63.422 2.9 2.9 0 00-1.118 1.185 3.683 3.683 0 00-.4 1.733 3.212 3.212 0 00.922 2.427 3.511 3.511 0 002.54.888 4.591 4.591 0 001.359-.208 3.341 3.341 0 001.131-.573l-.506-1.286a3.179 3.179 0 01-1.9.643 1.7 1.7 0 01-1.239-.41 1.92 1.92 0 01-.467-1.3h4.221v-.277zm-2.869-1.9a1.181 1.181 0 011.226 1.235h-2.541a1.572 1.572 0 01.436-.92 1.229 1.229 0 01.878-.315zm12.157.252V3.072h-1.63V.954l-1.908.618v1.5h-1.214v1.424h1.214v2.521a2.641 2.641 0 00.625 1.878 2.363 2.363 0 001.814.668 3.059 3.059 0 001.1-.176V7.912a2.638 2.638 0 01-.632.088 1.049 1.049 0 01-.72-.245.984.984 0 01-.278-.776V4.496h1.63zm4.284 5.067a3.709 3.709 0 001.769-.4 2.788 2.788 0 001.169-1.16 3.993 3.993 0 000-3.529 2.794 2.794 0 00-1.169-1.16 3.721 3.721 0 00-1.769-.4 3.791 3.791 0 00-1.788.4 2.785 2.785 0 00-1.175 1.16 3.993 3.993 0 000 3.529 2.78 2.78 0 001.175 1.16 3.779 3.779 0 001.788.4zm0-1.449q-1.479 0-1.478-1.878a2.212 2.212 0 01.379-1.406 1.325 1.325 0 011.1-.472 1.3 1.3 0 011.081.472 2.852 2.852 0 010 2.817 1.3 1.3 0 01-1.081.467zm14.382-1.966a3.417 3.417 0 00-.784-2.364 2.721 2.721 0 00-2.136-.876 3.168 3.168 0 00-1.63.422 2.9 2.9 0 00-1.118 1.185 3.684 3.684 0 00-.4 1.733 3.212 3.212 0 00.923 2.427 3.511 3.511 0 002.54.888 4.591 4.591 0 001.359-.208 3.36 3.36 0 001.131-.573l-.506-1.286a3.185 3.185 0 01-1.895.643 1.7 1.7 0 01-1.239-.41 1.92 1.92 0 01-.467-1.3h4.221v-.277zm-2.869-1.9a1.181 1.181 0 011.231 1.227H53.64a1.584 1.584 0 01.436-.92 1.232 1.232 0 01.879-.315zm8.859-1.172v.899a2.1 2.1 0 00-.822-.782 2.466 2.466 0 00-1.2-.29 2.617 2.617 0 00-1.466.422 2.808 2.808 0 00-1 1.192 4.082 4.082 0 00-.36 1.752 3.961 3.961 0 00.36 1.733 2.623 2.623 0 002.471 1.556 2.551 2.551 0 001.2-.277 2.016 2.016 0 00.822-.769v.946h1.883V3.067h-1.883zm-1.466 5.042a1.345 1.345 0 01-1.106-.473 2.117 2.117 0 01-.386-1.367 2.234 2.234 0 01.392-1.4 1.313 1.313 0 011.1-.5 1.3 1.3 0 011.086.486 2.216 2.216 0 01.38 1.392 2.193 2.193 0 01-.38 1.387 1.3 1.3 0 01-1.086.479zm8.871-5.193a2.128 2.128 0 00-1.156.321 1.873 1.873 0 00-.752.927l-.127-1.1h-1.798a14.9 14.9 0 01.1 1.828v4.563h1.908V6.123a1.568 1.568 0 01.4-1.14 1.542 1.542 0 011.157-.41 2.228 2.228 0 01.935.214l.013-1.739a1.653 1.653 0 00-.683-.126zm5.662-.013a2.533 2.533 0 00-1.245.3 2.342 2.342 0 00-.891.869l-.127-1.008h-1.794a14.9 14.9 0 01.1 1.828v4.563h1.908V5.875a1.522 1.522 0 01.379-1.084 1.323 1.323 0 011.011-.4.937.937 0 01.778.309 1.567 1.567 0 01.246.977v3.782h1.908v-3.87q0-2.685-2.274-2.685zm16.795 6.555L89.538.492h-1.592l-4.133 8.975h1.984l.86-1.992h4.208l.86 1.992h1.946zm-4.9-6.857l1.454 3.365h-2.907zm14.748 6.857L99.387.492h-1.593l-4.132 8.975h1.984l.859-1.992h4.209l.859 1.992h1.946zm-4.9-6.857l1.453 3.365h-2.906zM108.931.19v3.743a2.01 2.01 0 00-.821-.75 2.557 2.557 0 00-1.176-.271 2.665 2.665 0 00-1.472.41 2.756 2.756 0 00-1 1.159 3.949 3.949 0 00-.361 1.734 4.026 4.026 0 00.361 1.745 2.811 2.811 0 001 1.185 2.613 2.613 0 001.466.422 2.553 2.553 0 001.2-.277 2.013 2.013 0 00.821-.769v.946h1.883V.175h-1.908zm-1.441 7.928a1.318 1.318 0 01-1.1-.5 2.224 2.224 0 01-.392-1.405 2.1 2.1 0 01.392-1.362 1.34 1.34 0 011.1-.479 1.3 1.3 0 011.081.486 2.17 2.17 0 01.385 1.38 2.222 2.222 0 01-.379 1.393 1.3 1.3 0 01-1.087.485zm7.886-.895l-1.643-4.134h-2l2.781 6.378h1.617l2.818-6.378h-1.883zm8.872-4.147v.899a2.1 2.1 0 00-.822-.782 2.466 2.466 0 00-1.2-.29 2.617 2.617 0 00-1.466.422 2.808 2.808 0 00-1 1.192 4.082 4.082 0 00-.36 1.752 3.961 3.961 0 00.36 1.733 2.623 2.623 0 002.471 1.556 2.551 2.551 0 001.2-.277 2.016 2.016 0 00.822-.769v.946h1.883V3.067h-1.895zm-1.466 5.042a1.345 1.345 0 01-1.106-.473 2.117 2.117 0 01-.386-1.367 2.234 2.234 0 01.392-1.4 1.313 1.313 0 011.1-.5 1.3 1.3 0 011.086.486 2.216 2.216 0 01.38 1.392 2.193 2.193 0 01-.38 1.387 1.3 1.3 0 01-1.086.479zm9.1-5.206a2.533 2.533 0 00-1.245.3 2.342 2.342 0 00-.891.869l-.127-1.008h-1.794a14.9 14.9 0 01.1 1.828v4.563h1.908V5.875a1.522 1.522 0 01.379-1.084 1.323 1.323 0 011.011-.4.937.937 0 01.778.309 1.567 1.567 0 01.246.977v3.782h1.908v-3.87q0-2.685-2.274-2.685zm8.075 1.588V3.076h-1.63V.958l-1.909.618v1.5h-1.213V4.5h1.213v2.521a2.641 2.641 0 00.626 1.878 2.361 2.361 0 001.813.668 3.061 3.061 0 001.1-.176V7.916a2.638 2.638 0 01-.632.088 1.049 1.049 0 01-.72-.245.984.984 0 01-.278-.776V4.5h1.63zm5.763-1.424v.899a2.1 2.1 0 00-.822-.782 2.466 2.466 0 00-1.2-.29 2.617 2.617 0 00-1.466.422 2.808 2.808 0 00-1 1.192 4.082 4.082 0 00-.36 1.752 3.961 3.961 0 00.36 1.733 2.623 2.623 0 002.471 1.556 2.551 2.551 0 001.2-.277 2.016 2.016 0 00.822-.769v.946h1.883V3.067h-1.883zm-1.466 5.042a1.345 1.345 0 01-1.106-.473 2.117 2.117 0 01-.386-1.367 2.234 2.234 0 01.392-1.4 1.313 1.313 0 011.1-.5 1.3 1.3 0 011.086.486 2.216 2.216 0 01.38 1.392 2.193 2.193 0 01-.38 1.387 1.3 1.3 0 01-1.086.479zm9.73-5.042v.899a2.075 2.075 0 00-.834-.782 2.537 2.537 0 00-1.213-.29 2.681 2.681 0 00-2.489 1.519 3.983 3.983 0 000 3.34 2.722 2.722 0 001.011 1.122 2.755 2.755 0 001.478.4 2.462 2.462 0 002.047-1.084v1.109a1.536 1.536 0 01-.4 1.166 1.723 1.723 0 01-1.226.385 5.13 5.13 0 01-2.3-.58l-.291 1.412a5.633 5.633 0 002.654.592 3.74 3.74 0 002.578-.794 2.956 2.956 0 00.885-2.319v-6.1h-1.9zm-1.491 4.765a1.4 1.4 0 01-1.112-.467 1.875 1.875 0 01-.4-1.273 1.852 1.852 0 01.4-1.267 1.406 1.406 0 011.112-.46 1.37 1.37 0 011.1.46 2.251 2.251 0 01-.007 2.546 1.369 1.369 0 01-1.093.461zm10.919-1.689a3.412 3.412 0 00-.784-2.364 2.719 2.719 0 00-2.135-.876 3.172 3.172 0 00-1.631.422 2.9 2.9 0 00-1.118 1.185 3.7 3.7 0 00-.4 1.733 3.212 3.212 0 00.922 2.427 3.511 3.511 0 002.541.888 4.584 4.584 0 001.358-.208 3.341 3.341 0 001.131-.573l-.5-1.286a3.15 3.15 0 01-.91.479 3.117 3.117 0 01-.986.164 1.693 1.693 0 01-1.238-.41 1.925 1.925 0 01-.468-1.3h4.221v-.277zm-2.869-1.9a1.181 1.181 0 011.226 1.235h-2.54a1.578 1.578 0 01.436-.92 1.229 1.229 0 01.878-.315zM167.13.004a2.673 2.673 0 00-1.352.349 2.56 2.56 0 00-.958.952 2.765 2.765 0 000 2.693 2.578 2.578 0 00.958.959 2.758 2.758 0 002.7 0 2.571 2.571 0 00.961-.959 2.757 2.757 0 000-2.689 2.553 2.553 0 00-.957-.956 2.675 2.675 0 00-1.352-.349zm1.591 4.182l-.4-.794a.7.7 0 00-.232-.257.642.642 0 00-.306-.11 1 1 0 00.556-.35.952.952 0 00.2-.6.922.922 0 00-.31-.728 1.3 1.3 0 00-.884-.272h-1.5V4.22h.98V3.075h.156a.186.186 0 01.154.117l.5 1.014h1.046a2.06 2.06 0 01-.7.467 2.251 2.251 0 01-.865.165 2.211 2.211 0 01-1.124-.286 2.041 2.041 0 01-.777-.79 2.279 2.279 0 01-.28-1.128 2.24 2.24 0 01.28-1.117 2.044 2.044 0 01.777-.786 2.329 2.329 0 012.24 0 2.051 2.051 0 01.777.786 2.24 2.24 0 01.28 1.117 2.344 2.344 0 01-.151.849 2.051 2.051 0 01-.431.687zm-1.51-1.771h-.406v-.6h.406a.491.491 0 01.291.07.283.283 0 01.092.239.253.253 0 01-.092.22.5.5 0 01-.291.067zM8.111 17.537a2.442 2.442 0 00-1.232.322 2.332 2.332 0 00-.878.863 1.839 1.839 0 00-1.9-1.185 2.455 2.455 0 00-1.207.29 2.023 2.023 0 00-.815.832l-.114-.958H.171a14.9 14.9 0 01.1 1.828v4.546h1.91v-3.529a1.775 1.775 0 01.322-1.135 1.091 1.091 0 01.9-.4.811.811 0 01.7.3 1.637 1.637 0 01.221.958v3.806h1.909v-3.529a1.8 1.8 0 01.316-1.135 1.071 1.071 0 01.9-.4.818.818 0 01.708.3 1.678 1.678 0 01.214.964v3.8h1.91v-3.87a3.175 3.175 0 00-.537-2.023 1.986 1.986 0 00-1.637-.662zm5.839 6.555v-6.407h-1.909v6.39h1.909zm-1.972-7.6h2.035v-1.79h-2.035v1.79zm5.687 7.6v-9.277h-1.908v9.26h1.908zm7.557-3.315a3.41 3.41 0 00-.784-2.363 2.72 2.72 0 00-2.135-.877 3.162 3.162 0 00-1.631.423 2.886 2.886 0 00-1.118 1.185 3.692 3.692 0 00-.4 1.733 3.21 3.21 0 00.922 2.426 3.508 3.508 0 002.541.889 4.617 4.617 0 001.358-.208 3.361 3.361 0 001.131-.574l-.5-1.285a3.175 3.175 0 01-.91.479 3.115 3.115 0 01-.986.163 1.7 1.7 0 01-1.238-.409 1.928 1.928 0 01-.468-1.305h4.221v-.277zm-2.869-1.9a1.18 1.18 0 011.226 1.235h-2.54a1.575 1.575 0 01.436-.92 1.229 1.229 0 01.878-.315zm6.774 5.319a3.372 3.372 0 002.009-.53 1.68 1.68 0 00.733-1.437 1.66 1.66 0 00-.442-1.21 2.868 2.868 0 00-1.428-.68l-1.074-.24a1.358 1.358 0 01-.563-.22.433.433 0 01-.158-.347.51.51 0 01.266-.454 1.394 1.394 0 01.733-.164 3.032 3.032 0 01.992.177 4.15 4.15 0 011 .517l.531-1.273a4.032 4.032 0 00-1.175-.587 4.437 4.437 0 00-1.34-.208 3.69 3.69 0 00-1.428.259 2.253 2.253 0 00-.967.725 1.73 1.73 0 00-.347 1.058 1.594 1.594 0 00.436 1.173 2.677 2.677 0 001.358.642l1.049.24a1.855 1.855 0 01.67.239.444.444 0 01.19.379.481.481 0 01-.266.441 1.547 1.547 0 01-.758.151 4.184 4.184 0 01-1.264-.195 3.907 3.907 0 01-1.124-.561l-.506 1.323a4.7 4.7 0 002.869.782zm3.943-2.13v2.009h.948a2.9 2.9 0 01-.771 1.235l.745.58a3.884 3.884 0 00.879-1.2 3.356 3.356 0 00.259-1.342v-1.3h-2.06zm11.474-4.526a2.532 2.532 0 00-1.244.3 2.352 2.352 0 00-.891.87l-.127-1.009h-1.801a14.9 14.9 0 01.1 1.828v4.546h1.908v-3.58a1.522 1.522 0 01.379-1.084 1.322 1.322 0 011.011-.4.937.937 0 01.778.309 1.564 1.564 0 01.246.976v3.779h1.908v-3.87q0-2.685-2.275-2.685zm7.1 6.656a3.712 3.712 0 001.769-.4 2.8 2.8 0 001.169-1.159 4 4 0 000-3.53 2.8 2.8 0 00-1.169-1.159 3.712 3.712 0 00-1.769-.4 3.78 3.78 0 00-1.789.4 2.794 2.794 0 00-1.175 1.159 4 4 0 000 3.53 2.789 2.789 0 001.175 1.159 3.78 3.78 0 001.789.4zm0-1.45q-1.479 0-1.479-1.878a2.209 2.209 0 01.379-1.4 1.327 1.327 0 011.1-.473 1.294 1.294 0 011.08.473 2.846 2.846 0 010 2.817 1.3 1.3 0 01-1.08.466zm8.8-3.617v-1.444h-1.63v-2.117l-1.908.617v1.5h-1.225v1.425h1.213v2.521a2.644 2.644 0 00.625 1.878 2.368 2.368 0 001.814.668 3.032 3.032 0 001.1-.177v-1.474a2.681 2.681 0 01-.631.088 1.048 1.048 0 01-.721-.246.985.985 0 01-.278-.775V19.11h1.63zm6.938 4.966v-6.41h-1.908v6.39h1.908zm-1.971-7.6h2.035v-1.79h-2.045v1.79zm7.734 1.046a2.536 2.536 0 00-1.245.3 2.366 2.366 0 00-.891.87l-.126-1.009h-1.802a14.709 14.709 0 01.1 1.828v4.545h1.909v-3.58a1.517 1.517 0 01.379-1.084 1.32 1.32 0 011.011-.4.933.933 0 01.777.309 1.564 1.564 0 01.246.976v3.779h1.909v-3.87q0-2.685-2.275-2.685zm8.075 1.589v-1.445h-1.639v-2.117l-1.908.617v1.5H76.46v1.425h1.213v2.521a2.644 2.644 0 00.625 1.878 2.367 2.367 0 001.814.668 3.036 3.036 0 001.1-.177v-1.474a2.682 2.682 0 01-.632.088 1.045 1.045 0 01-.72-.246.985.985 0 01-.278-.775V19.11h1.63zm6.976 1.651a3.414 3.414 0 00-.783-2.363 2.723 2.723 0 00-2.136-.877 3.156 3.156 0 00-1.63.423 2.889 2.889 0 00-1.119 1.185 3.692 3.692 0 00-.4 1.733 3.21 3.21 0 00.923 2.426 3.505 3.505 0 002.54.889 4.612 4.612 0 001.358-.208 3.361 3.361 0 001.131-.574l-.505-1.285a3.162 3.162 0 01-.91.479 3.115 3.115 0 01-.986.163 1.7 1.7 0 01-1.238-.409 1.928 1.928 0 01-.468-1.305h4.221v-.277zm-2.869-1.9a1.18 1.18 0 011.226 1.235h-2.54a1.575 1.575 0 01.436-.92 1.229 1.229 0 01.878-.315zm8.05-1.324a2.123 2.123 0 00-1.156.322 1.875 1.875 0 00-.752.926l-.126-1.1h-1.8a14.709 14.709 0 01.1 1.828v4.542h1.909v-3.34a1.565 1.565 0 01.4-1.141 1.54 1.54 0 011.156-.41 2.226 2.226 0 01.935.215l.013-1.74a1.653 1.653 0 00-.683-.126zm7.33 3.227a3.414 3.414 0 00-.783-2.363 2.723 2.723 0 00-2.136-.877 3.156 3.156 0 00-1.63.423 2.889 2.889 0 00-1.119 1.185 3.692 3.692 0 00-.4 1.733 3.21 3.21 0 00.923 2.426 3.505 3.505 0 002.54.889 4.612 4.612 0 001.358-.208 3.361 3.361 0 001.131-.574l-.5-1.285a3.162 3.162 0 01-.91.479 3.115 3.115 0 01-.986.163 1.7 1.7 0 01-1.238-.409 1.928 1.928 0 01-.468-1.305h4.221v-.277zm-2.869-1.9a1.18 1.18 0 011.226 1.235h-2.54a1.575 1.575 0 01.436-.92 1.229 1.229 0 01.878-.315zm6.774 5.319a3.37 3.37 0 002.009-.53 1.68 1.68 0 00.733-1.437 1.66 1.66 0 00-.442-1.21 2.868 2.868 0 00-1.428-.68l-1.074-.24a1.364 1.364 0 01-.563-.22.433.433 0 01-.158-.347.51.51 0 01.266-.454 1.394 1.394 0 01.733-.164 3.027 3.027 0 01.992.177 4.174 4.174 0 011 .517l.53-1.273a4.032 4.032 0 00-1.175-.587 4.437 4.437 0 00-1.34-.208 3.69 3.69 0 00-1.428.259 2.25 2.25 0 00-.966.725 1.725 1.725 0 00-.348 1.058 1.594 1.594 0 00.436 1.173 2.681 2.681 0 001.359.642l1.049.24a1.848 1.848 0 01.669.239.444.444 0 01.19.379.482.482 0 01-.265.441 1.551 1.551 0 01-.759.151 4.178 4.178 0 01-1.263-.195 3.926 3.926 0 01-1.125-.561l-.506 1.323a4.7 4.7 0 002.869.782zm8.126-5.067v-1.451h-1.63v-2.117l-1.909.617v1.5h-1.218v1.425h1.213v2.521a2.645 2.645 0 00.626 1.878 2.367 2.367 0 001.814.668 3.036 3.036 0 001.1-.177v-1.474a2.689 2.689 0 01-.632.088 1.045 1.045 0 01-.72-.246.981.981 0 01-.278-.775V19.11h1.63zm1.377 4.966h2.06v-2.029h-2.06v2.002z" fill="#fff" fill-rule="evenodd"/></svg>