<svg xmlns="http://www.w3.org/2000/svg" width="103.313" height="12.126"><path data-name="pennies to perks" d="M4.025 2.834a2.5 2.5 0 00-1.282.328 1.934 1.934 0 00-.816.9l-.126-1.059H.007a14.9 14.9 0 01.1 1.828v7.285h1.918V8.449a1.926 1.926 0 00.809.768 2.552 2.552 0 001.2.278 2.73 2.73 0 001.479-.4 2.651 2.651 0 001-1.153 4.018 4.018 0 00.354-1.733 4.085 4.085 0 00-.36-1.752 2.8 2.8 0 00-1-1.191 2.609 2.609 0 00-1.466-.423zM3.482 8.04a1.32 1.32 0 01-1.093-.479 2.165 2.165 0 01-.386-1.386 2.194 2.194 0 01.386-1.393 1.316 1.316 0 011.093-.485 1.282 1.282 0 011.08.5 2.254 2.254 0 01.386 1.4 2.144 2.144 0 01-.379 1.368 1.312 1.312 0 01-1.087.472zm10.6-1.966a3.41 3.41 0 00-.784-2.363 2.72 2.72 0 00-2.135-.877 3.162 3.162 0 00-1.631.423 2.886 2.886 0 00-1.118 1.185 3.68 3.68 0 00-.4 1.733 3.21 3.21 0 00.922 2.426 3.507 3.507 0 002.54.889 4.624 4.624 0 001.359-.208 3.361 3.361 0 001.131-.574l-.5-1.285a3.175 3.175 0 01-.91.479 3.115 3.115 0 01-.986.163 1.7 1.7 0 01-1.239-.409 1.923 1.923 0 01-.467-1.305h4.221v-.277zm-2.869-1.9a1.18 1.18 0 011.226 1.235h-2.54a1.569 1.569 0 01.436-.92 1.229 1.229 0 01.878-.315zm8.278-1.337a2.533 2.533 0 00-1.245.3 2.352 2.352 0 00-.891.87l-.127-1.009h-1.794a14.9 14.9 0 01.1 1.828v4.562h1.908v-3.58a1.522 1.522 0 01.379-1.084 1.322 1.322 0 011.011-.4.937.937 0 01.778.309 1.564 1.564 0 01.246.976v3.779h1.908v-3.87q0-2.685-2.274-2.685zm8 0a2.539 2.539 0 00-1.245.3 2.366 2.366 0 00-.891.87l-.126-1.009h-1.795a14.709 14.709 0 01.1 1.828v4.562h1.909v-3.58a1.517 1.517 0 01.379-1.084 1.322 1.322 0 011.011-.4.933.933 0 01.777.309 1.563 1.563 0 01.247.976v3.779h1.908v-3.87q0-2.685-2.275-2.685zm5.952 6.555V2.998h-1.908v6.39h1.908zm-1.971-7.6h2.034V.002h-2.034v1.79zM41 6.078a3.414 3.414 0 00-.783-2.363 2.722 2.722 0 00-2.136-.877 3.156 3.156 0 00-1.63.423 2.9 2.9 0 00-1.119 1.185 3.692 3.692 0 00-.4 1.733 3.21 3.21 0 00.923 2.426 3.507 3.507 0 002.54.889 4.624 4.624 0 001.359-.208 3.38 3.38 0 001.131-.574l-.506-1.285a3.162 3.162 0 01-.91.479 3.109 3.109 0 01-.985.163 1.7 1.7 0 01-1.239-.409 1.928 1.928 0 01-.468-1.305h4.221v-.277zm-2.868-1.9a1.181 1.181 0 011.226 1.235h-2.533a1.581 1.581 0 01.436-.92 1.23 1.23 0 01.879-.315zm6.773 5.319a3.375 3.375 0 002.01-.53 1.682 1.682 0 00.733-1.437 1.66 1.66 0 00-.443-1.21 2.868 2.868 0 00-1.428-.68l-1.074-.24a1.353 1.353 0 01-.562-.22.43.43 0 01-.158-.347.509.509 0 01.265-.454 1.394 1.394 0 01.733-.164 3.027 3.027 0 01.992.177 4.174 4.174 0 011 .517l.531-1.273a4.05 4.05 0 00-1.176-.587 4.43 4.43 0 00-1.339-.208 3.682 3.682 0 00-1.428.259 2.253 2.253 0 00-.967.725 1.725 1.725 0 00-.348 1.058 1.6 1.6 0 00.436 1.173 2.681 2.681 0 001.359.642l1.049.24a1.862 1.862 0 01.67.239.446.446 0 01.189.379.48.48 0 01-.265.441 1.55 1.55 0 01-.758.151 4.18 4.18 0 01-1.264-.195 3.926 3.926 0 01-1.125-.561l-.5 1.323a4.7 4.7 0 002.868.782zM56.898 4.43V2.998h-1.63V.881l-1.908.617v1.5h-1.214v1.425h1.214v2.521a2.644 2.644 0 00.625 1.878 2.367 2.367 0 001.814.668 3.036 3.036 0 001.1-.177V7.839a2.689 2.689 0 01-.632.088 1.045 1.045 0 01-.72-.246.981.981 0 01-.278-.775V4.423h1.63zm4.284 5.067a3.71 3.71 0 001.769-.4 2.786 2.786 0 001.169-1.159 4 4 0 000-3.53 2.792 2.792 0 00-1.169-1.159 3.71 3.71 0 00-1.769-.4 3.779 3.779 0 00-1.788.4 2.783 2.783 0 00-1.175 1.159 4 4 0 000 3.53 2.778 2.778 0 001.175 1.159 3.779 3.779 0 001.788.4zm0-1.45q-1.479 0-1.478-1.878a2.209 2.209 0 01.379-1.4 1.325 1.325 0 011.1-.473 1.3 1.3 0 011.081.473 2.846 2.846 0 010 2.817 1.3 1.3 0 01-1.081.466zm12.549-5.206a2.507 2.507 0 00-1.283.328 1.931 1.931 0 00-.815.9l-.126-1.059h-1.8a14.709 14.709 0 01.1 1.828v7.285h1.918V8.456a1.926 1.926 0 00.809.768 2.546 2.546 0 001.2.278 2.73 2.73 0 001.479-.4 2.658 2.658 0 001-1.153 4.018 4.018 0 00.354-1.733 4.085 4.085 0 00-.36-1.752 2.8 2.8 0 00-1-1.191 2.612 2.612 0 00-1.466-.423zm-.543 5.206a1.319 1.319 0 01-1.093-.479 2.159 2.159 0 01-.386-1.386 2.188 2.188 0 01.386-1.393 1.315 1.315 0 011.093-.485 1.282 1.282 0 011.08.5 2.254 2.254 0 01.386 1.4 2.15 2.15 0 01-.379 1.368 1.314 1.314 0 01-1.087.472zm10.6-1.966a3.415 3.415 0 00-.784-2.363 2.72 2.72 0 00-2.136-.877 3.159 3.159 0 00-1.63.423 2.886 2.886 0 00-1.118 1.185 3.68 3.68 0 00-.4 1.733 3.21 3.21 0 00.922 2.426 3.507 3.507 0 002.54.889 4.624 4.624 0 001.359-.208 3.37 3.37 0 001.131-.574l-.506-1.285a3.162 3.162 0 01-.91.479 3.109 3.109 0 01-.985.163 1.7 1.7 0 01-1.239-.409 1.923 1.923 0 01-.467-1.305h4.221v-.277zm-2.869-1.9a1.18 1.18 0 011.226 1.235h-2.54a1.569 1.569 0 01.436-.92 1.227 1.227 0 01.878-.315zm8.05-1.324a2.121 2.121 0 00-1.156.322 1.869 1.869 0 00-.752.926l-.127-1.1H85.14a14.9 14.9 0 01.1 1.828v4.555h1.908v-3.34a1.569 1.569 0 01.4-1.141 1.541 1.541 0 011.156-.41 2.231 2.231 0 01.936.215l.012-1.74a1.648 1.648 0 00-.682-.126zm5.586 3.227l2.717-3.063h-2.288l-2.4 2.735V.122h-1.908v9.266h1.908v-2.86l2.515 2.861h2.338zm6 3.416a3.375 3.375 0 002.01-.53 1.682 1.682 0 00.733-1.437 1.664 1.664 0 00-.442-1.21 2.868 2.868 0 00-1.429-.68l-1.074-.24a1.359 1.359 0 01-.562-.22.43.43 0 01-.158-.347.509.509 0 01.265-.454 1.4 1.4 0 01.733-.164 3.027 3.027 0 01.992.177 4.155 4.155 0 011 .517l.531-1.273a4.044 4.044 0 00-1.175-.587 4.441 4.441 0 00-1.34-.208 3.69 3.69 0 00-1.428.259 2.253 2.253 0 00-.967.725 1.724 1.724 0 00-.347 1.058 1.594 1.594 0 00.436 1.173 2.673 2.673 0 001.358.642l1.049.24a1.862 1.862 0 01.67.239.446.446 0 01.189.379.48.48 0 01-.265.441 1.55 1.55 0 01-.758.151 4.184 4.184 0 01-1.264-.195 3.926 3.926 0 01-1.125-.561l-.5 1.323a4.7 4.7 0 002.868.782z" fill="#f36a20" fill-rule="evenodd"/></svg>