<svg xmlns="http://www.w3.org/2000/svg" width="87.157" height="12.156"><path data-name="Upgrade from" d="M3.868 9.443a3.932 3.932 0 002.875-.977 3.816 3.816 0 00.992-2.842V.355H5.789v5.357a2.4 2.4 0 01-.493 1.632 1.8 1.8 0 01-1.428.561 1.82 1.82 0 01-1.435-.561 2.38 2.38 0 01-.5-1.632V.355H0v5.269a3.824 3.824 0 00.985 2.848 3.938 3.938 0 002.882.971zm9.655-6.668a2.5 2.5 0 00-1.283.328 1.922 1.922 0 00-.815.895l-.127-1.059H9.504a14.9 14.9 0 01.1 1.828v7.283h1.908V8.382a1.928 1.928 0 00.809.769 2.553 2.553 0 001.2.277 2.724 2.724 0 001.478-.4 2.659 2.659 0 001-1.153 4.033 4.033 0 00.353-1.733 4.082 4.082 0 00-.36-1.752 2.813 2.813 0 00-1-1.192 2.621 2.621 0 00-1.466-.422zm-.544 5.206a1.323 1.323 0 01-1.093-.479 2.168 2.168 0 01-.385-1.387 2.191 2.191 0 01.385-1.392 1.314 1.314 0 011.093-.486 1.284 1.284 0 011.081.5 2.259 2.259 0 01.385 1.4 2.14 2.14 0 01-.379 1.367 1.313 1.313 0 01-1.087.473zm9.44-5.042v.911a2.075 2.075 0 00-.834-.782 2.537 2.537 0 00-1.213-.29 2.681 2.681 0 00-2.489 1.519 3.983 3.983 0 000 3.34 2.722 2.722 0 001.011 1.122 2.755 2.755 0 001.478.4 2.462 2.462 0 002.047-1.084v1.109a1.536 1.536 0 01-.4 1.166 1.723 1.723 0 01-1.226.385 5.13 5.13 0 01-2.3-.58l-.291 1.412a5.633 5.633 0 002.654.592 3.74 3.74 0 002.578-.794 2.956 2.956 0 00.885-2.319v-6.1h-1.9zm-1.491 4.765a1.4 1.4 0 01-1.112-.467 1.875 1.875 0 01-.4-1.273 1.852 1.852 0 01.4-1.267 1.406 1.406 0 011.112-.46 1.37 1.37 0 011.1.46 2.251 2.251 0 01-.007 2.546 1.369 1.369 0 01-1.093.461zm8.9-4.916a2.128 2.128 0 00-1.156.321 1.868 1.868 0 00-.752.927l-.127-1.1h-1.794a14.9 14.9 0 01.1 1.828v4.563h1.908V5.986a1.568 1.568 0 01.4-1.14 1.541 1.541 0 011.156-.41 2.229 2.229 0 01.936.214l.012-1.739a1.648 1.648 0 00-.682-.126zm6.116.151v.911a2.091 2.091 0 00-.821-.782 2.467 2.467 0 00-1.2-.29 2.621 2.621 0 00-1.466.422 2.813 2.813 0 00-1 1.192 4.082 4.082 0 00-.36 1.752 3.961 3.961 0 00.36 1.733 2.623 2.623 0 002.47 1.556 2.553 2.553 0 001.2-.277 2.007 2.007 0 00.821-.769v.946h1.883V2.942h-1.893zm-1.466 5.042a1.344 1.344 0 01-1.105-.473 2.117 2.117 0 01-.386-1.367 2.234 2.234 0 01.392-1.4 1.313 1.313 0 011.1-.5 1.3 1.3 0 011.087.486 2.216 2.216 0 01.379 1.392 2.193 2.193 0 01-.379 1.387 1.3 1.3 0 01-1.087.479zM44.133.053v3.743a2 2 0 00-.821-.75 2.556 2.556 0 00-1.175-.271 2.67 2.67 0 00-1.473.41 2.763 2.763 0 00-1 1.159 3.963 3.963 0 00-.36 1.734 4.04 4.04 0 00.36 1.745 2.806 2.806 0 001 1.185 2.609 2.609 0 001.466.422 2.551 2.551 0 001.2-.277 2.016 2.016 0 00.822-.769v.946h1.886V.05h-1.909zm-1.44 7.928a1.32 1.32 0 01-1.1-.5 2.224 2.224 0 01-.391-1.405 2.1 2.1 0 01.391-1.362 1.342 1.342 0 011.1-.479 1.3 1.3 0 011.08.486 2.17 2.17 0 01.386 1.38 2.228 2.228 0 01-.379 1.393 1.3 1.3 0 01-1.087.485zm10.893-1.966a3.417 3.417 0 00-.783-2.364 2.722 2.722 0 00-2.136-.876 3.165 3.165 0 00-1.63.422 2.9 2.9 0 00-1.119 1.185 3.7 3.7 0 00-.4 1.733 3.212 3.212 0 00.923 2.427 3.509 3.509 0 002.54.888 4.579 4.579 0 001.358-.208 3.356 3.356 0 001.132-.573l-.506-1.286a3.185 3.185 0 01-1.9.643 1.7 1.7 0 01-1.238-.41 1.925 1.925 0 01-.468-1.3h4.221v-.277zm-2.868-1.9a1.18 1.18 0 011.22 1.235h-2.54a1.584 1.584 0 01.436-.92 1.23 1.23 0 01.879-.315zm11.487-2.559a2.721 2.721 0 01.619.089V.15a3.087 3.087 0 00-1.087-.164 2.323 2.323 0 00-1.794.669 2.657 2.657 0 00-.62 1.878v.4h-1.2v1.424h1.2v4.967h1.909V4.357h1.339V2.933h-1.339V2.58a1.03 1.03 0 01.265-.788 1 1 0 01.708-.246zm5.484 1.236a2.131 2.131 0 00-1.156.321 1.873 1.873 0 00-.752.927l-.126-1.1h-1.8a14.709 14.709 0 01.1 1.828v4.563h1.909V5.99a1.564 1.564 0 01.4-1.14 1.54 1.54 0 011.156-.41 2.225 2.225 0 01.935.214l.013-1.739a1.653 1.653 0 00-.683-.126zm4.638 6.642a3.716 3.716 0 001.77-.4 2.8 2.8 0 001.169-1.16 4 4 0 000-3.529 2.805 2.805 0 00-1.169-1.16 3.728 3.728 0 00-1.77-.4 3.791 3.791 0 00-1.788.4 2.791 2.791 0 00-1.175 1.16 3.993 3.993 0 000 3.529 2.785 2.785 0 001.175 1.16 3.779 3.779 0 001.788.4zm0-1.449q-1.477 0-1.478-1.878a2.212 2.212 0 01.379-1.406 1.326 1.326 0 011.1-.472 1.3 1.3 0 011.081.472 2.846 2.846 0 010 2.817 1.3 1.3 0 01-1.081.467zM84.99 2.779a2.432 2.432 0 00-1.232.322 2.332 2.332 0 00-.878.863 1.838 1.838 0 00-1.9-1.185 2.458 2.458 0 00-1.207.29 2.017 2.017 0 00-.815.832l-.114-.958H77.05a14.9 14.9 0 01.1 1.828v4.563h1.908v-3.53a1.78 1.78 0 01.322-1.134 1.092 1.092 0 01.9-.4.809.809 0 01.7.3 1.637 1.637 0 01.221.958v3.807h1.909v-3.53a1.8 1.8 0 01.316-1.134 1.072 1.072 0 01.9-.4.815.815 0 01.708.3 1.675 1.675 0 01.215.964v3.807h1.908v-3.87a3.173 3.173 0 00-.537-2.023 1.985 1.985 0 00-1.637-.662z" fill="#f36a20" fill-rule="evenodd"/></svg>