<svg xmlns="http://www.w3.org/2000/svg" width="339.2" height="50.2"><g data-name="Layer 2"><g data-name="Layer 1"><path d="M194.1.1c7.1 0 14.8 3.1 14.8 12.4a12 12 0 01-7.2 11.2 11.66 11.66 0 019 11.7c0 6.7-5 14.1-15.8 14.1h-22.1V.1zm-1 20.9c4.5 0 8.1-2.6 8.1-7.4s-3.3-6.8-7.9-6.8h-12.8V21zm.5 22c5.9 0 9.1-2.9 9.1-8 0-4.7-3.7-7.5-9.4-7.5h-12.7V43zm46.8 6.6a4.48 4.48 0 01-.1-1.2 24.39 24.39 0 01-.1-2.8c-1.7 1.7-4.9 4.5-12.4 4.5s-13.2-4.2-13.2-11.7c0-8.2 6.9-10.5 10.6-11 2-.3 5.7-.8 8.8-1.3 1.9-.2 3.8-.5 5.9-.8v-1.5c0-3.7-1.3-6.7-8-6.7-7.1 0-8.1 3.7-8.3 6.2H216c0-5 2.5-12.4 15.7-12.4s15.6 6.8 15.6 12.7v20c0 2.2 0 4.7.5 6zm-.5-18.5l-4.2.6-6.9 1.1c-3.5.6-6.4 1.8-6.4 5.6 0 2.6 1.8 5.8 6.8 5.8 3.9 0 6.5-1.1 8.4-2.8a8.7 8.7 0 002.4-6.1zm39.3 18.5v-24c0-5.4-2.8-8.2-7.8-8.2-5.4 0-9.9 3.7-9.9 11v21.2H254V11.4h7.4v4.7c2.2-2.8 6.2-5.2 11.8-5.2 8.3 0 13.4 4.8 13.4 12.4v26.3zM293.3.1h7.5v49.5h-7.5zm19.7 30l12.3-18.6h-9l-12.5 19L319 49.6h9.6z" fill="#625655"/><path d="M67.9 49.6a4.48 4.48 0 01-.1-1.2 24.39 24.39 0 01-.1-2.8c-1.7 1.7-5 4.5-12.4 4.5s-13.2-4.2-13.2-11.7c0-8.2 6.9-10.5 10.6-11 2-.3 5.7-.8 8.8-1.3 1.9-.2 3.8-.5 5.9-.8v-1.5c0-3.7-1.3-6.7-8-6.7-7.1 0-8.1 3.7-8.3 6.2h-7.6c0-5 2.5-12.4 15.7-12.4s15.6 6.8 15.6 12.7v20c0 2.2 0 4.7.5 6zm-.5-18.5l-4.2.6-6.9 1.1c-3.5.6-6.4 1.8-6.4 5.6 0 2.6 1.8 5.8 6.8 5.8 3.9 0 6.5-1.1 8.4-2.8a8.7 8.7 0 002.4-6.1v-4.2zm36.8-8.9c-.4-4-3.4-5.2-7.8-5.2-3 0-7.9.9-7.9 4.8 0 2.3 1.5 3.5 4 4.1 6.9 1.7 19.8.6 19.8 12.2 0 5.2-3.1 12.1-16.6 12.1-8.5 0-15.1-4.2-15.3-12.1h7.8c0 3 2.1 6.1 8 6.1 6.4 0 8.6-2.9 8.6-5.4s-1.3-3.5-4.5-4.3c-7.1-1.7-19.2-.4-19.2-12.2 0-6.4 5.5-11.2 15.6-11.2 12.7 0 14.8 7.6 15 11.2zM118.3.1h7.5v49.5h-7.5zm19.7 30l12.2-18.6h-8.9l-12.6 19L144 49.6h9.6zM23.8 20.5H11.4v7.7h12.4a6.8 6.8 0 010 13.6h-16v-34H21a6.5 6.5 0 016.7 6.3 5 5 0 01-.7 2.7l7.3 2.5a13.1 13.1 0 001.1-5.2A14.28 14.28 0 0021 0H0v49.6h23.8a14.55 14.55 0 000-29.1z" fill="#f36a20"/><path d="M331.3 1v4.2h-1V1h-1.7V.1h4.5V1zm4.8 4.2l-1.3-3.8v3.8h-1V.1h1.4l1.3 3.8 1.3-3.8h1.4v5.1h-1V1.4l-1.3 3.8z" fill="#625655"/></g></g></svg>