<svg xmlns="http://www.w3.org/2000/svg" width="224.875" height="64.187"><path data-name="for tomorrow’s getaways." d="M10.085 3.849a6.753 6.753 0 011.531.217V.405a7.648 7.648 0 00-2.687-.4 5.765 5.765 0 00-4.436 1.644 6.526 6.526 0 00-1.531 4.622v.991H-.005v3.506h2.968v12.223H7.68V10.767h3.311V7.262H7.68v-.868a2.526 2.526 0 01.656-1.939 2.475 2.475 0 011.749-.605zm11.122 19.389a9.212 9.212 0 004.374-.992 6.913 6.913 0 002.889-2.854 9.8 9.8 0 000-8.687 6.907 6.907 0 00-2.889-2.854 9.213 9.213 0 00-4.374-.993 9.368 9.368 0 00-4.42.993 6.877 6.877 0 00-2.906 2.854 9.8 9.8 0 000 8.687 6.882 6.882 0 002.906 2.854 9.368 9.368 0 004.42.992zm0-3.567q-3.656 0-3.655-4.623a5.428 5.428 0 01.937-3.459 3.285 3.285 0 012.718-1.163 3.2 3.2 0 012.671 1.163 6.979 6.979 0 010 6.934 3.226 3.226 0 01-2.671 1.148zM41.731 6.889a5.281 5.281 0 00-2.858.791 4.613 4.613 0 00-1.859 2.28l-.312-2.7h-4.437a36.25 36.25 0 01.25 4.5v11.23h4.722v-8.221a3.471 3.471 0 013.842-3.816 5.541 5.541 0 012.312.527l.031-4.281a4.106 4.106 0 00-1.687-.31zm22.336 3.878V7.262h-4.03V2.05L55.32 3.57v3.692h-3v3.506h3v6.2a6.485 6.485 0 001.546 4.622 5.856 5.856 0 004.483 1.644 7.551 7.551 0 002.718-.434v-3.63a6.556 6.556 0 01-1.562.218 2.6 2.6 0 01-1.781-.605 2.418 2.418 0 01-.687-1.908v-6.112h4.03zm9.965 12.471a9.212 9.212 0 004.374-.992 6.913 6.913 0 002.889-2.854 9.792 9.792 0 000-8.687 6.907 6.907 0 00-2.889-2.854 9.213 9.213 0 00-4.374-.993 9.371 9.371 0 00-4.42.993 6.871 6.871 0 00-2.905 2.854 9.792 9.792 0 000 8.687 6.877 6.877 0 002.905 2.854 9.371 9.371 0 004.42.992zm0-3.567q-3.654 0-3.655-4.623a5.434 5.434 0 01.937-3.459 3.285 3.285 0 012.718-1.163 3.2 3.2 0 012.671 1.163 6.979 6.979 0 010 6.934 3.225 3.225 0 01-2.671 1.148zm30.677-12.809a6.056 6.056 0 00-3.046.791 5.777 5.777 0 00-2.171 2.125q-1.155-2.916-4.686-2.916a6.093 6.093 0 00-2.983.713 4.983 4.983 0 00-2.015 2.048l-.281-2.361h-4.436a36.445 36.445 0 01.25 4.5v11.23h4.717v-8.686a4.349 4.349 0 01.8-2.792 2.7 2.7 0 012.233-.993 2.009 2.009 0 011.734.744 4.031 4.031 0 01.547 2.358v9.369h4.717v-8.686a4.415 4.415 0 01.781-2.792 2.657 2.657 0 012.218-.993 2.018 2.018 0 011.749.729 4.107 4.107 0 01.531 2.373v9.369h4.718v-9.53a7.787 7.787 0 00-1.328-4.979 4.914 4.914 0 00-4.046-1.629zm16.651 16.38a9.212 9.212 0 004.374-.992 6.913 6.913 0 002.889-2.854 9.792 9.792 0 000-8.687 6.907 6.907 0 00-2.889-2.854 9.213 9.213 0 00-4.374-.993 9.368 9.368 0 00-4.42.993 6.879 6.879 0 00-2.906 2.854 9.8 9.8 0 000 8.687 6.885 6.885 0 002.906 2.854 9.368 9.368 0 004.42.992zm0-3.567q-3.656 0-3.655-4.623a5.428 5.428 0 01.937-3.459 3.285 3.285 0 012.718-1.163 3.2 3.2 0 012.671 1.163 6.979 6.979 0 010 6.934 3.226 3.226 0 01-2.671 1.148zm20.524-12.782a5.281 5.281 0 00-2.858.791 4.613 4.613 0 00-1.859 2.28l-.312-2.7h-4.436a36.459 36.459 0 01.249 4.5v11.23h4.718v-8.221a3.471 3.471 0 013.842-3.816 5.541 5.541 0 012.312.527l.031-4.281a4.106 4.106 0 00-1.687-.31zm12.808 0a5.281 5.281 0 00-2.858.791 4.613 4.613 0 00-1.859 2.28l-.312-2.7h-4.437a36.25 36.25 0 01.25 4.5v11.23h4.718v-8.221a3.471 3.471 0 013.842-3.816 5.541 5.541 0 012.312.527l.031-4.281a4.106 4.106 0 00-1.687-.31zm10.84 16.349a9.212 9.212 0 004.374-.992 6.913 6.913 0 002.889-2.854 9.792 9.792 0 000-8.687 6.907 6.907 0 00-2.889-2.854 9.213 9.213 0 00-4.374-.993 9.371 9.371 0 00-4.42.993 6.879 6.879 0 00-2.906 2.854 9.8 9.8 0 000 8.687 6.885 6.885 0 002.906 2.854 9.371 9.371 0 004.42.992zm0-3.567q-3.656 0-3.655-4.623a5.428 5.428 0 01.937-3.459 3.285 3.285 0 012.718-1.163 3.2 3.2 0 012.671 1.163 6.979 6.979 0 010 6.934 3.225 3.225 0 01-2.671 1.148zm28.522-2.172l-3.811-10.241h-3.218l-3.78 10.145-3.808-10.145h-4.811l6.4 15.729h4l3.436-9.121 3.592 9.121h3.968l6.4-15.729h-4.561zM204.3.903v4.995h2.343a6.7 6.7 0 01-1.906 3.041l1.844 1.458a10.329 10.329 0 002.171-3.01 8.111 8.111 0 00.64-3.288v-3.2H204.3zm13.808 22.337a8.361 8.361 0 004.967-1.3 4.129 4.129 0 001.812-3.536 4.076 4.076 0 00-1.093-2.979 7.1 7.1 0 00-3.53-1.675l-2.656-.589a3.391 3.391 0 01-1.39-.543 1.057 1.057 0 01-.39-.853 1.249 1.249 0 01.656-1.117 3.452 3.452 0 011.812-.4 7.52 7.52 0 012.452.434 10.3 10.3 0 012.484 1.272l1.312-3.134a10.049 10.049 0 00-2.906-1.442 10.96 10.96 0 00-3.311-.512 9.138 9.138 0 00-3.53.636 5.571 5.571 0 00-2.39 1.784 4.235 4.235 0 00-.859 2.606 3.913 3.913 0 001.078 2.885 6.625 6.625 0 003.358 1.582l2.593.59a4.6 4.6 0 011.656.589 1.092 1.092 0 01.468.931 1.184 1.184 0 01-.656 1.086 3.848 3.848 0 01-1.874.372 10.35 10.35 0 01-3.124-.481 9.67 9.67 0 01-2.781-1.38l-1.249 3.257a11.659 11.659 0 007.091 1.923zM13.116 41.387v2.234a5.136 5.136 0 00-2.062-1.923 6.29 6.29 0 00-3-.714 6.852 6.852 0 00-3.655.977 6.731 6.731 0 00-2.5 2.761 9.781 9.781 0 000 8.222 6.731 6.731 0 002.5 2.761 6.852 6.852 0 003.655.977 6.1 6.1 0 005.061-2.668v2.73a3.777 3.777 0 01-1 2.87 4.271 4.271 0 01-3.03.946 12.712 12.712 0 01-5.686-1.427l-.718 3.475a13.952 13.952 0 006.56 1.458q4.186 0 6.373-1.955a7.261 7.261 0 002.187-5.708V41.387h-4.685zM9.43 53.114a3.452 3.452 0 01-2.749-1.148 4.6 4.6 0 01-1-3.133 4.548 4.548 0 011-3.118 3.476 3.476 0 012.749-1.132 3.383 3.383 0 012.718 1.132 5.517 5.517 0 01-.016 6.267 3.393 3.393 0 01-2.7 1.132zm26.366-4.157a8.384 8.384 0 00-1.936-5.817 6.743 6.743 0 00-5.28-2.156 7.852 7.852 0 00-4.03 1.039 7.144 7.144 0 00-2.765 2.917 9.046 9.046 0 00-.984 4.265 7.881 7.881 0 002.281 5.972 8.7 8.7 0 006.279 2.188 11.416 11.416 0 003.358-.512 8.346 8.346 0 002.8-1.412l-1.249-3.164a7.8 7.8 0 01-2.25 1.179 7.706 7.706 0 01-2.436.4 4.212 4.212 0 01-3.062-1.008 4.728 4.728 0 01-1.156-3.211H35.8v-.675zm-7.091-4.684q2.655 0 3.03 3.04h-6.279a3.874 3.874 0 011.078-2.265 3.044 3.044 0 012.171-.775zm19.712.62v-3.506h-4.03v-5.212l-4.717 1.521v3.691h-3v3.506h3v6.2a6.485 6.485 0 001.546 4.622 5.856 5.856 0 004.483 1.645 7.549 7.549 0 002.718-.435v-3.63a6.556 6.556 0 01-1.562.218 2.6 2.6 0 01-1.781-.605A2.418 2.418 0 0144.387 51v-6.112h4.03zm13.62-3.506v2.234a5.179 5.179 0 00-2.03-1.923 6.108 6.108 0 00-2.968-.714 6.491 6.491 0 00-3.624 1.039 6.925 6.925 0 00-2.483 2.932 10.009 10.009 0 00-.891 4.312 9.7 9.7 0 00.891 4.266 6.491 6.491 0 006.105 3.829 6.336 6.336 0 002.968-.683 4.971 4.971 0 002.03-1.892v2.326h4.655V41.387h-4.653zm-3.623 12.41a3.331 3.331 0 01-2.734-1.164 5.2 5.2 0 01-.953-3.366 5.466 5.466 0 01.969-3.443 3.249 3.249 0 012.718-1.241 3.213 3.213 0 012.686 1.194 5.451 5.451 0 01.937 3.428 5.382 5.382 0 01-.937 3.413 3.231 3.231 0 01-2.686 1.179zm29.615-2.172l-3.812-10.238H81l-3.78 10.145-3.812-10.145h-4.811l6.405 15.729h4l3.435-9.121 3.592 9.121h3.968l6.4-15.729h-4.56zm21.208-10.238v2.234a5.186 5.186 0 00-2.03-1.923 6.108 6.108 0 00-2.968-.714 6.491 6.491 0 00-3.624 1.039 6.925 6.925 0 00-2.483 2.932 10.009 10.009 0 00-.891 4.312 9.7 9.7 0 00.891 4.266 6.491 6.491 0 006.105 3.829 6.336 6.336 0 002.968-.683 4.977 4.977 0 002.03-1.892v2.326h4.655V41.387h-4.653zm-3.624 12.41a3.329 3.329 0 01-2.733-1.164 5.189 5.189 0 01-.953-3.366 5.466 5.466 0 01.969-3.443 3.249 3.249 0 012.717-1.241 3.214 3.214 0 012.687 1.194 5.451 5.451 0 01.937 3.428 5.382 5.382 0 01-.937 3.413 3.231 3.231 0 01-2.687 1.179zm23.055-12.41l-4.186 10.207-4.061-10.207h-4.934l6.529 14.923-.469 1.024a4.738 4.738 0 01-1.733 2.078 10.165 10.165 0 01-3.3 1.179l1.093 3.6a11.4 11.4 0 005.014-1.815 10.284 10.284 0 003.39-4.421l7.31-16.567h-4.655zm12.123 15.975a8.37 8.37 0 004.967-1.3 4.132 4.132 0 001.812-3.537 4.076 4.076 0 00-1.093-2.978 7.1 7.1 0 00-3.53-1.676l-2.656-.589a3.384 3.384 0 01-1.39-.543 1.054 1.054 0 01-.39-.853 1.249 1.249 0 01.656-1.117 3.452 3.452 0 011.812-.4 7.551 7.551 0 012.452.434 10.273 10.273 0 012.483 1.272l1.312-3.133a10.008 10.008 0 00-2.905-1.443 10.965 10.965 0 00-3.311-.512 9.138 9.138 0 00-3.53.636 5.565 5.565 0 00-2.39 1.784 4.235 4.235 0 00-.859 2.606 3.913 3.913 0 001.078 2.885 6.625 6.625 0 003.358 1.582l2.593.59a4.6 4.6 0 011.655.589 1.09 1.09 0 01.469.931 1.183 1.183 0 01-.656 1.086 3.848 3.848 0 01-1.874.372 10.345 10.345 0 01-3.124-.481 9.67 9.67 0 01-2.781-1.38l-1.249 3.257a11.659 11.659 0 007.091 1.924zm9.122-.249h5.092v-4.991h-5.092v4.994z" fill="#f36a20" fill-rule="evenodd"/></svg>