<svg xmlns="http://www.w3.org/2000/svg" width="206.25" height="131.406"><path data-name="Earn AAdvantage® miles for saving." d="M17.896 22.081v-3.752H7.306v-5.584h9.934V8.96H7.306V3.748h10.59V-.006H2.557v22.087h15.339zM32.172 6.354v2.234a5.188 5.188 0 00-2.031-1.923 6.113 6.113 0 00-2.968-.714 6.486 6.486 0 00-3.624 1.039 6.921 6.921 0 00-2.483 2.932 10.015 10.015 0 00-.89 4.312 9.707 9.707 0 00.89 4.266 6.491 6.491 0 006.107 3.831 6.34 6.34 0 002.968-.683 4.971 4.971 0 002.031-1.892v2.325h4.655V6.354h-4.655zm-3.624 12.41a3.331 3.331 0 01-2.733-1.163 5.194 5.194 0 01-.953-3.366 5.47 5.47 0 01.968-3.444 3.25 3.25 0 012.718-1.241 3.215 3.215 0 012.687 1.194 5.451 5.451 0 01.937 3.428 5.382 5.382 0 01-.937 3.413 3.231 3.231 0 01-2.687 1.179zM49.854 5.981a5.28 5.28 0 00-2.859.791 4.617 4.617 0 00-1.859 2.28l-.312-2.7h-4.436a36.364 36.364 0 01.25 4.5v11.229h4.717v-8.219a3.472 3.472 0 013.843-3.816 5.528 5.528 0 012.311.527l.032-4.281a4.1 4.1 0 00-1.687-.31zm13.37-.031a6.3 6.3 0 00-3.077.745 5.816 5.816 0 00-2.2 2.141l-.312-2.482h-4.439a36.441 36.441 0 01.25 4.5v11.227h4.717v-8.808a3.732 3.732 0 01.937-2.668 3.276 3.276 0 012.5-.993 2.317 2.317 0 011.922.76 3.838 3.838 0 01.609 2.4v9.309h4.717v-9.522q0-6.608-5.623-6.608zM24.362 56.209L14.147 34.12h-3.941L-.005 56.209h4.9l2.124-4.9h10.4l2.124 4.9h4.811zM12.241 39.332l3.593 8.283H8.649zm35.832 16.877L37.858 34.12h-3.937L23.706 56.209h4.9l2.124-4.9h10.4l2.124 4.9h4.811zM35.952 39.332l3.592 8.283h-7.185zm24.866-5.957v9.214a4.934 4.934 0 00-2.03-1.846 6.319 6.319 0 00-2.905-.667 6.615 6.615 0 00-3.64 1.008 6.8 6.8 0 00-2.468 2.854 9.716 9.716 0 00-.89 4.266 9.919 9.919 0 00.89 4.3 6.937 6.937 0 002.484 2.916 6.48 6.48 0 003.624 1.039 6.336 6.336 0 002.967-.683 4.968 4.968 0 002.031-1.892v2.327h4.655V33.376h-4.718zm-3.561 19.514a3.266 3.266 0 01-2.718-1.225 5.455 5.455 0 01-.968-3.459 5.147 5.147 0 01.968-3.351 3.321 3.321 0 012.718-1.179 3.225 3.225 0 012.671 1.194 5.332 5.332 0 01.953 3.4 5.449 5.449 0 01-.937 3.428 3.214 3.214 0 01-2.687 1.194zm18.869-2.2l-4.062-10.178h-4.935l6.872 15.7h4l6.966-15.7h-4.654zm21.305-10.208v2.234a5.185 5.185 0 00-2.031-1.923 6.11 6.11 0 00-2.967-.714 6.484 6.484 0 00-3.624 1.039 6.927 6.927 0 00-2.484 2.932 10.023 10.023 0 00-.89 4.312 9.714 9.714 0 00.89 4.266 6.491 6.491 0 006.108 3.832 6.336 6.336 0 002.967-.683 4.968 4.968 0 002.031-1.892v2.327h4.655v-15.73h-4.655zM93.806 52.89a3.33 3.33 0 01-2.733-1.163 5.19 5.19 0 01-.953-3.366 5.469 5.469 0 01.968-3.444 3.251 3.251 0 012.718-1.241 3.216 3.216 0 012.687 1.194 5.449 5.449 0 01.937 3.428 5.38 5.38 0 01-.937 3.413 3.232 3.232 0 01-2.687 1.179zm21.869-12.809a6.3 6.3 0 00-3.078.745 5.812 5.812 0 00-2.2 2.141l-.314-2.486h-4.436a36.441 36.441 0 01.25 4.5v11.228h4.717v-8.81a3.728 3.728 0 01.937-2.668 3.274 3.274 0 012.5-.993 2.315 2.315 0 011.921.76 3.838 3.838 0 01.61 2.4v9.307h4.717v-9.524q0-6.608-5.623-6.608zm19.337 3.9v-3.5h-4.03v-5.213l-4.717 1.52v3.693h-3v3.5h3v6.2a6.485 6.485 0 001.546 4.623 5.858 5.858 0 004.483 1.644 7.563 7.563 0 002.718-.434v-3.63a6.563 6.563 0 01-1.562.217 2.6 2.6 0 01-1.781-.6 2.416 2.416 0 01-.687-1.908v-6.112h4.03zm13.62-3.506v2.234a5.189 5.189 0 00-2.03-1.923 6.116 6.116 0 00-2.968-.714 6.486 6.486 0 00-3.624 1.039 6.927 6.927 0 00-2.484 2.932 10.023 10.023 0 00-.89 4.312 9.714 9.714 0 00.89 4.266 6.491 6.491 0 006.108 3.832 6.343 6.343 0 002.968-.683 4.971 4.971 0 002.03-1.892v2.327h4.655V40.481h-4.655zm-3.626 12.415a3.33 3.33 0 01-2.733-1.163 5.19 5.19 0 01-.953-3.366 5.475 5.475 0 01.968-3.444 3.252 3.252 0 012.718-1.241 3.216 3.216 0 012.687 1.194 5.449 5.449 0 01.937 3.428 5.38 5.38 0 01-.937 3.413 3.232 3.232 0 01-2.687 1.179zm23.432-12.409v2.234a5.14 5.14 0 00-2.062-1.923 6.3 6.3 0 00-3-.714 6.847 6.847 0 00-3.655.977 6.73 6.73 0 00-2.5 2.761 9.778 9.778 0 000 8.221 6.727 6.727 0 002.5 2.761 6.847 6.847 0 003.655.977 6.1 6.1 0 005.061-2.668v2.73a3.778 3.778 0 01-1 2.87 4.269 4.269 0 01-3.03.946 12.714 12.714 0 01-5.686-1.427l-.715 3.475a13.939 13.939 0 006.56 1.458q4.187 0 6.373-1.954a7.258 7.258 0 002.187-5.708V40.481h-4.686zm-3.686 11.727a3.456 3.456 0 01-2.75-1.148 4.61 4.61 0 01-1-3.133 4.551 4.551 0 011-3.118 3.48 3.48 0 012.75-1.132 3.381 3.381 0 012.717 1.132 5.515 5.515 0 01-.015 6.267 3.392 3.392 0 01-2.7 1.132zm26.366-4.157a8.383 8.383 0 00-1.937-5.817 6.742 6.742 0 00-5.275-2.153 7.848 7.848 0 00-4.03 1.039 7.148 7.148 0 00-2.765 2.916 9.05 9.05 0 00-.984 4.266 7.882 7.882 0 002.281 5.972 8.7 8.7 0 006.279 2.187 11.409 11.409 0 003.358-.512 8.321 8.321 0 002.8-1.412l-1.249-3.164a7.89 7.89 0 01-4.69 1.579 4.212 4.212 0 01-3.062-1.008 4.726 4.726 0 01-1.156-3.211h10.435v-.683zm-7.092-4.685q2.655 0 3.03 3.04h-6.279a3.88 3.88 0 011.078-2.265 3.048 3.048 0 012.171-.776zm15.657-10.455a6.613 6.613 0 00-3.342.859 6.332 6.332 0 00-2.368 2.342 6.782 6.782 0 000 6.629 6.377 6.377 0 002.368 2.36 6.849 6.849 0 006.675 0 6.357 6.357 0 002.377-2.36 6.765 6.765 0 000-6.62 6.311 6.311 0 00-2.368-2.351 6.616 6.616 0 00-3.342-.859zm3.934 10.291l-1-1.953a1.761 1.761 0 00-.573-.633 1.623 1.623 0 00-.756-.271 2.47 2.47 0 001.375-.859 2.343 2.343 0 00.482-1.474 2.26 2.26 0 00-.765-1.791 3.216 3.216 0 00-2.185-.669h-3.715v7.741h2.422v-2.786h.437a.461.461 0 01.382.289l1.239 2.5h2.586a5.089 5.089 0 01-1.721 1.148 5.587 5.587 0 01-2.14.407 5.476 5.476 0 01-2.779-.709 5.023 5.023 0 01-1.922-1.944 5.587 5.587 0 01-.692-2.776 5.5 5.5 0 01.692-2.749 5.043 5.043 0 011.922-1.936 5.783 5.783 0 015.536 0 5.05 5.05 0 011.922 1.935 5.512 5.512 0 01.692 2.749 5.75 5.75 0 01-.374 2.089 5.049 5.049 0 01-1.065 1.691zm-3.734-4.359h-1v-1.462h1a1.2 1.2 0 01.72.172.693.693 0 01.227.588.623.623 0 01-.227.543 1.256 1.256 0 01-.72.163zm-178.27 35.36a6.05 6.05 0 00-3.046.791 5.769 5.769 0 00-2.171 2.125q-1.156-2.916-4.686-2.916a6.086 6.086 0 00-2.983.714 4.979 4.979 0 00-2.015 2.047l-.281-2.358H1.995a36.346 36.346 0 01.25 4.5v11.23h4.717V81.65a4.356 4.356 0 01.8-2.792 2.7 2.7 0 012.234-.993 2.007 2.007 0 011.734.745 4.027 4.027 0 01.547 2.358v9.369h4.717v-8.686a4.417 4.417 0 01.781-2.792 2.658 2.658 0 012.218-.993 2.02 2.02 0 011.749.729 4.109 4.109 0 01.531 2.373v9.369h4.717v-9.526a7.788 7.788 0 00-1.328-4.979 4.913 4.913 0 00-4.046-1.629zm13.808 16.132V74.606h-4.715v15.729h4.717zm-4.873-18.707h5.03v-4.405h-5.03v4.405zm13.433 18.707V67.502h-4.718v22.833h4.717zm18.057-8.159a8.383 8.383 0 00-1.937-5.817 6.742 6.742 0 00-5.28-2.156 7.848 7.848 0 00-4.03 1.039 7.141 7.141 0 00-2.764 2.916 9.049 9.049 0 00-.984 4.265 7.883 7.883 0 002.281 5.972 8.7 8.7 0 006.282 2.186 11.416 11.416 0 003.358-.512 8.337 8.337 0 002.8-1.412l-1.249-3.164a7.886 7.886 0 01-4.686 1.582 4.214 4.214 0 01-3.062-1.008 4.728 4.728 0 01-1.155-3.211h10.434v-.675zm-7.092-4.684q2.655 0 3.03 3.041h-6.28a3.88 3.88 0 011.078-2.265 3.048 3.048 0 012.171-.776zm16.12 13.093a8.37 8.37 0 004.967-1.3 4.134 4.134 0 001.812-3.537 4.072 4.072 0 00-1.094-2.978 7.1 7.1 0 00-3.53-1.676l-2.655-.589a3.384 3.384 0 01-1.39-.543 1.056 1.056 0 01-.391-.853 1.251 1.251 0 01.656-1.117 3.456 3.456 0 011.812-.4 7.539 7.539 0 012.452.434 10.279 10.279 0 012.484 1.272l1.312-3.133a10.04 10.04 0 00-2.905-1.443 10.965 10.965 0 00-3.312-.512 9.144 9.144 0 00-3.53.636 5.574 5.574 0 00-2.39 1.784 4.236 4.236 0 00-.859 2.606 3.913 3.913 0 001.078 2.885 6.629 6.629 0 003.358 1.582l2.593.59a4.616 4.616 0 011.656.589 1.092 1.092 0 01.468.931 1.181 1.181 0 01-.656 1.086 3.848 3.848 0 01-1.874.372 10.35 10.35 0 01-3.122-.49 9.651 9.651 0 01-2.78-1.38l-1.25 3.257a11.662 11.662 0 007.092 1.924zM10.554 105.32a6.811 6.811 0 011.531.217v-3.656a7.672 7.672 0 00-2.687-.4 5.765 5.765 0 00-4.436 1.644 6.529 6.529 0 00-1.531 4.623v.992H.464v3.506h2.968v12.215h4.717v-12.223h3.311v-3.506H8.149v-.868a2.526 2.526 0 01.656-1.939 2.475 2.475 0 011.749-.605zm11.122 19.39a9.21 9.21 0 004.374-.993 6.905 6.905 0 002.89-2.854 9.8 9.8 0 000-8.687 6.905 6.905 0 00-2.89-2.854 9.21 9.21 0 00-4.374-.993 9.373 9.373 0 00-4.42.993 6.879 6.879 0 00-2.905 2.854 9.8 9.8 0 000 8.687 6.879 6.879 0 002.905 2.854 9.373 9.373 0 004.42.993zm0-3.568q-3.655 0-3.655-4.623a5.429 5.429 0 01.937-3.459 3.287 3.287 0 012.718-1.163 3.207 3.207 0 012.671 1.163 6.982 6.982 0 010 6.934 3.225 3.225 0 01-2.671 1.148zM42.2 108.36a5.283 5.283 0 00-2.858.791 4.622 4.622 0 00-1.859 2.28l-.312-2.7h-4.436a36.38 36.38 0 01.25 4.5v11.23h4.721v-8.221a3.472 3.472 0 013.843-3.816 5.524 5.524 0 012.312.528l.031-4.282a4.107 4.107 0 00-1.687-.31zm18.431 16.35a8.37 8.37 0 004.967-1.3 4.132 4.132 0 001.812-3.537 4.076 4.076 0 00-1.093-2.978 7.1 7.1 0 00-3.531-1.676l-2.655-.589a3.384 3.384 0 01-1.39-.543 1.055 1.055 0 01-.391-.853 1.251 1.251 0 01.656-1.117 3.457 3.457 0 011.812-.4 7.552 7.552 0 012.453.434 10.309 10.309 0 012.483 1.272l1.312-3.133a10.008 10.008 0 00-2.905-1.443 10.965 10.965 0 00-3.311-.512 9.138 9.138 0 00-3.53.636 5.565 5.565 0 00-2.39 1.784 4.235 4.235 0 00-.859 2.606 3.917 3.917 0 001.077 2.885 6.633 6.633 0 003.359 1.582l2.593.59a4.6 4.6 0 011.655.589 1.09 1.09 0 01.469.931 1.183 1.183 0 01-.656 1.086 3.852 3.852 0 01-1.875.372 10.355 10.355 0 01-3.124-.481 9.677 9.677 0 01-2.78-1.38l-1.25 3.257a11.664 11.664 0 007.092 1.924zm20.868-15.978v2.234a5.2 5.2 0 00-2.031-1.923 6.108 6.108 0 00-2.968-.714 6.488 6.488 0 00-3.623 1.039 6.927 6.927 0 00-2.484 2.932 10.023 10.023 0 00-.89 4.312 9.713 9.713 0 00.89 4.266 6.491 6.491 0 006.107 3.832 6.336 6.336 0 002.968-.683 4.98 4.98 0 002.031-1.892v2.326h4.655v-15.729h-4.655zm-3.624 12.41a3.335 3.335 0 01-2.734-1.163 5.2 5.2 0 01-.952-3.367 5.466 5.466 0 01.968-3.443 3.249 3.249 0 012.718-1.241 3.215 3.215 0 012.687 1.194 5.457 5.457 0 01.937 3.428 5.387 5.387 0 01-.937 3.413 3.232 3.232 0 01-2.687 1.179zm18.868-2.2l-4.061-10.176h-4.936l6.873 15.7h4l6.966-15.7h-4.654zm15.12 5.522v-15.732h-4.717v15.729h4.717zm-4.873-18.707h5.029v-4.405h-5.029v4.405zm18.493 2.575a6.292 6.292 0 00-3.077.745 5.806 5.806 0 00-2.2 2.14l-.313-2.482h-4.436a36.262 36.262 0 01.25 4.5v11.23h4.717v-8.81a3.727 3.727 0 01.938-2.668 3.272 3.272 0 012.5-.993 2.314 2.314 0 011.921.76 3.837 3.837 0 01.609 2.4v9.307h4.714v-9.524q0-6.608-5.623-6.608zm20.712.4v2.234a5.143 5.143 0 00-2.062-1.923 6.29 6.29 0 00-3-.714 6.853 6.853 0 00-3.655.977 6.734 6.734 0 00-2.5 2.761 9.78 9.78 0 000 8.222 6.734 6.734 0 002.5 2.761 6.853 6.853 0 003.655.977 6.1 6.1 0 005.061-2.668v2.73a3.774 3.774 0 01-1 2.87 4.264 4.264 0 01-3.03.946 12.715 12.715 0 01-5.686-1.427l-.718 3.475a13.938 13.938 0 006.56 1.458q4.186 0 6.373-1.955a7.258 7.258 0 002.187-5.708v-15.016h-4.686zm-3.689 11.727a3.453 3.453 0 01-2.749-1.147 4.606 4.606 0 01-1-3.134 4.547 4.547 0 011-3.118 3.475 3.475 0 012.749-1.132 3.383 3.383 0 012.718 1.132 5.518 5.518 0 01-.016 6.267 3.392 3.392 0 01-2.7 1.132zm11.777 4h5.092v-4.994h-5.089v4.994z" fill="#fff" fill-rule="evenodd"/></svg>