<svg xmlns="http://www.w3.org/2000/svg" width="169.875" height="29.906"><path data-name="Save today" d="M8.711 23.112a11.153 11.153 0 006.779-1.814 5.811 5.811 0 002.436-4.918 4.9 4.9 0 00-1.89-4.064 15.59 15.59 0 00-6.169-2.42 18.183 18.183 0 01-2.843-.76 3.509 3.509 0 01-1.421-.884 1.851 1.851 0 01-.422-1.241 2.3 2.3 0 011.125-2.016 5.353 5.353 0 013-.745 10.442 10.442 0 016.467 2.234l1.562-3.475a9.315 9.315 0 00-3.5-1.861A15.222 15.222 0 009.274.465a11.344 11.344 0 00-4.623.884 7.286 7.286 0 00-3.108 2.467A6.064 6.064 0 00.434 7.383a5.5 5.5 0 00.8 3.056 6.155 6.155 0 002.531 2.079 19.469 19.469 0 004.67 1.442 13.768 13.768 0 013.671 1.164 1.849 1.849 0 011.046 1.66 2.076 2.076 0 01-1.14 1.877 6.544 6.544 0 01-3.265.667 12.312 12.312 0 01-7.185-2.234L0 20.568a11.047 11.047 0 003.858 1.877 17.532 17.532 0 004.858.667zM32.359 7.104v2.234a5.188 5.188 0 00-2.03-1.924 6.122 6.122 0 00-2.968-.713 6.483 6.483 0 00-3.624 1.039 6.928 6.928 0 00-2.484 2.932 10.023 10.023 0 00-.89 4.312 9.716 9.716 0 00.89 4.266 6.488 6.488 0 006.108 3.831 6.339 6.339 0 002.968-.682 4.973 4.973 0 002.03-1.893v2.325h4.655V7.104h-4.655zm-3.624 12.41a3.329 3.329 0 01-2.733-1.164 5.189 5.189 0 01-.953-3.366 5.466 5.466 0 01.969-3.443 3.249 3.249 0 012.717-1.241 3.215 3.215 0 012.687 1.194 5.449 5.449 0 01.937 3.428 5.382 5.382 0 01-.937 3.413 3.232 3.232 0 01-2.687 1.179zm18.869-2.2L43.543 7.131h-4.936l6.873 15.7h4l6.967-15.7h-4.655zm24.3-2.637a8.384 8.384 0 00-1.937-5.817 6.739 6.739 0 00-5.279-2.156 7.843 7.843 0 00-4.03 1.039 7.141 7.141 0 00-2.765 2.916 9.053 9.053 0 00-.984 4.266 7.881 7.881 0 002.281 5.972 8.7 8.7 0 006.279 2.187 11.388 11.388 0 003.358-.512 8.327 8.327 0 002.8-1.411l-1.25-3.165a7.9 7.9 0 01-4.686 1.583 4.206 4.206 0 01-3.061-1.009 4.724 4.724 0 01-1.156-3.211h10.434v-.682zm-7.091-4.685q2.655 0 3.03 3.041h-6.279a3.874 3.874 0 011.078-2.265 3.045 3.045 0 012.171-.776zm28.8.621V7.107h-4.03V1.895l-4.717 1.52v3.692h-3v3.506h3v6.205a6.485 6.485 0 001.546 4.622 5.856 5.856 0 004.483 1.644 7.572 7.572 0 002.718-.434v-3.63a6.551 6.551 0 01-1.562.217 2.593 2.593 0 01-1.77-.606 2.414 2.414 0 01-.687-1.907v-6.112h4.03zm9.968 12.468a9.211 9.211 0 004.373-.992 6.906 6.906 0 002.89-2.855 9.8 9.8 0 000-8.686 6.9 6.9 0 00-2.89-2.854 9.211 9.211 0 00-4.373-.993 9.375 9.375 0 00-4.421.993 6.877 6.877 0 00-2.905 2.854 9.8 9.8 0 000 8.686 6.879 6.879 0 002.905 2.855 9.375 9.375 0 004.421.992zm0-3.567q-3.656 0-3.656-4.623a5.428 5.428 0 01.938-3.459 3.282 3.282 0 012.718-1.163 3.2 3.2 0 012.671 1.163 6.986 6.986 0 010 6.934 3.226 3.226 0 01-2.671 1.148zM126.042 0v9.214a4.943 4.943 0 00-2.031-1.846 6.314 6.314 0 00-2.905-.667 6.613 6.613 0 00-3.64 1.008 6.8 6.8 0 00-2.468 2.854 9.719 9.719 0 00-.89 4.266 9.921 9.921 0 00.89 4.3 6.942 6.942 0 002.484 2.916 6.483 6.483 0 003.624 1.039 6.332 6.332 0 002.967-.682 4.969 4.969 0 002.031-1.893v2.322h4.655V0h-4.717zm-3.561 19.514a3.268 3.268 0 01-2.718-1.226 5.462 5.462 0 01-.968-3.459 5.152 5.152 0 01.968-3.35 3.322 3.322 0 012.718-1.179 3.224 3.224 0 012.671 1.194 5.331 5.331 0 01.953 3.4 5.449 5.449 0 01-.937 3.428 3.213 3.213 0 01-2.687 1.195zm23.305-12.41v2.234a5.191 5.191 0 00-2.031-1.924 6.119 6.119 0 00-2.968-.713 6.48 6.48 0 00-3.623 1.039 6.921 6.921 0 00-2.484 2.932 10.009 10.009 0 00-.89 4.312 9.7 9.7 0 00.89 4.266 6.488 6.488 0 006.107 3.831 6.336 6.336 0 002.968-.682 4.975 4.975 0 002.031-1.893v2.325h4.654V7.104h-4.654zm-3.624 12.41a3.332 3.332 0 01-2.734-1.164 5.2 5.2 0 01-.952-3.366 5.466 5.466 0 01.968-3.443 3.249 3.249 0 012.718-1.241 3.215 3.215 0 012.687 1.194 5.455 5.455 0 01.937 3.428 5.388 5.388 0 01-.937 3.413 3.232 3.232 0 01-2.687 1.179zm23.055-12.41l-4.187 10.207-4.061-10.207h-4.936l6.53 14.923-.469 1.023a4.744 4.744 0 01-1.734 2.079 10.17 10.17 0 01-3.3 1.179l1.094 3.6a11.408 11.408 0 005.014-1.815 10.3 10.3 0 003.389-4.421l7.31-16.567h-4.654z" fill="#f36a20" fill-rule="evenodd"/></svg>