<svg xmlns="http://www.w3.org/2000/svg" width="154" height="28"><path data-name="getaways." d="M12.116 5.2v2.234a5.136 5.136 0 00-2.062-1.923 6.29 6.29 0 00-3-.714 6.852 6.852 0 00-3.655.977 6.731 6.731 0 00-2.5 2.761 9.781 9.781 0 000 8.222 6.731 6.731 0 002.5 2.761 6.852 6.852 0 003.655.977 6.1 6.1 0 005.061-2.668v2.73a3.777 3.777 0 01-1 2.87 4.271 4.271 0 01-3.03.946 12.712 12.712 0 01-5.686-1.427l-.718 3.475a13.952 13.952 0 006.56 1.458q4.186 0 6.373-1.955a7.261 7.261 0 002.187-5.708V5.2h-4.685zM8.43 16.927a3.452 3.452 0 01-2.749-1.148 4.6 4.6 0 01-1-3.133 4.548 4.548 0 011-3.118A3.476 3.476 0 018.43 8.396a3.383 3.383 0 012.718 1.132 5.517 5.517 0 01-.016 6.267 3.393 3.393 0 01-2.7 1.132zm26.366-4.157a8.384 8.384 0 00-1.936-5.817 6.743 6.743 0 00-5.28-2.156 7.852 7.852 0 00-4.03 1.039 7.144 7.144 0 00-2.765 2.917 9.046 9.046 0 00-.984 4.265 7.881 7.881 0 002.281 5.972 8.7 8.7 0 006.279 2.188 11.416 11.416 0 003.358-.512 8.346 8.346 0 002.8-1.412L33.27 16.09a7.8 7.8 0 01-2.25 1.179 7.706 7.706 0 01-2.436.4 4.212 4.212 0 01-3.062-1.008 4.728 4.728 0 01-1.156-3.211H34.8v-.675zm-7.091-4.684q2.655 0 3.03 3.04h-6.279a3.874 3.874 0 011.078-2.265 3.044 3.044 0 012.171-.775zm19.712.62V5.2h-4.03V-.012L38.67 1.509V5.2h-3v3.506h3v6.2a6.485 6.485 0 001.546 4.622 5.856 5.856 0 004.483 1.645 7.549 7.549 0 002.718-.435v-3.63a6.556 6.556 0 01-1.562.218 2.6 2.6 0 01-1.781-.605 2.418 2.418 0 01-.687-1.908V8.701h4.03zM61.037 5.2v2.234a5.179 5.179 0 00-2.03-1.923 6.108 6.108 0 00-2.968-.714 6.491 6.491 0 00-3.624 1.039 6.925 6.925 0 00-2.483 2.932 10.009 10.009 0 00-.891 4.312 9.7 9.7 0 00.891 4.266 6.491 6.491 0 006.105 3.829 6.336 6.336 0 002.968-.683 4.971 4.971 0 002.03-1.892v2.326h4.655V5.2h-4.653zm-3.623 12.41a3.331 3.331 0 01-2.734-1.164 5.2 5.2 0 01-.953-3.366 5.466 5.466 0 01.969-3.443 3.249 3.249 0 012.718-1.241A3.213 3.213 0 0160.1 9.59a5.451 5.451 0 01.937 3.428 5.382 5.382 0 01-.937 3.413 3.231 3.231 0 01-2.686 1.179zm29.615-2.172L83.217 5.2H80l-3.78 10.145L72.408 5.2h-4.811l6.405 15.729h4l3.435-9.121 3.592 9.121h3.968l6.4-15.729h-4.56zM108.237 5.2v2.234a5.186 5.186 0 00-2.03-1.923 6.108 6.108 0 00-2.968-.714 6.491 6.491 0 00-3.624 1.039 6.925 6.925 0 00-2.483 2.932 10.009 10.009 0 00-.891 4.312 9.7 9.7 0 00.891 4.266 6.491 6.491 0 006.105 3.829 6.336 6.336 0 002.968-.683 4.977 4.977 0 002.03-1.892v2.326h4.655V5.2h-4.653zm-3.624 12.41a3.329 3.329 0 01-2.733-1.164 5.189 5.189 0 01-.953-3.366 5.466 5.466 0 01.969-3.443 3.249 3.249 0 012.717-1.241A3.214 3.214 0 01107.3 9.59a5.451 5.451 0 01.937 3.428 5.382 5.382 0 01-.937 3.413 3.231 3.231 0 01-2.687 1.179zM127.668 5.2l-4.186 10.207L119.421 5.2h-4.934l6.529 14.923-.469 1.024a4.738 4.738 0 01-1.733 2.078 10.165 10.165 0 01-3.3 1.179l1.093 3.6a11.4 11.4 0 005.014-1.815 10.284 10.284 0 003.39-4.421l7.31-16.567h-4.655zm12.123 15.975a8.37 8.37 0 004.967-1.3 4.132 4.132 0 001.812-3.537 4.076 4.076 0 00-1.093-2.978 7.1 7.1 0 00-3.53-1.676l-2.656-.589a3.384 3.384 0 01-1.39-.543 1.054 1.054 0 01-.39-.853 1.249 1.249 0 01.656-1.117 3.452 3.452 0 011.812-.4 7.551 7.551 0 012.452.434 10.273 10.273 0 012.483 1.272l1.312-3.133a10.008 10.008 0 00-2.905-1.443 10.965 10.965 0 00-3.311-.512 9.138 9.138 0 00-3.53.636 5.565 5.565 0 00-2.39 1.784 4.235 4.235 0 00-.859 2.606 3.913 3.913 0 001.078 2.885 6.625 6.625 0 003.358 1.582l2.593.59a4.6 4.6 0 011.655.589 1.09 1.09 0 01.469.931 1.183 1.183 0 01-.656 1.086 3.848 3.848 0 01-1.874.372 10.345 10.345 0 01-3.124-.481 9.67 9.67 0 01-2.781-1.38l-1.249 3.257a11.659 11.659 0 007.091 1.924zm9.122-.249h5.092v-4.991h-5.092v4.994z" fill="#f36a20" fill-rule="evenodd"/></svg>