<svg xmlns="http://www.w3.org/2000/svg" width="102.937" height="13.719"><path data-name="Save today for" d="M3.914 10.624a4.911 4.911 0 003.034-.83 2.675 2.675 0 001.09-2.248 2.258 2.258 0 00-.845-1.857 6.888 6.888 0 00-2.761-1.106 8.036 8.036 0 01-1.273-.348 1.563 1.563 0 01-.636-.4.86.86 0 01-.188-.567 1.059 1.059 0 01.5-.922 2.357 2.357 0 011.342-.34 4.608 4.608 0 012.898 1.013l.7-1.588A4.154 4.154 0 006.209.58 6.678 6.678 0 004.168.268a4.986 4.986 0 00-2.069.4A3.276 3.276 0 00.708 1.795a2.817 2.817 0 00-.5 1.631 2.558 2.558 0 00.356 1.4 2.763 2.763 0 001.133.95 8.562 8.562 0 002.09.659 6.114 6.114 0 011.642.532.849.849 0 01.468.759.951.951 0 01-.51.858 2.875 2.875 0 01-1.461.3A5.434 5.434 0 01.711 7.863l-.7 1.588a4.92 4.92 0 001.727.858 7.7 7.7 0 002.173.3zm10.862-7.317v1.021a2.344 2.344 0 00-.908-.88 2.7 2.7 0 00-1.328-.326 2.863 2.863 0 00-1.622.475 3.148 3.148 0 00-1.111 1.34 4.657 4.657 0 00-.4 1.971 4.51 4.51 0 00.4 1.95 3.033 3.033 0 001.1 1.3 2.952 2.952 0 001.629.453 2.79 2.79 0 001.328-.312 2.235 2.235 0 00.908-.865v1.064h2.083V3.309h-2.08zm-1.621 5.672a1.478 1.478 0 01-1.223-.532 2.407 2.407 0 01-.427-1.539 2.54 2.54 0 01.434-1.574 1.441 1.441 0 011.216-.567 1.425 1.425 0 011.2.546 2.527 2.527 0 01.419 1.567 2.5 2.5 0 01-.419 1.56 1.434 1.434 0 01-1.2.539zm8.723-1.007L20.06 3.321h-2.208l3.075 7.175h1.79l3.117-7.175h-2.083zm11.155-1.205a3.886 3.886 0 00-.866-2.659 2.987 2.987 0 00-2.363-.986 3.458 3.458 0 00-1.8.475 3.236 3.236 0 00-1.238 1.333 4.216 4.216 0 00-.44 1.95 3.646 3.646 0 001.021 2.73 3.842 3.842 0 002.809 1 5 5 0 001.5-.234 3.675 3.675 0 001.251-.645l-.559-1.446a3.468 3.468 0 01-1.006.539 3.386 3.386 0 01-1.091.184 1.861 1.861 0 01-1.37-.461 2.187 2.187 0 01-.517-1.467h4.669v-.312zM29.86 4.625a1.318 1.318 0 011.356 1.39h-2.81a1.788 1.788 0 01.482-1.035 1.349 1.349 0 01.972-.355zm13.448.284v-1.6h-1.8V.926l-2.11.695v1.688h-1.342v1.6h1.342v2.836a3 3 0 00.692 2.113 2.589 2.589 0 002.006.751 3.327 3.327 0 001.216-.2V8.75a2.887 2.887 0 01-.7.1 1.148 1.148 0 01-.8-.276 1.119 1.119 0 01-.308-.873V4.909h1.8zm4.739 5.7a4.057 4.057 0 001.957-.453 3.129 3.129 0 001.293-1.305 4.566 4.566 0 000-3.97 3.123 3.123 0 00-1.293-1.305 4.057 4.057 0 00-1.957-.454 4.126 4.126 0 00-1.978.454 3.1 3.1 0 00-1.3 1.305 4.557 4.557 0 000 3.97 3.111 3.111 0 001.3 1.305 4.125 4.125 0 001.978.453zm0-1.63q-1.637 0-1.636-2.113a2.515 2.515 0 01.42-1.581 1.455 1.455 0 011.216-.532 1.42 1.42 0 011.195.532 3.253 3.253 0 010 3.169 1.429 1.429 0 01-1.195.525zM58.375.059v4.212a2.232 2.232 0 00-.908-.844 2.784 2.784 0 00-1.3-.3 2.916 2.916 0 00-1.629.461 3.077 3.077 0 00-1.1 1.3 4.508 4.508 0 00-.4 1.949 4.6 4.6 0 00.4 1.964 3.139 3.139 0 001.111 1.333 2.855 2.855 0 001.622.475 2.787 2.787 0 001.328-.312 2.235 2.235 0 00.908-.865v1.064h2.083V.059h-2.115zm-1.593 8.92a1.449 1.449 0 01-1.216-.56 2.536 2.536 0 01-.434-1.582 2.388 2.388 0 01.434-1.531 1.472 1.472 0 011.216-.539 1.43 1.43 0 011.2.546 2.477 2.477 0 01.426 1.553 2.529 2.529 0 01-.419 1.567 1.425 1.425 0 01-1.2.546zM67.49 3.307v1.021a2.347 2.347 0 00-.909-.88 2.691 2.691 0 00-1.328-.326 2.86 2.86 0 00-1.621.475 3.15 3.15 0 00-1.112 1.34 4.672 4.672 0 00-.4 1.971 4.524 4.524 0 00.4 1.95 3.042 3.042 0 001.1 1.3 2.946 2.946 0 001.628.453 2.784 2.784 0 001.328-.312 2.237 2.237 0 00.909-.865v1.064h2.09V3.309h-2.083zm-1.615 5.672a1.478 1.478 0 01-1.223-.532 2.414 2.414 0 01-.426-1.539 2.54 2.54 0 01.433-1.574 1.442 1.442 0 011.216-.567 1.427 1.427 0 011.2.546 2.534 2.534 0 01.419 1.567 2.5 2.5 0 01-.419 1.56 1.436 1.436 0 01-1.2.539zm10.6-5.672l-1.874 4.665-1.817-4.665h-2.209l2.922 6.82-.21.468a2.147 2.147 0 01-.776.95 4.478 4.478 0 01-1.474.539l.489 1.645a5.043 5.043 0 002.244-.829 4.7 4.7 0 001.516-2.021l3.271-7.572h-2.082zm10.987-1.56a2.975 2.975 0 01.685.1V.174a3.355 3.355 0 00-1.2-.185 2.549 2.549 0 00-1.985.752 3.022 3.022 0 00-.685 2.113v.454h-1.328v1.6h1.328v5.587h2.098V4.909h1.481v-1.6h-1.481v-.4a1.174 1.174 0 01.293-.887 1.1 1.1 0 01.783-.276zm5.256 8.862a4.061 4.061 0 001.958-.453 3.129 3.129 0 001.293-1.305 4.566 4.566 0 000-3.97 3.123 3.123 0 00-1.293-1.305 4.061 4.061 0 00-1.958-.454 4.131 4.131 0 00-1.978.454 3.111 3.111 0 00-1.3 1.305 4.566 4.566 0 000 3.97 3.116 3.116 0 001.3 1.305 4.131 4.131 0 001.978.453zm0-1.63q-1.635 0-1.635-2.113a2.521 2.521 0 01.419-1.581 1.456 1.456 0 011.216-.532 1.422 1.422 0 011.2.532 3.253 3.253 0 010 3.169 1.431 1.431 0 01-1.2.525zm9.464-5.843a2.328 2.328 0 00-1.279.362 2.107 2.107 0 00-.832 1.042l-.139-1.233h-1.985a17.074 17.074 0 01.111 2.056v5.133h2.111V6.738a1.78 1.78 0 01.441-1.283 1.687 1.687 0 011.279-.461 2.428 2.428 0 011.034.241l.014-1.957a1.807 1.807 0 00-.755-.142z" fill="#f36a20" fill-rule="evenodd"/></svg>