<svg xmlns="http://www.w3.org/2000/svg" width="131" height="28"><path data-name="Earn AAdvantage® miles for saving." d="M7.11 10.652V8.936H2.371V6.384h4.446v-1.73H2.371V2.275H7.11V.56H.246v10.1H7.11zm6.669-7.189v1.021a2.354 2.354 0 00-.909-.88 2.694 2.694 0 00-1.328-.326 2.865 2.865 0 00-1.622.475 3.148 3.148 0 00-1.111 1.34 4.657 4.657 0 00-.4 1.971 4.51 4.51 0 00.4 1.95 3.04 3.04 0 001.1 1.3 2.952 2.952 0 001.629.453 2.787 2.787 0 001.328-.312 2.243 2.243 0 00.909-.865v1.064h2.082V3.465h-2.082zm-1.622 5.672a1.478 1.478 0 01-1.223-.532 2.407 2.407 0 01-.427-1.539 2.54 2.54 0 01.434-1.574 1.441 1.441 0 011.216-.567 1.424 1.424 0 011.2.546 2.527 2.527 0 01.42 1.567 2.5 2.5 0 01-.42 1.56 1.433 1.433 0 01-1.2.539zm9.813-5.843a2.328 2.328 0 00-1.279.362 2.107 2.107 0 00-.832 1.042l-.139-1.233h-1.985a17.074 17.074 0 01.111 2.056v5.133h2.111V6.894a1.78 1.78 0 01.441-1.283 1.687 1.687 0 011.279-.461 2.428 2.428 0 011.034.241l.014-1.957a1.8 1.8 0 00-.755-.142zm6.263-.014a2.768 2.768 0 00-1.377.341 2.628 2.628 0 00-.986.978l-.139-1.134h-1.985a17.074 17.074 0 01.111 2.056v5.133h2.111V6.625a1.726 1.726 0 01.42-1.22 1.449 1.449 0 011.118-.453 1.026 1.026 0 01.86.347 1.781 1.781 0 01.272 1.1v4.254h2.111V6.3q0-3.021-2.516-3.021zm18.578 7.374L42.24.552h-1.761l-4.572 10.1h2.195l.951-2.241h4.655l.951 2.241h2.152zm-5.424-7.714l1.608 3.786H39.78zm16.314 7.714L53.13.552h-1.761l-4.572 10.1h2.191l.951-2.241h4.655l.95 2.241h2.153zm-5.424-7.714l1.608 3.786H50.67zM63.688.215v4.212a2.232 2.232 0 00-.908-.844 2.785 2.785 0 00-1.3-.3 2.911 2.911 0 00-1.628.461 3.086 3.086 0 00-1.105 1.3 4.523 4.523 0 00-.4 1.949 4.617 4.617 0 00.4 1.964 3.148 3.148 0 001.112 1.333 2.854 2.854 0 001.621.475 2.791 2.791 0 001.329-.312 2.235 2.235 0 00.908-.865v1.064H65.8V.215h-2.112zm-1.593 8.92a1.452 1.452 0 01-1.217-.56 2.536 2.536 0 01-.433-1.582 2.388 2.388 0 01.433-1.531 1.475 1.475 0 011.217-.539 1.431 1.431 0 011.195.546 2.477 2.477 0 01.426 1.553 2.536 2.536 0 01-.419 1.567 1.427 1.427 0 01-1.2.546zm8.723-1.007L69 3.477h-2.212l3.075 7.175h1.789l3.118-7.175h-2.082zm9.813-4.665v1.021a2.34 2.34 0 00-.909-.88 2.691 2.691 0 00-1.328-.326 2.86 2.86 0 00-1.621.475 3.15 3.15 0 00-1.112 1.34 4.672 4.672 0 00-.4 1.971 4.524 4.524 0 00.4 1.95 3.042 3.042 0 001.1 1.3 2.946 2.946 0 001.628.453 2.784 2.784 0 001.328-.312 2.231 2.231 0 00.909-.865v1.064h2.083V3.465h-2.083zm-1.622 5.672a1.478 1.478 0 01-1.223-.532 2.414 2.414 0 01-.426-1.539 2.54 2.54 0 01.433-1.574 1.442 1.442 0 011.216-.567 1.427 1.427 0 011.2.546 2.534 2.534 0 01.419 1.567 2.5 2.5 0 01-.419 1.56 1.436 1.436 0 01-1.2.539zm10.066-5.857a2.768 2.768 0 00-1.377.341 2.62 2.62 0 00-.986.978l-.14-1.134h-1.984a16.856 16.856 0 01.112 2.056v5.133h2.111V6.625a1.73 1.73 0 01.419-1.22 1.451 1.451 0 011.119-.453 1.022 1.022 0 01.859.347 1.781 1.781 0 01.273 1.1v4.254h2.107V6.3q0-3.021-2.516-3.021zm8.932 1.787v-1.6h-1.8V1.082l-2.111.695v1.688h-1.342v1.6h1.334v2.836a3.005 3.005 0 00.692 2.113 2.591 2.591 0 002.006.751 3.324 3.324 0 001.216-.2V8.906a2.887 2.887 0 01-.7.1 1.148 1.148 0 01-.8-.276 1.119 1.119 0 01-.307-.873V5.065h1.8zm6.375-1.6v1.021a2.347 2.347 0 00-.909-.88 2.691 2.691 0 00-1.328-.326 2.865 2.865 0 00-1.622.475 3.155 3.155 0 00-1.111 1.34 4.672 4.672 0 00-.4 1.971 4.524 4.524 0 00.4 1.95 3.047 3.047 0 001.1 1.3 2.952 2.952 0 001.629.453 2.784 2.784 0 001.328-.312 2.237 2.237 0 00.909-.865v1.064h2.083V3.467h-2.083zm-1.622 5.672a1.478 1.478 0 01-1.223-.532 2.414 2.414 0 01-.426-1.539 2.54 2.54 0 01.433-1.574 1.442 1.442 0 011.216-.567 1.424 1.424 0 011.2.546 2.527 2.527 0 01.42 1.567 2.5 2.5 0 01-.42 1.56 1.433 1.433 0 01-1.2.539zm10.764-5.672v1.021a2.322 2.322 0 00-.922-.88 2.776 2.776 0 00-1.342-.326 3.012 3.012 0 00-1.636.447 3.051 3.051 0 00-1.118 1.262 4.551 4.551 0 000 3.758 3.057 3.057 0 001.118 1.262 3.012 3.012 0 001.636.446 2.6 2.6 0 001.328-.347 2.672 2.672 0 00.936-.872v1.248a1.746 1.746 0 01-.447 1.311 1.88 1.88 0 01-1.356.433 5.6 5.6 0 01-2.544-.652l-.322 1.588a6.133 6.133 0 002.936.666 4.091 4.091 0 002.852-.893 3.357 3.357 0 00.978-2.609V3.465h-2.1zm-1.649 5.36a1.533 1.533 0 01-1.231-.525 2.137 2.137 0 01-.447-1.432 2.109 2.109 0 01.447-1.425 1.544 1.544 0 011.231-.518 1.5 1.5 0 011.216.518 2.567 2.567 0 01-.007 2.864 1.5 1.5 0 01-1.209.518zm12.078-1.9a3.882 3.882 0 00-.867-2.659 2.985 2.985 0 00-2.363-.986 3.458 3.458 0 00-1.8.475 3.233 3.233 0 00-1.237 1.333 4.2 4.2 0 00-.44 1.95 3.649 3.649 0 001.02 2.73 3.844 3.844 0 002.81 1 5.012 5.012 0 001.5-.234 3.694 3.694 0 001.251-.645l-.559-1.446a3.473 3.473 0 01-1.007.539 3.38 3.38 0 01-1.09.184 1.86 1.86 0 01-1.37-.461 2.182 2.182 0 01-.517-1.467h4.669v-.312zm-3.174-2.142a1.317 1.317 0 011.356 1.39h-2.809a1.782 1.782 0 01.482-1.035 1.348 1.348 0 01.971-.355zm7.286-4.779a2.906 2.906 0 00-1.5.393 2.86 2.86 0 00-1.06 1.071 3.159 3.159 0 000 3.03 2.941 2.941 0 005.11 0 3.151 3.151 0 000-3.026 2.854 2.854 0 00-1.059-1.075 2.909 2.909 0 00-1.5-.393zm1.761 4.7l-.449-.892a.793.793 0 00-.256-.29.721.721 0 00-.339-.124 1.057 1.057 0 00.832-1.066 1.042 1.042 0 00-.343-.819 1.424 1.424 0 00-.978-.306h-1.662v3.539h1.084V3.475h.195a.207.207 0 01.172.132l.554 1.141h1.152a2.272 2.272 0 01-.77.525 2.453 2.453 0 01-.958.186 2.412 2.412 0 01-1.243-.323 2.278 2.278 0 01-.859-.888 2.6 2.6 0 01-.31-1.269 2.557 2.557 0 01.31-1.257 2.283 2.283 0 01.859-.885 2.545 2.545 0 012.478 0 2.286 2.286 0 01.86.885 2.567 2.567 0 01.309 1.257 2.661 2.661 0 01-.167.954 2.307 2.307 0 01-.476.773zm-1.671-1.992h-.448v-.67h.448a.531.531 0 01.322.079.319.319 0 01.1.269.288.288 0 01-.1.248.556.556 0 01-.322.074zM8.774 17.458a2.666 2.666 0 00-1.363.362 2.61 2.61 0 00-.972.971 2.032 2.032 0 00-2.1-1.333 2.673 2.673 0 00-1.335.327 2.252 2.252 0 00-.9.935l-.126-1.077H-.007a17.059 17.059 0 01.112 2.056v5.133h2.111v-3.97a2.023 2.023 0 01.356-1.277 1.2 1.2 0 011-.453.888.888 0 01.775.34 1.872 1.872 0 01.245 1.078v4.282h2.111v-3.97a2.054 2.054 0 01.349-1.277 1.181 1.181 0 01.993-.453.9.9 0 01.783.333 1.914 1.914 0 01.237 1.085v4.282h2.111v-4.357a3.616 3.616 0 00-.594-2.276 2.176 2.176 0 00-1.81-.745zm6.458 7.374v-7.189h-2.111v7.189h2.111zm-2.18-8.551h2.25v-2.013h-2.25v2.013zm6.29 8.551V14.396h-2.111v10.436h2.111zm8.36-3.729a3.882 3.882 0 00-.867-2.659 2.985 2.985 0 00-2.363-.986 3.458 3.458 0 00-1.8.475 3.239 3.239 0 00-1.237 1.333 4.207 4.207 0 00-.44 1.95 3.648 3.648 0 001.02 2.73 3.845 3.845 0 002.81 1 5.012 5.012 0 001.5-.234 3.7 3.7 0 001.251-.646l-.559-1.446a3.473 3.473 0 01-1.007.539 3.38 3.38 0 01-1.09.184 1.856 1.856 0 01-1.37-.461 2.182 2.182 0 01-.517-1.467h4.669v-.312zm-3.174-2.141a1.317 1.317 0 011.356 1.389h-2.81a1.788 1.788 0 01.483-1.035 1.346 1.346 0 01.971-.354zm7.493 5.984a3.687 3.687 0 002.223-.6 2.067 2.067 0 00.321-2.978 3.155 3.155 0 00-1.579-.766l-1.189-.269a1.5 1.5 0 01-.622-.248.488.488 0 01-.174-.39.574.574 0 01.293-.511 1.529 1.529 0 01.811-.184 3.289 3.289 0 011.1.2 4.561 4.561 0 011.112.581l.587-1.432a4.449 4.449 0 00-1.3-.66 4.812 4.812 0 00-1.482-.234 4.03 4.03 0 00-1.58.291 2.5 2.5 0 00-1.069.816 1.957 1.957 0 00-.385 1.191 1.807 1.807 0 00.483 1.318 2.947 2.947 0 001.5.724l1.16.269a2.055 2.055 0 01.741.269.5.5 0 01.209.426.541.541 0 01-.293.5 1.686 1.686 0 01-.839.17 4.567 4.567 0 01-1.4-.219 4.316 4.316 0 01-1.244-.631l-.559 1.488a5.132 5.132 0 003.173.88zm12.525-8.863a2.968 2.968 0 01.685.1V14.51a3.353 3.353 0 00-1.2-.184 2.55 2.55 0 00-1.985.751 3.022 3.022 0 00-.685 2.113v.454h-1.328v1.6h1.328v5.587h2.111v-5.586h1.482v-1.6h-1.482v-.4a1.17 1.17 0 01.294-.887 1.093 1.093 0 01.782-.276zm5.257 8.863a4.057 4.057 0 001.957-.454 3.129 3.129 0 001.293-1.3 4.566 4.566 0 000-3.97 3.129 3.129 0 00-1.293-1.3 4.057 4.057 0 00-1.957-.454 4.126 4.126 0 00-1.978.454 3.111 3.111 0 00-1.3 1.3 4.557 4.557 0 000 3.97 3.111 3.111 0 001.3 1.3 4.126 4.126 0 001.978.454zm0-1.631q-1.637 0-1.636-2.113a2.517 2.517 0 01.42-1.581 1.455 1.455 0 011.216-.532 1.42 1.42 0 011.195.532 3.253 3.253 0 010 3.169 1.429 1.429 0 01-1.195.525zm9.464-5.842a2.322 2.322 0 00-1.279.361 2.1 2.1 0 00-.832 1.042l-.14-1.233h-1.985a17.059 17.059 0 01.112 2.056v5.133h2.111v-3.757a1.779 1.779 0 01.44-1.283 1.689 1.689 0 011.279-.461 2.443 2.443 0 011.035.241l.014-1.957a1.811 1.811 0 00-.755-.141zm8.806 7.473a3.683 3.683 0 002.223-.6 2.068 2.068 0 00.322-2.978 3.163 3.163 0 00-1.58-.766l-1.188-.269a1.491 1.491 0 01-.622-.248.486.486 0 01-.175-.39.575.575 0 01.294-.511 1.523 1.523 0 01.81-.184 3.3 3.3 0 011.1.2 4.556 4.556 0 011.111.581l.587-1.432a4.436 4.436 0 00-1.3-.66 4.807 4.807 0 00-1.482-.234 4.025 4.025 0 00-1.579.291 2.5 2.5 0 00-1.07.816 1.962 1.962 0 00-.384 1.191 1.811 1.811 0 00.482 1.318 2.951 2.951 0 001.5.724l1.16.269a2.055 2.055 0 01.741.269.5.5 0 01.21.426.541.541 0 01-.294.5 1.686 1.686 0 01-.839.17 4.567 4.567 0 01-1.4-.219 4.329 4.329 0 01-1.244-.631l-.559 1.488a5.134 5.134 0 003.173.88zm9.618-7.3v1.021a2.335 2.335 0 00-.908-.879 2.688 2.688 0 00-1.329-.327 2.862 2.862 0 00-1.621.475 3.154 3.154 0 00-1.112 1.341 4.666 4.666 0 00-.4 1.971 4.523 4.523 0 00.4 1.949 3.042 3.042 0 001.105 1.3 2.947 2.947 0 001.628.454 2.8 2.8 0 001.329-.312 2.248 2.248 0 00.908-.865v1.063h2.083v-7.189h-2.086zm-1.621 5.672a1.477 1.477 0 01-1.224-.532 2.41 2.41 0 01-.426-1.538 2.536 2.536 0 01.433-1.574 1.445 1.445 0 011.217-.568 1.427 1.427 0 011.2.546 2.536 2.536 0 01.419 1.567 2.5 2.5 0 01-.419 1.56 1.435 1.435 0 01-1.2.539zm8.723-1.007l-1.818-4.651h-2.208l3.075 7.175h1.789l3.118-7.175h-2.083zm7.045 2.524v-7.189h-2.111v7.189h2.111zm-2.181-8.551h2.251v-2.013h-2.251v2.013zm8.555 1.177a2.767 2.767 0 00-1.376.341 2.628 2.628 0 00-.986.978l-.14-1.134h-1.985a16.856 16.856 0 01.112 2.056v5.133h2.111v-4.03a1.73 1.73 0 01.419-1.22 1.451 1.451 0 011.119-.453 1.025 1.025 0 01.859.347 1.781 1.781 0 01.273 1.1v4.254h2.111v-4.358q0-3.021-2.517-3.021zm9.548.185v1.021a2.313 2.313 0 00-.922-.879 2.763 2.763 0 00-1.342-.327 3.015 3.015 0 00-1.636.447 3.057 3.057 0 00-1.118 1.262 4.551 4.551 0 000 3.758 3.051 3.051 0 001.118 1.262 3.015 3.015 0 001.636.447 2.605 2.605 0 001.328-.348 2.663 2.663 0 00.936-.872v1.248a1.75 1.75 0 01-.447 1.312 1.884 1.884 0 01-1.356.432 5.586 5.586 0 01-2.544-.652l-.322 1.588a6.136 6.136 0 002.936.667 4.091 4.091 0 002.852-.894 3.355 3.355 0 00.978-2.609v-6.863h-2.1zm-1.649 5.36a1.53 1.53 0 01-1.23-.525 2.13 2.13 0 01-.448-1.432 2.1 2.1 0 01.448-1.425 1.54 1.54 0 011.23-.518 1.5 1.5 0 011.216.518 2.567 2.567 0 01-.007 2.864 1.5 1.5 0 01-1.209.518zm5.549 1.829h2.279v-2.283h-2.279v2.283z" fill="#fff" fill-rule="evenodd"/></svg>