<svg xmlns="http://www.w3.org/2000/svg" width="156.313" height="13.313"><path data-name="tomorrow’s getaways." d="M5.253 4.495v-1.6h-1.8V.513l-2.111.694v1.688H0v1.6h1.342v2.836a3.005 3.005 0 00.692 2.113 2.591 2.591 0 002.006.752 3.323 3.323 0 001.216-.2V8.337a2.887 2.887 0 01-.7.1 1.148 1.148 0 01-.8-.276 1.118 1.118 0 01-.307-.872V4.495h1.8zm4.739 5.7a4.055 4.055 0 001.957-.454 3.129 3.129 0 001.293-1.3 4.557 4.557 0 000-3.97 3.129 3.129 0 00-1.293-1.3 4.055 4.055 0 00-1.957-.454 4.129 4.129 0 00-1.978.454 3.116 3.116 0 00-1.3 1.3 4.566 4.566 0 000 3.97 3.116 3.116 0 001.3 1.3 4.129 4.129 0 001.978.454zm0-1.631q-1.635 0-1.636-2.113a2.517 2.517 0 01.42-1.581 1.455 1.455 0 011.216-.532 1.42 1.42 0 011.2.532 3.246 3.246 0 010 3.169 1.429 1.429 0 01-1.2.525zm14.007-5.857a2.666 2.666 0 00-1.363.362 2.615 2.615 0 00-.971.971 2.032 2.032 0 00-2.1-1.333 2.671 2.671 0 00-1.335.327 2.248 2.248 0 00-.9.935l-.126-1.077h-1.985a16.856 16.856 0 01.112 2.056v5.133h2.111v-3.97a2.029 2.029 0 01.356-1.277 1.2 1.2 0 011-.453.89.89 0 01.776.34 1.872 1.872 0 01.244 1.078v4.282h2.111v-3.97a2.054 2.054 0 01.35-1.277 1.18 1.18 0 01.992-.453.894.894 0 01.783.333 1.905 1.905 0 01.238 1.085v4.282h2.111V5.725a3.616 3.616 0 00-.594-2.276 2.18 2.18 0 00-1.811-.745zm7.731 7.488a4.057 4.057 0 001.957-.454 3.129 3.129 0 001.293-1.3 4.566 4.566 0 000-3.97 3.129 3.129 0 00-1.293-1.3 4.057 4.057 0 00-1.957-.454 4.129 4.129 0 00-1.978.454 3.111 3.111 0 00-1.3 1.3 4.557 4.557 0 000 3.97 3.111 3.111 0 001.3 1.3 4.129 4.129 0 001.978.454zm0-1.631q-1.637 0-1.636-2.113a2.517 2.517 0 01.42-1.581 1.455 1.455 0 011.216-.532 1.42 1.42 0 011.195.532 3.246 3.246 0 010 3.169 1.429 1.429 0 01-1.195.525zm9.464-5.842a2.325 2.325 0 00-1.279.361 2.1 2.1 0 00-.832 1.042l-.14-1.233h-1.985a16.856 16.856 0 01.112 2.056v5.133h2.111V6.325a1.784 1.784 0 01.44-1.283 1.689 1.689 0 011.279-.461 2.443 2.443 0 011.035.241l.014-1.957a1.807 1.807 0 00-.755-.141zm6.011 0a2.325 2.325 0 00-1.279.361 2.1 2.1 0 00-.832 1.042l-.14-1.233h-1.985a16.856 16.856 0 01.112 2.056v5.133h2.111V6.325a1.784 1.784 0 01.44-1.283 1.689 1.689 0 011.279-.461 2.443 2.443 0 011.035.241l.014-1.957a1.807 1.807 0 00-.755-.141zm5.13 7.473a4.055 4.055 0 001.957-.454 3.129 3.129 0 001.293-1.3 4.557 4.557 0 000-3.97 3.129 3.129 0 00-1.293-1.3 4.055 4.055 0 00-1.957-.454 4.129 4.129 0 00-1.978.454 3.116 3.116 0 00-1.3 1.3 4.566 4.566 0 000 3.97 3.116 3.116 0 001.3 1.3 4.129 4.129 0 001.978.454zm0-1.631q-1.635 0-1.635-2.113a2.517 2.517 0 01.419-1.581 1.456 1.456 0 011.216-.532 1.42 1.42 0 011.195.532 3.246 3.246 0 010 3.169 1.429 1.429 0 01-1.195.525zm13.043-.993l-1.706-4.679h-1.439l-1.692 4.637-1.705-4.637h-2.153l2.865 7.189h1.79l1.537-4.168 1.607 4.169h1.776l2.865-7.189h-2.041zm4.865-7.586v2.283h1.048a3.091 3.091 0 01-.853 1.39l.825.666a4.723 4.723 0 00.972-1.375 3.777 3.777 0 00.286-1.5v-1.46h-2.278zm6.458 10.21a3.687 3.687 0 002.223-.6 1.9 1.9 0 00.811-1.617 1.883 1.883 0 00-.49-1.361 3.155 3.155 0 00-1.579-.766l-1.189-.269a1.5 1.5 0 01-.622-.248.488.488 0 01-.174-.39.576.576 0 01.293-.511 1.529 1.529 0 01.811-.184 3.289 3.289 0 011.1.2 4.561 4.561 0 011.112.581l.587-1.432a4.449 4.449 0 00-1.3-.66 4.812 4.812 0 00-1.482-.234 4.03 4.03 0 00-1.58.291 2.5 2.5 0 00-1.069.816 1.957 1.957 0 00-.385 1.191 1.807 1.807 0 00.483 1.318 2.947 2.947 0 001.5.724l1.16.269a2.055 2.055 0 01.741.269.5.5 0 01.209.426.541.541 0 01-.293.5 1.686 1.686 0 01-.839.17 4.567 4.567 0 01-1.4-.219 4.316 4.316 0 01-1.244-.631l-.559 1.488a5.132 5.132 0 003.173.88zm13.881-7.3v1.021a2.313 2.313 0 00-.922-.879 2.763 2.763 0 00-1.342-.327 3.017 3.017 0 00-1.636.447 3.057 3.057 0 00-1.118 1.262 4.551 4.551 0 000 3.758 3.051 3.051 0 001.118 1.262 3.017 3.017 0 001.636.447 2.605 2.605 0 001.328-.348 2.663 2.663 0 00.936-.872v1.248a1.75 1.75 0 01-.447 1.312 1.884 1.884 0 01-1.356.432 5.586 5.586 0 01-2.544-.652l-.322 1.588a6.136 6.136 0 002.936.667 4.091 4.091 0 002.852-.894 3.355 3.355 0 00.978-2.609V2.895h-2.1zm-1.649 5.36a1.53 1.53 0 01-1.23-.525 2.13 2.13 0 01-.448-1.432 2.1 2.1 0 01.448-1.425 1.54 1.54 0 011.23-.518 1.5 1.5 0 011.216.518 2.567 2.567 0 01-.007 2.864 1.5 1.5 0 01-1.209.518zm12.078-1.9a3.882 3.882 0 00-.867-2.659 2.985 2.985 0 00-2.362-.986 3.464 3.464 0 00-1.8.475 3.246 3.246 0 00-1.237 1.333 4.219 4.219 0 00-.44 1.95 3.648 3.648 0 001.02 2.73 3.846 3.846 0 002.81 1 5.012 5.012 0 001.5-.234 3.686 3.686 0 001.251-.646l-.559-1.446a3.473 3.473 0 01-1.007.539 3.376 3.376 0 01-1.09.184 1.857 1.857 0 01-1.37-.461 2.187 2.187 0 01-.517-1.467h4.669v-.312zm-3.173-2.141a1.317 1.317 0 011.356 1.389h-2.81a1.782 1.782 0 01.482-1.035 1.349 1.349 0 01.972-.354zm9.1.283v-1.6h-1.8V.515l-2.111.694v1.688h-1.342v1.6h1.342v2.836a3.005 3.005 0 00.692 2.113 2.591 2.591 0 002.006.752 3.323 3.323 0 001.216-.2V8.339a2.887 2.887 0 01-.7.1 1.148 1.148 0 01-.8-.276 1.118 1.118 0 01-.307-.872V4.495h1.8zm6.375-1.6v1.021a2.344 2.344 0 00-.909-.879 2.681 2.681 0 00-1.328-.327 2.865 2.865 0 00-1.622.475 3.152 3.152 0 00-1.111 1.341 4.651 4.651 0 00-.4 1.971 4.508 4.508 0 00.4 1.949 3.047 3.047 0 001.1 1.3 2.952 2.952 0 001.629.454 2.8 2.8 0 001.328-.312 2.257 2.257 0 00.909-.865v1.063h2.083V2.899h-2.083zm-1.622 5.672a1.475 1.475 0 01-1.223-.532 2.41 2.41 0 01-.426-1.538 2.536 2.536 0 01.433-1.574 1.443 1.443 0 011.216-.568 1.424 1.424 0 011.2.546 2.529 2.529 0 01.42 1.567 2.5 2.5 0 01-.42 1.56 1.433 1.433 0 01-1.2.539zm13.532-.993l-1.7-4.679h-1.448l-1.692 4.637-1.7-4.637h-2.153l2.866 7.189h1.789l1.538-4.169 1.607 4.169h1.776l2.866-7.189h-2.041zm9.772-4.679v1.021a2.344 2.344 0 00-.909-.879 2.681 2.681 0 00-1.328-.327 2.865 2.865 0 00-1.622.475 3.152 3.152 0 00-1.111 1.341 4.651 4.651 0 00-.4 1.971 4.508 4.508 0 00.4 1.949 3.047 3.047 0 001.1 1.3 2.952 2.952 0 001.629.454 2.8 2.8 0 001.328-.312 2.257 2.257 0 00.909-.865v1.063h2.084V2.899h-2.08zm-1.62 5.668a1.475 1.475 0 01-1.223-.532 2.4 2.4 0 01-.427-1.538 2.536 2.536 0 01.434-1.574 1.443 1.443 0 011.216-.568 1.424 1.424 0 011.2.546 2.529 2.529 0 01.42 1.567 2.5 2.5 0 01-.42 1.56 1.433 1.433 0 01-1.2.539zm10.6-5.672l-1.873 4.665-1.817-4.665h-2.21l2.922 6.82-.21.468a2.154 2.154 0 01-.776.95 4.453 4.453 0 01-1.475.539l.49 1.645a5.034 5.034 0 002.243-.829 4.689 4.689 0 001.517-2.021l3.271-7.572h-2.083zm5.7 7.3a3.687 3.687 0 002.223-.6 2.069 2.069 0 00.321-2.978 3.159 3.159 0 00-1.58-.766l-1.188-.269a1.5 1.5 0 01-.622-.248.486.486 0 01-.175-.39.575.575 0 01.294-.511 1.529 1.529 0 01.811-.184 3.289 3.289 0 011.1.2 4.561 4.561 0 011.112.581l.587-1.432a4.461 4.461 0 00-1.3-.66 4.812 4.812 0 00-1.482-.234 4.03 4.03 0 00-1.58.291 2.494 2.494 0 00-1.069.816A1.957 1.957 0 00146.742 5a1.811 1.811 0 00.482 1.318 2.955 2.955 0 001.5.724l1.161.269a2.04 2.04 0 01.74.269.5.5 0 01.21.426.542.542 0 01-.293.5 1.688 1.688 0 01-.839.17 4.562 4.562 0 01-1.4-.219 4.3 4.3 0 01-1.244-.631l-.559 1.488a5.132 5.132 0 003.173.88zm4.361-.114h2.279V7.796h-2.279v2.283z" fill="#f36a20" fill-rule="evenodd"/></svg>