<svg xmlns="http://www.w3.org/2000/svg" width="78.343" height="6.188"><path data-name="Outsmart Interest" d="M2.867 6.202a2.978 2.978 0 001.53-.378 2.519 2.519 0 001-1.079 4.1 4.1 0 000-3.3 2.463 2.463 0 00-1-1.075 3.333 3.333 0 00-3.068 0 2.483 2.483 0 00-1 1.075 4.062 4.062 0 000 3.3 2.537 2.537 0 001 1.079 2.983 2.983 0 001.526.378zm0-.875a1.59 1.59 0 01-1.309-.578 2.578 2.578 0 01-.467-1.658 2.542 2.542 0 01.467-1.649 1.786 1.786 0 012.618 0 2.544 2.544 0 01.468 1.645 2.578 2.578 0 01-.468 1.658 1.59 1.59 0 01-1.309.578zm7.183-3.494v2.389a1.161 1.161 0 01-.281.816.965.965 0 01-.748.306.743.743 0 01-.591-.221 1.04 1.04 0 01-.191-.689v-2.6H7.181v2.593a1.483 1.483 0 001.573 1.768 1.606 1.606 0 00.782-.187 1.4 1.4 0 00.544-.544v.663h1.037V1.838h-1.071zm5.142.8v-.8h-1.139v-1.4L12.991.79v1.048h-.825v.8h.825V4.61a1.628 1.628 0 00.391 1.173 1.479 1.479 0 001.122.408 2 2 0 00.68-.1v-.853a1.517 1.517 0 01-.425.068.647.647 0 01-.706-.757V2.628h1.139zm2.729 3.562a2.154 2.154 0 001.3-.349 1.109 1.109 0 00.476-.943 1.082 1.082 0 00-.293-.786 1.847 1.847 0 00-.931-.447l-.731-.161a1.04 1.04 0 01-.421-.187.381.381 0 01-.123-.3.428.428 0 01.2-.374 1.026 1.026 0 01.57-.136 2.217 2.217 0 011.326.476l.314-.722a2.325 2.325 0 00-.748-.4 2.787 2.787 0 00-.884-.14 2.336 2.336 0 00-.926.17 1.444 1.444 0 00-.621.471 1.148 1.148 0 00-.221.693 1.223 1.223 0 001.173 1.2l.714.161a1.348 1.348 0 01.493.2.377.377 0 01.145.31.4.4 0 01-.209.357 1.133 1.133 0 01-.59.128 2.573 2.573 0 01-1.573-.51l-.3.748a2.911 2.911 0 001.853.544zm8.176-4.471a1.674 1.674 0 00-.845.216 1.483 1.483 0 00-.583.6 1.223 1.223 0 00-1.283-.816 1.592 1.592 0 00-.812.2 1.34 1.34 0 00-.54.586l-.076-.68h-1a9.607 9.607 0 01.068 1.216v3.077h1.055v-2.4a1.309 1.309 0 01.255-.855.857.857 0 01.7-.31.646.646 0 01.549.23 1.217 1.217 0 01.174.731v2.6h1.062v-2.4a1.325 1.325 0 01.251-.855.844.844 0 01.693-.31.635.635 0 01.548.225 1.264 1.264 0 01.166.736v2.6h1.062V3.48a2.075 2.075 0 00-.357-1.33 1.32 1.32 0 00-1.088-.438zm6.061.11v.646a1.393 1.393 0 00-.561-.557 1.713 1.713 0 00-.833-.2 1.76 1.76 0 00-.986.284 1.9 1.9 0 00-.676.8 2.735 2.735 0 00-.242 1.177 2.68 2.68 0 00.238 1.164 1.792 1.792 0 00.671.774 1.836 1.836 0 001 .272 1.713 1.713 0 00.833-.2 1.387 1.387 0 00.561-.557v.689h1.045V1.838h-1.045zm-1.105 3.528a1.013 1.013 0 01-.829-.357 1.571 1.571 0 01-.293-1.02 1.678 1.678 0 01.293-1.05.98.98 0 01.82-.378.993.993 0 01.825.365 1.657 1.657 0 01.289 1.046 1.623 1.623 0 01-.289 1.028.981.981 0 01-.816.366zm6.043-3.63a1.447 1.447 0 00-.79.221 1.271 1.271 0 00-.51.638l-.085-.757h-1a9.607 9.607 0 01.068 1.216v3.077h1.054V3.806a1.2 1.2 0 01.285-.833 1.063 1.063 0 01.829-.314 1.5 1.5 0 01.561.11l.008-.969a1.2 1.2 0 00-.425-.068zm4.327.9v-.8h-1.142v-1.4l-1.063.357v1.049h-.824v.8h.824V4.61a1.628 1.628 0 00.391 1.173 1.482 1.482 0 001.122.408 2 2 0 00.68-.1v-.853a1.517 1.517 0 01-.425.068.647.647 0 01-.705-.757V2.628h1.139zm5.083 3.494V.074h-1.1v6.052h1.1zm4.113-4.4a1.72 1.72 0 00-.854.212 1.553 1.553 0 00-.6.6l-.077-.706h-.994a9.8 9.8 0 01.068 1.216v3.077h1.054V3.694a1.139 1.139 0 01.3-.821 1.038 1.038 0 01.782-.31.744.744 0 01.6.234 1.154 1.154 0 01.195.744v2.584h1.063V3.49q0-1.769-1.539-1.768zm5.585.909v-.8h-1.139v-1.4l-1.063.357v1.046h-.821v.8h.824V4.61a1.632 1.632 0 00.391 1.173 1.482 1.482 0 001.122.408 2 2 0 00.68-.1v-.853a1.512 1.512 0 01-.425.068.647.647 0 01-.7-.757V2.628h1.139zm4.913 1.241a2.284 2.284 0 00-.514-1.577 1.785 1.785 0 00-1.4-.573 2.067 2.067 0 00-1.079.284 1.946 1.946 0 00-.74.8 2.509 2.509 0 00-.263 1.165 2.19 2.19 0 00.6 1.632 2.263 2.263 0 001.658.6 2.847 2.847 0 00.905-.149 2.389 2.389 0 00.752-.395l-.306-.731a2.116 2.116 0 01-1.309.459 1.213 1.213 0 01-.922-.327 1.548 1.548 0 01-.344-1.016h2.958v-.162zM59.23 2.491a.893.893 0 01.667.246 1.188 1.188 0 01.293.731h-2a1.229 1.229 0 01.344-.726.97.97 0 01.693-.251zm5.525-.757a1.45 1.45 0 00-.791.221 1.282 1.282 0 00-.51.638l-.085-.757h-.994a9.8 9.8 0 01.068 1.216v3.077h1.054V3.808a1.2 1.2 0 01.285-.833 1.061 1.061 0 01.828-.314 1.487 1.487 0 01.561.11l.009-.969a1.2 1.2 0 00-.425-.068zm5.117 2.142a2.284 2.284 0 00-.514-1.577 1.785 1.785 0 00-1.4-.573 2.067 2.067 0 00-1.079.284 1.946 1.946 0 00-.74.8 2.509 2.509 0 00-.263 1.165 2.19 2.19 0 00.6 1.632 2.263 2.263 0 001.658.6 2.847 2.847 0 00.9-.149 2.389 2.389 0 00.752-.395l-.306-.731a2.116 2.116 0 01-1.309.459 1.213 1.213 0 01-.922-.327 1.548 1.548 0 01-.344-1.016h2.958v-.162zm-1.891-1.388a.893.893 0 01.667.246 1.188 1.188 0 01.293.731h-2a1.229 1.229 0 01.344-.726.97.97 0 01.693-.251zm4.785 3.706a2.158 2.158 0 001.3-.349 1.109 1.109 0 00.476-.943 1.078 1.078 0 00-.294-.786 1.839 1.839 0 00-.93-.447l-.731-.161a1.033 1.033 0 01-.421-.187.381.381 0 01-.123-.3.428.428 0 01.2-.374 1.023 1.023 0 01.569-.136 2.217 2.217 0 011.326.476l.315-.722a2.335 2.335 0 00-.748-.4 2.791 2.791 0 00-.884-.14 2.338 2.338 0 00-.927.17 1.447 1.447 0 00-.62.471 1.141 1.141 0 00-.221.693 1.223 1.223 0 001.173 1.2l.714.161a1.356 1.356 0 01.493.2.376.376 0 01.144.31.4.4 0 01-.208.357 1.137 1.137 0 01-.591.128 2.572 2.572 0 01-1.572-.51l-.3.748a2.912 2.912 0 001.853.544zm5.559-3.562v-.8h-1.139v-1.4l-1.062.357v1.049h-.825v.8h.825V4.61a1.628 1.628 0 00.391 1.173 1.479 1.479 0 001.122.408 2 2 0 00.68-.1v-.853a1.517 1.517 0 01-.425.068.647.647 0 01-.706-.757V2.628h1.139z" fill="#5d5656" fill-rule="evenodd"/></svg>