<svg xmlns="http://www.w3.org/2000/svg" width="204.937" height="22"><path data-name="Earn AAdvantage®" d="M11.125 16.947v-2.73H3.451v-4.061h7.2V7.4h-7.2V3.61h7.674V.879H.008v16.065h11.117zM21.469 5.508v1.624a3.772 3.772 0 00-1.471-1.4 4.426 4.426 0 00-2.15-.519 4.69 4.69 0 00-2.626.756 5.024 5.024 0 00-1.8 2.133 7.3 7.3 0 00-.645 3.136 7.083 7.083 0 00.645 3.1 4.7 4.7 0 004.426 2.787 4.577 4.577 0 002.15-.5 3.6 3.6 0 001.471-1.376v1.692h3.373V5.508h-3.373zm-2.625 9.025a2.409 2.409 0 01-1.981-.846 3.784 3.784 0 01-.69-2.448 3.99 3.99 0 01.7-2.5 2.353 2.353 0 011.97-.9 2.325 2.325 0 011.946.868 3.977 3.977 0 01.679 2.494 3.924 3.924 0 01-.679 2.482 2.337 2.337 0 01-1.946.857zm15.437-9.3a3.82 3.82 0 00-2.071.575 3.362 3.362 0 00-1.347 1.659l-.226-1.963h-3.212a26.444 26.444 0 01.182 3.271v8.168h3.418v-5.979a2.8 2.8 0 01.713-2.042 2.757 2.757 0 012.071-.733 4.006 4.006 0 011.675.383l.023-3.113a2.952 2.952 0 00-1.223-.226zm9.688-.023a4.546 4.546 0 00-2.229.542 4.209 4.209 0 00-1.6 1.557l-.227-1.8h-3.214a26.458 26.458 0 01.181 3.271v8.168h3.418V10.54a2.719 2.719 0 01.679-1.94 2.37 2.37 0 011.811-.722 1.673 1.673 0 011.392.553 2.79 2.79 0 01.442 1.748v6.769h3.418V10.02q0-4.806-4.075-4.806zm29.178 11.733L65.747.878h-2.852l-7.4 16.065h3.554l1.539-3.565h7.537l1.539 3.565h3.486zM64.364 4.669l2.6 6.024h-5.206zm25.961 12.278L82.925.882h-2.852l-7.4 16.065h3.552l1.539-3.565h7.538l1.539 3.565h3.484zM81.543 4.673l2.6 6.024h-5.207zM99.561.341v6.7a3.588 3.588 0 00-1.472-1.342 4.553 4.553 0 00-2.105-.486 4.775 4.775 0 00-2.637.734 4.938 4.938 0 00-1.788 2.076 7.083 7.083 0 00-.645 3.1 7.233 7.233 0 00.645 3.125 5.042 5.042 0 001.8 2.121 4.687 4.687 0 002.626.756 4.578 4.578 0 002.151-.5 3.6 3.6 0 001.471-1.376v1.692h3.373V.341h-3.418zM96.98 14.533a2.362 2.362 0 01-1.969-.891 3.979 3.979 0 01-.7-2.516 3.754 3.754 0 01.7-2.437 2.4 2.4 0 011.969-.857 2.337 2.337 0 011.936.868 3.891 3.891 0 01.69 2.471 3.972 3.972 0 01-.679 2.493 2.326 2.326 0 01-1.947.869zm13.672-1.6l-2.943-7.4h-3.576l4.98 11.417h2.9l5.048-11.417h-3.376zM126.09 5.51v1.624a3.778 3.778 0 00-1.471-1.4 4.427 4.427 0 00-2.151-.519 4.7 4.7 0 00-2.626.756 5.029 5.029 0 00-1.8 2.133 7.3 7.3 0 00-.645 3.136 7.083 7.083 0 00.645 3.1 4.7 4.7 0 004.425 2.787 4.578 4.578 0 002.151-.5 3.6 3.6 0 001.471-1.376v1.692h3.373V5.508h-3.373zm-2.626 9.025a2.411 2.411 0 01-1.981-.846 3.79 3.79 0 01-.69-2.448 3.99 3.99 0 01.7-2.5 2.609 2.609 0 013.916-.034 3.977 3.977 0 01.679 2.494 3.924 3.924 0 01-.679 2.482 2.34 2.34 0 01-1.947.857zm15.845-9.319a4.553 4.553 0 00-2.23.542 4.214 4.214 0 00-1.6 1.557l-.227-1.8h-3.214a26.458 26.458 0 01.181 3.271v8.168h3.418v-6.408a2.715 2.715 0 01.679-1.94 2.37 2.37 0 011.811-.722 1.673 1.673 0 011.392.553 2.8 2.8 0 01.442 1.748v6.769h3.418V10.02q0-4.806-4.075-4.806zm14.012 2.843V5.51h-2.92V1.719l-3.418 1.106V5.51h-2.173v2.549h2.173v4.513a4.728 4.728 0 001.12 3.362 4.238 4.238 0 003.248 1.2 5.476 5.476 0 001.97-.316v-2.64a4.759 4.759 0 01-1.132.158 1.876 1.876 0 01-1.29-.44 1.761 1.761 0 01-.5-1.388V8.063h2.92zm9.869-2.549v1.624a3.778 3.778 0 00-1.471-1.4 4.427 4.427 0 00-2.151-.519 4.7 4.7 0 00-2.626.756 5.029 5.029 0 00-1.8 2.133 7.3 7.3 0 00-.645 3.136 7.083 7.083 0 00.645 3.1 4.7 4.7 0 004.425 2.787 4.578 4.578 0 002.151-.5 3.6 3.6 0 001.471-1.376v1.692h3.373V5.508h-3.373zm-2.626 9.025a2.408 2.408 0 01-1.98-.846 3.784 3.784 0 01-.691-2.448 3.99 3.99 0 01.7-2.5 2.609 2.609 0 013.916-.034 3.977 3.977 0 01.679 2.494 3.924 3.924 0 01-.679 2.482 2.34 2.34 0 01-1.947.857zm16.977-9.025v1.624a3.736 3.736 0 00-1.494-1.4 4.556 4.556 0 00-2.173-.519 4.944 4.944 0 00-2.648.711 4.881 4.881 0 00-1.811 2.008 7.13 7.13 0 000 5.979 4.877 4.877 0 001.811 2.009 4.952 4.952 0 002.648.71 4.417 4.417 0 003.667-1.94v1.985a2.75 2.75 0 01-.724 2.087 3.084 3.084 0 01-2.2.689 9.193 9.193 0 01-4.12-1.038l-.52 2.527a10.067 10.067 0 004.753 1.06 6.705 6.705 0 004.618-1.421 5.292 5.292 0 001.585-4.152V5.509h-3.4zm-2.671 8.529a2.5 2.5 0 01-1.992-.835 3.36 3.36 0 01-.724-2.279 3.317 3.317 0 01.724-2.268 2.515 2.515 0 011.992-.823 2.446 2.446 0 011.969.823 4.024 4.024 0 01-.011 4.558 2.454 2.454 0 01-1.958.824zm19.105-3.024a6.106 6.106 0 00-1.4-4.23 4.873 4.873 0 00-3.825-1.569 5.675 5.675 0 00-2.92.756 5.185 5.185 0 00-2 2.121 6.608 6.608 0 00-.713 3.1 5.743 5.743 0 001.653 4.343 6.288 6.288 0 004.55 1.591 8.211 8.211 0 002.433-.373 6.029 6.029 0 002.026-1.026l-.906-2.3a5.654 5.654 0 01-1.629.858 5.588 5.588 0 01-1.766.293 3.043 3.043 0 01-2.218-.733 3.444 3.444 0 01-.838-2.336h7.561v-.5zm-5.139-3.407q1.925 0 2.2 2.211h-4.55a2.825 2.825 0 01.781-1.647 2.2 2.2 0 011.573-.564zm11.345-7.6a4.784 4.784 0 00-2.422.625 4.61 4.61 0 00-1.715 1.7 4.947 4.947 0 000 4.821 4.632 4.632 0 001.715 1.717 4.95 4.95 0 004.837 0 4.614 4.614 0 001.722-1.717 4.934 4.934 0 000-4.814 4.585 4.585 0 00-1.715-1.71 4.784 4.784 0 00-2.422-.625zm2.851 7.485l-.726-1.421a1.277 1.277 0 00-.416-.46 1.159 1.159 0 00-.548-.2 1.792 1.792 0 001-.625 1.707 1.707 0 00.35-1.072 1.647 1.647 0 00-.555-1.3 2.326 2.326 0 00-1.583-.486h-2.693v5.63h1.756V5.533h.308a.336.336 0 01.278.21l.9 1.816h1.874a3.7 3.7 0 01-1.247.835 4.045 4.045 0 01-1.551.3 3.954 3.954 0 01-2.012-.513 3.654 3.654 0 01-1.393-1.414 4.085 4.085 0 01-.5-2.019 4.024 4.024 0 01.5-2 3.67 3.67 0 011.393-1.407 4.177 4.177 0 014.011 0 3.67 3.67 0 011.393 1.407 4.024 4.024 0 01.5 2 4.2 4.2 0 01-.27 1.519 3.691 3.691 0 01-.772 1.23zm-2.706-3.17h-.726V3.257h.725a.874.874 0 01.522.125.508.508 0 01.165.428.454.454 0 01-.165.394.908.908 0 01-.522.119z" fill="#fff" fill-rule="evenodd"/></svg>