<svg xmlns="http://www.w3.org/2000/svg" width="244.5" height="21.187"><path data-name="tomorrow’s getaways." d="M8.503 7.164v-2.55h-2.92V.824L2.165 1.931v2.685H-.008v2.55h2.173v4.512a4.728 4.728 0 001.12 3.362 4.235 4.235 0 003.249 1.2 5.448 5.448 0 001.969-.316v-2.64a4.708 4.708 0 01-1.132.158 1.873 1.873 0 01-1.29-.44 1.76 1.76 0 01-.5-1.387V7.17h2.92zm7.221 9.07a6.648 6.648 0 003.169-.722 5.013 5.013 0 002.094-2.076 7.154 7.154 0 000-6.317 5.013 5.013 0 00-2.094-2.076 6.66 6.66 0 00-3.169-.722 6.775 6.775 0 00-3.2.722 4.988 4.988 0 00-2.105 2.076 7.145 7.145 0 000 6.317 4.988 4.988 0 002.105 2.076 6.763 6.763 0 003.2.722zm0-2.6q-2.649 0-2.649-3.362a3.96 3.96 0 01.679-2.515 2.379 2.379 0 011.97-.846 2.318 2.318 0 011.935.846 5.091 5.091 0 010 5.042 2.33 2.33 0 01-1.935.835zm22.228-9.318a4.379 4.379 0 00-2.207.575 4.193 4.193 0 00-1.573 1.546 3.291 3.291 0 00-3.4-2.121 4.4 4.4 0 00-2.162.519 3.607 3.607 0 00-1.46 1.489l-.2-1.715h-3.214a26.66 26.66 0 01.181 3.272v8.167h3.418V9.731a3.178 3.178 0 01.577-2.031 1.956 1.956 0 011.619-.722 1.452 1.452 0 011.256.542 2.938 2.938 0 01.4 1.715v6.813h3.418V9.731a3.226 3.226 0 01.566-2.031 1.923 1.923 0 011.607-.722 1.462 1.462 0 011.268.53 3 3 0 01.385 1.727v6.813h3.418V9.131a5.683 5.683 0 00-.962-3.622 3.557 3.557 0 00-2.932-1.184zm12.065 11.915a6.646 6.646 0 003.169-.722 5 5 0 002.094-2.076 7.145 7.145 0 000-6.317 5 5 0 00-2.094-2.076 6.657 6.657 0 00-3.169-.722 6.777 6.777 0 00-3.2.722 4.988 4.988 0 00-2.105 2.076 7.145 7.145 0 000 6.317 4.988 4.988 0 002.105 2.076 6.765 6.765 0 003.2.722zm0-2.6q-2.647 0-2.648-3.362a3.954 3.954 0 01.679-2.515 2.377 2.377 0 011.969-.846 2.321 2.321 0 011.936.846 5.1 5.1 0 010 5.042 2.334 2.334 0 01-1.936.835zm14.872-9.3a3.81 3.81 0 00-2.071.576 3.35 3.35 0 00-1.347 1.658l-.227-1.963H58.03a26.464 26.464 0 01.181 3.272v8.167h3.414v-5.979a2.808 2.808 0 01.713-2.042 2.765 2.765 0 012.072-.733 3.993 3.993 0 011.675.384l.022-3.114a2.96 2.96 0 00-1.222-.226zm9.28 0a3.812 3.812 0 00-2.071.576 3.356 3.356 0 00-1.347 1.658l-.226-1.963h-3.214a26.66 26.66 0 01.181 3.272v8.167h3.418v-5.979a2.808 2.808 0 01.715-2.031 2.762 2.762 0 012.071-.733 3.989 3.989 0 011.675.384l.023-3.114a2.965 2.965 0 00-1.223-.226zm7.856 11.9a6.646 6.646 0 003.169-.722 5.008 5.008 0 002.094-2.076 7.145 7.145 0 000-6.317 5.008 5.008 0 00-2.094-2.076 6.657 6.657 0 00-3.169-.722 6.777 6.777 0 00-3.2.722 4.988 4.988 0 00-2.105 2.076 7.145 7.145 0 000 6.317 4.988 4.988 0 002.105 2.076 6.765 6.765 0 003.2.722zm0-2.6q-2.649 0-2.648-3.362a3.954 3.954 0 01.679-2.515 2.375 2.375 0 011.969-.846 2.318 2.318 0 011.935.846 5.091 5.091 0 010 5.042 2.33 2.33 0 01-1.935.835zm20.667-1.579L99.93 4.606h-2.331l-2.739 7.378-2.762-7.378h-3.486l4.64 11.439h2.9l2.49-6.633 2.6 6.633h2.875l4.64-11.439h-3.305zm7.424-12.071v3.632h1.7a4.891 4.891 0 01-1.381 2.212l1.336 1.06a7.519 7.519 0 001.573-2.189 5.909 5.909 0 00.464-2.391V-.019h-3.69zm10.009 16.25a6.047 6.047 0 003.6-.948 3.006 3.006 0 001.312-2.572 2.971 2.971 0 00-.792-2.166 5.14 5.14 0 00-2.558-1.218l-1.924-.429a2.437 2.437 0 01-1.007-.395.768.768 0 01-.283-.62.911.911 0 01.475-.813 2.5 2.5 0 011.313-.293 5.454 5.454 0 011.777.316 7.47 7.47 0 011.8.925l.95-2.279a7.243 7.243 0 00-2.105-1.049 7.915 7.915 0 00-2.4-.372 6.607 6.607 0 00-2.558.462 4.038 4.038 0 00-1.732 1.3 3.087 3.087 0 00-.622 1.9 2.85 2.85 0 00.781 2.1 4.788 4.788 0 002.433 1.151l1.879.429a3.329 3.329 0 011.2.428.8.8 0 01.339.677.859.859 0 01-.475.79 2.774 2.774 0 01-1.358.271 7.488 7.488 0 01-2.264-.35 7.029 7.029 0 01-2.015-1l-.9 2.369a8.425 8.425 0 005.134 1.386zm21.572-11.62v1.625a3.723 3.723 0 00-1.494-1.4 4.545 4.545 0 00-2.173-.519 4.944 4.944 0 00-2.648.711 4.875 4.875 0 00-1.811 2.008 7.13 7.13 0 000 5.979 4.881 4.881 0 001.806 2.016 4.944 4.944 0 002.648.711 4.41 4.41 0 003.667-1.941v1.986a2.752 2.752 0 01-.724 2.087 3.089 3.089 0 01-2.2.688 9.183 9.183 0 01-4.12-1.038l-.52 2.527a10.067 10.067 0 004.753 1.061 6.7 6.7 0 004.618-1.422 5.291 5.291 0 001.585-4.151V4.614h-3.4zm-2.671 8.529a2.5 2.5 0 01-1.992-.835 3.358 3.358 0 01-.729-2.274 3.315 3.315 0 01.724-2.267 2.516 2.516 0 011.992-.824 2.449 2.449 0 011.97.824 4.025 4.025 0 01-.012 4.557 2.451 2.451 0 01-1.958.824zm19.1-3.024a6.109 6.109 0 00-1.4-4.23 4.874 4.874 0 00-3.825-1.568 5.666 5.666 0 00-2.92.756 5.182 5.182 0 00-2 2.121 6.592 6.592 0 00-.714 3.1 5.743 5.743 0 001.653 4.343 6.284 6.284 0 004.55 1.591 8.242 8.242 0 002.433-.372 6.012 6.012 0 002.022-1.026l-.905-2.3a5.632 5.632 0 01-1.63.857 5.56 5.56 0 01-1.766.293 3.043 3.043 0 01-2.218-.733 3.444 3.444 0 01-.838-2.335h7.557v-.5zm-5.139-3.407q1.924 0 2.2 2.212h-4.55a2.825 2.825 0 01.781-1.647 2.2 2.2 0 011.573-.565zm14.284.452v-2.55h-2.92V.821l-3.418 1.105v2.685h-2.174v2.55h2.174v4.512a4.728 4.728 0 001.12 3.362 4.234 4.234 0 003.248 1.2 5.454 5.454 0 001.97-.316v-2.64a4.708 4.708 0 01-1.132.158 1.869 1.869 0 01-1.29-.44 1.76 1.76 0 01-.5-1.387V7.165h2.92zm9.869-2.55v1.625a3.764 3.764 0 00-1.471-1.4 4.416 4.416 0 00-2.151-.519 4.687 4.687 0 00-2.626.756 5.032 5.032 0 00-1.8 2.132 7.309 7.309 0 00-.645 3.136 7.08 7.08 0 00.645 3.1 4.7 4.7 0 004.425 2.787 4.59 4.59 0 002.151-.5 3.611 3.611 0 001.471-1.377v1.692h3.373V4.614h-3.373zm-2.626 9.025a2.408 2.408 0 01-1.98-.846 3.784 3.784 0 01-.691-2.448 3.985 3.985 0 01.7-2.5 2.607 2.607 0 013.916-.034 3.972 3.972 0 01.679 2.493 3.924 3.924 0 01-.679 2.482 2.337 2.337 0 01-1.947.857zm21.459-1.579l-2.762-7.446h-2.331l-2.739 7.378-2.762-7.378h-3.486l4.641 11.439h2.9l2.49-6.633 2.6 6.633h2.875l4.64-11.439h-3.3zm15.37-7.446v1.625a3.764 3.764 0 00-1.471-1.4 4.416 4.416 0 00-2.151-.519 4.687 4.687 0 00-2.626.756 5.032 5.032 0 00-1.8 2.132 7.309 7.309 0 00-.645 3.136 7.08 7.08 0 00.645 3.1 4.7 4.7 0 004.43 2.79 4.59 4.59 0 002.151-.5 3.611 3.611 0 001.471-1.377v1.692h3.373V4.614h-3.373zm-2.626 9.025a2.411 2.411 0 01-1.981-.846 3.79 3.79 0 01-.69-2.448 3.985 3.985 0 01.7-2.5 2.607 2.607 0 013.916-.034 3.972 3.972 0 01.679 2.493 3.924 3.924 0 01-.679 2.482 2.337 2.337 0 01-1.947.857zm16.705-9.025l-3.033 7.423-2.943-7.423h-3.576l4.731 10.853-.34.744a3.446 3.446 0 01-1.256 1.512 7.358 7.358 0 01-2.388.858l.792 2.617a8.247 8.247 0 003.633-1.32 7.478 7.478 0 002.456-3.215l5.3-12.049h-3.373zm8.783 11.62a6.042 6.042 0 003.6-.948 3.007 3.007 0 001.313-2.572 2.971 2.971 0 00-.792-2.166 5.144 5.144 0 00-2.558-1.218l-1.924-.429a2.437 2.437 0 01-1.007-.395.768.768 0 01-.283-.62.911.911 0 01.475-.813 2.5 2.5 0 011.313-.293 5.459 5.459 0 011.777.316 7.445 7.445 0 011.8.925l.951-2.279a7.256 7.256 0 00-2.105-1.049 7.915 7.915 0 00-2.4-.372 6.607 6.607 0 00-2.558.462 4.038 4.038 0 00-1.732 1.3 3.087 3.087 0 00-.622 1.9 2.853 2.853 0 00.78 2.1 4.8 4.8 0 002.434 1.151l1.879.429a3.314 3.314 0 011.2.428.8.8 0 01.34.677.86.86 0 01-.475.79 2.776 2.776 0 01-1.359.271 7.487 7.487 0 01-2.263-.35 7.016 7.016 0 01-2.015-1l-.9 2.369a8.425 8.425 0 005.138 1.4zm6.61-.181h3.69v-3.629h-3.69v3.632z" fill="#f36a20" fill-rule="evenodd"/></svg>