<svg xmlns="http://www.w3.org/2000/svg" width="160.75" height="21.875"><path data-name="Save today for" d="M6.301 16.931a8.054 8.054 0 004.912-1.32 4.23 4.23 0 001.765-3.576 3.566 3.566 0 00-1.369-2.956 11.281 11.281 0 00-4.471-1.76 13.177 13.177 0 01-2.06-.552 2.556 2.556 0 01-1.03-.643 1.354 1.354 0 01-.305-.9 1.678 1.678 0 01.815-1.466 3.869 3.869 0 012.173-.542 7.55 7.55 0 014.686 1.625l1.131-2.528A6.745 6.745 0 0010.013.96a10.987 10.987 0 00-3.305-.5 8.2 8.2 0 00-3.35.643 5.28 5.28 0 00-2.252 1.794 4.423 4.423 0 00-.8 2.6 4.012 4.012 0 00.577 2.222 4.459 4.459 0 001.834 1.512 14.044 14.044 0 003.384 1.049 9.975 9.975 0 012.66.846 1.347 1.347 0 01.758 1.207 1.508 1.508 0 01-.826 1.365 4.716 4.716 0 01-2.366.486 8.9 8.9 0 01-5.206-1.625l-1.14 2.522a7.989 7.989 0 002.8 1.365 12.681 12.681 0 003.52.485zM23.436 5.289v1.624a3.772 3.772 0 00-1.471-1.4 4.427 4.427 0 00-2.151-.519 4.689 4.689 0 00-2.625.756 5.024 5.024 0 00-1.8 2.133 7.3 7.3 0 00-.645 3.136 7.083 7.083 0 00.645 3.1 4.7 4.7 0 004.425 2.787 4.578 4.578 0 002.151-.5 3.6 3.6 0 001.471-1.376v1.692h3.373V5.289h-3.373zm-2.626 9.025a2.408 2.408 0 01-1.98-.846 3.784 3.784 0 01-.691-2.448 3.99 3.99 0 01.7-2.5 2.353 2.353 0 011.969-.9 2.328 2.328 0 011.947.868 3.977 3.977 0 01.679 2.494 3.924 3.924 0 01-.679 2.482 2.34 2.34 0 01-1.947.857zm13.672-1.6l-2.942-7.4h-3.577l4.98 11.417h2.9l5.048-11.417h-3.373zm17.611-1.918a6.11 6.11 0 00-1.4-4.23 4.874 4.874 0 00-3.826-1.569 5.678 5.678 0 00-2.92.756 5.182 5.182 0 00-2 2.121 6.608 6.608 0 00-.713 3.1 5.747 5.747 0 001.652 4.343 6.29 6.29 0 004.55 1.591 8.222 8.222 0 002.434-.373 6.039 6.039 0 002.026-1.026l-.906-2.3a5.646 5.646 0 01-1.63.858 5.582 5.582 0 01-1.765.293 3.045 3.045 0 01-2.219-.733 3.444 3.444 0 01-.837-2.336h7.56v-.5zm-5.138-3.407q1.923 0 2.2 2.211h-4.55a2.819 2.819 0 01.781-1.647 2.2 2.2 0 011.573-.564zm20.87.451V5.291h-2.92V1.5l-3.418 1.106v2.685h-2.173V7.84h2.173v4.513a4.728 4.728 0 001.12 3.362 4.238 4.238 0 003.249 1.2 5.47 5.47 0 001.969-.316v-2.64a4.759 4.759 0 01-1.132.158 1.878 1.878 0 01-1.29-.44 1.761 1.761 0 01-.5-1.388V7.844h2.92zm7.221 9.071a6.66 6.66 0 003.169-.722 5.025 5.025 0 002.094-2.076 7.156 7.156 0 000-6.318 5.025 5.025 0 00-2.094-2.076 6.66 6.66 0 00-3.169-.722 6.775 6.775 0 00-3.2.722 5 5 0 00-2.105 2.076 7.147 7.147 0 000 6.318 5 5 0 002.105 2.076 6.775 6.775 0 003.2.722zm0-2.6q-2.649 0-2.649-3.362a3.964 3.964 0 01.679-2.516 2.379 2.379 0 011.97-.846 2.318 2.318 0 011.935.846 5.093 5.093 0 010 5.043 2.33 2.33 0 01-1.935.835zM91.321.119v6.7a3.585 3.585 0 00-1.471-1.342 4.56 4.56 0 00-2.106-.486 4.775 4.775 0 00-2.637.734 4.938 4.938 0 00-1.788 2.076 7.083 7.083 0 00-.645 3.1 7.233 7.233 0 00.645 3.125 5.037 5.037 0 001.8 2.121 4.681 4.681 0 002.625.756 4.578 4.578 0 002.151-.5 3.6 3.6 0 001.471-1.376v1.692h3.373V.122h-3.418zM88.74 14.311a2.363 2.363 0 01-1.969-.891 3.979 3.979 0 01-.7-2.516 3.754 3.754 0 01.7-2.437 2.4 2.4 0 011.969-.857 2.337 2.337 0 011.936.868 3.891 3.891 0 01.69 2.471 3.972 3.972 0 01-.679 2.493 2.326 2.326 0 01-1.947.869zm16.887-9.025V6.91a3.781 3.781 0 00-1.472-1.4 4.421 4.421 0 00-2.15-.519 4.7 4.7 0 00-2.626.756 5.022 5.022 0 00-1.8 2.133 7.288 7.288 0 00-.646 3.136 7.069 7.069 0 00.646 3.1 4.7 4.7 0 004.425 2.787 4.571 4.571 0 002.15-.5 3.6 3.6 0 001.472-1.376v1.692h3.372V5.289h-3.372zm-2.626 9.025a2.41 2.41 0 01-1.981-.846 3.79 3.79 0 01-.69-2.448 3.99 3.99 0 01.7-2.5 2.609 2.609 0 013.916-.034 3.984 3.984 0 01.679 2.494 3.93 3.93 0 01-.679 2.482 2.34 2.34 0 01-1.947.857zm16.7-9.025l-3.033 7.423-2.943-7.423h-3.576l4.732 10.855-.34.745a3.446 3.446 0 01-1.256 1.512 7.337 7.337 0 01-2.388.857l.792 2.617a8.239 8.239 0 003.633-1.319 7.482 7.482 0 002.456-3.216l5.3-12.048h-3.373zm16.886-2.482a4.894 4.894 0 011.109.158V.299a5.535 5.535 0 00-1.946-.293 4.171 4.171 0 00-3.215 1.2 4.76 4.76 0 00-1.109 3.362v.722h-2.145v2.549h2.15v8.89h3.418v-8.89h2.4V5.29h-2.4v-.632a1.84 1.84 0 01.476-1.41 1.793 1.793 0 011.267-.44zm8.059 14.1a6.66 6.66 0 003.169-.722 5.025 5.025 0 002.094-2.076 7.156 7.156 0 000-6.318 5.025 5.025 0 00-2.094-2.076 6.66 6.66 0 00-3.169-.722 6.775 6.775 0 00-3.2.722 5 5 0 00-2.1 2.076 7.147 7.147 0 000 6.318 5 5 0 002.1 2.076 6.775 6.775 0 003.2.722zm0-2.6q-2.649 0-2.649-3.362a3.964 3.964 0 01.679-2.516 2.379 2.379 0 011.97-.846 2.318 2.318 0 011.935.846 5.093 5.093 0 010 5.043 2.33 2.33 0 01-1.935.835zm14.872-9.3a3.821 3.821 0 00-2.072.575 3.362 3.362 0 00-1.347 1.659l-.226-1.963h-3.214a26.655 26.655 0 01.181 3.271v8.168h3.418v-5.979a2.808 2.808 0 01.713-2.042 2.758 2.758 0 012.071-.733 4 4 0 011.675.383l.023-3.113a2.947 2.947 0 00-1.222-.226z" fill="#f36a20" fill-rule="evenodd"/></svg>