<svg xmlns="http://www.w3.org/2000/svg" width="177.281" height="21.843"><path data-name="miles for saving." d="M14.222 5.071a4.379 4.379 0 00-2.207.575 4.193 4.193 0 00-1.573 1.546 3.291 3.291 0 00-3.395-2.121 4.4 4.4 0 00-2.162.519 3.613 3.613 0 00-1.46 1.489l-.2-1.715H.011a26.464 26.464 0 01.181 3.272v8.167H3.61v-6.317a3.178 3.178 0 01.577-2.031 1.956 1.956 0 011.619-.722 1.452 1.452 0 011.256.542 2.938 2.938 0 01.4 1.715v6.813h3.418v-6.317a3.226 3.226 0 01.566-2.031 1.923 1.923 0 011.607-.722 1.462 1.462 0 011.268.53 3 3 0 01.385 1.727v6.813h3.418V9.881a5.683 5.683 0 00-.962-3.622 3.557 3.557 0 00-2.932-1.184zm10.009 11.732V5.364h-3.418v11.439h3.418zM20.7 3.198h3.645v-3.2H20.7v3.2zm9.734 13.605V.197h-3.423v16.606h3.42zm13.083-5.934a6.109 6.109 0 00-1.4-4.23 4.873 4.873 0 00-3.825-1.568 5.666 5.666 0 00-2.92.756 5.182 5.182 0 00-2 2.121 6.592 6.592 0 00-.713 3.1 5.743 5.743 0 001.652 4.343 6.284 6.284 0 004.55 1.591 8.242 8.242 0 002.433-.372 6.012 6.012 0 002.026-1.027l-.905-2.3a5.632 5.632 0 01-1.63.857 5.56 5.56 0 01-1.766.293 3.043 3.043 0 01-2.218-.733 3.449 3.449 0 01-.838-2.335h7.561v-.5zm-5.139-3.407q1.924 0 2.2 2.212h-4.55a2.825 2.825 0 01.781-1.647 2.2 2.2 0 011.573-.565zm11.68 9.522a6.045 6.045 0 003.6-.948 3.007 3.007 0 001.313-2.572 2.972 2.972 0 00-.793-2.166 5.14 5.14 0 00-2.558-1.218l-1.924-.429a2.443 2.443 0 01-1.007-.395.768.768 0 01-.283-.62.911.911 0 01.475-.813 2.5 2.5 0 011.313-.293 5.454 5.454 0 011.777.316 7.47 7.47 0 011.8.925l.951-2.279a7.261 7.261 0 00-2.106-1.049 7.911 7.911 0 00-2.4-.372 6.607 6.607 0 00-2.558.462 4.038 4.038 0 00-1.732 1.3 3.087 3.087 0 00-.622 1.9 2.85 2.85 0 00.781 2.1 4.788 4.788 0 002.433 1.151l1.879.429a3.329 3.329 0 011.2.428.8.8 0 01.339.677.859.859 0 01-.475.79 2.774 2.774 0 01-1.358.271 7.488 7.488 0 01-2.264-.35 7.01 7.01 0 01-2.014-1l-.906 2.369a8.425 8.425 0 005.138 1.4zM69.431 2.881a4.909 4.909 0 011.109.158V.381a5.512 5.512 0 00-1.947-.294 4.169 4.169 0 00-3.214 1.2 4.757 4.757 0 00-1.109 3.362v.722h-2.151v2.55h2.151v8.889h3.418V7.921h2.4v-2.55h-2.4v-.632a1.843 1.843 0 01.475-1.41 1.793 1.793 0 011.268-.44zm8.058 14.1a6.646 6.646 0 003.169-.722 5 5 0 002.094-2.076 7.145 7.145 0 000-6.317 5 5 0 00-2.094-2.076 6.657 6.657 0 00-3.169-.722 6.777 6.777 0 00-3.2.722 4.988 4.988 0 00-2.105 2.076 7.145 7.145 0 000 6.317 4.988 4.988 0 002.105 2.076 6.765 6.765 0 003.2.722zm0-2.6q-2.648 0-2.648-3.362a3.954 3.954 0 01.679-2.515 2.377 2.377 0 011.969-.846 2.321 2.321 0 011.936.846 5.1 5.1 0 010 5.042 2.334 2.334 0 01-1.936.835zm14.872-9.3a3.81 3.81 0 00-2.071.576 3.345 3.345 0 00-1.347 1.658l-.227-1.963h-3.214a26.464 26.464 0 01.181 3.272v8.167h3.418v-5.979a2.808 2.808 0 01.713-2.042 2.765 2.765 0 012.072-.733 3.993 3.993 0 011.675.384l.022-3.114a2.96 2.96 0 00-1.222-.226zm13.355 11.9a6.042 6.042 0 003.6-.948 3.007 3.007 0 001.313-2.572 2.971 2.971 0 00-.792-2.166 5.144 5.144 0 00-2.558-1.218l-1.924-.429a2.442 2.442 0 01-1.008-.395.768.768 0 01-.283-.62.912.912 0 01.476-.813 2.5 2.5 0 011.313-.293 5.453 5.453 0 011.776.316 7.433 7.433 0 011.8.925l.951-2.279a7.268 7.268 0 00-2.105-1.049 7.922 7.922 0 00-2.4-.372 6.611 6.611 0 00-2.558.462 4.041 4.041 0 00-1.731 1.3 3.081 3.081 0 00-.623 1.9 2.85 2.85 0 00.781 2.1 4.8 4.8 0 002.433 1.151l1.879.429a3.314 3.314 0 011.2.428.8.8 0 01.34.677.86.86 0 01-.476.79 2.771 2.771 0 01-1.358.271 7.493 7.493 0 01-2.264-.35 7.01 7.01 0 01-2.014-1l-.906 2.369a8.43 8.43 0 005.139 1.4zm15.12-11.62v1.625a3.758 3.758 0 00-1.471-1.4 4.415 4.415 0 00-2.15-.519 4.687 4.687 0 00-2.626.756 5.027 5.027 0 00-1.8 2.132 7.309 7.309 0 00-.645 3.136 7.08 7.08 0 00.645 3.1 4.7 4.7 0 004.426 2.787 4.588 4.588 0 002.15-.5 3.6 3.6 0 001.471-1.377v1.692h3.373V5.364h-3.373zm-2.625 9.025a2.41 2.41 0 01-1.981-.846 3.79 3.79 0 01-.69-2.448 3.985 3.985 0 01.7-2.5 2.351 2.351 0 011.97-.9 2.323 2.323 0 011.946.869 3.972 3.972 0 01.679 2.493 3.924 3.924 0 01-.679 2.482 2.334 2.334 0 01-1.946.857zm13.672-1.6l-2.943-7.4h-3.577l4.98 11.416h2.9l5.048-11.416h-3.373zm10.955 4.016V5.364h-3.418v11.439h3.418zm-3.531-13.605h3.644v-3.2h-3.644v3.2zm13.4 1.873a4.546 4.546 0 00-2.229.541 4.209 4.209 0 00-1.6 1.557l-.226-1.805h-3.211a26.464 26.464 0 01.181 3.272v8.167h3.418v-6.407a2.722 2.722 0 01.679-1.941 2.371 2.371 0 011.811-.722 1.676 1.676 0 011.392.553 2.8 2.8 0 01.442 1.749v6.768h3.418V9.881q0-4.806-4.075-4.806zm15.008.293v1.625a3.723 3.723 0 00-1.494-1.4 4.545 4.545 0 00-2.173-.519 4.95 4.95 0 00-2.649.711 4.879 4.879 0 00-1.81 2.008 7.13 7.13 0 000 5.979 4.885 4.885 0 001.81 2.008 4.95 4.95 0 002.649.711 4.414 4.414 0 003.667-1.941v1.986a2.756 2.756 0 01-.724 2.087 3.09 3.09 0 01-2.2.688 9.18 9.18 0 01-4.12-1.038l-.521 2.527a10.071 10.071 0 004.754 1.061 6.7 6.7 0 004.618-1.422 5.291 5.291 0 001.584-4.151V5.364h-3.395zm-2.671 8.529a2.5 2.5 0 01-1.992-.835 3.358 3.358 0 01-.721-2.276 3.315 3.315 0 01.724-2.267 2.516 2.516 0 011.992-.824 2.447 2.447 0 011.969.824 4.023 4.023 0 01-.011 4.557 2.451 2.451 0 01-1.958.824zm8.533 2.91h3.69v-3.631h-3.69v3.632z" fill="#fff" fill-rule="evenodd"/></svg>