<svg xmlns="http://www.w3.org/2000/svg" width="196.188" height="63.938"><path data-name="from pennies to perks" d="M10.085 3.975a6.753 6.753 0 011.531.217V.531a7.648 7.648 0 00-2.687-.4 5.765 5.765 0 00-4.436 1.644 6.526 6.526 0 00-1.531 4.622v.991H-.005v3.506h2.968v12.223H7.68V10.893h3.311V7.388H7.68V6.52a2.526 2.526 0 01.656-1.939 2.475 2.475 0 011.749-.605zm12.934 3.04a5.284 5.284 0 00-2.859.791 4.624 4.624 0 00-1.859 2.28l-.312-2.7h-4.436a36.368 36.368 0 01.25 4.5v11.23h4.717v-8.221a3.471 3.471 0 013.842-3.816 5.538 5.538 0 012.312.527l.031-4.281a4.1 4.1 0 00-1.686-.31zm10.84 16.349a9.208 9.208 0 004.373-.992 6.909 6.909 0 002.89-2.854 9.8 9.8 0 000-8.687 6.9 6.9 0 00-2.89-2.854 9.208 9.208 0 00-4.373-.993 9.375 9.375 0 00-4.421.993 6.877 6.877 0 00-2.905 2.854 9.8 9.8 0 000 8.687 6.883 6.883 0 002.904 2.854 9.375 9.375 0 004.421.992zm0-3.567q-3.655 0-3.656-4.623a5.428 5.428 0 01.938-3.459 3.282 3.282 0 012.718-1.163 3.2 3.2 0 012.671 1.163 6.986 6.986 0 010 6.934 3.226 3.226 0 01-2.671 1.148zM64.537 6.988a6.051 6.051 0 00-3.046.791 5.763 5.763 0 00-2.171 2.125q-1.157-2.916-4.686-2.916a6.094 6.094 0 00-2.984.713 4.989 4.989 0 00-2.015 2.048l-.281-2.358h-4.437a36.25 36.25 0 01.25 4.5v11.23h4.717v-8.686a4.355 4.355 0 01.8-2.792 2.7 2.7 0 012.233-.993 2.007 2.007 0 011.734.744 4.031 4.031 0 01.547 2.358v9.369h4.717v-8.686a4.415 4.415 0 01.781-2.792 2.657 2.657 0 012.218-.993 2.021 2.021 0 011.75.729 4.115 4.115 0 01.531 2.373v9.369h4.717v-9.533a7.787 7.787 0 00-1.328-4.979 4.911 4.911 0 00-4.047-1.621zm27.553 0a6.2 6.2 0 00-3.171.807 4.748 4.748 0 00-2.015 2.2l-.313-2.606h-4.436a36.25 36.25 0 01.25 4.5V29.82h4.718v-9.032a4.753 4.753 0 002 1.893 6.336 6.336 0 002.968.682 6.766 6.766 0 003.655-.992 6.56 6.56 0 002.468-2.839 9.868 9.868 0 00.874-4.266 10.009 10.009 0 00-.89-4.312 6.921 6.921 0 00-2.484-2.932 6.49 6.49 0 00-3.623-1.039zm-1.344 12.813a3.275 3.275 0 01-2.7-1.179 5.321 5.321 0 01-.953-3.413 5.388 5.388 0 01.953-3.428 3.258 3.258 0 012.7-1.194 3.175 3.175 0 012.671 1.241 5.534 5.534 0 01.953 3.443 5.254 5.254 0 01-.937 3.366 3.25 3.25 0 01-2.687 1.164zm25.586-4.84a8.384 8.384 0 00-1.937-5.817 6.741 6.741 0 00-5.28-2.156 7.855 7.855 0 00-4.03 1.039 7.139 7.139 0 00-2.764 2.916 9.053 9.053 0 00-.984 4.266 7.884 7.884 0 002.28 5.972 8.7 8.7 0 006.279 2.187 11.426 11.426 0 003.359-.511 8.341 8.341 0 002.795-1.412l-1.249-3.164a7.9 7.9 0 01-4.686 1.582 4.214 4.214 0 01-3.062-1.008 4.728 4.728 0 01-1.155-3.211h10.434v-.683zm-7.092-4.685q2.655 0 3.03 3.041h-6.279a3.879 3.879 0 011.078-2.265 3.047 3.047 0 012.171-.776zm19.837-3.288a6.289 6.289 0 00-3.077.745 5.8 5.8 0 00-2.2 2.14l-.313-2.482h-4.436a36.25 36.25 0 01.25 4.5v11.23h4.717v-8.81a3.731 3.731 0 01.937-2.668 3.276 3.276 0 012.5-.993 2.315 2.315 0 011.921.76 3.837 3.837 0 01.609 2.4v9.307h4.717v-9.529q0-6.607-5.623-6.608zm19.15 0a6.289 6.289 0 00-3.077.745 5.809 5.809 0 00-2.2 2.14l-.313-2.485h-4.436a36.445 36.445 0 01.25 4.5v11.23h4.717v-8.81a3.727 3.727 0 01.937-2.668 3.275 3.275 0 012.5-.993 2.317 2.317 0 011.922.76 3.837 3.837 0 01.609 2.4v9.307h4.717v-9.526q0-6.607-5.623-6.608zm14.089 16.132V7.388h-4.719v15.729h4.718zm-4.879-18.711h5.03v-4.4h-5.03v4.4zm22.93 10.548a8.384 8.384 0 00-1.93-5.817 6.741 6.741 0 00-5.28-2.156 7.858 7.858 0 00-4.03 1.039 7.139 7.139 0 00-2.764 2.916 9.053 9.053 0 00-.984 4.266 7.884 7.884 0 002.28 5.972 8.7 8.7 0 006.279 2.187 11.426 11.426 0 003.359-.511 8.346 8.346 0 002.8-1.412l-1.25-3.164a7.765 7.765 0 01-2.249 1.178 7.685 7.685 0 01-2.437.4 4.21 4.21 0 01-3.061-1.008 4.724 4.724 0 01-1.156-3.211h10.434v-.683zm-7.092-4.685q2.655 0 3.031 3.041h-6.28a3.879 3.879 0 011.078-2.265 3.048 3.048 0 012.171-.776zm16.12 13.092a8.363 8.363 0 004.967-1.3 4.131 4.131 0 001.812-3.536 4.076 4.076 0 00-1.094-2.979 7.1 7.1 0 00-3.53-1.675l-2.655-.589a3.384 3.384 0 01-1.39-.543 1.055 1.055 0 01-.391-.853 1.251 1.251 0 01.656-1.117 3.454 3.454 0 011.812-.4 7.52 7.52 0 012.452.434 10.261 10.261 0 012.484 1.272l1.312-3.134a10.044 10.044 0 00-2.9-1.442 10.966 10.966 0 00-3.312-.512 9.138 9.138 0 00-3.53.636 5.577 5.577 0 00-2.39 1.784 4.235 4.235 0 00-.859 2.606 3.917 3.917 0 001.078 2.885 6.633 6.633 0 003.358 1.582l2.593.59a4.581 4.581 0 011.656.589 1.093 1.093 0 01.469.931 1.184 1.184 0 01-.656 1.086 3.855 3.855 0 01-1.875.372 10.35 10.35 0 01-3.124-.481 9.677 9.677 0 01-2.78-1.38l-1.25 3.257a11.664 11.664 0 007.092 1.923zM11.737 45.019v-3.506h-4.03v-5.212L2.99 37.822v3.691h-3v3.506h3v6.2a6.485 6.485 0 001.546 4.622 5.856 5.856 0 004.483 1.645 7.547 7.547 0 002.718-.435v-3.63a6.559 6.559 0 01-1.562.218 2.6 2.6 0 01-1.781-.605 2.417 2.417 0 01-.687-1.908v-6.112h4.03zm9.97 12.469a9.211 9.211 0 004.373-.993 6.9 6.9 0 002.89-2.854 9.8 9.8 0 000-8.687 6.9 6.9 0 00-2.89-2.854 9.211 9.211 0 00-4.373-.993 9.375 9.375 0 00-4.421.993 6.88 6.88 0 00-2.905 2.854 9.8 9.8 0 000 8.687 6.88 6.88 0 002.905 2.854 9.375 9.375 0 004.421.993zm0-3.568q-3.656 0-3.656-4.623a5.428 5.428 0 01.938-3.459 3.285 3.285 0 012.718-1.163 3.208 3.208 0 012.671 1.163 6.986 6.986 0 010 6.934 3.226 3.226 0 01-2.671 1.148zm29.77-12.813a6.194 6.194 0 00-3.17.807 4.748 4.748 0 00-2.015 2.2l-.313-2.606h-4.436a36.25 36.25 0 01.25 4.5v17.931h4.717v-9.027a4.766 4.766 0 002 1.892 6.329 6.329 0 002.967.683 6.764 6.764 0 003.655-.993 6.547 6.547 0 002.468-2.839 9.854 9.854 0 00.875-4.266 10.023 10.023 0 00-.89-4.312 6.934 6.934 0 00-2.484-2.932 6.491 6.491 0 00-3.624-1.039zm-1.34 12.816a3.274 3.274 0 01-2.7-1.179 5.315 5.315 0 01-.953-3.413 5.382 5.382 0 01.953-3.428 3.256 3.256 0 012.7-1.194 3.175 3.175 0 012.671 1.241 5.534 5.534 0 01.953 3.443 5.26 5.26 0 01-.937 3.366 3.25 3.25 0 01-2.687 1.164zm25.585-4.84a8.38 8.38 0 00-1.937-5.817 6.739 6.739 0 00-5.279-2.156 7.852 7.852 0 00-4.03 1.039 7.144 7.144 0 00-2.765 2.917 9.046 9.046 0 00-.984 4.265 7.881 7.881 0 002.281 5.972 8.7 8.7 0 006.279 2.188 11.416 11.416 0 003.358-.512 8.346 8.346 0 002.8-1.412l-1.249-3.164a7.8 7.8 0 01-2.25 1.179 7.706 7.706 0 01-2.436.4 4.212 4.212 0 01-3.073-1.005 4.728 4.728 0 01-1.156-3.211h10.434v-.678zm-7.091-4.684q2.655 0 3.03 3.04h-6.279a3.874 3.874 0 011.078-2.265 3.044 3.044 0 012.171-.775zm19.274-3.258a5.281 5.281 0 00-2.858.791 4.628 4.628 0 00-1.859 2.28l-.312-2.7h-4.439a36.445 36.445 0 01.25 4.5v11.23h4.717v-8.221a3.471 3.471 0 013.842-3.816 5.524 5.524 0 012.312.528l.031-4.282a4.1 4.1 0 00-1.687-.31zm13.183 7.942l6.717-7.539h-5.658l-5.935 6.733V34.409h-4.717v22.833h4.717V50.2l6.217 7.042h5.779zm14.215 8.408a8.37 8.37 0 004.967-1.3 4.134 4.134 0 001.812-3.537 4.072 4.072 0 00-1.094-2.978 7.1 7.1 0 00-3.53-1.676l-2.655-.589a3.384 3.384 0 01-1.39-.543 1.055 1.055 0 01-.391-.853 1.251 1.251 0 01.656-1.117 3.454 3.454 0 011.812-.4 7.547 7.547 0 012.452.434 10.261 10.261 0 012.484 1.272l1.312-3.133a10.02 10.02 0 00-2.905-1.443 10.966 10.966 0 00-3.312-.512 9.138 9.138 0 00-3.53.636 5.577 5.577 0 00-2.39 1.784 4.235 4.235 0 00-.859 2.606 3.917 3.917 0 001.078 2.885 6.633 6.633 0 003.358 1.582l2.593.59a4.608 4.608 0 011.656.589 1.093 1.093 0 01.469.931 1.182 1.182 0 01-.657 1.086 3.848 3.848 0 01-1.874.372 10.35 10.35 0 01-3.128-.489 9.664 9.664 0 01-2.78-1.38l-1.25 3.257a11.664 11.664 0 007.092 1.924z" fill="#f36a20" fill-rule="evenodd"/></svg>