<svg xmlns="http://www.w3.org/2000/svg" width="206.25" height="125"><path data-name="Save to earn AAdvantage® miles, not interest." d="M10.336 22.643a11.146 11.146 0 006.779-1.815 5.81 5.81 0 002.437-4.917 4.9 4.9 0 00-1.89-4.064 15.59 15.59 0 00-6.17-2.42 18.215 18.215 0 01-2.843-.76 3.511 3.511 0 01-1.421-.884 1.849 1.849 0 01-.422-1.241 2.305 2.305 0 011.125-2.017 5.358 5.358 0 013-.745 10.44 10.44 0 016.467 2.234l1.562-3.475a9.322 9.322 0 00-3.5-1.861 15.231 15.231 0 00-4.561-.682A11.335 11.335 0 006.276.88a7.281 7.281 0 00-3.108 2.466 6.067 6.067 0 00-1.109 3.568 5.5 5.5 0 00.8 3.056 6.149 6.149 0 002.53 2.079 19.489 19.489 0 004.67 1.443 13.773 13.773 0 013.671 1.163 1.849 1.849 0 011.046 1.66 2.075 2.075 0 01-1.14 1.877 6.533 6.533 0 01-3.265.667 12.311 12.311 0 01-7.185-2.234L1.624 20.1a11.063 11.063 0 003.858 1.877 17.55 17.55 0 004.858.667zM33.984 6.635v2.234a5.189 5.189 0 00-2.031-1.923 6.113 6.113 0 00-2.968-.714 6.486 6.486 0 00-3.624 1.039 6.922 6.922 0 00-2.484 2.932 10.016 10.016 0 00-.89 4.312 9.708 9.708 0 00.89 4.266 6.491 6.491 0 006.109 3.831 6.34 6.34 0 002.968-.683 4.972 4.972 0 002.031-1.892v2.325h4.655V6.635h-4.656zm-3.624 12.41a3.331 3.331 0 01-2.734-1.163 5.194 5.194 0 01-.953-3.366 5.47 5.47 0 01.968-3.444 3.25 3.25 0 012.718-1.241 3.215 3.215 0 012.687 1.194 5.451 5.451 0 01.937 3.428 5.382 5.382 0 01-.937 3.413 3.231 3.231 0 01-2.687 1.179zm18.869-2.2L45.168 6.662h-4.936l6.874 15.7h4l6.967-15.7h-4.655zm24.3-2.637a8.383 8.383 0 00-1.937-5.817 6.738 6.738 0 00-5.279-2.156 7.846 7.846 0 00-4.03 1.039 7.142 7.142 0 00-2.765 2.916 9.05 9.05 0 00-.984 4.266 7.882 7.882 0 002.281 5.972 8.7 8.7 0 006.279 2.187 11.414 11.414 0 003.358-.512 8.331 8.331 0 002.8-1.412l-1.25-3.164a7.89 7.89 0 01-4.686 1.582 4.208 4.208 0 01-3.061-1.008 4.726 4.726 0 01-1.156-3.211h10.434v-.685zm-7.091-4.685q2.655 0 3.03 3.04h-6.279a3.874 3.874 0 011.078-2.265 3.046 3.046 0 012.171-.776zm28.8.62V6.635h-4.03V1.423l-4.717 1.52v3.692h-3v3.506h3v6.2a6.485 6.485 0 001.546 4.623 5.858 5.858 0 004.483 1.644 7.563 7.563 0 002.718-.434v-3.63a6.556 6.556 0 01-1.562.217 2.6 2.6 0 01-1.77-.599 2.416 2.416 0 01-.687-1.908v-6.113h4.03zm9.968 12.469a9.209 9.209 0 004.373-.993 6.9 6.9 0 002.89-2.854 8.939 8.939 0 001.015-4.343 8.94 8.94 0 00-1.015-4.343 6.906 6.906 0 00-2.89-2.854 9.215 9.215 0 00-4.373-.993 9.379 9.379 0 00-4.421.993 6.879 6.879 0 00-2.905 2.854 8.929 8.929 0 00-1.015 4.343 8.928 8.928 0 001.015 4.343 6.876 6.876 0 002.905 2.854 9.373 9.373 0 004.421.993zm0-3.568q-3.656 0-3.656-4.623a5.427 5.427 0 01.938-3.459 3.284 3.284 0 012.718-1.163 3.206 3.206 0 012.671 1.163 5.5 5.5 0 01.921 3.459 5.486 5.486 0 01-.921 3.475 3.225 3.225 0 01-2.671 1.148zm34.3-4.84a8.383 8.383 0 00-1.937-5.817 6.738 6.738 0 00-5.279-2.156 7.846 7.846 0 00-4.03 1.039 7.142 7.142 0 00-2.765 2.916 9.05 9.05 0 00-.984 4.266 7.882 7.882 0 002.281 5.972 8.7 8.7 0 006.279 2.187 11.414 11.414 0 003.358-.512 8.331 8.331 0 002.8-1.412l-1.25-3.164a7.89 7.89 0 01-4.686 1.582 4.208 4.208 0 01-3.061-1.008 4.726 4.726 0 01-1.156-3.211h10.43v-.681zm-7.091-4.685q2.655 0 3.03 3.04h-6.279a3.868 3.868 0 011.078-2.265 3.046 3.046 0 012.171-.776zm21.274-2.885v2.234a5.192 5.192 0 00-2.031-1.923 6.113 6.113 0 00-2.968-.714 6.488 6.488 0 00-3.624 1.039 6.917 6.917 0 00-2.483 2.932 10.009 10.009 0 00-.89 4.312 9.7 9.7 0 00.89 4.266 6.491 6.491 0 006.107 3.831 6.341 6.341 0 002.968-.683 4.975 4.975 0 002.031-1.892v2.326h4.654V6.635h-4.654zm-3.624 12.41a3.332 3.332 0 01-2.734-1.163 5.2 5.2 0 01-.952-3.366 5.468 5.468 0 01.968-3.444 3.249 3.249 0 012.718-1.241 3.213 3.213 0 012.686 1.194 5.45 5.45 0 01.938 3.428 5.381 5.381 0 01-.938 3.413 3.229 3.229 0 01-2.686 1.179zm21.3-12.782a5.277 5.277 0 00-2.858.791 4.612 4.612 0 00-1.859 2.28l-.313-2.7h-4.429a36.246 36.246 0 01.25 4.5v11.229h4.717v-8.219a3.473 3.473 0 013.843-3.816 5.536 5.536 0 012.312.527l.031-4.281a4.1 4.1 0 00-1.687-.31zm13.37-.031a6.3 6.3 0 00-3.077.745 5.806 5.806 0 00-2.2 2.141l-.313-2.482h-4.429a36.246 36.246 0 01.25 4.5v11.227h4.717v-8.808a3.728 3.728 0 01.938-2.668 3.273 3.273 0 012.5-.993 2.316 2.316 0 011.921.76 3.838 3.838 0 01.609 2.4v9.309h4.717V12.84q0-6.608-5.623-6.608zM24.362 56.49L14.147 34.401h-3.941L-.005 56.49h4.9l2.124-4.9h10.4l2.124 4.9h4.811zM12.241 39.613l3.593 8.283H8.649zM48.073 56.49L37.858 34.401h-3.937L23.706 56.49h4.9l2.124-4.9h10.4l2.124 4.9h4.811zM35.952 39.613l3.592 8.283h-7.185zm24.866-5.957v9.214a4.934 4.934 0 00-2.03-1.846 6.319 6.319 0 00-2.905-.667 6.615 6.615 0 00-3.64 1.008 6.8 6.8 0 00-2.468 2.854 9.716 9.716 0 00-.89 4.266 9.919 9.919 0 00.89 4.3 6.937 6.937 0 002.484 2.916 6.48 6.48 0 003.624 1.039 6.336 6.336 0 002.967-.683 4.968 4.968 0 002.031-1.892v2.327h4.655V33.657h-4.718zM57.257 53.17a3.266 3.266 0 01-2.718-1.225 5.455 5.455 0 01-.968-3.459 5.147 5.147 0 01.968-3.351 3.321 3.321 0 012.718-1.179 3.225 3.225 0 012.671 1.194 5.332 5.332 0 01.953 3.4 5.449 5.449 0 01-.937 3.428 3.214 3.214 0 01-2.687 1.194zm18.869-2.2l-4.062-10.178h-4.935l6.872 15.7h4l6.966-15.7h-4.654zm21.305-10.208v2.234a5.185 5.185 0 00-2.031-1.923 6.11 6.11 0 00-2.967-.714 6.484 6.484 0 00-3.624 1.039 6.927 6.927 0 00-2.484 2.932 10.023 10.023 0 00-.89 4.312 9.714 9.714 0 00.89 4.266 6.491 6.491 0 006.108 3.832 6.336 6.336 0 002.967-.683 4.968 4.968 0 002.031-1.892v2.327h4.655v-15.73h-4.655zm-3.625 12.409a3.33 3.33 0 01-2.733-1.163 5.19 5.19 0 01-.953-3.366 5.469 5.469 0 01.968-3.444 3.251 3.251 0 012.718-1.241 3.216 3.216 0 012.687 1.194 5.449 5.449 0 01.937 3.428 5.38 5.38 0 01-.937 3.413 3.232 3.232 0 01-2.687 1.179zm21.869-12.809a6.3 6.3 0 00-3.078.745 5.812 5.812 0 00-2.2 2.141l-.314-2.486h-4.436a36.441 36.441 0 01.25 4.5V56.49h4.717v-8.81a3.728 3.728 0 01.937-2.668 3.274 3.274 0 012.5-.993 2.315 2.315 0 011.921.76 3.838 3.838 0 01.61 2.4v9.307h4.717v-9.524q0-6.608-5.623-6.608zm19.337 3.9v-3.5h-4.03v-5.213l-4.717 1.52v3.693h-3v3.5h3v6.2a6.485 6.485 0 001.546 4.623 5.858 5.858 0 004.483 1.644 7.563 7.563 0 002.718-.434v-3.63a6.563 6.563 0 01-1.562.217 2.6 2.6 0 01-1.781-.6 2.416 2.416 0 01-.687-1.908v-6.112h4.03zm13.62-3.506v2.234a5.189 5.189 0 00-2.03-1.923 6.116 6.116 0 00-2.968-.714 6.486 6.486 0 00-3.624 1.039 6.927 6.927 0 00-2.484 2.932 10.023 10.023 0 00-.89 4.312 9.714 9.714 0 00.89 4.266 6.491 6.491 0 006.108 3.832 6.343 6.343 0 002.968-.683 4.971 4.971 0 002.03-1.892v2.327h4.655V40.762h-4.655zm-3.626 12.415a3.33 3.33 0 01-2.733-1.163 5.19 5.19 0 01-.953-3.366 5.475 5.475 0 01.968-3.444 3.252 3.252 0 012.718-1.241 3.216 3.216 0 012.687 1.194 5.449 5.449 0 01.937 3.428 5.38 5.38 0 01-.937 3.413 3.232 3.232 0 01-2.687 1.179zm23.432-12.409v2.234a5.14 5.14 0 00-2.062-1.923 6.3 6.3 0 00-3-.714 6.847 6.847 0 00-3.655.977 6.73 6.73 0 00-2.5 2.761 9.778 9.778 0 000 8.221 6.727 6.727 0 002.5 2.761 6.847 6.847 0 003.655.977 6.1 6.1 0 005.061-2.668v2.73a3.778 3.778 0 01-1 2.87 4.269 4.269 0 01-3.03.946 12.714 12.714 0 01-5.686-1.427l-.715 3.475a13.939 13.939 0 006.56 1.458q4.187 0 6.373-1.954a7.258 7.258 0 002.187-5.708V40.762h-4.686zm-3.686 11.727a3.456 3.456 0 01-2.75-1.148 4.61 4.61 0 01-1-3.133 4.551 4.551 0 011-3.118 3.48 3.48 0 012.75-1.132 3.381 3.381 0 012.717 1.132 5.515 5.515 0 01-.015 6.267 3.392 3.392 0 01-2.7 1.132zm26.366-4.157a8.383 8.383 0 00-1.937-5.817 6.742 6.742 0 00-5.275-2.153 7.848 7.848 0 00-4.03 1.039 7.148 7.148 0 00-2.765 2.916 9.05 9.05 0 00-.984 4.266 7.882 7.882 0 002.281 5.972 8.7 8.7 0 006.279 2.187 11.409 11.409 0 003.358-.512 8.321 8.321 0 002.8-1.412l-1.249-3.164a7.89 7.89 0 01-4.69 1.579 4.212 4.212 0 01-3.062-1.008 4.726 4.726 0 01-1.156-3.211h10.435v-.683zm-7.092-4.685q2.655 0 3.03 3.04h-6.279a3.88 3.88 0 011.078-2.265 3.048 3.048 0 012.171-.776zm15.657-10.455a6.613 6.613 0 00-3.342.859 6.332 6.332 0 00-2.368 2.342 6.782 6.782 0 000 6.629 6.377 6.377 0 002.368 2.36 6.849 6.849 0 006.675 0 6.357 6.357 0 002.377-2.36 6.765 6.765 0 000-6.62 6.311 6.311 0 00-2.368-2.351 6.616 6.616 0 00-3.342-.859zm3.934 10.291l-1-1.953a1.761 1.761 0 00-.573-.633 1.623 1.623 0 00-.756-.271 2.47 2.47 0 001.375-.859 2.343 2.343 0 00.482-1.474 2.26 2.26 0 00-.765-1.791 3.216 3.216 0 00-2.185-.669h-3.715v7.741h2.422v-2.786h.437a.461.461 0 01.382.289l1.239 2.5h2.586a5.089 5.089 0 01-1.721 1.148 5.587 5.587 0 01-2.14.407 5.476 5.476 0 01-2.779-.709 5.023 5.023 0 01-1.922-1.944 5.587 5.587 0 01-.692-2.776 5.5 5.5 0 01.692-2.749 5.043 5.043 0 011.922-1.936 5.783 5.783 0 015.536 0 5.05 5.05 0 011.922 1.935 5.512 5.512 0 01.692 2.749 5.75 5.75 0 01-.374 2.089 5.049 5.049 0 01-1.065 1.691zm-3.734-4.359h-1v-1.462h1a1.2 1.2 0 01.72.172.693.693 0 01.227.588.623.623 0 01-.227.543 1.256 1.256 0 01-.72.163zm-178.27 35.36a6.05 6.05 0 00-3.046.791 5.769 5.769 0 00-2.171 2.125q-1.156-2.916-4.686-2.916a6.086 6.086 0 00-2.983.714 4.979 4.979 0 00-2.015 2.047l-.281-2.358H1.995a36.346 36.346 0 01.25 4.5v11.23h4.717v-8.686a4.356 4.356 0 01.8-2.792 2.7 2.7 0 012.234-.993 2.007 2.007 0 011.734.745 4.027 4.027 0 01.547 2.358v9.369h4.717v-8.686a4.417 4.417 0 01.781-2.792 2.658 2.658 0 012.218-.993 2.02 2.02 0 011.749.729 4.109 4.109 0 01.531 2.373v9.369h4.717v-9.526a7.788 7.788 0 00-1.328-4.979 4.913 4.913 0 00-4.046-1.629zm13.808 16.132V74.887h-4.715v15.729h4.717zm-4.873-18.707h5.03v-4.405h-5.03v4.405zm13.433 18.707V67.783h-4.718v22.833h4.717zm18.057-8.159a8.383 8.383 0 00-1.937-5.817 6.742 6.742 0 00-5.28-2.156 7.848 7.848 0 00-4.03 1.039 7.141 7.141 0 00-2.764 2.916 9.049 9.049 0 00-.984 4.265 7.883 7.883 0 002.281 5.972 8.7 8.7 0 006.282 2.186 11.416 11.416 0 003.358-.512 8.337 8.337 0 002.8-1.412l-1.249-3.164a7.886 7.886 0 01-4.686 1.582 4.214 4.214 0 01-3.062-1.008 4.728 4.728 0 01-1.155-3.211h10.434v-.675zm-7.092-4.684q2.655 0 3.03 3.041h-6.28a3.88 3.88 0 011.078-2.265 3.048 3.048 0 012.171-.776zm16.12 13.093a8.37 8.37 0 004.967-1.3 4.134 4.134 0 001.812-3.537 4.072 4.072 0 00-1.094-2.978 7.1 7.1 0 00-3.53-1.676l-2.655-.589a3.384 3.384 0 01-1.39-.543 1.056 1.056 0 01-.391-.853 1.251 1.251 0 01.656-1.117 3.456 3.456 0 011.812-.4 7.539 7.539 0 012.452.434 10.279 10.279 0 012.484 1.272l1.312-3.133a10.04 10.04 0 00-2.905-1.443 10.965 10.965 0 00-3.312-.512 9.144 9.144 0 00-3.53.636 5.574 5.574 0 00-2.39 1.784 4.236 4.236 0 00-.859 2.606 3.913 3.913 0 001.078 2.885 6.629 6.629 0 003.358 1.582l2.593.59a4.616 4.616 0 011.656.589 1.092 1.092 0 01.468.931 1.181 1.181 0 01-.656 1.086 3.848 3.848 0 01-1.874.372 10.35 10.35 0 01-3.122-.49 9.651 9.651 0 01-2.78-1.38l-1.25 3.257a11.662 11.662 0 007.092 1.924zm9.122-5.243v4.994h2.343a7.1 7.1 0 01-1.906 3.041l1.843 1.427a9.57 9.57 0 002.171-2.963 8.206 8.206 0 00.641-3.3v-3.2h-5.092zM12.023 108.61a6.29 6.29 0 00-3.077.745 5.809 5.809 0 00-2.2 2.14l-.312-2.482H1.995a36.359 36.359 0 01.25 4.5v11.23h4.717v-8.81a3.728 3.728 0 01.937-2.668 3.274 3.274 0 012.5-.993 2.315 2.315 0 011.921.76 3.836 3.836 0 01.609 2.4v9.307h4.717v-9.524q0-6.608-5.623-6.608zm16.932 16.381a9.21 9.21 0 004.374-.993 6.905 6.905 0 002.89-2.854 9.8 9.8 0 000-8.687 6.905 6.905 0 00-2.89-2.854 9.21 9.21 0 00-4.374-.993 9.372 9.372 0 00-4.42.993 6.878 6.878 0 00-2.905 2.854 9.8 9.8 0 000 8.687 6.878 6.878 0 002.905 2.854 9.372 9.372 0 004.42.993zm0-3.568q-3.655 0-3.655-4.623a5.429 5.429 0 01.937-3.459 3.287 3.287 0 012.718-1.163 3.207 3.207 0 012.671 1.163 6.982 6.982 0 010 6.934 3.225 3.225 0 01-2.671 1.148zm21.118-8.9v-3.506h-4.03v-5.212l-4.717 1.521v3.691h-3v3.506h3v6.205a6.485 6.485 0 001.546 4.622 5.856 5.856 0 004.483 1.645 7.542 7.542 0 002.717-.435v-3.629a6.6 6.6 0 01-1.562.217 2.6 2.6 0 01-1.781-.6 2.417 2.417 0 01-.687-1.908v-6.112h4.029zm15.9 12.223v-15.733h-4.717v15.729h4.717zM61.1 106.039h5.029v-4.405H61.1v4.405zm18.493 2.575a6.292 6.292 0 00-3.077.745 5.806 5.806 0 00-2.2 2.14l-.313-2.482h-4.436a36.262 36.262 0 01.25 4.5v11.23h4.717v-8.81a3.727 3.727 0 01.938-2.668 3.272 3.272 0 012.5-.993 2.315 2.315 0 011.921.76 3.837 3.837 0 01.609 2.4v9.307h4.717v-9.524q0-6.608-5.623-6.608zm19.337 3.909v-3.506H94.9v-5.212l-4.717 1.521v3.691h-3v3.506h3v6.205a6.485 6.485 0 001.547 4.622 5.854 5.854 0 004.482 1.645 7.542 7.542 0 002.718-.435v-3.629a6.6 6.6 0 01-1.562.217 2.6 2.6 0 01-1.78-.6 2.415 2.415 0 01-.688-1.908v-6.112h4.03zm16.62 4.064a8.384 8.384 0 00-1.937-5.817 6.741 6.741 0 00-5.28-2.156 7.858 7.858 0 00-4.03 1.039 7.148 7.148 0 00-2.764 2.917 9.046 9.046 0 00-.984 4.265 7.884 7.884 0 002.28 5.972 8.692 8.692 0 006.279 2.188 11.428 11.428 0 003.359-.512 8.346 8.346 0 002.8-1.412l-1.25-3.164a7.792 7.792 0 01-2.249 1.179 7.712 7.712 0 01-2.437.4 4.21 4.21 0 01-3.061-1.008 4.722 4.722 0 01-1.156-3.211h10.434v-.683zm-7.092-4.684q2.655 0 3.031 3.04h-6.283a3.879 3.879 0 011.078-2.265 3.048 3.048 0 012.171-.775zm19.275-3.258a5.286 5.286 0 00-2.859.791 4.621 4.621 0 00-1.858 2.28l-.313-2.7h-4.436a36.262 36.262 0 01.25 4.5v11.23h4.717v-8.221a3.473 3.473 0 013.843-3.816 5.527 5.527 0 012.312.528l.031-4.282a4.11 4.11 0 00-1.687-.31zm17.494 7.942a8.384 8.384 0 00-1.937-5.817 6.739 6.739 0 00-5.279-2.156 7.852 7.852 0 00-4.03 1.039 7.15 7.15 0 00-2.765 2.917 9.046 9.046 0 00-.984 4.265 7.884 7.884 0 002.28 5.972 8.692 8.692 0 006.28 2.188 11.426 11.426 0 003.358-.512 8.346 8.346 0 002.8-1.412l-1.25-3.164a7.792 7.792 0 01-2.249 1.179 7.712 7.712 0 01-2.437.4 4.21 4.21 0 01-3.061-1.008 4.722 4.722 0 01-1.156-3.211h10.434v-.683zm-7.091-4.684q2.654 0 3.03 3.04h-6.279a3.873 3.873 0 011.077-2.265 3.049 3.049 0 012.172-.775zm16.119 13.092a8.37 8.37 0 004.967-1.3 4.132 4.132 0 001.812-3.537 4.076 4.076 0 00-1.093-2.978 7.1 7.1 0 00-3.531-1.676l-2.655-.589a3.384 3.384 0 01-1.39-.543 1.055 1.055 0 01-.391-.853 1.251 1.251 0 01.656-1.117 3.457 3.457 0 011.812-.4 7.552 7.552 0 012.453.434 10.309 10.309 0 012.483 1.272l1.312-3.133a10.008 10.008 0 00-2.905-1.443 10.965 10.965 0 00-3.311-.512 9.143 9.143 0 00-3.531.636 5.568 5.568 0 00-2.389 1.784 4.235 4.235 0 00-.859 2.606 3.917 3.917 0 001.077 2.885 6.633 6.633 0 003.359 1.582l2.592.59a4.6 4.6 0 011.656.589 1.09 1.09 0 01.469.931 1.183 1.183 0 01-.656 1.086 3.852 3.852 0 01-1.875.372 10.355 10.355 0 01-3.124-.481 9.677 9.677 0 01-2.78-1.38l-1.25 3.257a11.664 11.664 0 007.092 1.924zm19.462-12.472v-3.506h-4.03v-5.212l-4.717 1.521v3.691h-3v3.506h3v6.205a6.485 6.485 0 001.547 4.622 5.854 5.854 0 004.482 1.645 7.542 7.542 0 002.718-.435v-3.629a6.6 6.6 0 01-1.562.217 2.593 2.593 0 01-1.78-.6 2.415 2.415 0 01-.688-1.908v-6.112h4.03zm2.78 12.223h5.092v-4.994h-5.092v4.994z" fill="#fff" fill-rule="evenodd"/></svg>