<svg xmlns="http://www.w3.org/2000/svg" width="128.688" height="29.781"><path d="M9.555 23.112q4.655 0 7.108-2.4t2.452-7V.744h-4.811v13.187a5.892 5.892 0 01-1.218 4.018 4.46 4.46 0 01-3.53 1.381 4.508 4.508 0 01-3.546-1.381 5.841 5.841 0 01-1.234-4.018V.744h-4.78v12.968q0 4.623 2.437 7.012t7.123 2.388zM32.797 6.701a6.2 6.2 0 00-3.17.806 4.75 4.75 0 00-2.015 2.2l-.313-2.606h-4.436a36.25 36.25 0 01.25 4.5v17.93h4.717v-9.028a4.762 4.762 0 002 1.893 6.329 6.329 0 002.967.682 6.763 6.763 0 003.655-.992 6.547 6.547 0 002.468-2.839 9.857 9.857 0 00.875-4.266 10.023 10.023 0 00-.89-4.312 6.928 6.928 0 00-2.484-2.932 6.483 6.483 0 00-3.624-1.039zm-1.343 12.813a3.275 3.275 0 01-2.7-1.179 5.315 5.315 0 01-.953-3.413 5.38 5.38 0 01.953-3.428 3.258 3.258 0 012.7-1.194 3.175 3.175 0 012.671 1.241 5.534 5.534 0 01.953 3.443 5.254 5.254 0 01-.937 3.366 3.25 3.25 0 01-2.687 1.164zm22.711-12.41v2.234a5.136 5.136 0 00-2.061-1.924 6.3 6.3 0 00-3-.713 6.856 6.856 0 00-3.655.977 6.734 6.734 0 00-2.5 2.761 9.78 9.78 0 000 8.222 6.734 6.734 0 002.5 2.761 6.856 6.856 0 003.655.977 6.1 6.1 0 005.065-2.668v2.73a3.779 3.779 0 01-1 2.87 4.273 4.273 0 01-3.031.946 12.711 12.711 0 01-5.685-1.427l-.719 3.474a13.942 13.942 0 006.561 1.459q4.185 0 6.373-1.955a7.261 7.261 0 002.186-5.708V7.104h-4.685zm-3.687 11.727a3.451 3.451 0 01-2.749-1.148 4.6 4.6 0 01-1-3.133 4.547 4.547 0 011-3.118 3.475 3.475 0 012.749-1.132 3.383 3.383 0 012.718 1.132 5.518 5.518 0 01-.016 6.267 3.392 3.392 0 01-2.7 1.132zm21.368-12.1a5.284 5.284 0 00-2.859.791 4.619 4.619 0 00-1.859 2.28l-.312-2.7H62.38a36.445 36.445 0 01.25 4.5v11.229h4.717V14.61a3.471 3.471 0 013.843-3.816 5.534 5.534 0 012.311.527l.032-4.281a4.11 4.11 0 00-1.687-.31zm14.5.372v2.234a5.191 5.191 0 00-2.031-1.924 6.119 6.119 0 00-2.968-.713 6.48 6.48 0 00-3.623 1.039 6.921 6.921 0 00-2.484 2.932 10.009 10.009 0 00-.89 4.312 9.7 9.7 0 00.89 4.266 6.488 6.488 0 006.107 3.831 6.336 6.336 0 002.968-.682 4.975 4.975 0 002.031-1.893v2.326H91V7.104h-4.654zm-3.624 12.41a3.331 3.331 0 01-2.734-1.164 5.2 5.2 0 01-.952-3.366 5.466 5.466 0 01.968-3.443 3.249 3.249 0 012.718-1.241 3.215 3.215 0 012.687 1.194 5.455 5.455 0 01.937 3.428 5.388 5.388 0 01-.937 3.413 3.232 3.232 0 01-2.687 1.179zM105.964-.001v9.214a4.937 4.937 0 00-2.031-1.846 6.311 6.311 0 00-2.905-.667 6.61 6.61 0 00-3.639 1.008 6.793 6.793 0 00-2.468 2.854 9.7 9.7 0 00-.891 4.266 9.906 9.906 0 00.891 4.3 6.933 6.933 0 002.483 2.916 6.483 6.483 0 003.624 1.039 6.336 6.336 0 002.968-.682 4.966 4.966 0 002.03-1.893v2.323h4.655V0h-4.722zm-3.561 19.514a3.266 3.266 0 01-2.718-1.226 5.456 5.456 0 01-.969-3.459 5.146 5.146 0 01.969-3.35 3.319 3.319 0 012.718-1.179 3.225 3.225 0 012.671 1.194 5.331 5.331 0 01.952 3.4 5.449 5.449 0 01-.937 3.428 3.211 3.211 0 01-2.686 1.195zm26.3-4.84a8.384 8.384 0 00-1.937-5.817 6.739 6.739 0 00-5.279-2.156 7.843 7.843 0 00-4.03 1.039 7.141 7.141 0 00-2.765 2.916 9.053 9.053 0 00-.984 4.266 7.881 7.881 0 002.281 5.972 8.7 8.7 0 006.279 2.187 11.388 11.388 0 003.358-.512 8.327 8.327 0 002.8-1.411l-1.25-3.165a7.9 7.9 0 01-4.686 1.583 4.206 4.206 0 01-3.061-1.009 4.724 4.724 0 01-1.156-3.211h10.434v-.682zm-7.091-4.685q2.655 0 3.03 3.041h-6.279a3.874 3.874 0 011.078-2.265 3.045 3.045 0 012.171-.776z" fill="#f36a20" fill-rule="evenodd"/></svg>