<svg xmlns="http://www.w3.org/2000/svg" width="88.375" height="7.687"><path data-name="Outsmart Interest copy" d="M3.555 7.68a3.67 3.67 0 001.89-.467A3.107 3.107 0 006.673 5.88a5.063 5.063 0 00.005-4.074A3.038 3.038 0 005.45.477a4.118 4.118 0 00-3.791 0A3.069 3.069 0 00.425 1.806 5.007 5.007 0 00.43 5.88a3.129 3.129 0 001.239 1.333 3.676 3.676 0 001.885.467zm0-1.081a1.963 1.963 0 01-1.617-.714 3.186 3.186 0 01-.578-2.048A3.141 3.141 0 011.938 1.8a2.2 2.2 0 013.234.006 3.141 3.141 0 01.578 2.031 3.187 3.187 0 01-.578 2.048 1.963 1.963 0 01-1.617.714zm8.347-4.316v2.951a1.434 1.434 0 01-.346 1.008 1.193 1.193 0 01-.924.378.914.914 0 01-.73-.273 1.28 1.28 0 01-.236-.851V2.283h-1.3v3.2q0 2.184 1.942 2.184a1.972 1.972 0 00.966-.231 1.723 1.723 0 00.672-.672v.819h1.281v-5.3H11.9zm5.828.987v-.987h-1.407V.551l-1.312.441v1.291h-1.019v.987h1.018v2.436a2.012 2.012 0 00.483 1.449 1.829 1.829 0 001.386.5 2.469 2.469 0 00.84-.126V6.49a1.858 1.858 0 01-.525.084.8.8 0 01-.871-.935V3.266h1.407zm2.845 4.4a2.662 2.662 0 001.607-.431 1.369 1.369 0 00.588-1.165 1.333 1.333 0 00-.362-.971 2.284 2.284 0 00-1.15-.552l-.9-.2a1.269 1.269 0 01-.52-.231.47.47 0 01-.152-.368.528.528 0 01.252-.462 1.268 1.268 0 01.7-.168 2.734 2.734 0 011.638.588l.388-.892a2.879 2.879 0 00-.924-.5 3.477 3.477 0 00-1.092-.173 2.9 2.9 0 00-1.145.21 1.789 1.789 0 00-.766.583 1.409 1.409 0 00-.273.855 1.511 1.511 0 001.449 1.481l.882.2a1.657 1.657 0 01.609.247.464.464 0 01.178.383.492.492 0 01-.257.441 1.4 1.4 0 01-.73.158 3.178 3.178 0 01-1.942-.63l-.368.924a3.592 3.592 0 002.289.672zm9.576-5.523a2.058 2.058 0 00-1.045.268 1.826 1.826 0 00-.719.74 1.512 1.512 0 00-1.586-1.008 1.966 1.966 0 00-1 .252 1.651 1.651 0 00-.667.724l-.094-.84h-1.231a12.03 12.03 0 01.084 1.5v3.8h1.3V4.625a1.613 1.613 0 01.315-1.055 1.054 1.054 0 01.861-.384.8.8 0 01.677.284 1.5 1.5 0 01.215.9v3.213h1.313V4.625a1.631 1.631 0 01.31-1.055 1.039 1.039 0 01.856-.384.784.784 0 01.677.279 1.559 1.559 0 01.2.908v3.213h1.312V4.331a2.565 2.565 0 00-.441-1.643 1.631 1.631 0 00-1.344-.541zm6.961.136v.8a1.7 1.7 0 00-.693-.687 2.105 2.105 0 00-1.029-.247 2.165 2.165 0 00-1.218.352 2.332 2.332 0 00-.834.987 3.365 3.365 0 00-.3 1.454 3.318 3.318 0 00.294 1.438 2.216 2.216 0 00.83.956 2.261 2.261 0 001.228.336 2.105 2.105 0 001.029-.247 1.7 1.7 0 00.693-.688v.851H38.4v-5.3h-1.292zm-1.365 4.358a1.248 1.248 0 01-1.023-.441 1.935 1.935 0 01-.363-1.26 2.068 2.068 0 01.363-1.3 1.209 1.209 0 011.013-.467 1.224 1.224 0 011.018.451 2.042 2.042 0 01.357 1.292 2 2 0 01-.357 1.27 1.211 1.211 0 01-1.008.452zm6.941-4.484a1.786 1.786 0 00-.977.273 1.581 1.581 0 00-.63.788l-.105-.935h-1.228a12.03 12.03 0 01.084 1.5v3.8h1.3V4.716a1.474 1.474 0 01.352-1.029 1.311 1.311 0 011.023-.388 1.844 1.844 0 01.693.136l.011-1.2a1.475 1.475 0 00-.525-.084zm4.819 1.113v-.987H46.1V.551l-1.312.441v1.291h-1.019v.987h1.019v2.436a2.013 2.013 0 00.483 1.449 1.83 1.83 0 001.386.5 2.469 2.469 0 00.84-.126V6.49a1.857 1.857 0 01-.525.084.8.8 0 01-.872-.935V3.266h1.407zm5.229 4.316V.11h-1.354v7.476h1.354zm4.557-5.439a2.125 2.125 0 00-1.055.262 1.918 1.918 0 00-.741.746l-.094-.872h-1.229a12.03 12.03 0 01.084 1.5v3.8h1.3v-3a1.4 1.4 0 01.368-1.013 1.276 1.276 0 01.966-.384.918.918 0 01.745.289 1.424 1.424 0 01.242.919v3.192h1.312V4.331q0-2.184-1.9-2.184zm6.373 1.123v-.987h-1.407V.551l-1.312.441v1.291h-1.019v.987h1.019v2.436a2.013 2.013 0 00.483 1.449 1.83 1.83 0 001.386.5 2.469 2.469 0 00.84-.126V6.49a1.857 1.857 0 01-.525.084.8.8 0 01-.872-.935V3.266h1.407zm5.544 1.533a2.809 2.809 0 00-.635-1.947 2.2 2.2 0 00-1.727-.709 2.544 2.544 0 00-1.334.352 2.4 2.4 0 00-.913.981 3.091 3.091 0 00-.326 1.439 2.7 2.7 0 00.746 2.016 2.788 2.788 0 002.047.735 3.508 3.508 0 001.119-.184 2.949 2.949 0 00.929-.488l-.378-.9a2.617 2.617 0 01-1.617.567 1.5 1.5 0 01-1.139-.4 1.914 1.914 0 01-.426-1.255h3.654v-.2zm-2.331-1.711a1.105 1.105 0 01.825.3 1.474 1.474 0 01.362.9H65.6a1.511 1.511 0 01.426-.9 1.2 1.2 0 01.855-.31zm6.3-.935a1.783 1.783 0 00-.976.273 1.581 1.581 0 00-.63.788l-.105-.935h-1.229a12.03 12.03 0 01.084 1.5v3.8h1.3V4.716a1.474 1.474 0 01.352-1.029 1.314 1.314 0 011.024-.388 1.844 1.844 0 01.693.136l.01-1.2a1.475 1.475 0 00-.525-.084zm5.8 2.646a2.809 2.809 0 00-.635-1.947 2.2 2.2 0 00-1.727-.709 2.544 2.544 0 00-1.334.352 2.4 2.4 0 00-.913.981 3.091 3.091 0 00-.326 1.439 2.7 2.7 0 00.746 2.016 2.788 2.788 0 002.047.735 3.508 3.508 0 001.119-.184 2.949 2.949 0 00.929-.488l-.378-.9a2.617 2.617 0 01-1.617.567 1.5 1.5 0 01-1.139-.4 1.914 1.914 0 01-.426-1.255h3.654v-.2zm-2.331-1.711a1.105 1.105 0 01.825.3 1.474 1.474 0 01.362.9h-2.468a1.511 1.511 0 01.426-.9 1.2 1.2 0 01.855-.31zm5.387 4.578a2.66 2.66 0 001.606-.431 1.369 1.369 0 00.588-1.165 1.335 1.335 0 00-.362-.971 2.287 2.287 0 00-1.15-.552l-.9-.2a1.275 1.275 0 01-.52-.231.472.472 0 01-.152-.368.528.528 0 01.252-.462 1.27 1.27 0 01.7-.168 2.734 2.734 0 011.638.588l.388-.892a2.878 2.878 0 00-.924-.5 3.476 3.476 0 00-1.092-.173 2.9 2.9 0 00-1.144.21 1.791 1.791 0 00-.767.583 1.409 1.409 0 00-.273.855 1.511 1.511 0 001.449 1.481l.882.2a1.656 1.656 0 01.609.247.464.464 0 01.179.383.491.491 0 01-.258.441 1.4 1.4 0 01-.729.158 3.18 3.18 0 01-1.943-.63l-.367.924a3.592 3.592 0 002.289.672zm6.342-4.4v-.987H86.97V.551l-1.313.441v1.291h-1.018v.987h1.018v2.436a2.013 2.013 0 00.483 1.449 1.83 1.83 0 001.386.5 2.469 2.469 0 00.84-.126V6.49a1.857 1.857 0 01-.525.084.8.8 0 01-.871-.935V3.266h1.407z" fill="#fff" fill-rule="evenodd"/></svg>