<svg xmlns="http://www.w3.org/2000/svg" width="96.406" height="13.688"><path data-name="Upgrade from" d="M4.28 10.624a3.847 3.847 0 004.278-4.3V.397H6.405v6.026A2.737 2.737 0 015.86 8.26a2.3 2.3 0 01-3.166 0 2.707 2.707 0 01-.553-1.837V.397H0v5.927a3.831 3.831 0 004.277 4.3zm10.68-7.5a2.729 2.729 0 00-1.419.369 2.153 2.153 0 00-.9 1.007l-.14-1.191h-1.985a17.059 17.059 0 01.112 2.056v8.2h2.111V9.438a2.145 2.145 0 00.894.865 2.787 2.787 0 001.328.312 2.9 2.9 0 002.74-1.751 4.584 4.584 0 00.392-1.95 4.657 4.657 0 00-.4-1.971 3.148 3.148 0 00-1.111-1.34 2.863 2.863 0 00-1.622-.475zm-.6 5.857a1.453 1.453 0 01-1.209-.539 2.469 2.469 0 01-.426-1.56 2.5 2.5 0 01.426-1.567 1.444 1.444 0 011.209-.546 1.408 1.408 0 011.195.567 2.566 2.566 0 01.427 1.574 2.438 2.438 0 01-.42 1.539 1.441 1.441 0 01-1.2.532zm10.443-5.672V4.33a2.325 2.325 0 00-.923-.88 2.773 2.773 0 00-1.342-.326 3.011 3.011 0 00-1.635.447 3.046 3.046 0 00-1.119 1.262 4.561 4.561 0 000 3.758 3.053 3.053 0 001.119 1.262 3.011 3.011 0 001.635.446 2.6 2.6 0 001.328-.347 2.675 2.675 0 00.937-.872v1.248a1.742 1.742 0 01-.448 1.311 1.88 1.88 0 01-1.356.433 5.6 5.6 0 01-2.544-.652l-.321 1.588a6.131 6.131 0 002.935.666 4.089 4.089 0 002.852-.893 3.357 3.357 0 00.979-2.609V3.309h-2.1zm-1.65 5.36a1.53 1.53 0 01-1.23-.525 2.137 2.137 0 01-.447-1.432 2.109 2.109 0 01.447-1.425 1.54 1.54 0 011.23-.518 1.5 1.5 0 011.216.518 2.562 2.562 0 01-.007 2.864 1.5 1.5 0 01-1.209.518zm9.842-5.531a2.329 2.329 0 00-1.28.362 2.105 2.105 0 00-.831 1.042l-.14-1.233h-1.985a17.059 17.059 0 01.112 2.056v5.133h2.111V6.74a1.779 1.779 0 01.44-1.283 1.687 1.687 0 011.279-.461 2.429 2.429 0 011.035.241l.014-1.957a1.81 1.81 0 00-.755-.142zm6.766.171V4.33a2.354 2.354 0 00-.909-.88 2.694 2.694 0 00-1.328-.326 2.865 2.865 0 00-1.622.475 3.148 3.148 0 00-1.111 1.34 4.657 4.657 0 00-.4 1.971 4.51 4.51 0 00.4 1.95 3.04 3.04 0 001.1 1.3 2.952 2.952 0 001.629.453 2.787 2.787 0 001.328-.312 2.243 2.243 0 00.909-.865V10.5h2.083V3.311h-2.08zm-1.622 5.672a1.478 1.478 0 01-1.223-.532 2.407 2.407 0 01-.427-1.539 2.54 2.54 0 01.434-1.574 1.442 1.442 0 011.216-.567 1.424 1.424 0 011.2.546 2.527 2.527 0 01.42 1.567 2.5 2.5 0 01-.42 1.56 1.433 1.433 0 01-1.2.539zm10.68-8.92v4.212a2.229 2.229 0 00-.909-.844 2.778 2.778 0 00-1.3-.3 2.911 2.911 0 00-1.628.461 3.086 3.086 0 00-1.105 1.3 4.523 4.523 0 00-.4 1.949 4.617 4.617 0 00.4 1.964 3.141 3.141 0 001.112 1.333 2.852 2.852 0 001.621.475 2.784 2.784 0 001.328-.312 2.231 2.231 0 00.909-.865v1.064h2.083V.059h-2.111zm-1.594 8.92a1.45 1.45 0 01-1.216-.56 2.536 2.536 0 01-.433-1.582 2.388 2.388 0 01.433-1.531 1.473 1.473 0 011.216-.539 1.432 1.432 0 011.2.546 2.477 2.477 0 01.426 1.553 2.536 2.536 0 01-.419 1.567 1.427 1.427 0 01-1.2.546zm12.051-2.212a3.882 3.882 0 00-.867-2.659 2.987 2.987 0 00-2.363-.986 3.458 3.458 0 00-1.8.475 3.233 3.233 0 00-1.237 1.333 4.2 4.2 0 00-.441 1.95 3.65 3.65 0 001.021 2.73 3.844 3.844 0 002.81 1 5.012 5.012 0 001.5-.234 3.694 3.694 0 001.251-.645l-.559-1.446a3.473 3.473 0 01-1.007.539 3.38 3.38 0 01-1.09.184 1.86 1.86 0 01-1.37-.461 2.187 2.187 0 01-.518-1.467h4.67V6.77zm-3.174-2.142a1.318 1.318 0 011.356 1.39h-2.81a1.788 1.788 0 01.483-1.035 1.347 1.347 0 01.971-.355zm12.707-2.878a2.968 2.968 0 01.685.1V.176a3.355 3.355 0 00-1.2-.185 2.549 2.549 0 00-1.985.752 3.022 3.022 0 00-.685 2.113v.454h-1.328v1.6h1.328v5.587h2.111V4.909h1.482v-1.6h-1.482v-.4a1.174 1.174 0 01.293-.887 1.1 1.1 0 01.783-.276zm6.067 1.389a2.328 2.328 0 00-1.279.362 2.107 2.107 0 00-.832 1.042l-.139-1.233H70.64a16.856 16.856 0 01.112 2.056v5.133h2.111V6.74a1.78 1.78 0 01.441-1.283 1.687 1.687 0 011.279-.461 2.428 2.428 0 011.034.241l.014-1.957a1.807 1.807 0 00-.755-.142zm5.131 7.473a4.057 4.057 0 001.957-.453 3.129 3.129 0 001.293-1.305 4.566 4.566 0 000-3.97 3.123 3.123 0 00-1.293-1.305 4.057 4.057 0 00-1.957-.454 4.126 4.126 0 00-1.978.454 3.113 3.113 0 00-1.3 1.305 4.566 4.566 0 000 3.97 3.119 3.119 0 001.3 1.305 4.125 4.125 0 001.978.453zm0-1.63q-1.636 0-1.636-2.113a2.521 2.521 0 01.419-1.581 1.457 1.457 0 011.217-.532 1.421 1.421 0 011.2.532 3.253 3.253 0 010 3.169 1.43 1.43 0 01-1.2.525zm14.007-5.857a2.663 2.663 0 00-1.363.362 2.61 2.61 0 00-.972.971 2.032 2.032 0 00-2.1-1.333 2.683 2.683 0 00-1.335.326 2.26 2.26 0 00-.9.936l-.126-1.077h-1.985a17.059 17.059 0 01.112 2.056v5.133h2.111V6.527a2.02 2.02 0 01.356-1.276 1.2 1.2 0 011-.453.888.888 0 01.775.34 1.872 1.872 0 01.245 1.078v4.282h2.111V6.527a2.051 2.051 0 01.349-1.276 1.181 1.181 0 01.993-.453.9.9 0 01.783.333 1.914 1.914 0 01.237 1.085v4.282h2.111V6.145a3.616 3.616 0 00-.594-2.276 2.173 2.173 0 00-1.81-.745z" fill="#f36a20" fill-rule="evenodd"/></svg>