<svg xmlns="http://www.w3.org/2000/svg" width="187.813" height="26.875"><path data-name="Save to earn AAdvantage® miles, not interest." d="M3.914 10.78a4.911 4.911 0 003.034-.83 2.675 2.675 0 001.09-2.248 2.258 2.258 0 00-.845-1.857 6.888 6.888 0 00-2.761-1.106 8.036 8.036 0 01-1.273-.348 1.563 1.563 0 01-.636-.4.86.86 0 01-.188-.567 1.059 1.059 0 01.5-.922 2.357 2.357 0 011.342-.34 4.608 4.608 0 012.898 1.013l.7-1.588A4.154 4.154 0 006.209.736 6.678 6.678 0 004.168.424a4.986 4.986 0 00-2.069.4A3.276 3.276 0 00.708 1.951a2.817 2.817 0 00-.5 1.631 2.558 2.558 0 00.356 1.4 2.763 2.763 0 001.133.95 8.562 8.562 0 002.09.659 6.114 6.114 0 011.642.532.849.849 0 01.468.759.951.951 0 01-.51.858 2.875 2.875 0 01-1.461.3A5.434 5.434 0 01.711 8.019l-.7 1.588a4.92 4.92 0 001.727.858 7.7 7.7 0 002.173.3zm10.862-7.317v1.021a2.344 2.344 0 00-.908-.88 2.7 2.7 0 00-1.328-.326 2.863 2.863 0 00-1.622.475 3.148 3.148 0 00-1.111 1.34 4.657 4.657 0 00-.4 1.971 4.51 4.51 0 00.4 1.95 3.033 3.033 0 001.1 1.3 2.952 2.952 0 001.629.453 2.79 2.79 0 001.328-.312 2.235 2.235 0 00.908-.865v1.064h2.083V3.465h-2.08zm-1.621 5.672a1.478 1.478 0 01-1.223-.532 2.407 2.407 0 01-.427-1.539 2.54 2.54 0 01.434-1.574 1.441 1.441 0 011.216-.567 1.425 1.425 0 011.2.546 2.527 2.527 0 01.419 1.567 2.5 2.5 0 01-.419 1.56 1.434 1.434 0 01-1.2.539zm8.723-1.007L20.06 3.477h-2.208l3.075 7.175h1.79l3.117-7.175h-2.083zm11.155-1.205a3.886 3.886 0 00-.866-2.659 2.987 2.987 0 00-2.363-.986 3.458 3.458 0 00-1.8.475 3.236 3.236 0 00-1.238 1.333 4.216 4.216 0 00-.44 1.95 3.646 3.646 0 001.021 2.73 3.842 3.842 0 002.809 1 5 5 0 001.5-.234 3.675 3.675 0 001.251-.645l-.559-1.446a3.468 3.468 0 01-1.006.539 3.386 3.386 0 01-1.091.184 1.861 1.861 0 01-1.37-.461 2.187 2.187 0 01-.517-1.467h4.669v-.312zM29.86 4.781a1.318 1.318 0 011.356 1.39h-2.81a1.788 1.788 0 01.482-1.035 1.349 1.349 0 01.972-.355zm13.448.284v-1.6h-1.8V1.082l-2.11.695v1.688h-1.342v1.6h1.342v2.836a3 3 0 00.692 2.113 2.589 2.589 0 002.006.751 3.327 3.327 0 001.216-.2V8.906a2.887 2.887 0 01-.7.1 1.148 1.148 0 01-.8-.276 1.119 1.119 0 01-.308-.873V5.065h1.8zm4.739 5.7a4.057 4.057 0 001.957-.453 3.129 3.129 0 001.293-1.305 4.566 4.566 0 000-3.97 3.123 3.123 0 00-1.293-1.305 4.057 4.057 0 00-1.957-.454 4.126 4.126 0 00-1.978.454 3.1 3.1 0 00-1.3 1.305 4.557 4.557 0 000 3.97 3.111 3.111 0 001.3 1.305 4.125 4.125 0 001.978.453zm0-1.63q-1.637 0-1.636-2.113a2.515 2.515 0 01.42-1.581 1.455 1.455 0 011.216-.532 1.42 1.42 0 011.195.532 3.253 3.253 0 010 3.169 1.429 1.429 0 01-1.195.525zm15.908-2.212a3.882 3.882 0 00-.867-2.659 2.985 2.985 0 00-2.362-.986 3.458 3.458 0 00-1.8.475 3.236 3.236 0 00-1.238 1.333 4.216 4.216 0 00-.44 1.95 3.649 3.649 0 001.02 2.73 3.846 3.846 0 002.81 1 5.007 5.007 0 001.5-.234 3.675 3.675 0 001.251-.645l-.559-1.446a3.468 3.468 0 01-1.006.539 3.386 3.386 0 01-1.091.184 1.861 1.861 0 01-1.37-.461 2.187 2.187 0 01-.517-1.467h4.669v-.312zm-3.173-2.142a1.318 1.318 0 011.356 1.39h-2.81a1.782 1.782 0 01.482-1.035 1.349 1.349 0 01.972-.355zm9.8-1.318v1.021a2.344 2.344 0 00-.908-.88 2.7 2.7 0 00-1.329-.326 2.862 2.862 0 00-1.621.475 3.148 3.148 0 00-1.111 1.34 4.657 4.657 0 00-.4 1.971 4.51 4.51 0 00.4 1.95 3.033 3.033 0 001.1 1.3 2.946 2.946 0 001.628.453 2.791 2.791 0 001.329-.312 2.235 2.235 0 00.908-.865v1.064h2.083V3.465h-2.083zm-1.621 5.672a1.48 1.48 0 01-1.224-.532 2.414 2.414 0 01-.426-1.539 2.54 2.54 0 01.433-1.574 1.444 1.444 0 011.217-.567 1.427 1.427 0 011.2.546 2.534 2.534 0 01.419 1.567 2.5 2.5 0 01-.419 1.56 1.435 1.435 0 01-1.2.539zm9.813-5.843a2.326 2.326 0 00-1.279.362 2.1 2.1 0 00-.832 1.042l-.14-1.233h-1.985a16.856 16.856 0 01.112 2.056v5.133h2.111V6.894a1.784 1.784 0 01.44-1.283 1.689 1.689 0 011.279-.461 2.429 2.429 0 011.035.241l.014-1.957a1.807 1.807 0 00-.755-.142zm6.263-.014a2.768 2.768 0 00-1.377.341 2.62 2.62 0 00-.986.978l-.14-1.134h-1.985a16.856 16.856 0 01.112 2.056v5.133h2.114V6.625a1.73 1.73 0 01.419-1.22 1.453 1.453 0 011.119-.453 1.022 1.022 0 01.859.347 1.781 1.781 0 01.273 1.1v4.254h2.111V6.3q0-3.021-2.516-3.021zm18.578 7.374L99.044.552h-1.762l-4.571 10.1h2.195l.95-2.241h4.656l.95 2.241h2.153zm-5.424-7.714l1.608 3.786h-3.216zm16.314 7.714l-4.571-10.1h-1.759l-4.571 10.1h2.195l.95-2.241h4.655l.951 2.241h2.153zm-5.424-7.714l1.607 3.786h-3.213zM120.488.215v4.212a2.235 2.235 0 00-.909-.844 2.781 2.781 0 00-1.3-.3 2.911 2.911 0 00-1.628.461 3.086 3.086 0 00-1.105 1.3 4.523 4.523 0 00-.4 1.949 4.617 4.617 0 00.4 1.964 3.141 3.141 0 001.112 1.333 2.852 2.852 0 001.621.475 2.784 2.784 0 001.328-.312 2.237 2.237 0 00.909-.865v1.064h2.083V.215h-2.111zm-1.594 8.92a1.45 1.45 0 01-1.216-.56 2.536 2.536 0 01-.433-1.582 2.388 2.388 0 01.433-1.531 1.473 1.473 0 011.216-.539 1.429 1.429 0 011.195.546 2.47 2.47 0 01.427 1.553 2.529 2.529 0 01-.42 1.567 1.424 1.424 0 01-1.2.546zm8.723-1.007L125.8 3.477h-2.209l3.076 7.175h1.789l3.119-7.177h-2.083zm9.814-4.665v1.021a2.354 2.354 0 00-.909-.88 2.691 2.691 0 00-1.328-.326 2.865 2.865 0 00-1.622.475 3.155 3.155 0 00-1.111 1.34 4.657 4.657 0 00-.4 1.971 4.51 4.51 0 00.4 1.95 3.047 3.047 0 001.1 1.3 2.952 2.952 0 001.629.453 2.784 2.784 0 001.328-.312 2.243 2.243 0 00.909-.865v1.064h2.083V3.465h-2.083zm-1.622 5.672a1.478 1.478 0 01-1.223-.532 2.414 2.414 0 01-.426-1.539 2.54 2.54 0 01.433-1.574 1.442 1.442 0 011.216-.567 1.424 1.424 0 011.2.546 2.527 2.527 0 01.42 1.567 2.5 2.5 0 01-.42 1.56 1.433 1.433 0 01-1.2.539zm10.066-5.86a2.77 2.77 0 00-1.377.341 2.618 2.618 0 00-.985.978l-.138-1.131h-1.985a17.059 17.059 0 01.112 2.056v5.133h2.11V6.625a1.726 1.726 0 01.42-1.22 1.449 1.449 0 011.118-.453 1.024 1.024 0 01.86.347 1.781 1.781 0 01.273 1.1v4.254h2.11V6.3q0-3.021-2.516-3.021zm8.933 1.787v-1.6h-1.8V1.079l-2.111.695v1.688h-1.342v1.6h1.342v2.836a3 3 0 00.692 2.113 2.591 2.591 0 002.006.751 3.327 3.327 0 001.216-.2V8.903a2.887 2.887 0 01-.7.1 1.148 1.148 0 01-.8-.276 1.119 1.119 0 01-.307-.873V5.065h1.8zm6.374-1.6v1.021a2.344 2.344 0 00-.908-.88 2.694 2.694 0 00-1.328-.326 2.863 2.863 0 00-1.622.475 3.148 3.148 0 00-1.111 1.34 4.657 4.657 0 00-.4 1.971 4.51 4.51 0 00.4 1.95 3.033 3.033 0 001.1 1.3 2.952 2.952 0 001.629.453 2.787 2.787 0 001.328-.312 2.235 2.235 0 00.908-.865v1.064h2.083V3.464h-2.083zm-1.621 5.672a1.478 1.478 0 01-1.223-.532 2.407 2.407 0 01-.427-1.539 2.54 2.54 0 01.434-1.574 1.441 1.441 0 011.216-.567 1.425 1.425 0 011.2.546 2.527 2.527 0 01.419 1.567 2.5 2.5 0 01-.419 1.56 1.434 1.434 0 01-1.2.539zm10.764-5.672v1.021a2.325 2.325 0 00-.923-.88 2.773 2.773 0 00-1.342-.326 3.011 3.011 0 00-1.635.447 3.046 3.046 0 00-1.119 1.262 4.561 4.561 0 000 3.758 3.053 3.053 0 001.119 1.262 3.011 3.011 0 001.635.446 2.6 2.6 0 001.328-.347 2.675 2.675 0 00.937-.872v1.248a1.746 1.746 0 01-.447 1.311 1.883 1.883 0 01-1.356.433 5.605 5.605 0 01-2.545-.652l-.321 1.588a6.131 6.131 0 002.935.666 4.089 4.089 0 002.852-.893 3.357 3.357 0 00.979-2.609V3.462h-2.1zm-1.65 5.36a1.53 1.53 0 01-1.23-.525 2.137 2.137 0 01-.447-1.432 2.109 2.109 0 01.447-1.425 1.54 1.54 0 011.23-.518 1.5 1.5 0 011.217.518 2.567 2.567 0 01-.007 2.864 1.506 1.506 0 01-1.21.518zm12.078-1.9a3.886 3.886 0 00-.866-2.659 2.987 2.987 0 00-2.363-.986 3.458 3.458 0 00-1.8.475 3.233 3.233 0 00-1.237 1.333 4.2 4.2 0 00-.441 1.95 3.646 3.646 0 001.021 2.73 3.844 3.844 0 002.81 1 5 5 0 001.5-.234 3.69 3.69 0 001.252-.645l-.56-1.446a3.468 3.468 0 01-1.006.539 3.386 3.386 0 01-1.091.184 1.863 1.863 0 01-1.37-.461 2.187 2.187 0 01-.517-1.467h4.669v-.312zM177.58 4.78a1.318 1.318 0 011.356 1.39h-2.81a1.788 1.788 0 01.482-1.035 1.349 1.349 0 01.972-.355zm7.286-4.779a2.912 2.912 0 00-1.5.393 2.865 2.865 0 00-1.059 1.071 3.159 3.159 0 000 3.03 2.942 2.942 0 005.11 0 3.151 3.151 0 000-3.026 2.849 2.849 0 00-1.06-1.075 2.906 2.906 0 00-1.5-.393zm1.76 4.7l-.448-.892a.8.8 0 00-.257-.29.718.718 0 00-.338-.124 1.1 1.1 0 00.615-.392 1.087 1.087 0 00.216-.674 1.045 1.045 0 00-.342-.819 1.424 1.424 0 00-.978-.306h-1.663v3.539h1.084V3.475h.2a.207.207 0 01.171.132l.554 1.141h1.158a2.276 2.276 0 01-.771.525 2.452 2.452 0 01-.957.186 2.412 2.412 0 01-1.243-.323 2.28 2.28 0 01-.86-.888 2.609 2.609 0 01-.31-1.269 2.568 2.568 0 01.31-1.257 2.286 2.286 0 01.86-.885 2.545 2.545 0 012.478 0 2.283 2.283 0 01.859.885 2.557 2.557 0 01.31 1.257 2.683 2.683 0 01-.167.954 2.294 2.294 0 01-.477.773zm-1.67-1.992h-.451v-.67h.449a.53.53 0 01.321.079.319.319 0 01.1.269.288.288 0 01-.1.248.555.555 0 01-.321.074zM8.961 17.458a2.666 2.666 0 00-1.363.362 2.61 2.61 0 00-.972.971 2.032 2.032 0 00-2.1-1.333 2.673 2.673 0 00-1.335.327 2.252 2.252 0 00-.9.935l-.126-1.077H.18a17.059 17.059 0 01.112 2.056v5.133h2.111v-3.97a2.023 2.023 0 01.356-1.277 1.2 1.2 0 011-.453.888.888 0 01.775.34 1.872 1.872 0 01.245 1.078v4.282H6.89v-3.97a2.054 2.054 0 01.349-1.277 1.181 1.181 0 01.993-.453.9.9 0 01.783.333 1.914 1.914 0 01.237 1.085v4.282h2.111v-4.357a3.616 3.616 0 00-.594-2.276 2.176 2.176 0 00-1.81-.745zm6.458 7.374v-7.189h-2.111v7.189h2.111zm-2.18-8.551h2.25v-2.013h-2.25v2.013zm6.29 8.551V14.396h-2.111v10.436h2.111zm8.36-3.729a3.882 3.882 0 00-.867-2.659 2.985 2.985 0 00-2.363-.986 3.458 3.458 0 00-1.8.475 3.239 3.239 0 00-1.237 1.333 4.207 4.207 0 00-.44 1.95 3.648 3.648 0 001.02 2.73 3.845 3.845 0 002.81 1 5.012 5.012 0 001.5-.234 3.7 3.7 0 001.251-.646l-.559-1.446a3.473 3.473 0 01-1.007.539 3.38 3.38 0 01-1.09.184 1.856 1.856 0 01-1.37-.461 2.182 2.182 0 01-.517-1.467h4.669v-.312zm-3.174-2.141a1.317 1.317 0 011.356 1.389h-2.81a1.788 1.788 0 01.483-1.035 1.346 1.346 0 01.971-.354zm7.493 5.984a3.687 3.687 0 002.223-.6 2.067 2.067 0 00.321-2.978 3.155 3.155 0 00-1.579-.766l-1.189-.269a1.5 1.5 0 01-.622-.248.488.488 0 01-.174-.39.574.574 0 01.293-.511 1.529 1.529 0 01.811-.184 3.289 3.289 0 011.1.2 4.561 4.561 0 011.112.581l.587-1.432a4.449 4.449 0 00-1.3-.66 4.812 4.812 0 00-1.482-.234 4.03 4.03 0 00-1.58.291 2.5 2.5 0 00-1.069.816 1.957 1.957 0 00-.385 1.191 1.807 1.807 0 00.483 1.318 2.947 2.947 0 001.5.724l1.16.269a2.055 2.055 0 01.741.269.5.5 0 01.209.426.541.541 0 01-.293.5 1.686 1.686 0 01-.839.17 4.567 4.567 0 01-1.4-.219 4.316 4.316 0 01-1.244-.631l-.559 1.488a5.132 5.132 0 003.173.88zm4.362-2.4v2.283h1.048a3.255 3.255 0 01-.853 1.39l.825.656a4.362 4.362 0 00.972-1.354 3.821 3.821 0 00.286-1.51V22.55h-2.273zm12.693-5.091a2.768 2.768 0 00-1.377.341 2.628 2.628 0 00-.986.978l-.139-1.134h-1.986a16.856 16.856 0 01.112 2.056v5.133h2.111v-4.024a1.726 1.726 0 01.42-1.22 1.449 1.449 0 011.118-.453 1.029 1.029 0 01.86.347 1.788 1.788 0 01.272 1.1v4.254h2.107v-4.358q0-3.021-2.516-3.021zm7.856 7.488a4.055 4.055 0 001.957-.454 3.129 3.129 0 001.293-1.3 4.557 4.557 0 000-3.97 3.129 3.129 0 00-1.293-1.3 4.055 4.055 0 00-1.957-.454 4.129 4.129 0 00-1.978.454 3.116 3.116 0 00-1.3 1.3 4.566 4.566 0 000 3.97 3.116 3.116 0 001.3 1.3 4.129 4.129 0 001.978.454zm0-1.631q-1.635 0-1.635-2.113a2.517 2.517 0 01.419-1.581 1.456 1.456 0 011.216-.532 1.42 1.42 0 011.195.532 3.246 3.246 0 010 3.169 1.429 1.429 0 01-1.195.525zm9.73-4.07v-1.6h-1.8V15.26l-2.11.694v1.688h-1.342v1.6h1.342v2.836a3 3 0 00.692 2.113 2.59 2.59 0 002.006.752 3.326 3.326 0 001.216-.2v-1.659a2.887 2.887 0 01-.7.1 1.148 1.148 0 01-.8-.276 1.119 1.119 0 01-.308-.872v-2.791h1.8zm7.674 5.587V17.64h-2.111v7.189h2.111zm-2.18-8.551h2.25v-2.013h-2.25v2.013zm8.555 1.177a2.768 2.768 0 00-1.377.341 2.628 2.628 0 00-.986.978l-.14-1.134H76.41a16.856 16.856 0 01.112 2.056v5.133h2.111v-4.024a1.726 1.726 0 01.42-1.22 1.449 1.449 0 011.118-.453 1.029 1.029 0 01.86.347 1.788 1.788 0 01.272 1.1v4.254h2.111v-4.358q0-3.021-2.516-3.021zm8.933 1.787v-1.6h-1.8V15.26l-2.111.694v1.688h-1.345v1.6h1.342v2.836a3.005 3.005 0 00.692 2.113 2.593 2.593 0 002.006.752 3.328 3.328 0 001.217-.2v-1.659a2.893 2.893 0 01-.7.1 1.147 1.147 0 01-.8-.276 1.119 1.119 0 01-.308-.872v-2.791h1.8zm7.716 1.858a3.882 3.882 0 00-.867-2.659 2.985 2.985 0 00-2.362-.986 3.458 3.458 0 00-1.8.475 3.242 3.242 0 00-1.238 1.333 4.219 4.219 0 00-.44 1.95 3.644 3.644 0 001.021 2.73 3.842 3.842 0 002.809 1 5.007 5.007 0 001.5-.234 3.677 3.677 0 001.251-.646l-.559-1.446a3.468 3.468 0 01-1.006.539 3.386 3.386 0 01-1.091.184 1.857 1.857 0 01-1.37-.461 2.187 2.187 0 01-.517-1.467h4.669V21.1zm-3.172-2.138a1.317 1.317 0 011.356 1.389h-2.81a1.782 1.782 0 01.482-1.035 1.349 1.349 0 01.972-.354zm8.9-1.489a2.328 2.328 0 00-1.28.361 2.105 2.105 0 00-.831 1.042l-.14-1.233h-1.985a17.059 17.059 0 01.112 2.056v5.133h2.11v-3.757a1.78 1.78 0 01.441-1.283 1.687 1.687 0 011.279-.461 2.436 2.436 0 011.034.241l.014-1.957a1.8 1.8 0 00-.754-.141zm8.108 3.63a3.882 3.882 0 00-.867-2.659 2.987 2.987 0 00-2.363-.986 3.458 3.458 0 00-1.8.475 3.239 3.239 0 00-1.237 1.333 4.207 4.207 0 00-.441 1.95 3.644 3.644 0 001.021 2.73 3.845 3.845 0 002.81 1 5.012 5.012 0 001.5-.234 3.7 3.7 0 001.251-.646l-.559-1.446a3.486 3.486 0 01-1.007.539 3.38 3.38 0 01-1.09.184 1.856 1.856 0 01-1.37-.461 2.187 2.187 0 01-.518-1.467h4.67v-.312zm-3.174-2.141a1.317 1.317 0 011.356 1.389h-2.81a1.788 1.788 0 01.483-1.035 1.344 1.344 0 01.971-.354zm7.493 5.984a3.687 3.687 0 002.223-.6 2.067 2.067 0 00.321-2.978 3.155 3.155 0 00-1.579-.766l-1.189-.269a1.5 1.5 0 01-.622-.248.489.489 0 01-.175-.39.575.575 0 01.294-.511 1.529 1.529 0 01.811-.184 3.289 3.289 0 011.1.2 4.561 4.561 0 011.112.581l.587-1.432a4.449 4.449 0 00-1.3-.66 4.812 4.812 0 00-1.482-.234 4.03 4.03 0 00-1.58.291 2.494 2.494 0 00-1.069.816 1.957 1.957 0 00-.385 1.191 1.807 1.807 0 00.483 1.318 2.947 2.947 0 001.5.724l1.161.269a2.055 2.055 0 01.741.269.505.505 0 01.209.426.542.542 0 01-.293.5 1.688 1.688 0 01-.839.17 4.567 4.567 0 01-1.4-.219 4.3 4.3 0 01-1.244-.631l-.559 1.488a5.132 5.132 0 003.173.88zm8.989-5.7v-1.6h-1.8v-2.382l-2.11.694v1.688h-1.342v1.6h1.342v2.836a3 3 0 00.692 2.113 2.59 2.59 0 002.006.752 3.326 3.326 0 001.216-.2v-1.659a2.887 2.887 0 01-.7.1 1.147 1.147 0 01-.8-.276 1.119 1.119 0 01-.308-.872v-2.795h1.8zm1.523 5.587h2.279V22.55h-2.279v2.283z" fill="#fff" fill-rule="evenodd"/></svg>