<svg xmlns="http://www.w3.org/2000/svg" width="114.25" height="13.625"><path data-name="pennies to perks" d="M4.44 3.177a2.729 2.729 0 00-1.419.369 2.158 2.158 0 00-.9 1.007l-.14-1.191H-.004a17.059 17.059 0 01.112 2.056v8.2h2.111V9.492a2.151 2.151 0 00.894.865 2.8 2.8 0 001.328.312 2.9 2.9 0 002.74-1.752 4.582 4.582 0 00.392-1.949 4.651 4.651 0 00-.4-1.971 3.145 3.145 0 00-1.111-1.341 2.863 2.863 0 00-1.622-.475zm-.6 5.857a1.453 1.453 0 01-1.209-.539 2.469 2.469 0 01-.426-1.56 2.5 2.5 0 01.426-1.567 1.444 1.444 0 011.209-.546 1.409 1.409 0 011.2.568 2.562 2.562 0 01.427 1.574 2.435 2.435 0 01-.42 1.538 1.439 1.439 0 01-1.2.532zm11.729-2.212a3.882 3.882 0 00-.867-2.659 2.985 2.985 0 00-2.362-.986 3.464 3.464 0 00-1.8.475 3.246 3.246 0 00-1.237 1.333 4.219 4.219 0 00-.44 1.95 3.648 3.648 0 001.02 2.73 3.845 3.845 0 002.81 1 5.012 5.012 0 001.5-.234 3.686 3.686 0 001.251-.646l-.559-1.446a3.473 3.473 0 01-1.007.539 3.38 3.38 0 01-1.09.184 1.857 1.857 0 01-1.37-.461 2.182 2.182 0 01-.517-1.467h4.669v-.312zm-3.173-2.141a1.317 1.317 0 011.356 1.389h-2.81a1.782 1.782 0 01.482-1.035 1.349 1.349 0 01.972-.354zm9.156-1.5a2.768 2.768 0 00-1.377.341 2.635 2.635 0 00-.986.978l-.139-1.134h-1.985a17.074 17.074 0 01.111 2.056v5.133h2.112V6.524a1.726 1.726 0 01.42-1.22 1.449 1.449 0 011.118-.453 1.029 1.029 0 01.86.347 1.788 1.788 0 01.272 1.1v4.254h2.111V6.194q0-3.021-2.516-3.021zm8.849 0a2.768 2.768 0 00-1.377.341 2.628 2.628 0 00-.986.978l-.14-1.134h-1.985a16.856 16.856 0 01.112 2.056v5.133h2.111V6.524a1.73 1.73 0 01.419-1.22 1.453 1.453 0 011.119-.453 1.029 1.029 0 01.86.347 1.788 1.788 0 01.272 1.1v4.254h2.111V6.194q0-3.021-2.516-3.021zm6.584 7.374V3.366h-2.111v7.189h2.114zm-2.181-8.551h2.251V-.009h-2.251v2.013zm10.54 4.822a3.881 3.881 0 00-.866-2.659 2.987 2.987 0 00-2.363-.986 3.458 3.458 0 00-1.8.475 3.239 3.239 0 00-1.237 1.333 4.207 4.207 0 00-.441 1.95 3.644 3.644 0 001.021 2.73 3.845 3.845 0 002.81 1 5.012 5.012 0 001.5-.234 3.7 3.7 0 001.251-.646l-.56-1.446a3.468 3.468 0 01-1.006.539 3.38 3.38 0 01-1.09.184 1.856 1.856 0 01-1.37-.461 2.182 2.182 0 01-.518-1.467h4.669v-.312zm-3.173-2.141a1.317 1.317 0 011.356 1.389h-2.81a1.788 1.788 0 01.483-1.035 1.344 1.344 0 01.971-.354zm7.493 5.984a3.687 3.687 0 002.223-.6 2.067 2.067 0 00.321-2.978 3.159 3.159 0 00-1.579-.766l-1.189-.269a1.5 1.5 0 01-.622-.248.489.489 0 01-.175-.39.575.575 0 01.294-.511 1.529 1.529 0 01.811-.184 3.289 3.289 0 011.1.2 4.561 4.561 0 011.112.581l.587-1.432a4.461 4.461 0 00-1.3-.66 4.812 4.812 0 00-1.482-.234 4.03 4.03 0 00-1.58.291 2.494 2.494 0 00-1.069.816 1.957 1.957 0 00-.385 1.191 1.807 1.807 0 00.483 1.318 2.947 2.947 0 001.5.724l1.161.269a2.055 2.055 0 01.741.269.505.505 0 01.209.426.542.542 0 01-.293.5 1.688 1.688 0 01-.839.17 4.562 4.562 0 01-1.4-.219 4.3 4.3 0 01-1.244-.631L46.49 9.79a5.132 5.132 0 003.173.88zm13.266-5.7v-1.6h-1.8V.987l-2.111.694v1.688h-1.342v1.6h1.342v2.836a3.005 3.005 0 00.692 2.113 2.591 2.591 0 002.006.752 3.323 3.323 0 001.216-.2V8.811a2.887 2.887 0 01-.7.1 1.148 1.148 0 01-.8-.276 1.118 1.118 0 01-.307-.872V4.964h1.8zm4.739 5.7a4.055 4.055 0 001.957-.454 3.129 3.129 0 001.293-1.3 4.557 4.557 0 000-3.97 3.129 3.129 0 00-1.293-1.3 4.055 4.055 0 00-1.957-.454 4.129 4.129 0 00-1.978.454 3.116 3.116 0 00-1.3 1.3 4.566 4.566 0 000 3.97 3.116 3.116 0 001.3 1.3 4.129 4.129 0 001.978.454zm0-1.631q-1.635 0-1.635-2.113a2.517 2.517 0 01.419-1.581 1.456 1.456 0 011.216-.532 1.42 1.42 0 011.195.532 3.246 3.246 0 010 3.169 1.429 1.429 0 01-1.195.525zM81.55 3.181a2.723 2.723 0 00-1.418.369 2.155 2.155 0 00-.9 1.007l-.14-1.191h-1.985a17.059 17.059 0 01.112 2.056v8.2h2.111V9.496a2.157 2.157 0 00.894.865 2.8 2.8 0 001.328.312 2.9 2.9 0 002.74-1.752 4.582 4.582 0 00.392-1.949 4.651 4.651 0 00-.4-1.971 3.145 3.145 0 00-1.111-1.341 2.863 2.863 0 00-1.622-.475zm-.6 5.857a1.453 1.453 0 01-1.209-.539 2.469 2.469 0 01-.426-1.56 2.5 2.5 0 01.426-1.567 1.444 1.444 0 011.209-.546 1.412 1.412 0 011.2.568 2.569 2.569 0 01.426 1.574 2.442 2.442 0 01-.419 1.538 1.442 1.442 0 01-1.2.532zm11.729-2.212a3.882 3.882 0 00-.867-2.659 2.985 2.985 0 00-2.362-.986 3.464 3.464 0 00-1.8.475 3.246 3.246 0 00-1.237 1.333 4.219 4.219 0 00-.44 1.95 3.648 3.648 0 001.02 2.73 3.846 3.846 0 002.81 1 5.007 5.007 0 001.5-.234 3.677 3.677 0 001.251-.646l-.559-1.446a3.468 3.468 0 01-1.006.539 3.386 3.386 0 01-1.091.184 1.857 1.857 0 01-1.37-.461 2.187 2.187 0 01-.517-1.467h4.669v-.312zm-3.173-2.141a1.317 1.317 0 011.356 1.389h-2.81a1.782 1.782 0 01.482-1.035 1.349 1.349 0 01.972-.354zm8.9-1.489a2.327 2.327 0 00-1.279.361 2.1 2.1 0 00-.829 1.037l-.14-1.233h-1.985a17.059 17.059 0 01.112 2.056v5.133h2.11V6.794a1.78 1.78 0 01.441-1.283 1.687 1.687 0 011.279-.461 2.439 2.439 0 011.034.241l.014-1.957a1.8 1.8 0 00-.755-.141zm6.179 3.63l3.006-3.446h-2.531l-2.656 3.077V.119h-2.111v10.436h2.111V7.336l2.784 3.215h2.586zm6.641 3.843a3.682 3.682 0 002.222-.6 2.068 2.068 0 00.322-2.978 3.163 3.163 0 00-1.58-.766l-1.188-.269a1.491 1.491 0 01-.622-.248.486.486 0 01-.175-.39.575.575 0 01.294-.511 1.525 1.525 0 01.81-.184 3.3 3.3 0 011.1.2 4.556 4.556 0 011.111.581l.587-1.432a4.436 4.436 0 00-1.3-.66 4.8 4.8 0 00-1.482-.234 4.025 4.025 0 00-1.579.291 2.5 2.5 0 00-1.07.816 1.962 1.962 0 00-.384 1.191 1.811 1.811 0 00.482 1.318 2.955 2.955 0 001.5.724l1.16.269a2.055 2.055 0 01.741.269.5.5 0 01.21.426.541.541 0 01-.294.5 1.681 1.681 0 01-.838.17 4.558 4.558 0 01-1.4-.219 4.321 4.321 0 01-1.245-.631l-.559 1.488a5.137 5.137 0 003.174.88z" fill="#f36a20" fill-rule="evenodd"/></svg>