<svg xmlns="http://www.w3.org/2000/svg" width="267.157" height="6.594"><path data-name="Bask Bank and BankDirect are divisions of Texas Capital Bank, N" d="M1.928 5.17a3.369 3.369 0 00.82-.085 1.547 1.547 0 00.557-.251 1.292 1.292 0 00.372-.473 1.481 1.481 0 00.151-.664 1.237 1.237 0 00-.248-.77 1.33 1.33 0 00-.709-.462 1.256 1.256 0 00.534-.464 1.154 1.154 0 00.177-.614 1.259 1.259 0 00-.2-.671A1.2 1.2 0 002.83.241a2.357 2.357 0 00-.934-.155H-.011V5.17h1.939zM.662.686h1.016a2.858 2.858 0 01.773.072.611.611 0 01.347.263.817.817 0 01.122.446.734.734 0 01-.13.444.715.715 0 01-.387.253 2.469 2.469 0 01-.642.059h-1.1V.686zm0 2.137h1.176a2.488 2.488 0 01.743.085.765.765 0 01.4.294.841.841 0 01.146.5.887.887 0 01-.1.428.746.746 0 01-.257.283 1.121 1.121 0 01-.388.138 2.954 2.954 0 01-.458.024H.658V2.828zM7.273 5.17h.652a1.385 1.385 0 01-.157-.442 8.722 8.722 0 01-.04-1.1v-.832a3.624 3.624 0 00-.031-.576.983.983 0 00-.195-.425 1.009 1.009 0 00-.433-.279 2.215 2.215 0 00-.767-.111 2.473 2.473 0 00-.835.13 1.206 1.206 0 00-.552.371 1.525 1.525 0 00-.274.633l.611.084a.942.942 0 01.31-.547 1.1 1.1 0 01.65-.154 1.043 1.043 0 01.711.212.688.688 0 01.177.537v.163a5.74 5.74 0 01-1.114.215 4.3 4.3 0 00-.554.094 1.513 1.513 0 00-.45.2 1.028 1.028 0 00-.445.853.977.977 0 00.326.758 1.337 1.337 0 00.933.3 1.926 1.926 0 00.688-.122 2.325 2.325 0 00.668-.416 1.32 1.32 0 00.124.454zm-.176-1.619a1.507 1.507 0 01-.1.624.967.967 0 01-.413.432 1.288 1.288 0 01-.641.158.812.812 0 01-.553-.167.531.531 0 01-.189-.416.531.531 0 01.333-.5 2.3 2.3 0 01.544-.125 4.577 4.577 0 001.02-.236v.229zm1.9 1.4a1.73 1.73 0 001.094.3 1.923 1.923 0 00.777-.151 1.175 1.175 0 00.525-.427 1.042 1.042 0 00.182-.588.913.913 0 00-.149-.534.933.933 0 00-.411-.327 7.633 7.633 0 00-.924-.29q-.458-.125-.551-.159a.554.554 0 01-.24-.167.348.348 0 01-.076-.218.414.414 0 01.184-.333 1.018 1.018 0 01.614-.142.882.882 0 01.563.159.663.663 0 01.241.444l.611-.083a1.333 1.333 0 00-.215-.571 1.038 1.038 0 00-.484-.338 2.137 2.137 0 00-.761-.125 1.884 1.884 0 00-.54.075 1.291 1.291 0 00-.4.182 1.027 1.027 0 00-.307.348.95.95 0 00-.112.456.908.908 0 00.539.845 5.9 5.9 0 00.952.3 2.717 2.717 0 01.638.211.379.379 0 01.184.333.524.524 0 01-.208.411.976.976 0 01-.638.175 1.006 1.006 0 01-.664-.2.864.864 0 01-.29-.569l-.617.1a1.381 1.381 0 00.483.887zm4.019.215v-1.46l.441-.423 1.217 1.883h.77l-1.55-2.316 1.408-1.366h-.808l-1.478 1.5v-2.9h-.624v5.084h.624zm7.03 0a3.369 3.369 0 00.82-.085 1.542 1.542 0 00.556-.251 1.284 1.284 0 00.373-.473 1.481 1.481 0 00.151-.664 1.237 1.237 0 00-.248-.77 1.33 1.33 0 00-.709-.462 1.256 1.256 0 00.534-.464 1.154 1.154 0 00.177-.614 1.252 1.252 0 00-.2-.671 1.2 1.2 0 00-.551-.475 2.359 2.359 0 00-.935-.155h-1.907v5.084h1.939zM18.78.682h1.016a2.858 2.858 0 01.773.072.611.611 0 01.347.263.817.817 0 01.121.446.728.728 0 01-.13.444.709.709 0 01-.386.253 2.474 2.474 0 01-.642.059h-1.1V.682zm0 2.137h1.175a2.491 2.491 0 01.744.085.765.765 0 01.4.294.848.848 0 01.146.5.887.887 0 01-.1.428.736.736 0 01-.256.283 1.119 1.119 0 01-.389.138 2.939 2.939 0 01-.457.024h-1.266V2.824zm6.611 2.347h.652a1.385 1.385 0 01-.157-.442 8.722 8.722 0 01-.04-1.1v-.832a3.472 3.472 0 00-.032-.576.982.982 0 00-.194-.425 1.009 1.009 0 00-.433-.279 2.215 2.215 0 00-.767-.111 2.473 2.473 0 00-.835.13 1.206 1.206 0 00-.552.371 1.525 1.525 0 00-.274.633l.611.084a.942.942 0 01.31-.547 1.1 1.1 0 01.65-.154 1.043 1.043 0 01.711.212.688.688 0 01.177.537v.163a5.71 5.71 0 01-1.113.215 4.35 4.35 0 00-.555.094 1.519 1.519 0 00-.449.2 1.028 1.028 0 00-.445.853.977.977 0 00.326.758 1.337 1.337 0 00.933.3 1.926 1.926 0 00.688-.122 2.308 2.308 0 00.667-.416 1.343 1.343 0 00.125.454zm-.177-1.619a1.509 1.509 0 01-.1.624.972.972 0 01-.413.432 1.288 1.288 0 01-.641.158.811.811 0 01-.553-.167.552.552 0 01-.1-.712.544.544 0 01.246-.2 2.327 2.327 0 01.545-.125 4.551 4.551 0 001.019-.236v.229zm2.294 1.619V3.155a1.25 1.25 0 01.29-.961 1.014 1.014 0 01.688-.253.825.825 0 01.436.113.6.6 0 01.258.3 1.668 1.668 0 01.073.57v2.24h.624V2.9a3.583 3.583 0 00-.035-.607 1.193 1.193 0 00-.194-.461.959.959 0 00-.418-.314 1.533 1.533 0 00-.612-.12 1.326 1.326 0 00-1.172.607v-.523h-.562v3.682h.624zm4.025 0v-1.46l.44-.423 1.218 1.883h.769L32.41 2.85l1.408-1.366h-.808l-1.477 1.5v-2.9h-.624v5.084h.624zm7.567 0h.652a1.363 1.363 0 01-.158-.442 8.722 8.722 0 01-.04-1.1v-.832a3.5 3.5 0 00-.031-.576.993.993 0 00-.194-.425 1.013 1.013 0 00-.434-.279 2.209 2.209 0 00-.766-.111 2.475 2.475 0 00-.836.13 1.2 1.2 0 00-.551.371 1.5 1.5 0 00-.274.633l.61.084a.942.942 0 01.31-.547 1.1 1.1 0 01.651-.154 1.042 1.042 0 01.71.212.688.688 0 01.177.537v.163a5.71 5.71 0 01-1.113.215 4.286 4.286 0 00-.555.094 1.508 1.508 0 00-.449.2 1.019 1.019 0 00-.323.359 1.008 1.008 0 00-.123.494.98.98 0 00.326.758 1.337 1.337 0 00.933.3 1.926 1.926 0 00.688-.122 2.312 2.312 0 00.668-.416 1.3 1.3 0 00.125.454zm-.177-1.619a1.507 1.507 0 01-.1.624.97.97 0 01-.412.432 1.294 1.294 0 01-.642.158.812.812 0 01-.553-.167.542.542 0 01.144-.915 2.315 2.315 0 01.544-.125 4.577 4.577 0 001.02-.236v.232zm2.294 1.619V3.155a1.25 1.25 0 01.289-.961 1.016 1.016 0 01.689-.253.824.824 0 01.435.113.6.6 0 01.258.3 1.668 1.668 0 01.073.57v2.24h.624V2.9a3.613 3.613 0 00-.034-.607 1.208 1.208 0 00-.194-.461.965.965 0 00-.418-.314 1.533 1.533 0 00-.612-.12 1.327 1.327 0 00-1.173.607v-.523h-.561v3.682h.624zm6.365 0V.082h-.621v1.825a1.23 1.23 0 00-1.016-.507 1.471 1.471 0 00-.822.24 1.45 1.45 0 00-.551.688 2.608 2.608 0 00-.184 1 2.348 2.348 0 00.2 1 1.6 1.6 0 00.572.678 1.445 1.445 0 00.81.243A1.147 1.147 0 0047 4.701v.464h.579zm-2.273-2.909a.864.864 0 01.7-.34.9.9 0 01.718.354 1.731 1.731 0 01.291 1.109 1.543 1.543 0 01-.286 1.022.881.881 0 01-.695.334.9.9 0 01-.7-.35 1.6 1.6 0 01-.3-1.058 1.677 1.677 0 01.272-1.067zm7.36 2.909a3.378 3.378 0 00.821-.085 1.542 1.542 0 00.556-.251 1.294 1.294 0 00.373-.473 1.481 1.481 0 00.151-.664 1.237 1.237 0 00-.248-.77 1.33 1.33 0 00-.709-.462 1.256 1.256 0 00.534-.464 1.154 1.154 0 00.177-.614 1.252 1.252 0 00-.2-.671 1.2 1.2 0 00-.551-.475 2.359 2.359 0 00-.935-.155h-1.907v5.084h1.938zM51.404.682h1.016a2.858 2.858 0 01.773.072.615.615 0 01.347.263.817.817 0 01.121.446.728.728 0 01-.13.444.709.709 0 01-.386.253 2.474 2.474 0 01-.642.059h-1.1V.682zm0 2.137h1.175a2.491 2.491 0 01.744.085.769.769 0 01.4.294.848.848 0 01.146.5.887.887 0 01-.1.428.736.736 0 01-.256.283 1.119 1.119 0 01-.389.138 2.945 2.945 0 01-.458.024h-1.265V2.824zm6.611 2.347h.654a1.411 1.411 0 01-.158-.442 8.931 8.931 0 01-.04-1.1v-.832a3.5 3.5 0 00-.031-.576.982.982 0 00-.194-.425 1.009 1.009 0 00-.433-.279 2.215 2.215 0 00-.767-.111 2.479 2.479 0 00-.836.13 1.208 1.208 0 00-.551.371 1.525 1.525 0 00-.274.633l.61.084a.943.943 0 01.311-.547 1.1 1.1 0 01.65-.154 1.047 1.047 0 01.711.212.688.688 0 01.177.537v.163a5.71 5.71 0 01-1.113.215 4.35 4.35 0 00-.555.094 1.519 1.519 0 00-.449.2 1.028 1.028 0 00-.445.853.977.977 0 00.326.758 1.336 1.336 0 00.932.3 1.932 1.932 0 00.689-.122 2.308 2.308 0 00.667-.416 1.32 1.32 0 00.125.454zm-.177-1.619a1.509 1.509 0 01-.1.624.972.972 0 01-.413.432 1.288 1.288 0 01-.641.158.815.815 0 01-.554-.167.55.55 0 01-.1-.712.544.544 0 01.246-.2 2.327 2.327 0 01.545-.125 4.551 4.551 0 001.019-.236v.229zm2.294 1.619V3.155a1.25 1.25 0 01.29-.961 1.014 1.014 0 01.688-.253.819.819 0 01.435.113.6.6 0 01.259.3 1.693 1.693 0 01.073.57v2.24h.624V2.9a3.583 3.583 0 00-.035-.607 1.208 1.208 0 00-.194-.461.959.959 0 00-.418-.314 1.533 1.533 0 00-.612-.12 1.324 1.324 0 00-1.172.607v-.523h-.562v3.682h.624zm4.025 0v-1.46l.44-.423 1.217 1.883h.77l-1.55-2.316 1.408-1.366h-.808l-1.477 1.5v-2.9h-.624v5.084h.624zm4.909 0a3.452 3.452 0 00.816-.086 1.9 1.9 0 00.607-.255 1.838 1.838 0 00.463-.461 2.5 2.5 0 00.347-.741 3.553 3.553 0 00.135-1.026 3.414 3.414 0 00-.2-1.209 2.079 2.079 0 00-.6-.869 1.728 1.728 0 00-.746-.364 4.276 4.276 0 00-.905-.073h-1.751v5.084h1.837zM67.904.682h1.065a2.636 2.636 0 01.87.1 1.327 1.327 0 01.637.574 2.375 2.375 0 01.262 1.226 3.144 3.144 0 01-.134.98 1.6 1.6 0 01-.373.643 1.124 1.124 0 01-.456.264 2.654 2.654 0 01-.789.093h-1.085V.678zM72.979.8V.082h-.624V.8h.624zm0 4.366V1.484h-.624v3.682h.624zm1.639 0V3.238a2.412 2.412 0 01.1-.728.666.666 0 01.232-.342.6.6 0 01.368-.123.884.884 0 01.457.136l.215-.58a1.217 1.217 0 00-.641-.2.7.7 0 00-.4.125 1.526 1.526 0 00-.4.517v-.558h-.562v3.682h.625zm3.955-.61a.958.958 0 01-.586.18 1.02 1.02 0 01-.77-.322 1.414 1.414 0 01-.344-.929h2.747v-.167a2 2 0 00-.468-1.415 1.575 1.575 0 00-1.207-.5 1.617 1.617 0 00-1.241.514 2.034 2.034 0 00-.479 1.442 1.943 1.943 0 00.474 1.4 1.914 1.914 0 002.335.186 1.581 1.581 0 00.566-.878l-.645-.08a1.2 1.2 0 01-.386.573zm-1.341-2.355a.992.992 0 01.723-.287.959.959 0 01.774.36 1.253 1.253 0 01.236.7h-2.057a1.143 1.143 0 01.324-.769zm5.317 2.31a.878.878 0 01-.614.225.925.925 0 01-.742-.336 1.656 1.656 0 01-.285-1.078 1.6 1.6 0 01.295-1.07.966.966 0 01.766-.338.8.8 0 01.533.187 1.009 1.009 0 01.307.558l.607-.094a1.392 1.392 0 00-.489-.861 1.527 1.527 0 00-.982-.3 1.785 1.785 0 00-.879.224 1.382 1.382 0 00-.6.671 2.576 2.576 0 00-.2 1.044 2 2 0 00.459 1.416 1.581 1.581 0 001.216.5 1.5 1.5 0 001.017-.359 1.591 1.591 0 00.515-.994l-.613-.08a1.118 1.118 0 01-.311.689zm2.619.121a.417.417 0 01-.213-.045.256.256 0 01-.107-.121 1.084 1.084 0 01-.033-.343V1.969h.627v-.485h-.627V.197l-.621.374v.913h-.458v.485h.458v2.119a2.237 2.237 0 00.076.737.6.6 0 00.264.282 1.062 1.062 0 00.527.108 2.387 2.387 0 00.472-.055l-.091-.552a2.041 2.041 0 01-.274.024zm5.528.534h.652a1.411 1.411 0 01-.158-.442 9.014 9.014 0 01-.039-1.1v-.832a3.472 3.472 0 00-.032-.576.982.982 0 00-.194-.425 1.009 1.009 0 00-.433-.279 2.215 2.215 0 00-.767-.111 2.479 2.479 0 00-.836.13 1.208 1.208 0 00-.551.371 1.525 1.525 0 00-.274.633l.61.084a.943.943 0 01.311-.547 1.1 1.1 0 01.65-.154 1.047 1.047 0 01.711.212.688.688 0 01.177.537v.163a5.71 5.71 0 01-1.113.215 4.35 4.35 0 00-.555.094 1.519 1.519 0 00-.449.2 1.028 1.028 0 00-.445.853.977.977 0 00.326.758 1.336 1.336 0 00.932.3 1.932 1.932 0 00.689-.122 2.308 2.308 0 00.667-.416 1.32 1.32 0 00.125.454zm-.177-1.616a1.509 1.509 0 01-.1.624.972.972 0 01-.413.432 1.288 1.288 0 01-.641.158.815.815 0 01-.554-.167.55.55 0 01-.1-.712.544.544 0 01.246-.2 2.327 2.327 0 01.545-.125 4.551 4.551 0 001.019-.236v.226zm2.287 1.619V3.241a2.444 2.444 0 01.1-.728.674.674 0 01.233-.342.593.593 0 01.367-.123.884.884 0 01.458.136l.215-.58a1.217 1.217 0 00-.641-.2.7.7 0 00-.4.125 1.526 1.526 0 00-.4.517v-.558h-.562V5.17h.624zm3.955-.61a.954.954 0 01-.586.18 1.019 1.019 0 01-.769-.322 1.414 1.414 0 01-.344-.929h2.747v-.167a2 2 0 00-.468-1.415 1.575 1.575 0 00-1.207-.5 1.617 1.617 0 00-1.241.514 2.034 2.034 0 00-.479 1.442 1.943 1.943 0 00.474 1.4 1.914 1.914 0 002.335.186 1.575 1.575 0 00.565-.878l-.645-.08a1.188 1.188 0 01-.382.57zm-1.34-2.355a.991.991 0 01.723-.287.959.959 0 01.774.36 1.245 1.245 0 01.235.7h-2.056a1.143 1.143 0 01.324-.772zm8.238 2.965V.085h-.621V1.91a1.23 1.23 0 00-1.016-.507 1.471 1.471 0 00-.822.24 1.445 1.445 0 00-.551.688 2.608 2.608 0 00-.184 1 2.348 2.348 0 00.2 1 1.6 1.6 0 00.572.678 1.443 1.443 0 00.81.243 1.147 1.147 0 001.03-.548v.464h.579zm-2.273-2.909a.864.864 0 01.7-.34.9.9 0 01.718.354 1.731 1.731 0 01.291 1.109 1.543 1.543 0 01-.286 1.022.882.882 0 01-.695.334.9.9 0 01-.7-.35 1.6 1.6 0 01-.3-1.058 1.677 1.677 0 01.272-1.07zm3.953-1.457V.085h-.624v.718h.624zm0 4.366V1.487h-.624v3.682h.624zm2.627 0l1.394-3.682h-.641l-.819 2.247c-.1.273-.177.506-.232.7-.072-.256-.15-.5-.236-.742l-.791-2.2h-.659l1.4 3.682h.587zM110.61.803V.085h-.624v.718h.624zm0 4.366V1.487h-.624v3.682h.624zm1.252-.215a1.73 1.73 0 001.094.3 1.923 1.923 0 00.777-.151 1.175 1.175 0 00.525-.427 1.043 1.043 0 00.183-.588.914.914 0 00-.15-.534.933.933 0 00-.411-.327 7.633 7.633 0 00-.924-.29q-.458-.125-.551-.159a.544.544 0 01-.239-.167.344.344 0 01-.077-.218.416.416 0 01.184-.333 1.02 1.02 0 01.614-.142.882.882 0 01.563.159.663.663 0 01.241.444l.611-.083a1.32 1.32 0 00-.215-.571 1.033 1.033 0 00-.484-.338 2.134 2.134 0 00-.761-.125 1.872 1.872 0 00-.539.075 1.28 1.28 0 00-.4.182 1.006 1.006 0 00-.307.348.969.969 0 00.024.951.917.917 0 00.4.35 5.9 5.9 0 00.952.3 2.7 2.7 0 01.638.211.379.379 0 01.184.333.521.521 0 01-.208.411.976.976 0 01-.638.175 1.006 1.006 0 01-.664-.2.864.864 0 01-.29-.569l-.617.1a1.381 1.381 0 00.485.884zm4.019-4.151V.085h-.624v.718h.624zm0 4.366V1.487h-.624v3.682h.624zm1.266-.412a1.658 1.658 0 001.25.5 1.8 1.8 0 00.89-.226 1.516 1.516 0 00.621-.633 2.435 2.435 0 00.213-1.118 1.9 1.9 0 00-.482-1.375 1.653 1.653 0 00-1.242-.5 1.718 1.718 0 00-1.158.409 1.9 1.9 0 00-.569 1.516 1.981 1.981 0 00.477 1.428zm.474-2.487a1.029 1.029 0 011.548 0 1.522 1.522 0 01.31 1.035 1.612 1.612 0 01-.308 1.079 1.028 1.028 0 01-1.55 0 1.967 1.967 0 010-2.113zm3.927 2.9V3.159a1.25 1.25 0 01.289-.961 1.016 1.016 0 01.689-.253.824.824 0 01.435.113.6.6 0 01.258.3 1.668 1.668 0 01.073.57v2.24h.624V2.904a3.613 3.613 0 00-.034-.607 1.208 1.208 0 00-.194-.461.965.965 0 00-.418-.314 1.533 1.533 0 00-.612-.12 1.327 1.327 0 00-1.173.607v-.523h-.561v3.682h.624zm3.627-.215a1.73 1.73 0 001.094.3 1.923 1.923 0 00.777-.151 1.184 1.184 0 00.526-.427 1.05 1.05 0 00.182-.588.921.921 0 00-.149-.534.944.944 0 00-.411-.327 7.726 7.726 0 00-.925-.29q-.458-.125-.551-.159a.55.55 0 01-.239-.167.344.344 0 01-.077-.218.416.416 0 01.184-.333 1.02 1.02 0 01.614-.142.885.885 0 01.564.159.671.671 0 01.241.444l.61-.083a1.32 1.32 0 00-.215-.571 1.033 1.033 0 00-.484-.338 2.134 2.134 0 00-.761-.125 1.872 1.872 0 00-.539.075 1.28 1.28 0 00-.4.182 1.006 1.006 0 00-.307.348.951.951 0 00-.113.456.932.932 0 00.137.5.917.917 0 00.4.35 5.9 5.9 0 00.952.3 2.7 2.7 0 01.638.211.379.379 0 01.184.333.521.521 0 01-.208.411.974.974 0 01-.638.175 1.008 1.008 0 01-.664-.2.864.864 0 01-.29-.569l-.617.1a1.381 1.381 0 00.485.878zm5.681-.2a1.655 1.655 0 001.25.5 1.8 1.8 0 00.889-.226 1.5 1.5 0 00.621-.633 2.435 2.435 0 00.213-1.118 1.891 1.891 0 00-.482-1.375 1.651 1.651 0 00-1.241-.5 1.719 1.719 0 00-1.159.409 1.9 1.9 0 00-.568 1.516 1.981 1.981 0 00.477 1.43zm.473-2.487a1.029 1.029 0 011.548 0 1.522 1.522 0 01.311 1.035 1.607 1.607 0 01-.309 1.079 1.028 1.028 0 01-1.55 0 1.967 1.967 0 010-2.111zm4.073 2.9v-3.2h.718v-.485h-.718V1.15a.658.658 0 01.118-.455.546.546 0 01.4-.121 2.113 2.113 0 01.368.035l.093-.545a3.1 3.1 0 00-.582-.062 1.143 1.143 0 00-.637.151.8.8 0 00-.317.393 1.714 1.714 0 00-.066.552v.392h-.551v.485h.551v3.2h.621zm5.236 0V.684h1.682v-.6h-4.029v.6h1.678v4.484h.672zm3.713-.61a.956.956 0 01-.586.18 1.02 1.02 0 01-.77-.322 1.419 1.419 0 01-.344-.929h2.747V3.32a2 2 0 00-.468-1.415 1.575 1.575 0 00-1.207-.5 1.617 1.617 0 00-1.241.514 2.034 2.034 0 00-.479 1.442 1.943 1.943 0 00.474 1.4 1.914 1.914 0 002.335.186 1.576 1.576 0 00.566-.878l-.645-.08a1.2 1.2 0 01-.382.571zm-1.341-2.355a.992.992 0 01.723-.287.959.959 0 01.774.36 1.253 1.253 0 01.236.7h-2.057a1.143 1.143 0 01.324-.771zm3.565 2.965l.968-1.453.2.309.756 1.144h.77L147.9 3.219l1.272-1.733h-.745l-.621.87c-.086.118-.179.253-.281.406a10.19 10.19 0 00-.257-.413l-.565-.863h-.78l1.245 1.768-1.346 1.914h.756zm5.811 0h.652a1.363 1.363 0 01-.158-.442 8.722 8.722 0 01-.04-1.1v-.832a3.5 3.5 0 00-.031-.576.993.993 0 00-.194-.425 1.013 1.013 0 00-.434-.279 2.209 2.209 0 00-.766-.111 2.475 2.475 0 00-.836.13 1.2 1.2 0 00-.551.371 1.5 1.5 0 00-.274.633l.61.084a.942.942 0 01.31-.547 1.1 1.1 0 01.651-.154 1.042 1.042 0 01.71.212.688.688 0 01.177.537v.163a5.71 5.71 0 01-1.113.215 4.286 4.286 0 00-.555.094 1.508 1.508 0 00-.449.2 1.019 1.019 0 00-.323.359 1.008 1.008 0 00-.123.494.98.98 0 00.326.758 1.337 1.337 0 00.933.3 1.926 1.926 0 00.688-.122 2.312 2.312 0 00.668-.416 1.3 1.3 0 00.125.454zm-.177-1.618a1.507 1.507 0 01-.1.624.97.97 0 01-.412.432 1.292 1.292 0 01-.642.158.812.812 0 01-.553-.167.542.542 0 01.144-.915 2.315 2.315 0 01.544-.125 4.577 4.577 0 001.02-.236v.229zm1.9 1.4a1.73 1.73 0 001.094.3 1.923 1.923 0 00.777-.151 1.184 1.184 0 00.526-.427 1.05 1.05 0 00.182-.588.921.921 0 00-.149-.534.944.944 0 00-.411-.327 7.726 7.726 0 00-.925-.29q-.458-.125-.551-.159a.55.55 0 01-.239-.167.344.344 0 01-.077-.218.416.416 0 01.184-.333 1.02 1.02 0 01.614-.142.885.885 0 01.564.159.671.671 0 01.241.444l.61-.083a1.32 1.32 0 00-.215-.571 1.033 1.033 0 00-.484-.338 2.134 2.134 0 00-.761-.125 1.872 1.872 0 00-.539.075 1.28 1.28 0 00-.4.182 1.006 1.006 0 00-.307.348.951.951 0 00-.113.456.932.932 0 00.137.5.917.917 0 00.4.35 5.9 5.9 0 00.952.3 2.7 2.7 0 01.638.211.379.379 0 01.184.333.521.521 0 01-.208.411.974.974 0 01-.638.175 1.008 1.008 0 01-.664-.2.864.864 0 01-.29-.569l-.617.1a1.381 1.381 0 00.485.883zm8.613-.6a1.446 1.446 0 01-.957.326 1.645 1.645 0 01-.864-.239 1.4 1.4 0 01-.588-.723 3.1 3.1 0 01-.189-1.132 3.017 3.017 0 01.16-.976 1.481 1.481 0 01.553-.755 1.645 1.645 0 01.98-.281 1.369 1.369 0 01.846.254 1.569 1.569 0 01.513.808l.662-.156a2.017 2.017 0 00-.724-1.093 2.086 2.086 0 00-1.284-.388 2.516 2.516 0 00-1.232.307 2.072 2.072 0 00-.864.9 3 3 0 00-.3 1.385 3.46 3.46 0 00.268 1.363 2.1 2.1 0 00.784.969 2.407 2.407 0 001.337.335 2.1 2.1 0 001.344-.435 2.268 2.268 0 00.761-1.264l-.673-.17a1.663 1.663 0 01-.533.97zm4.551.815h.652a1.411 1.411 0 01-.158-.442 9.014 9.014 0 01-.039-1.1v-.832a3.472 3.472 0 00-.032-.576.982.982 0 00-.194-.425 1.009 1.009 0 00-.433-.279 2.215 2.215 0 00-.767-.111 2.469 2.469 0 00-.835.13 1.206 1.206 0 00-.552.371 1.525 1.525 0 00-.274.633l.61.084a.948.948 0 01.311-.547 1.1 1.1 0 01.65-.154 1.045 1.045 0 01.711.212.688.688 0 01.177.537v.163a5.71 5.71 0 01-1.113.215 4.35 4.35 0 00-.555.094 1.519 1.519 0 00-.449.2 1.028 1.028 0 00-.445.853.977.977 0 00.326.758 1.336 1.336 0 00.932.3 1.928 1.928 0 00.689-.122 2.308 2.308 0 00.667-.416 1.343 1.343 0 00.125.454zm-.177-1.619a1.509 1.509 0 01-.1.624.972.972 0 01-.413.432 1.288 1.288 0 01-.641.158.815.815 0 01-.554-.167.55.55 0 01-.1-.712.544.544 0 01.246-.2 2.327 2.327 0 01.545-.125 4.551 4.551 0 001.019-.236v.23zm2.294 3.031V4.784a1.291 1.291 0 00.408.333 1.172 1.172 0 00.56.132 1.543 1.543 0 001.4-.935 2.467 2.467 0 00.2-1.018 2.512 2.512 0 00-.184-.969 1.49 1.49 0 00-.545-.685 1.453 1.453 0 00-.832-.243 1.247 1.247 0 00-.614.141 1.393 1.393 0 00-.454.421v-.478h-.56v5.094h.624zm.248-4.316a.9.9 0 01.706-.373.872.872 0 01.692.351 1.625 1.625 0 01.289 1.054 1.666 1.666 0 01-.3 1.09.9.9 0 01-.713.352.883.883 0 01-.7-.339 1.6 1.6 0 01-.288-1.051 1.673 1.673 0 01.314-1.079zm3.777-1.462V.081h-.624v.718h.624zm0 4.366V1.483h-.624v3.682h.624zm2.11-.534a.414.414 0 01-.213-.045.258.258 0 01-.108-.121 1.084 1.084 0 01-.033-.343V1.968h.628v-.485h-.63V.196l-.62.374v.913h-.458v.485h.458v2.119a2.237 2.237 0 00.076.737.6.6 0 00.263.282 1.067 1.067 0 00.528.108 2.386 2.386 0 00.471-.055l-.09-.552a2.055 2.055 0 01-.274.024zm3.483.534h.652a1.385 1.385 0 01-.157-.442 8.722 8.722 0 01-.04-1.1v-.832a3.624 3.624 0 00-.031-.576.983.983 0 00-.2-.425 1.009 1.009 0 00-.433-.279 2.215 2.215 0 00-.767-.111 2.473 2.473 0 00-.835.13 1.206 1.206 0 00-.552.371 1.525 1.525 0 00-.274.633l.611.084a.942.942 0 01.31-.547 1.1 1.1 0 01.65-.154 1.043 1.043 0 01.711.212.688.688 0 01.177.537v.163a5.74 5.74 0 01-1.114.215 4.3 4.3 0 00-.554.094 1.513 1.513 0 00-.45.2 1.028 1.028 0 00-.445.853.977.977 0 00.326.758 1.337 1.337 0 00.933.3 1.926 1.926 0 00.688-.122 2.325 2.325 0 00.668-.416 1.32 1.32 0 00.124.454zm-.176-1.619a1.507 1.507 0 01-.1.624.967.967 0 01-.413.432 1.288 1.288 0 01-.641.158.812.812 0 01-.553-.167.531.531 0 01-.189-.416.531.531 0 01.333-.5 2.3 2.3 0 01.544-.125 4.577 4.577 0 001.02-.236v.234zm2.28 1.619V.081h-.625v5.084h.625zm5.073 0a3.363 3.363 0 00.82-.085 1.547 1.547 0 00.557-.251 1.294 1.294 0 00.373-.473 1.494 1.494 0 00.151-.664 1.237 1.237 0 00-.248-.77 1.333 1.333 0 00-.71-.462 1.244 1.244 0 00.534-.464 1.154 1.154 0 00.177-.614 1.25 1.25 0 00-.2-.671 1.2 1.2 0 00-.551-.475 2.362 2.362 0 00-.935-.155h-1.907v5.084h1.938zM184.919.681h1.016a2.867 2.867 0 01.774.072.615.615 0 01.347.263.825.825 0 01.121.446.728.728 0 01-.13.444.715.715 0 01-.387.253 2.46 2.46 0 01-.641.059h-1.1V.681zm0 2.137h1.176a2.491 2.491 0 01.744.085.769.769 0 01.4.294.848.848 0 01.146.5.887.887 0 01-.1.428.738.738 0 01-.257.283 1.113 1.113 0 01-.388.138 2.954 2.954 0 01-.458.024h-1.263V2.823zm6.612 2.347h.652a1.387 1.387 0 01-.158-.442 8.722 8.722 0 01-.04-1.1v-.832a3.5 3.5 0 00-.031-.576.993.993 0 00-.194-.425 1.013 1.013 0 00-.434-.279 2.209 2.209 0 00-.766-.111 2.479 2.479 0 00-.836.13 1.208 1.208 0 00-.551.371 1.512 1.512 0 00-.274.633l.61.084a.947.947 0 01.31-.547 1.1 1.1 0 01.651-.154 1.047 1.047 0 01.711.212.688.688 0 01.176.537v.163a5.71 5.71 0 01-1.113.215 4.286 4.286 0 00-.555.094 1.508 1.508 0 00-.449.2 1.019 1.019 0 00-.323.359 1.008 1.008 0 00-.123.494.98.98 0 00.326.758 1.337 1.337 0 00.933.3 1.922 1.922 0 00.688-.122 2.312 2.312 0 00.668-.416 1.32 1.32 0 00.125.454zm-.177-1.619a1.507 1.507 0 01-.1.624.965.965 0 01-.412.432 1.292 1.292 0 01-.642.158.812.812 0 01-.553-.167.55.55 0 01-.1-.712.544.544 0 01.246-.2 2.315 2.315 0 01.544-.125 4.562 4.562 0 001.02-.236v.23zm2.294 1.619V3.154a1.246 1.246 0 01.29-.961 1.014 1.014 0 01.688-.253.824.824 0 01.435.113.6.6 0 01.259.3 1.7 1.7 0 01.072.57v2.24h.625V2.899a3.583 3.583 0 00-.035-.607 1.208 1.208 0 00-.194-.461.965.965 0 00-.418-.314 1.533 1.533 0 00-.612-.12 1.324 1.324 0 00-1.172.607v-.523h-.562v3.682h.624zm4.024 0v-1.46l.441-.423 1.217 1.883h.77l-1.55-2.316 1.408-1.366h-.808l-1.478 1.5v-2.9h-.624v5.084h.621zm3.512 0a1.092 1.092 0 01-.1.484.6.6 0 01-.292.255l.174.267a.9.9 0 00.44-.373 1.253 1.253 0 00.139-.633v-.71h-.711v.71h.354zm4.289 0v-4l2.671 4h.69V.081h-.645v3.992L205.518.081h-.69v5.084h.641zm5.37 0v-.71h-.711v.71h.711zm1.393 0l.558-1.539h2.126l.593 1.539h.766L214.198.081h-.724l-1.953 5.084h.715zm1.311-3.578a6.518 6.518 0 00.273-.971q.119.413.361 1.054l.531 1.408h-1.724zm4.149 3.578v-.71h-.711v.71h.711zm3.908 0V.837l1.47 4.328h.607L225.159.91v4.255h.648V.081h-.905l-1.217 3.538q-.184.537-.271.815a35.415 35.415 0 00-.242-.753l-1.2-3.6h-1.012v5.084h.648zm7.416-.61a.956.956 0 01-.586.18 1.023 1.023 0 01-.77-.322 1.413 1.413 0 01-.343-.929h2.748v-.167a2 2 0 00-.468-1.415 1.576 1.576 0 00-1.207-.5 1.618 1.618 0 00-1.242.514 2.034 2.034 0 00-.478 1.442 1.947 1.947 0 00.473 1.4 1.915 1.915 0 002.336.186 1.58 1.58 0 00.565-.878l-.645-.08a1.2 1.2 0 01-.383.574zM227.68 2.2a.989.989 0 01.723-.287.957.957 0 01.773.36 1.245 1.245 0 01.236.7h-2.056a1.134 1.134 0 01.324-.768zm3.849 2.965v-1.91a2.281 2.281 0 01.1-.77.786.786 0 01.324-.406.91.91 0 01.487-.139.581.581 0 01.5.208 1.061 1.061 0 01.152.625v2.392h.624V3.026a1.138 1.138 0 01.257-.827.869.869 0 01.645-.259.692.692 0 01.375.1.525.525 0 01.22.265 1.729 1.729 0 01.06.539v2.32h.621V2.636a1.294 1.294 0 00-.3-.934 1.117 1.117 0 00-.842-.3 1.324 1.324 0 00-1.138.645.913.913 0 00-.369-.475 1.214 1.214 0 00-.671-.17 1.3 1.3 0 00-.656.165 1.318 1.318 0 00-.461.435v-.516h-.558v3.682h.624zm5.939-.461a1.172 1.172 0 001.023.545 1.465 1.465 0 001.123-.517 2.1 2.1 0 00.469-1.464 2.472 2.472 0 00-.111-.749 1.885 1.885 0 00-.307-.6 1.323 1.323 0 00-.5-.385 1.547 1.547 0 00-.643-.137 1.236 1.236 0 00-1.009.5V.083h-.624v5.084h.58v-.461zm.291-2.436a.9.9 0 01.708-.355.869.869 0 01.691.343 1.643 1.643 0 01.287 1.065 1.614 1.614 0 01-.3 1.059.892.892 0 01-1.5-.127 1.911 1.911 0 01-.18-.957 1.56 1.56 0 01.294-1.023zm5.29 2.287a.954.954 0 01-.586.18 1.023 1.023 0 01-.77-.322 1.419 1.419 0 01-.343-.929h2.747v-.167a2 2 0 00-.468-1.415 1.575 1.575 0 00-1.207-.5 1.617 1.617 0 00-1.241.514 2.034 2.034 0 00-.479 1.442 1.947 1.947 0 00.473 1.4 1.915 1.915 0 002.336.186 1.575 1.575 0 00.565-.878l-.645-.08a1.2 1.2 0 01-.382.574zm-1.34-2.355a.989.989 0 01.723-.287.955.955 0 01.773.36 1.238 1.238 0 01.236.7h-2.056a1.143 1.143 0 01.324-.768zm3.842 2.965V3.237a2.444 2.444 0 01.1-.728.674.674 0 01.233-.342.593.593 0 01.367-.123.884.884 0 01.458.136l.215-.58a1.217 1.217 0 00-.641-.2.7.7 0 00-.4.125 1.526 1.526 0 00-.4.517v-.558h-.562v3.682h.624zm4.651 0V2.856h2.386v-.6h-2.386V.681h2.757v-.6h-3.43v5.084h.673zm5.536 0a3.455 3.455 0 00.817-.086 1.9 1.9 0 00.607-.255 1.855 1.855 0 00.463-.461 2.527 2.527 0 00.347-.741 3.553 3.553 0 00.135-1.026 3.413 3.413 0 00-.2-1.209 2.077 2.077 0 00-.6-.869 1.734 1.734 0 00-.746-.364 4.283 4.283 0 00-.9-.073h-1.751v5.084h1.834zM254.576.681h1.069a2.636 2.636 0 01.87.1 1.321 1.321 0 01.636.574 2.365 2.365 0 01.262 1.226 3.146 3.146 0 01-.133.98 1.607 1.607 0 01-.373.643 1.124 1.124 0 01-.456.264 2.654 2.654 0 01-.789.093h-1.086V.677zm5.315 4.484V.081h-.673v5.084h.673zm4.354-.815a1.442 1.442 0 01-.957.326 1.645 1.645 0 01-.864-.239 1.4 1.4 0 01-.588-.723 3.1 3.1 0 01-.189-1.132 3.044 3.044 0 01.16-.976 1.487 1.487 0 01.553-.755 1.645 1.645 0 01.98-.281 1.365 1.365 0 01.846.254 1.569 1.569 0 01.513.808l.663-.156a2.019 2.019 0 00-.725-1.093 2.085 2.085 0 00-1.283-.388 2.517 2.517 0 00-1.233.307 2.078 2.078 0 00-.864.9 3 3 0 00-.3 1.385 3.443 3.443 0 00.269 1.363 2.088 2.088 0 00.783.969 2.409 2.409 0 001.337.335 2.1 2.1 0 001.344-.435 2.262 2.262 0 00.761-1.264l-.672-.17a1.669 1.669 0 01-.534.97zm2.911.815v-.71h-.711v.71h.711z" fill-rule="evenodd"/></svg>