<svg xmlns="http://www.w3.org/2000/svg" width="78.343" height="6.219"><path data-name="Outsmart Interest" d="M2.869 6.206a2.973 2.973 0 001.53-.378 2.516 2.516 0 001-1.08 4.1 4.1 0 000-3.3 2.463 2.463 0 00-1-1.075 3.333 3.333 0 00-3.068 0 2.489 2.489 0 00-1 1.075 4.06 4.06 0 000 3.3 2.54 2.54 0 001 1.08 2.986 2.986 0 001.526.378zm0-.875a1.59 1.59 0 01-1.309-.578 2.584 2.584 0 01-.467-1.658 2.547 2.547 0 01.467-1.649 1.786 1.786 0 012.618 0 2.544 2.544 0 01.468 1.645 2.578 2.578 0 01-.468 1.658 1.589 1.589 0 01-1.309.578zm7.183-3.494v2.389a1.161 1.161 0 01-.281.816.965.965 0 01-.748.306.743.743 0 01-.591-.221 1.04 1.04 0 01-.191-.689v-2.6H7.187v2.593A1.483 1.483 0 008.76 6.199a1.606 1.606 0 00.782-.187 1.4 1.4 0 00.544-.544v.663h1.037V1.838h-1.071zm5.142.8v-.8h-1.139v-1.4l-1.062.357v1.045h-.825v.8h.825v1.972a1.628 1.628 0 00.391 1.173 1.479 1.479 0 001.122.408 2 2 0 00.68-.1v-.841a1.517 1.517 0 01-.425.068.647.647 0 01-.706-.757V2.641h1.139zm2.729 3.562a2.154 2.154 0 001.3-.349 1.109 1.109 0 00.476-.943 1.086 1.086 0 00-.293-.787 1.855 1.855 0 00-.931-.446l-.731-.161a1.04 1.04 0 01-.421-.187.381.381 0 01-.123-.3.428.428 0 01.2-.374 1.026 1.026 0 01.57-.136 2.217 2.217 0 011.326.476l.314-.722a2.306 2.306 0 00-.748-.4 2.787 2.787 0 00-.884-.14 2.336 2.336 0 00-.926.17 1.444 1.444 0 00-.621.471 1.148 1.148 0 00-.221.693 1.223 1.223 0 001.173 1.2l.714.161a1.33 1.33 0 01.493.2.376.376 0 01.145.31.4.4 0 01-.209.357 1.133 1.133 0 01-.59.128 2.573 2.573 0 01-1.573-.51l-.3.748a2.911 2.911 0 001.853.544zM26.1 1.728a1.675 1.675 0 00-.846.216 1.487 1.487 0 00-.582.6 1.225 1.225 0 00-1.284-.816 1.592 1.592 0 00-.812.2 1.333 1.333 0 00-.539.586l-.077-.68h-.994a9.8 9.8 0 01.068 1.216v3.077h1.054v-2.4a1.309 1.309 0 01.255-.855.856.856 0 01.7-.31.644.644 0 01.548.23 1.217 1.217 0 01.174.731v2.6h1.063v-2.4a1.325 1.325 0 01.25-.855.844.844 0 01.693-.31.635.635 0 01.548.225 1.264 1.264 0 01.166.736v2.6h1.063V3.484a2.08 2.08 0 00-.357-1.331 1.324 1.324 0 00-1.088-.437zm6.06.11v.643a1.393 1.393 0 00-.561-.557 1.713 1.713 0 00-.833-.2 1.76 1.76 0 00-.986.284 1.907 1.907 0 00-.676.8 2.743 2.743 0 00-.242 1.178A2.68 2.68 0 0029.1 5.15a1.792 1.792 0 00.671.774 1.836 1.836 0 001 .272 1.713 1.713 0 00.833-.2 1.387 1.387 0 00.561-.557v.689h1.045V1.835h-1.045zm-1.105 3.528a1.013 1.013 0 01-.829-.357 1.571 1.571 0 01-.293-1.02 1.678 1.678 0 01.293-1.05.98.98 0 01.82-.378.993.993 0 01.825.365 1.657 1.657 0 01.289 1.046A1.623 1.623 0 0131.871 5a.981.981 0 01-.816.366zm6.043-3.63a1.447 1.447 0 00-.79.221 1.271 1.271 0 00-.51.638l-.085-.757h-1a9.607 9.607 0 01.068 1.216v3.077h1.054V3.81a1.2 1.2 0 01.285-.833 1.063 1.063 0 01.829-.314 1.5 1.5 0 01.561.11l.008-.969a1.2 1.2 0 00-.425-.068zm4.327.9v-.8h-1.139v-1.4l-1.063.357v1.045h-.824v.8h.824V4.61a1.628 1.628 0 00.391 1.173 1.482 1.482 0 001.122.408 2 2 0 00.68-.1V5.25a1.517 1.517 0 01-.425.068.647.647 0 01-.7-.757V2.64h1.139zm5.083 3.494V.081h-1.1v6.052h1.1zm4.113-4.4a1.72 1.72 0 00-.854.212 1.553 1.553 0 00-.6.6l-.077-.706h-.994a9.8 9.8 0 01.068 1.216v3.077h1.054V3.698a1.139 1.139 0 01.3-.821 1.038 1.038 0 01.782-.31.743.743 0 01.6.234 1.154 1.154 0 01.195.744v2.584h1.063V3.494q0-1.769-1.539-1.768zm5.585.909v-.8h-1.139v-1.4l-1.063.357v1.045h-.824v.8h.824v1.972a1.632 1.632 0 00.391 1.173 1.482 1.482 0 001.122.408 2 2 0 00.68-.1v-.841a1.512 1.512 0 01-.425.068.647.647 0 01-.7-.757V2.643h1.139zm4.913 1.241a2.284 2.284 0 00-.514-1.577 1.785 1.785 0 00-1.4-.573 2.067 2.067 0 00-1.079.284 1.953 1.953 0 00-.74.795 2.509 2.509 0 00-.263 1.165 2.19 2.19 0 00.6 1.632 2.263 2.263 0 001.658.6 2.847 2.847 0 00.905-.149 2.389 2.389 0 00.752-.395l-.306-.731a2.116 2.116 0 01-1.309.459 1.209 1.209 0 01-.922-.328 1.549 1.549 0 01-.344-1.015h2.958v-.166zm-1.887-1.385a.893.893 0 01.667.246 1.188 1.188 0 01.293.731h-2a1.235 1.235 0 01.344-.727.975.975 0 01.693-.25zm5.525-.757a1.45 1.45 0 00-.791.221 1.282 1.282 0 00-.51.638l-.085-.757h-.994a9.8 9.8 0 01.068 1.216v3.077h1.054V3.812a1.2 1.2 0 01.285-.833 1.061 1.061 0 01.828-.314 1.487 1.487 0 01.561.11l.009-.969a1.2 1.2 0 00-.425-.068zm5.117 2.142a2.284 2.284 0 00-.514-1.577 1.785 1.785 0 00-1.4-.573 2.067 2.067 0 00-1.079.284 1.946 1.946 0 00-.74.795 2.509 2.509 0 00-.263 1.165 2.19 2.19 0 00.6 1.632 2.263 2.263 0 001.658.6 2.847 2.847 0 00.905-.149 2.389 2.389 0 00.752-.395l-.306-.731a2.116 2.116 0 01-1.309.459 1.209 1.209 0 01-.922-.328 1.543 1.543 0 01-.344-1.015h2.958v-.166zm-1.887-1.385a.893.893 0 01.667.246 1.188 1.188 0 01.293.731h-2a1.235 1.235 0 01.344-.727.973.973 0 01.693-.25zm4.785 3.706a2.158 2.158 0 001.3-.349 1.109 1.109 0 00.476-.943 1.086 1.086 0 00-.293-.787 1.855 1.855 0 00-.931-.446l-.731-.161a1.033 1.033 0 01-.421-.187.381.381 0 01-.123-.3.428.428 0 01.2-.374 1.025 1.025 0 01.569-.136 2.212 2.212 0 011.326.476l.315-.722a2.316 2.316 0 00-.748-.4 2.791 2.791 0 00-.884-.14 2.341 2.341 0 00-.927.17 1.447 1.447 0 00-.62.471 1.141 1.141 0 00-.221.693 1.223 1.223 0 001.173 1.2l.714.161a1.338 1.338 0 01.493.2.375.375 0 01.144.31.4.4 0 01-.208.357 1.137 1.137 0 01-.591.128 2.572 2.572 0 01-1.572-.51l-.3.748a2.912 2.912 0 001.853.544zm5.559-3.562v-.8h-1.139v-1.4L76.13.796v1.045h-.825v.8h.826v1.972a1.628 1.628 0 00.39 1.168 1.479 1.479 0 001.122.408 2 2 0 00.68-.1v-.841a1.517 1.517 0 01-.425.068.647.647 0 01-.706-.757V2.638h1.139z" fill="#fff" fill-rule="evenodd"/></svg>