<svg xmlns="http://www.w3.org/2000/svg" width="178.25" height="21.687"><path data-name="pennies to perks" d="M7.205 5.071a4.478 4.478 0 00-2.3.586 3.451 3.451 0 00-1.46 1.6l-.227-1.895H.004a26.464 26.464 0 01.181 3.272v13.047h3.418v-6.57a3.457 3.457 0 001.449 1.377 4.585 4.585 0 002.15.5 4.887 4.887 0 002.649-.722 4.762 4.762 0 001.788-2.065 7.194 7.194 0 00.634-3.1 7.309 7.309 0 00-.645-3.136 5.034 5.034 0 00-1.8-2.132 4.687 4.687 0 00-2.626-.756zm-.973 9.318a2.368 2.368 0 01-1.958-.857 3.875 3.875 0 01-.691-2.482 3.922 3.922 0 01.691-2.493 2.357 2.357 0 011.958-.869 2.3 2.3 0 011.935.9 4.035 4.035 0 01.691 2.5 3.838 3.838 0 01-.679 2.448 2.352 2.352 0 01-1.947.846zm18.539-3.52a6.109 6.109 0 00-1.4-4.23 4.876 4.876 0 00-3.825-1.568 5.666 5.666 0 00-2.92.756 5.191 5.191 0 00-2 2.121 6.6 6.6 0 00-.713 3.1 5.743 5.743 0 001.653 4.343 6.284 6.284 0 004.55 1.591 8.242 8.242 0 002.433-.372 6.012 6.012 0 002.026-1.027l-.905-2.3a5.632 5.632 0 01-1.63.857 5.56 5.56 0 01-1.766.293 3.043 3.043 0 01-2.218-.733 3.444 3.444 0 01-.838-2.335h7.561v-.5zm-5.139-3.407q1.925 0 2.2 2.212h-4.55a2.825 2.825 0 01.781-1.647 2.2 2.2 0 011.573-.565zm14.374-2.391a4.552 4.552 0 00-2.23.541 4.214 4.214 0 00-1.6 1.557l-.227-1.805h-3.214a26.66 26.66 0 01.181 3.272v8.167h3.418v-6.407a2.717 2.717 0 01.679-1.941 2.37 2.37 0 011.811-.722 1.676 1.676 0 011.392.553 2.8 2.8 0 01.442 1.749v6.768h3.418V9.881q0-4.806-4.075-4.806zm13.876 0a4.552 4.552 0 00-2.23.541 4.223 4.223 0 00-1.6 1.557l-.226-1.805h-3.214a26.66 26.66 0 01.181 3.272v8.167h3.418v-6.407a2.717 2.717 0 01.679-1.941 2.37 2.37 0 011.811-.722 1.676 1.676 0 011.392.553 2.8 2.8 0 01.441 1.749v6.768h3.418V9.881q0-4.806-4.074-4.806zm10.209 11.732V5.364h-3.419v11.439h3.419zM54.559 3.198h3.645v-3.2h-3.645v3.2zm16.615 7.671a6.114 6.114 0 00-1.4-4.23 4.876 4.876 0 00-3.826-1.568 5.666 5.666 0 00-2.92.756 5.182 5.182 0 00-2 2.121 6.592 6.592 0 00-.713 3.1 5.743 5.743 0 001.652 4.343 6.284 6.284 0 004.55 1.591 8.242 8.242 0 002.433-.372 6.012 6.012 0 002.026-1.027l-.905-2.3a5.619 5.619 0 01-1.63.857 5.56 5.56 0 01-1.766.293 3.043 3.043 0 01-2.218-.733 3.449 3.449 0 01-.838-2.335h7.561v-.5zm-5.138-3.407q1.923 0 2.195 2.212h-4.55a2.825 2.825 0 01.781-1.647 2.206 2.206 0 011.574-.565zm11.68 9.522a6.044 6.044 0 003.6-.948 3.007 3.007 0 001.313-2.572 2.972 2.972 0 00-.793-2.166 5.14 5.14 0 00-2.558-1.218l-1.924-.429a2.443 2.443 0 01-1.007-.395.768.768 0 01-.283-.62.913.913 0 01.475-.813 2.5 2.5 0 011.313-.293 5.454 5.454 0 011.777.316 7.47 7.47 0 011.8.925l.951-2.279a7.261 7.261 0 00-2.106-1.049 7.911 7.911 0 00-2.4-.372 6.607 6.607 0 00-2.558.462 4.044 4.044 0 00-1.732 1.3 3.087 3.087 0 00-.622 1.9 2.85 2.85 0 00.781 2.1 4.8 4.8 0 002.433 1.151l1.879.429a3.329 3.329 0 011.2.428.8.8 0 01.339.677.859.859 0 01-.475.79 2.774 2.774 0 01-1.358.271 7.488 7.488 0 01-2.264-.35 7.01 7.01 0 01-2.014-1l-.906 2.369a8.428 8.428 0 005.139 1.4zm20.575-9.07v-2.55h-2.92v-3.79l-3.418 1.105v2.685H89.78v2.55h2.173v4.512a4.728 4.728 0 001.121 3.362 4.232 4.232 0 003.248 1.2 5.444 5.444 0 001.969-.316v-2.64a4.7 4.7 0 01-1.131.158 1.874 1.874 0 01-1.291-.44 1.76 1.76 0 01-.5-1.387V7.918h2.92zm7.221 9.07a6.646 6.646 0 003.169-.722 5 5 0 002.094-2.076 7.145 7.145 0 000-6.317 5 5 0 00-2.094-2.076 6.657 6.657 0 00-3.169-.722 6.777 6.777 0 00-3.2.722 4.988 4.988 0 00-2.105 2.076 7.145 7.145 0 000 6.317 4.988 4.988 0 002.105 2.076 6.765 6.765 0 003.2.722zm0-2.6q-2.647 0-2.648-3.362a3.954 3.954 0 01.679-2.515 2.377 2.377 0 011.969-.846 2.321 2.321 0 011.936.846 5.1 5.1 0 010 5.042 2.334 2.334 0 01-1.936.835zm21.572-9.318a4.484 4.484 0 00-2.3.586 3.461 3.461 0 00-1.46 1.6l-.226-1.895h-3.214a26.66 26.66 0 01.181 3.272v13.052h3.418v-6.57a3.457 3.457 0 001.449 1.377 4.583 4.583 0 002.15.5 4.881 4.881 0 002.648-.722 4.757 4.757 0 001.789-2.065 7.194 7.194 0 00.633-3.1 7.309 7.309 0 00-.645-3.136 5.032 5.032 0 00-1.8-2.132 4.687 4.687 0 00-2.626-.756zm-.973 9.318a2.367 2.367 0 01-1.958-.857 3.875 3.875 0 01-.691-2.482 3.922 3.922 0 01.691-2.493 2.356 2.356 0 011.958-.869 2.3 2.3 0 011.935.9 4.035 4.035 0 01.69 2.5 3.832 3.832 0 01-.679 2.448 2.349 2.349 0 01-1.946.846zm18.539-3.52a6.109 6.109 0 00-1.4-4.23 4.876 4.876 0 00-3.825-1.568 5.666 5.666 0 00-2.92.756 5.185 5.185 0 00-2 2.121 6.6 6.6 0 00-.713 3.1 5.743 5.743 0 001.653 4.343 6.284 6.284 0 004.55 1.591 8.252 8.252 0 002.433-.372 6.012 6.012 0 002.026-1.027l-.906-2.3a5.626 5.626 0 01-1.629.857 5.56 5.56 0 01-1.766.293 3.043 3.043 0 01-2.218-.733 3.444 3.444 0 01-.838-2.335h7.561v-.5zm-5.139-3.407q1.924 0 2.2 2.212h-4.55a2.825 2.825 0 01.781-1.647 2.2 2.2 0 011.573-.565zm13.966-2.369a3.812 3.812 0 00-2.071.576 3.356 3.356 0 00-1.347 1.658l-.226-1.963h-3.214a26.66 26.66 0 01.181 3.272v8.167h3.418v-5.979a2.8 2.8 0 01.713-2.038 2.762 2.762 0 012.071-.733 3.989 3.989 0 011.675.384l.023-3.114a2.965 2.965 0 00-1.223-.226zm9.554 5.781l4.866-5.482h-4.1l-4.3 4.9V.197h-3.418v16.606h3.418v-5.122l4.5 5.121h4.188zm10.3 6.115a6.042 6.042 0 003.6-.948 3.007 3.007 0 001.313-2.572 2.971 2.971 0 00-.792-2.166 5.14 5.14 0 00-2.558-1.218l-1.924-.429a2.437 2.437 0 01-1.007-.395.768.768 0 01-.283-.62.911.911 0 01.475-.813 2.5 2.5 0 011.313-.293 5.459 5.459 0 011.777.316 7.47 7.47 0 011.8.925l.95-2.279a7.256 7.256 0 00-2.105-1.049 7.915 7.915 0 00-2.4-.372 6.607 6.607 0 00-2.558.462 4.038 4.038 0 00-1.732 1.3 3.087 3.087 0 00-.622 1.9 2.85 2.85 0 00.781 2.1 4.788 4.788 0 002.433 1.151l1.879.429a3.314 3.314 0 011.2.428.8.8 0 01.34.677.859.859 0 01-.475.79 2.774 2.774 0 01-1.358.271 7.488 7.488 0 01-2.264-.35 7.016 7.016 0 01-2.015-1l-.9 2.369a8.425 8.425 0 005.138 1.4z" fill="#f36a20" fill-rule="evenodd"/></svg>