<svg xmlns="http://www.w3.org/2000/svg" width="151.157" height="21.781"><path data-name="Upgrade from" d="M6.938 16.931a7.045 7.045 0 005.15-1.748 6.826 6.826 0 001.777-5.088V.663h-3.486v9.59a4.293 4.293 0 01-.883 2.921 3.222 3.222 0 01-2.558 1 3.259 3.259 0 01-2.569-1 4.259 4.259 0 01-.894-2.921V.663H.012v9.432a6.845 6.845 0 001.765 5.1 7.066 7.066 0 005.161 1.737zM23.779 4.995a4.479 4.479 0 00-2.3.587 3.447 3.447 0 00-1.46 1.6l-.226-1.895h-3.215a26.458 26.458 0 01.181 3.271V21.6h3.418v-6.566a3.449 3.449 0 001.449 1.376 4.574 4.574 0 002.15.5 4.9 4.9 0 002.649-.722 4.76 4.76 0 001.788-2.065 7.2 7.2 0 00.634-3.1 7.3 7.3 0 00-.645-3.136 5.024 5.024 0 00-1.8-2.133 4.693 4.693 0 00-2.626-.756zm-.973 9.319a2.371 2.371 0 01-1.958-.857 3.881 3.881 0 01-.69-2.482 3.933 3.933 0 01.69-2.494 2.359 2.359 0 011.958-.868 2.3 2.3 0 011.936.9 4.04 4.04 0 01.69 2.5 3.832 3.832 0 01-.679 2.448 2.352 2.352 0 01-1.947.846zm16.457-9.025v1.624a3.749 3.749 0 00-1.494-1.4 4.56 4.56 0 00-2.174-.519 4.946 4.946 0 00-2.648.711 4.888 4.888 0 00-1.811 2.008 7.14 7.14 0 000 5.979 4.884 4.884 0 001.811 2.009 4.954 4.954 0 002.648.71 4.417 4.417 0 003.668-1.94v1.985a2.751 2.751 0 01-.725 2.087 3.084 3.084 0 01-2.2.689 9.189 9.189 0 01-4.119-1.038l-.521 2.527a10.071 10.071 0 004.754 1.06 6.7 6.7 0 004.617-1.421 5.289 5.289 0 001.585-4.152V5.288h-3.4zm-2.672 8.529a2.5 2.5 0 01-1.992-.835 3.36 3.36 0 01-.724-2.279 3.317 3.317 0 01.724-2.268 2.515 2.515 0 011.992-.823 2.448 2.448 0 011.97.823 4.024 4.024 0 01-.011 4.558 2.458 2.458 0 01-1.959.824zm15.483-8.8a3.82 3.82 0 00-2.071.575 3.362 3.362 0 00-1.347 1.659l-.226-1.963h-3.211A26.655 26.655 0 0145.4 8.56v8.168h3.419v-5.979a2.8 2.8 0 01.713-2.042 2.758 2.758 0 012.071-.733 4 4 0 011.675.383l.023-3.113a2.949 2.949 0 00-1.223-.226zm10.5.271v1.624a3.772 3.772 0 00-1.471-1.4 4.426 4.426 0 00-2.15-.519 4.69 4.69 0 00-2.626.756 5.024 5.024 0 00-1.8 2.133 7.3 7.3 0 00-.645 3.136 7.083 7.083 0 00.645 3.1 4.7 4.7 0 004.426 2.787 4.577 4.577 0 002.15-.5 3.6 3.6 0 001.471-1.376v1.692h3.373V5.289h-3.373zm-2.625 9.025a2.409 2.409 0 01-1.981-.846 3.784 3.784 0 01-.691-2.448 3.99 3.99 0 01.7-2.5 2.353 2.353 0 011.97-.9 2.325 2.325 0 011.946.868 3.977 3.977 0 01.679 2.494 3.924 3.924 0 01-.679 2.482 2.337 2.337 0 01-1.946.857zM76.79.122v6.7a3.588 3.588 0 00-1.471-1.341 4.556 4.556 0 00-2.1-.486 4.775 4.775 0 00-2.637.734 4.938 4.938 0 00-1.788 2.076 7.083 7.083 0 00-.645 3.1 7.233 7.233 0 00.645 3.125 5.042 5.042 0 001.8 2.121 4.687 4.687 0 002.626.756 4.578 4.578 0 002.151-.5 3.6 3.6 0 001.471-1.376v1.692h3.373V.122h-3.418zm-2.581 14.192a2.362 2.362 0 01-1.969-.891 3.979 3.979 0 01-.7-2.516 3.754 3.754 0 01.7-2.437 2.4 2.4 0 011.969-.857 2.337 2.337 0 011.936.868 3.891 3.891 0 01.69 2.471 3.972 3.972 0 01-.679 2.493 2.326 2.326 0 01-1.947.869zm19.06-3.52a6.106 6.106 0 00-1.4-4.23 4.873 4.873 0 00-3.825-1.569 5.675 5.675 0 00-2.92.756 5.185 5.185 0 00-2 2.121 6.608 6.608 0 00-.713 3.1 5.743 5.743 0 001.653 4.343 6.287 6.287 0 004.549 1.591 8.222 8.222 0 002.434-.373 6.029 6.029 0 002.026-1.026l-.906-2.3a5.654 5.654 0 01-1.629.858 5.593 5.593 0 01-1.766.293 3.043 3.043 0 01-2.218-.733 3.444 3.444 0 01-.838-2.336h7.561v-.5zM88.13 7.387q1.925 0 2.2 2.211h-4.55a2.825 2.825 0 01.781-1.647 2.2 2.2 0 011.573-.564zm19.67-4.58a4.909 4.909 0 011.11.158V.302a5.545 5.545 0 00-1.947-.293 4.167 4.167 0 00-3.214 1.2 4.756 4.756 0 00-1.11 3.362v.722h-2.15v2.549h2.15v8.89h3.418v-8.89h2.4V5.293h-2.4v-.632a1.84 1.84 0 01.476-1.41 1.793 1.793 0 011.267-.44zm9.372 2.211a3.823 3.823 0 00-2.072.575 3.355 3.355 0 00-1.346 1.659l-.227-1.963h-3.208a26.458 26.458 0 01.181 3.271v8.168h3.419v-5.979a2.808 2.808 0 01.713-2.042 2.758 2.758 0 012.071-.733 4 4 0 011.675.383l.023-3.113a2.947 2.947 0 00-1.222-.226zm7.854 11.891a6.657 6.657 0 003.169-.722 5.014 5.014 0 002.094-2.076 7.147 7.147 0 000-6.318 5.014 5.014 0 00-2.094-2.076 6.657 6.657 0 00-3.169-.722 6.777 6.777 0 00-3.2.722 5 5 0 00-2.107 2.076 7.147 7.147 0 000 6.318 5 5 0 002.105 2.076 6.777 6.777 0 003.2.722zm0-2.6q-2.647 0-2.648-3.362a3.957 3.957 0 01.679-2.516 2.377 2.377 0 011.969-.846 2.321 2.321 0 011.936.846 5.1 5.1 0 010 5.043 2.334 2.334 0 01-1.936.835zm22.229-9.319a4.367 4.367 0 00-2.207.576 4.183 4.183 0 00-1.573 1.545 3.294 3.294 0 00-3.4-2.121 4.407 4.407 0 00-2.162.519 3.621 3.621 0 00-1.46 1.49l-.2-1.715h-3.215a26.458 26.458 0 01.181 3.271v8.168h3.418v-6.312a3.174 3.174 0 01.578-2.031 1.954 1.954 0 011.618-.722 1.452 1.452 0 011.256.541 2.937 2.937 0 01.4 1.715v6.814h3.418v-6.317a3.222 3.222 0 01.565-2.031 1.925 1.925 0 011.608-.722 1.461 1.461 0 011.267.53 2.994 2.994 0 01.385 1.726v6.814h3.418V9.801a5.682 5.682 0 00-.962-3.621 3.551 3.551 0 00-2.931-1.185z" fill="#f36a20" fill-rule="evenodd"/></svg>