<svg xmlns="http://www.w3.org/2000/svg" width="130.125" height="16.969"><path data-name="not interest." d="M7.273 5.071a4.552 4.552 0 00-2.23.541 4.214 4.214 0 00-1.6 1.557l-.227-1.805H.002a26.464 26.464 0 01.181 3.272v8.167h3.418v-6.407a2.717 2.717 0 01.679-1.941 2.37 2.37 0 011.811-.722 1.676 1.676 0 011.392.553 2.8 2.8 0 01.442 1.749v6.768h3.418V9.881q0-4.806-4.075-4.806zm12.269 11.91a6.648 6.648 0 003.169-.722 5.013 5.013 0 002.094-2.076 7.154 7.154 0 000-6.317 5.013 5.013 0 00-2.094-2.076 6.66 6.66 0 00-3.169-.722 6.775 6.775 0 00-3.2.722 4.983 4.983 0 00-2.105 2.076 7.145 7.145 0 000 6.317 4.983 4.983 0 002.105 2.076 6.763 6.763 0 003.2.722zm0-2.6q-2.649 0-2.649-3.362a3.96 3.96 0 01.679-2.515 2.379 2.379 0 011.97-.846 2.318 2.318 0 011.935.846 5.091 5.091 0 010 5.042 2.33 2.33 0 01-1.935.835zm15.3-6.475v-2.55h-2.92v-3.79l-3.418 1.105v2.685h-2.173v2.55h2.173v4.512a4.728 4.728 0 001.12 3.362 4.234 4.234 0 003.248 1.2 5.454 5.454 0 001.97-.316v-2.64a4.708 4.708 0 01-1.132.158 1.871 1.871 0 01-1.29-.44 1.76 1.76 0 01-.5-1.387V7.91h2.92zm11.521 8.889V5.364h-3.418v11.439h3.418zM42.831 3.198h3.644v-3.2h-3.644v3.2zm13.4 1.873a4.546 4.546 0 00-2.229.541 4.209 4.209 0 00-1.6 1.557l-.227-1.805h-3.214a26.464 26.464 0 01.181 3.272v8.167h3.418v-6.407a2.722 2.722 0 01.679-1.941 2.37 2.37 0 011.811-.722 1.676 1.676 0 011.392.553 2.8 2.8 0 01.442 1.749v6.768h3.418V9.881q0-4.806-4.075-4.806zm14.012 2.843v-2.55h-2.912v-3.79l-3.418 1.105v2.685h-2.182v2.55h2.173v4.512a4.728 4.728 0 001.12 3.362 4.235 4.235 0 003.249 1.2 5.448 5.448 0 001.969-.316v-2.64a4.708 4.708 0 01-1.132.158 1.873 1.873 0 01-1.29-.44 1.76 1.76 0 01-.5-1.387V7.918h2.92zm12.042 2.955a6.114 6.114 0 00-1.4-4.23 4.876 4.876 0 00-3.826-1.568 5.668 5.668 0 00-2.92.756 5.182 5.182 0 00-2 2.121 6.6 6.6 0 00-.713 3.1 5.747 5.747 0 001.652 4.343 6.285 6.285 0 004.55 1.591 8.254 8.254 0 002.434-.372 6.022 6.022 0 002.026-1.027l-.906-2.3a5.619 5.619 0 01-1.63.857 5.554 5.554 0 01-1.765.293 3.045 3.045 0 01-2.219-.733 3.443 3.443 0 01-.837-2.335h7.56v-.5zm-5.138-3.407q1.923 0 2.2 2.212h-4.55a2.819 2.819 0 01.781-1.647 2.2 2.2 0 011.573-.565zm13.966-2.369a3.81 3.81 0 00-2.071.576 3.35 3.35 0 00-1.347 1.658l-.226-1.963h-3.215a26.464 26.464 0 01.181 3.272v8.167h3.418v-5.979a2.808 2.808 0 01.713-2.042 2.765 2.765 0 012.072-.733 3.993 3.993 0 011.675.384l.022-3.114a2.96 2.96 0 00-1.222-.226zm12.676 5.776a6.114 6.114 0 00-1.4-4.23 4.876 4.876 0 00-3.826-1.568 5.668 5.668 0 00-2.92.756 5.182 5.182 0 00-2 2.121 6.592 6.592 0 00-.713 3.1 5.747 5.747 0 001.652 4.343 6.285 6.285 0 004.55 1.591 8.254 8.254 0 002.434-.372 6.007 6.007 0 002.025-1.027l-.905-2.3a5.619 5.619 0 01-1.63.857 5.554 5.554 0 01-1.765.293 3.044 3.044 0 01-2.219-.733 3.443 3.443 0 01-.837-2.335h7.56v-.5zm-5.138-3.407q1.923 0 2.195 2.212h-4.549a2.819 2.819 0 01.781-1.647 2.2 2.2 0 011.573-.565zm11.68 9.519a6.042 6.042 0 003.6-.948 3.007 3.007 0 001.313-2.572 2.971 2.971 0 00-.792-2.166 5.144 5.144 0 00-2.558-1.218l-1.924-.429a2.442 2.442 0 01-1.008-.395.768.768 0 01-.283-.62.912.912 0 01.476-.813 2.5 2.5 0 011.313-.293 5.453 5.453 0 011.776.316 7.433 7.433 0 011.8.925l.951-2.279a7.268 7.268 0 00-2.105-1.049 7.922 7.922 0 00-2.4-.372 6.611 6.611 0 00-2.558.462 4.041 4.041 0 00-1.731 1.3 3.081 3.081 0 00-.623 1.9 2.85 2.85 0 00.781 2.1 4.8 4.8 0 002.433 1.151l1.879.429a3.314 3.314 0 011.2.428.8.8 0 01.34.677.86.86 0 01-.476.79 2.771 2.771 0 01-1.358.271 7.493 7.493 0 01-2.264-.35 7.01 7.01 0 01-2.014-1l-.906 2.369a8.43 8.43 0 005.139 1.4zm14.1-9.07v-2.55h-2.92v-3.79l-3.418 1.105v2.685h-2.173v2.55h2.173v4.512a4.728 4.728 0 001.12 3.362 4.235 4.235 0 003.249 1.2 5.448 5.448 0 001.969-.316v-2.64a4.708 4.708 0 01-1.132.158 1.873 1.873 0 01-1.29-.44 1.76 1.76 0 01-.5-1.387V7.915h2.92zm2.014 8.889h3.69v-3.629h-3.69v3.632z" fill="#fff" fill-rule="evenodd"/></svg>