<svg xmlns="http://www.w3.org/2000/svg" width="218.031" height="22"><path data-name="AAdvantage® miles," d="M17.652 16.96L10.252.896H7.4L0 16.96h3.554l1.539-3.564h7.538l1.539 3.564h3.486zM8.869 4.686l2.6 6.025h-5.2zM34.832 16.96L27.432.896h-2.853l-7.4 16.064h3.554l1.539-3.564h7.538l1.539 3.564h3.486zM26.049 4.686l2.6 6.025h-5.206zM44.067.354v6.7a3.585 3.585 0 00-1.471-1.342 4.57 4.57 0 00-2.1-.485 4.781 4.781 0 00-2.637.733 4.934 4.934 0 00-1.79 2.078 7.083 7.083 0 00-.645 3.1 7.23 7.23 0 00.645 3.125 5.031 5.031 0 001.8 2.121 4.687 4.687 0 002.626.756 4.588 4.588 0 002.15-.5 3.6 3.6 0 001.471-1.377v1.692h3.373V.354h-3.42zm-2.58 14.192a2.364 2.364 0 01-1.97-.891 3.979 3.979 0 01-.7-2.516 3.751 3.751 0 01.7-2.436 2.4 2.4 0 011.97-.858 2.333 2.333 0 011.935.869 3.888 3.888 0 01.69 2.47 3.975 3.975 0 01-.679 2.494 2.322 2.322 0 01-1.946.868zm13.672-1.6l-2.943-7.4h-3.577l4.98 11.416h2.9l5.048-11.416h-3.373zm15.437-7.423v1.625a3.758 3.758 0 00-1.471-1.4 4.415 4.415 0 00-2.15-.519 4.682 4.682 0 00-2.626.756 5.027 5.027 0 00-1.8 2.132 7.309 7.309 0 00-.645 3.136 7.08 7.08 0 00.645 3.1 4.7 4.7 0 004.426 2.787 4.588 4.588 0 002.15-.5 3.6 3.6 0 001.471-1.377v1.692h3.373V5.521h-3.373zm-2.625 9.025a2.409 2.409 0 01-1.981-.846 3.784 3.784 0 01-.69-2.448 3.985 3.985 0 01.7-2.5 2.351 2.351 0 011.97-.9 2.323 2.323 0 011.946.869 3.972 3.972 0 01.679 2.493 3.924 3.924 0 01-.679 2.482 2.334 2.334 0 01-1.946.857zM83.816 5.23a4.549 4.549 0 00-2.23.541 4.223 4.223 0 00-1.6 1.557l-.226-1.805h-3.215a26.45 26.45 0 01.182 3.272v8.167h3.418v-6.407a2.717 2.717 0 01.679-1.941 2.368 2.368 0 011.811-.722 1.678 1.678 0 011.392.553 2.8 2.8 0 01.441 1.749v6.768h3.418v-6.924q0-4.806-4.074-4.806zm14.011 2.843v-2.55h-2.92v-3.79l-3.418 1.105v2.685h-2.173v2.55h2.173v4.512a4.728 4.728 0 001.121 3.362 4.232 4.232 0 003.248 1.2 5.444 5.444 0 001.969-.316v-2.64a4.7 4.7 0 01-1.132.158 1.873 1.873 0 01-1.29-.44 1.76 1.76 0 01-.5-1.387V8.077h2.92zm9.87-2.55v1.625a3.767 3.767 0 00-1.472-1.4 4.415 4.415 0 00-2.15-.519 4.687 4.687 0 00-2.626.756 5.027 5.027 0 00-1.8 2.132 7.309 7.309 0 00-.645 3.136 7.08 7.08 0 00.645 3.1 4.7 4.7 0 004.426 2.787 4.588 4.588 0 002.15-.5 3.613 3.613 0 001.472-1.377v1.692h3.372V5.521h-3.372zm-2.626 9.025a2.41 2.41 0 01-1.981-.846 3.79 3.79 0 01-.69-2.448 3.985 3.985 0 01.7-2.5 2.351 2.351 0 011.97-.9 2.323 2.323 0 011.946.869 3.972 3.972 0 01.68 2.493 3.924 3.924 0 01-.68 2.482 2.334 2.334 0 01-1.946.857zm16.977-9.025v1.625a3.735 3.735 0 00-1.494-1.4 4.547 4.547 0 00-2.173-.519 4.95 4.95 0 00-2.649.711 4.888 4.888 0 00-1.811 2.008 7.14 7.14 0 000 5.979 4.894 4.894 0 001.812 2.011 4.95 4.95 0 002.649.711 4.414 4.414 0 003.667-1.941v1.986a2.752 2.752 0 01-.725 2.087 3.087 3.087 0 01-2.195.688 9.177 9.177 0 01-4.12-1.038l-.521 2.527a10.071 10.071 0 004.754 1.061 6.7 6.7 0 004.618-1.422 5.291 5.291 0 001.584-4.151V5.521h-3.4zm-2.671 8.529a2.5 2.5 0 01-1.992-.835 3.353 3.353 0 01-.725-2.279 3.31 3.31 0 01.725-2.267 2.513 2.513 0 011.992-.824 2.447 2.447 0 011.969.824 4.023 4.023 0 01-.011 4.557 2.454 2.454 0 01-1.958.824zm19.1-3.024a6.114 6.114 0 00-1.4-4.23 4.876 4.876 0 00-3.826-1.568 5.668 5.668 0 00-2.92.756 5.182 5.182 0 00-2 2.121 6.6 6.6 0 00-.713 3.1 5.747 5.747 0 001.652 4.343 6.285 6.285 0 004.55 1.591 8.254 8.254 0 002.434-.372 6.007 6.007 0 002.025-1.027l-.905-2.3a5.619 5.619 0 01-1.63.857 5.554 5.554 0 01-1.765.293 3.044 3.044 0 01-2.219-.733 3.443 3.443 0 01-.837-2.335h7.56v-.5zm-5.138-3.407q1.923 0 2.195 2.212h-4.549a2.819 2.819 0 01.781-1.647 2.2 2.2 0 011.573-.565zm11.345-7.6a4.783 4.783 0 00-2.422.624 4.6 4.6 0 00-1.716 1.7 4.954 4.954 0 000 4.821 4.625 4.625 0 001.716 1.716 4.943 4.943 0 004.837 0 4.612 4.612 0 001.722-1.716 4.936 4.936 0 000-4.815 4.587 4.587 0 00-1.716-1.71 4.782 4.782 0 00-2.421-.624zm2.85 7.484l-.726-1.42a1.277 1.277 0 00-.415-.461 1.178 1.178 0 00-.548-.2 1.784 1.784 0 001-.625 1.705 1.705 0 00.35-1.072 1.646 1.646 0 00-.554-1.3 2.326 2.326 0 00-1.584-.487h-2.688v5.63h1.755V5.538h.317a.335.335 0 01.277.211l.9 1.815h1.874a3.671 3.671 0 01-1.247.835 4.018 4.018 0 01-1.55.3 3.961 3.961 0 01-2.013-.513 3.645 3.645 0 01-1.392-1.414 4.07 4.07 0 01-.5-2.019 4.007 4.007 0 01.5-2 3.656 3.656 0 011.392-1.408 4.179 4.179 0 014.012 0 3.656 3.656 0 011.392 1.408 4.007 4.007 0 01.5 2 4.2 4.2 0 01-.271 1.519 3.655 3.655 0 01-.772 1.23zm-2.7-3.17h-.726V3.27h.726a.863.863 0 01.521.125.5.5 0 01.165.427.453.453 0 01-.165.395.905.905 0 01-.521.118zm27.054.9a4.379 4.379 0 00-2.207.575 4.193 4.193 0 00-1.573 1.546 3.291 3.291 0 00-3.395-2.121 4.4 4.4 0 00-2.162.519 3.613 3.613 0 00-1.46 1.489l-.2-1.715h-3.222a26.66 26.66 0 01.181 3.272v8.167h3.419V10.65a3.178 3.178 0 01.577-2.031 1.956 1.956 0 011.619-.722 1.452 1.452 0 011.256.542 2.938 2.938 0 01.4 1.715v6.813h3.418V10.65a3.226 3.226 0 01.566-2.031 1.923 1.923 0 011.607-.722 1.462 1.462 0 011.268.53 3 3 0 01.385 1.727v6.813h3.418v-6.929a5.683 5.683 0 00-.962-3.622 3.557 3.557 0 00-2.932-1.184zm10 11.732V5.521h-3.418V16.96h3.418zm-3.531-13.605h3.645v-3.2h-3.645v3.2zm9.733 13.605V.354h-3.418V16.96h3.418zm13.084-5.934a6.109 6.109 0 00-1.4-4.23 4.874 4.874 0 00-3.825-1.568 5.666 5.666 0 00-2.92.756 5.191 5.191 0 00-2 2.121 6.6 6.6 0 00-.713 3.1 5.743 5.743 0 001.653 4.343 6.284 6.284 0 004.55 1.591 8.242 8.242 0 002.433-.372 6.012 6.012 0 002.026-1.027l-.9-2.3a5.632 5.632 0 01-1.63.857 5.56 5.56 0 01-1.766.293 3.043 3.043 0 01-2.218-.733 3.444 3.444 0 01-.838-2.335h7.561v-.5zm-5.139-3.407q1.924 0 2.2 2.212h-4.55a2.825 2.825 0 01.781-1.647 2.2 2.2 0 011.573-.565zm11.68 9.522a6.047 6.047 0 003.6-.948 3.006 3.006 0 001.312-2.572 2.971 2.971 0 00-.792-2.166 5.14 5.14 0 00-2.558-1.218l-1.924-.429a2.437 2.437 0 01-1.007-.395.768.768 0 01-.283-.62.911.911 0 01.475-.813 2.5 2.5 0 011.313-.293 5.454 5.454 0 011.777.316 7.47 7.47 0 011.8.925l.95-2.279a7.256 7.256 0 00-2.105-1.049 7.915 7.915 0 00-2.4-.372 6.607 6.607 0 00-2.558.462 4.038 4.038 0 00-1.732 1.3 3.087 3.087 0 00-.622 1.9 2.85 2.85 0 00.781 2.1 4.788 4.788 0 002.433 1.151l1.879.429a3.329 3.329 0 011.2.428.8.8 0 01.339.677.859.859 0 01-.475.79 2.774 2.774 0 01-1.358.271 7.488 7.488 0 01-2.264-.35 7.016 7.016 0 01-2.015-1l-.9 2.369a8.425 8.425 0 005.138 1.4zm6.61-3.813v3.632h1.7a5.167 5.167 0 01-1.381 2.212l1.336 1.038a6.97 6.97 0 001.573-2.155 6 6 0 00.464-2.4v-2.334h-3.69z" fill="#fff" fill-rule="evenodd"/></svg>