<svg xmlns="http://www.w3.org/2000/svg" width="136.75" height="16.468"><path data-name="Save to earn" d="M6.301 16.462a8.054 8.054 0 004.912-1.32 4.23 4.23 0 001.765-3.576 3.566 3.566 0 00-1.369-2.956 11.281 11.281 0 00-4.471-1.76 13.177 13.177 0 01-2.06-.552 2.556 2.556 0 01-1.03-.643 1.354 1.354 0 01-.305-.9 1.678 1.678 0 01.815-1.466 3.869 3.869 0 012.173-.542 7.55 7.55 0 014.686 1.625l1.131-2.528A6.745 6.745 0 0010.013.491a10.987 10.987 0 00-3.305-.5 8.2 8.2 0 00-3.35.643 5.28 5.28 0 00-2.252 1.794 4.423 4.423 0 00-.8 2.6A4.012 4.012 0 00.883 7.25a4.459 4.459 0 001.834 1.512 14.044 14.044 0 003.384 1.049 9.975 9.975 0 012.66.846 1.347 1.347 0 01.758 1.207 1.508 1.508 0 01-.826 1.365 4.716 4.716 0 01-2.366.486 8.9 8.9 0 01-5.206-1.625l-1.14 2.522a7.989 7.989 0 002.8 1.365 12.681 12.681 0 003.52.485zM23.436 4.82v1.624a3.772 3.772 0 00-1.471-1.4 4.427 4.427 0 00-2.151-.519 4.689 4.689 0 00-2.625.756 5.024 5.024 0 00-1.8 2.133 7.3 7.3 0 00-.645 3.136 7.083 7.083 0 00.645 3.1 4.7 4.7 0 004.425 2.787 4.578 4.578 0 002.151-.5 3.6 3.6 0 001.471-1.376v1.692h3.373V4.82h-3.373zm-2.626 9.025a2.408 2.408 0 01-1.98-.846 3.784 3.784 0 01-.691-2.448 3.99 3.99 0 01.7-2.5 2.353 2.353 0 011.969-.9 2.328 2.328 0 011.947.868 3.977 3.977 0 01.679 2.494 3.924 3.924 0 01-.679 2.482 2.34 2.34 0 01-1.947.857zm13.672-1.6l-2.942-7.4h-3.577l4.98 11.417h2.9l5.048-11.417h-3.373zm17.611-1.918a6.11 6.11 0 00-1.4-4.23 4.874 4.874 0 00-3.826-1.569 5.678 5.678 0 00-2.92.756 5.182 5.182 0 00-2 2.121 6.608 6.608 0 00-.713 3.1 5.747 5.747 0 001.652 4.343 6.29 6.29 0 004.55 1.591 8.222 8.222 0 002.434-.373 6.039 6.039 0 002.026-1.026l-.906-2.3a5.646 5.646 0 01-1.63.858 5.582 5.582 0 01-1.765.293 3.045 3.045 0 01-2.219-.733 3.444 3.444 0 01-.837-2.336h7.56v-.5zM46.955 6.92q1.923 0 2.2 2.211h-4.55a2.819 2.819 0 01.781-1.647 2.2 2.2 0 011.573-.564zm20.87.451V4.822h-2.92V1.031l-3.418 1.106v2.685h-2.173v2.549h2.173v4.513a4.728 4.728 0 001.12 3.362 4.238 4.238 0 003.249 1.2 5.47 5.47 0 001.969-.316v-2.64a4.759 4.759 0 01-1.132.158 1.878 1.878 0 01-1.29-.44 1.761 1.761 0 01-.5-1.388V7.375h2.92zm7.221 9.071a6.66 6.66 0 003.169-.722 5.025 5.025 0 002.094-2.076 7.156 7.156 0 000-6.318 5.025 5.025 0 00-2.094-2.076 6.66 6.66 0 00-3.169-.722 6.775 6.775 0 00-3.2.722 5 5 0 00-2.105 2.076 7.147 7.147 0 000 6.318 5 5 0 002.105 2.076 6.775 6.775 0 003.2.722zm0-2.6q-2.649 0-2.649-3.362a3.964 3.964 0 01.679-2.516 2.379 2.379 0 011.97-.846 2.318 2.318 0 011.935.846 5.093 5.093 0 010 5.043 2.33 2.33 0 01-1.935.835zm24.854-3.52a6.106 6.106 0 00-1.4-4.23 4.873 4.873 0 00-3.825-1.569 5.675 5.675 0 00-2.92.756 5.191 5.191 0 00-2 2.121 6.608 6.608 0 00-.713 3.1 5.743 5.743 0 001.653 4.343 6.288 6.288 0 004.55 1.591 8.211 8.211 0 002.433-.373 6.029 6.029 0 002.026-1.026l-.905-2.3a5.659 5.659 0 01-1.63.858 5.588 5.588 0 01-1.766.293 3.043 3.043 0 01-2.218-.733 3.444 3.444 0 01-.838-2.336h7.561v-.5zm-5.139-3.407q1.924 0 2.2 2.211h-4.55a2.825 2.825 0 01.781-1.647 2.2 2.2 0 011.573-.564zm15.415-2.1v1.624a3.772 3.772 0 00-1.471-1.4 4.426 4.426 0 00-2.15-.519 4.69 4.69 0 00-2.626.756 5.024 5.024 0 00-1.8 2.133 7.3 7.3 0 00-.645 3.136 7.083 7.083 0 00.645 3.1 4.7 4.7 0 004.426 2.787 4.577 4.577 0 002.15-.5 3.6 3.6 0 001.471-1.376v1.692h3.373V4.82h-3.368zm-2.625 9.025a2.409 2.409 0 01-1.981-.846 3.784 3.784 0 01-.691-2.448 3.99 3.99 0 01.7-2.5 2.353 2.353 0 011.97-.9 2.326 2.326 0 011.946.868 3.977 3.977 0 01.679 2.494 3.924 3.924 0 01-.679 2.482 2.338 2.338 0 01-1.946.857zm15.437-9.3a3.82 3.82 0 00-2.071.575 3.362 3.362 0 00-1.347 1.659l-.226-1.963h-3.215a26.458 26.458 0 01.181 3.271v8.168h3.419v-5.979a2.8 2.8 0 01.713-2.042 2.757 2.757 0 012.071-.733 4.006 4.006 0 011.675.383l.023-3.113a2.952 2.952 0 00-1.223-.226zm9.688-.023a4.553 4.553 0 00-2.23.542 4.214 4.214 0 00-1.6 1.557l-.227-1.8h-3.214a26.458 26.458 0 01.181 3.271v8.168h3.418V9.847a2.715 2.715 0 01.679-1.94 2.37 2.37 0 011.811-.722 1.673 1.673 0 011.392.553 2.8 2.8 0 01.442 1.748v6.769h3.418V9.332q0-4.806-4.075-4.806z" fill="#fff" fill-rule="evenodd"/></svg>