<svg xmlns="http://www.w3.org/2000/svg" width="267.16" height="6.59"><path data-name="Bask Bank and BankDirect are divisions of Texas Capital Bank, N" d="M1.93 5.17a3.788 3.788 0 00.82-.08 1.527 1.527 0 00.56-.26 1.29 1.29 0 00.37-.47 1.485 1.485 0 00.15-.66 1.187 1.187 0 00-.25-.77 1.284 1.284 0 00-.71-.46A1.32 1.32 0 003.41 2a1.221 1.221 0 00.17-.61 1.168 1.168 0 00-.2-.67 1.122 1.122 0 00-.55-.48A2.375 2.375 0 001.9.09H-.01v5.08h1.94zM.66.69h1.02a2.8 2.8 0 01.77.07.577.577 0 01.35.26.841.841 0 01.12.45.66.66 0 01-.52.69 2.392 2.392 0 01-.64.06H.66V.69zm0 2.13h1.18a2.352 2.352 0 01.74.09.759.759 0 01.41.29.915.915 0 01.14.5.816.816 0 01-.1.42.736.736 0 01-.26.29 1.206 1.206 0 01-.38.14 4.321 4.321 0 01-.46.02H.66V2.82zm6.61 2.35h.66a1.459 1.459 0 01-.16-.44 8.21 8.21 0 01-.04-1.1v-.84a3.666 3.666 0 00-.03-.57 1.006 1.006 0 00-.2-.43.938.938 0 00-.43-.27 2.073 2.073 0 00-.77-.12 2.628 2.628 0 00-.83.13 1.133 1.133 0 00-.55.38 1.528 1.528 0 00-.28.63l.61.08a.933.933 0 01.31-.54 1.056 1.056 0 01.65-.16 1.038 1.038 0 01.71.21.7.7 0 01.18.54v.16a5.191 5.191 0 01-1.12.22 5.211 5.211 0 00-.55.09 1.555 1.555 0 00-.45.21 1.015 1.015 0 00-.32.36.994.994 0 00-.13.49.978.978 0 00.33.76 1.38 1.38 0 00.93.29 1.923 1.923 0 00.69-.12 2.329 2.329 0 00.67-.41 1.483 1.483 0 00.12.45zM7.1 3.55a1.685 1.685 0 01-.1.63 1.022 1.022 0 01-.42.43 1.316 1.316 0 01-.64.15.82.82 0 01-.55-.16.522.522 0 01-.19-.42.476.476 0 01.09-.29.611.611 0 01.24-.21 2.445 2.445 0 01.55-.12 5.135 5.135 0 001.02-.24v.23zM9 4.96a1.77 1.77 0 001.09.29 1.938 1.938 0 00.78-.15 1.157 1.157 0 00.52-.42 1.01 1.01 0 00.19-.59.951.951 0 00-.15-.54.936.936 0 00-.41-.32 7.751 7.751 0 00-.93-.29c-.3-.09-.49-.14-.55-.16a.57.57 0 01-.24-.17.341.341 0 01-.07-.22.415.415 0 01.18-.33.981.981 0 01.61-.14.879.879 0 01.57.16.663.663 0 01.24.44l.61-.08a1.239 1.239 0 00-.22-.57.991.991 0 00-.48-.34 2.2 2.2 0 00-.76-.13 1.905 1.905 0 00-.54.08 1.362 1.362 0 00-.4.18 1.046 1.046 0 00-.31.35 1.007 1.007 0 00-.11.46.931.931 0 00.14.49.861.861 0 00.4.35 7.358 7.358 0 00.95.3 3.229 3.229 0 01.64.21.376.376 0 01.18.33.529.529 0 01-.2.42 1.254 1.254 0 01-1.31-.03.919.919 0 01-.29-.57l-.61.1a1.413 1.413 0 00.48.89zm4.02.21V3.71l.44-.42 1.21 1.88h.77l-1.55-2.32 1.41-1.36h-.81l-1.47 1.5V.09h-.63v5.08h.63zm7.03 0a3.856 3.856 0 00.82-.08 1.407 1.407 0 00.55-.26 1.212 1.212 0 00.38-.47 1.485 1.485 0 00.15-.66 1.246 1.246 0 00-.25-.77 1.321 1.321 0 00-.71-.46 1.229 1.229 0 00.53-.47 1.139 1.139 0 00.18-.61 1.249 1.249 0 00-.2-.67 1.167 1.167 0 00-.55-.48 2.409 2.409 0 00-.93-.15h-1.91v5.08h1.94zM18.78.69h1.02a2.8 2.8 0 01.77.07.577.577 0 01.35.26.841.841 0 01.12.45.66.66 0 01-.52.69 2.392 2.392 0 01-.64.06h-1.1V.69zm0 2.13h1.18a2.352 2.352 0 01.74.09.7.7 0 01.4.29.845.845 0 01.15.5.816.816 0 01-.1.42.736.736 0 01-.26.29 1.181 1.181 0 01-.39.14 4.1 4.1 0 01-.45.02h-1.27V2.82zm6.61 2.35h.65a1.434 1.434 0 01-.15-.44 8.21 8.21 0 01-.04-1.1v-.84a3.666 3.666 0 00-.03-.57 1.139 1.139 0 00-.2-.43 1 1 0 00-.43-.27 2.073 2.073 0 00-.77-.12 2.582 2.582 0 00-.83.13 1.214 1.214 0 00-.56.38 1.665 1.665 0 00-.27.63l.61.08a.933.933 0 01.31-.54 1.056 1.056 0 01.65-.16 1.038 1.038 0 01.71.21.7.7 0 01.18.54v.16a5.191 5.191 0 01-1.12.22 4.789 4.789 0 00-.55.09 1.555 1.555 0 00-.45.21 1.015 1.015 0 00-.32.36.9.9 0 00-.13.49.978.978 0 00.33.76 1.38 1.38 0 00.93.29 1.923 1.923 0 00.69-.12 2.47 2.47 0 00.67-.41 1.483 1.483 0 00.12.45zm-.17-1.62a1.483 1.483 0 01-.11.63.943.943 0 01-.41.43 1.343 1.343 0 01-.64.15.8.8 0 01-.55-.16.522.522 0 01-.19-.42.476.476 0 01.09-.29.549.549 0 01.24-.21 2.445 2.445 0 01.55-.12 5.135 5.135 0 001.02-.24v.23zm2.29 1.62V3.16a1.264 1.264 0 01.29-.96.994.994 0 01.69-.25.767.767 0 01.43.11.545.545 0 01.26.3 1.686 1.686 0 01.07.57v2.24h.63V2.91a2.853 2.853 0 00-.04-.61 1.12 1.12 0 00-.19-.46.94.94 0 00-.42-.32 1.509 1.509 0 00-.61-.12 1.333 1.333 0 00-1.17.61v-.52h-.56v3.68h.62zm4.02 0V3.71l.44-.42 1.22 1.88h.77l-1.55-2.32 1.41-1.36h-.81l-1.48 1.5V.09h-.62v5.08h.62zm7.57 0h.65a1.459 1.459 0 01-.16-.44c-.02-.16-.03-.52-.03-1.1v-.84a3.349 3.349 0 00-.04-.57.835.835 0 00-.62-.7 2.109 2.109 0 00-.77-.12 2.646 2.646 0 00-.84.13 1.182 1.182 0 00-.55.38 1.522 1.522 0 00-.27.63l.61.08a.933.933 0 01.31-.54 1.348 1.348 0 011.36.05.7.7 0 01.18.54 1.265 1.265 0 01-.01.16 5.073 5.073 0 01-1.11.22 4.789 4.789 0 00-.55.09 1.555 1.555 0 00-.45.21 1.041 1.041 0 00-.33.36.988.988 0 00-.12.49.978.978 0 00.33.76 1.363 1.363 0 00.93.29 2 2 0 00.69-.12 2.629 2.629 0 00.67-.41 1.242 1.242 0 00.12.45zm-.18-1.62a1.5 1.5 0 01-.1.63.943.943 0 01-.41.43 1.343 1.343 0 01-.64.15.8.8 0 01-.55-.16.522.522 0 01-.19-.42.547.547 0 01.08-.29.577.577 0 01.25-.21 2.465 2.465 0 01.54-.12 4.8 4.8 0 001.02-.24v.23zm2.3 1.62V3.16a1.225 1.225 0 01.29-.96.994.994 0 01.69-.25.767.767 0 01.43.11.587.587 0 01.26.3 1.686 1.686 0 01.07.57v2.24h.63V2.91a3.744 3.744 0 00-.04-.61 1.275 1.275 0 00-.19-.46.94.94 0 00-.42-.32 1.544 1.544 0 00-.61-.12 1.333 1.333 0 00-1.17.61v-.52h-.57v3.68h.63zm6.36 0V.09h-.62v1.82a1.367 1.367 0 00-.42-.37 1.254 1.254 0 00-.59-.14 1.492 1.492 0 00-.83.24 1.529 1.529 0 00-.55.69 2.658 2.658 0 00-.18 1 2.411 2.411 0 00.2 1 1.667 1.667 0 00.57.68 1.475 1.475 0 00.81.24A1.139 1.139 0 0047 4.71v.46h.58zm-2.27-2.91a.866.866 0 01.7-.34.9.9 0 01.71.35 1.714 1.714 0 01.29 1.11 1.583 1.583 0 01-.28 1.03.885.885 0 01-.7.33.9.9 0 01-.7-.35 1.6 1.6 0 01-.3-1.06 1.651 1.651 0 01.28-1.07zm7.36 2.91a3.788 3.788 0 00.82-.08 1.527 1.527 0 00.56-.26 1.194 1.194 0 00.37-.47 1.485 1.485 0 00.15-.66 1.187 1.187 0 00-.25-.77 1.284 1.284 0 00-.71-.46 1.32 1.32 0 00.54-.47 1.127 1.127 0 00.17-.61 1.238 1.238 0 00-.19-.67 1.19 1.19 0 00-.56-.48 2.375 2.375 0 00-.93-.15h-1.91v5.08h1.94zM51.4.69h1.02a2.749 2.749 0 01.77.07.577.577 0 01.35.26.841.841 0 01.12.45.716.716 0 01-.13.44.657.657 0 01-.38.25 2.48 2.48 0 01-.65.06h-1.1V.69zm0 2.13h1.18a2.352 2.352 0 01.74.09.725.725 0 01.41.29.838.838 0 01.14.5.816.816 0 01-.1.42.715.715 0 01-.25.29 1.375 1.375 0 01-.39.14 4.321 4.321 0 01-.46.02H51.4V2.82zm6.62 2.35h.65a1.459 1.459 0 01-.16-.44 8.21 8.21 0 01-.04-1.1v-.84a3.666 3.666 0 00-.03-.57 1.128 1.128 0 00-.19-.43 1.036 1.036 0 00-.44-.27 2.016 2.016 0 00-.76-.12 2.646 2.646 0 00-.84.13 1.182 1.182 0 00-.55.38 1.528 1.528 0 00-.28.63l.61.08a.933.933 0 01.31-.54 1.07 1.07 0 01.66-.16 1.056 1.056 0 01.71.21.743.743 0 01.17.54v.16a5.207 5.207 0 01-1.11.22 5.053 5.053 0 00-.56.09 1.689 1.689 0 00-.45.21 1.015 1.015 0 00-.32.36.988.988 0 00-.12.49 1 1 0 00.32.76 1.391 1.391 0 00.94.29 1.907 1.907 0 00.68-.12 2.329 2.329 0 00.67-.41 1.246 1.246 0 00.13.45zm-.18-1.62a1.5 1.5 0 01-.1.63 1.058 1.058 0 01-.41.43 1.384 1.384 0 01-.65.15.82.82 0 01-.55-.16.553.553 0 01-.19-.42.476.476 0 01.09-.29.577.577 0 01.25-.21 2.2 2.2 0 01.54-.12 5.135 5.135 0 001.02-.24v.23zm2.29 1.62V3.16a1.264 1.264 0 01.29-.96 1.03 1.03 0 01.69-.25.8.8 0 01.44.11.528.528 0 01.25.3 1.646 1.646 0 01.08.57v2.24h.62V2.91a4.112 4.112 0 00-.03-.61 1.132 1.132 0 00-.2-.46.966.966 0 00-.41-.32 1.593 1.593 0 00-.62-.12 1.333 1.333 0 00-1.17.61v-.52h-.56v3.68h.62zm4.03 0V3.71l.44-.42 1.22 1.88h.77l-1.55-2.32 1.4-1.36h-.8l-1.48 1.5V.09h-.63v5.08h.63zm4.91 0a3.288 3.288 0 00.81-.09 1.777 1.777 0 00.61-.25 1.825 1.825 0 00.46-.46 2.546 2.546 0 00.35-.74 3.564 3.564 0 00.14-1.03 3.487 3.487 0 00-.2-1.21 2.179 2.179 0 00-.61-.87 1.768 1.768 0 00-.74-.36 4.222 4.222 0 00-.91-.07h-1.75v5.08h1.84zM67.9.69h1.07a2.632 2.632 0 01.87.1 1.337 1.337 0 01.64.57 2.447 2.447 0 01.26 1.23 3.144 3.144 0 01-.13.98 1.715 1.715 0 01-.37.64 1.219 1.219 0 01-.46.27 2.717 2.717 0 01-.79.09H67.9V.69zm5.08.11V.09h-.62V.8h.62zm0 4.37V1.49h-.62v3.68h.62zm1.64 0V3.24a2.477 2.477 0 01.1-.73.761.761 0 01.23-.34.628.628 0 01.37-.12.869.869 0 01.46.13l.22-.57a1.216 1.216 0 00-.65-.21.732.732 0 00-.4.13 1.405 1.405 0 00-.39.52v-.56h-.57v3.68h.63zm3.95-.61a.932.932 0 01-.58.18 1.025 1.025 0 01-.77-.32 1.455 1.455 0 01-.35-.93h2.75v-.17a1.98 1.98 0 00-.46-1.41 1.586 1.586 0 00-1.21-.51 1.629 1.629 0 00-1.24.52 2.02 2.02 0 00-.48 1.44 1.991 1.991 0 00.47 1.4 1.939 1.939 0 002.34.18 1.587 1.587 0 00.56-.88l-.64-.08a1.166 1.166 0 01-.39.58zm-1.34-2.35a.98.98 0 01.73-.29.962.962 0 01.77.36 1.256 1.256 0 01.24.7h-2.06a1.136 1.136 0 01.32-.77zm5.32 2.31a.864.864 0 01-.61.22.921.921 0 01-.75-.34 2.151 2.151 0 01.01-2.14.974.974 0 01.77-.34.792.792 0 01.53.18 1.055 1.055 0 01.31.56l.61-.09a1.449 1.449 0 00-.49-.86 1.552 1.552 0 00-.98-.31 1.777 1.777 0 00-.88.23 1.357 1.357 0 00-.6.67 2.445 2.445 0 00-.2 1.04 1.99 1.99 0 00.46 1.42 1.561 1.561 0 001.21.49 1.514 1.514 0 001.02-.36 1.568 1.568 0 00.52-.99l-.62-.08a1.17 1.17 0 01-.31.7zm2.62.12a.406.406 0 01-.21-.05.254.254 0 01-.11-.12 1.2 1.2 0 01-.03-.34V1.97h.62v-.48h-.62V.2l-.62.38v.91h-.46v.48h.46v2.12a2.333 2.333 0 00.07.74.586.586 0 00.26.28 1.13 1.13 0 00.53.11 2.086 2.086 0 00.47-.06l-.09-.55a1.573 1.573 0 01-.27.03zm5.53.53h.65a1.459 1.459 0 01-.16-.44 8.21 8.21 0 01-.04-1.1v-.84a3.666 3.666 0 00-.03-.57 1.128 1.128 0 00-.19-.43 1.036 1.036 0 00-.44-.27 2.016 2.016 0 00-.76-.12 2.646 2.646 0 00-.84.13 1.182 1.182 0 00-.55.38 1.4 1.4 0 00-.27.63l.61.08a.884.884 0 01.31-.54 1.037 1.037 0 01.65-.16 1.056 1.056 0 01.71.21.743.743 0 01.17.54v.16a5.207 5.207 0 01-1.11.22 5.053 5.053 0 00-.56.09 1.847 1.847 0 00-.45.21 1.015 1.015 0 00-.32.36.988.988 0 00-.12.49 1 1 0 00.32.76 1.391 1.391 0 00.94.29 1.907 1.907 0 00.68-.12 2.329 2.329 0 00.67-.41 1.246 1.246 0 00.13.45zm-.18-1.62a1.5 1.5 0 01-.1.63 1.058 1.058 0 01-.41.43 1.343 1.343 0 01-.64.15.832.832 0 01-.56-.16.553.553 0 01-.19-.42.476.476 0 01.09-.29.577.577 0 01.25-.21 2.2 2.2 0 01.54-.12 5.135 5.135 0 001.02-.24v.23zm2.29 1.62V3.24a2.477 2.477 0 01.1-.73.761.761 0 01.23-.34.607.607 0 01.37-.12.894.894 0 01.46.13l.21-.57a1.159 1.159 0 00-.64-.21.732.732 0 00-.4.13 1.519 1.519 0 00-.4.52v-.56h-.56v3.68h.63zm3.95-.61a.932.932 0 01-.58.18 1.025 1.025 0 01-.77-.32 1.455 1.455 0 01-.35-.93h2.75v-.17a1.98 1.98 0 00-.46-1.41 1.586 1.586 0 00-1.21-.51 1.629 1.629 0 00-1.24.52 2.02 2.02 0 00-.48 1.44 1.991 1.991 0 00.47 1.4 1.688 1.688 0 001.28.49 1.709 1.709 0 001.06-.31 1.587 1.587 0 00.56-.88l-.64-.08a1.234 1.234 0 01-.39.58zm-1.34-2.35a.98.98 0 01.73-.29.962.962 0 01.77.36 1.185 1.185 0 01.23.7H95.1a1.136 1.136 0 01.32-.77zm8.24 2.96V.09h-.62v1.82a1.367 1.367 0 00-.42-.37 1.3 1.3 0 00-.6-.14 1.483 1.483 0 00-.82.24 1.466 1.466 0 00-.55.69 2.658 2.658 0 00-.18 1 2.262 2.262 0 00.2 1 1.528 1.528 0 00.57.68 1.475 1.475 0 00.81.24 1.15 1.15 0 001.03-.54v.46h.58zm-2.27-2.91a.834.834 0 01.69-.34.9.9 0 01.72.35 1.775 1.775 0 01.29 1.11 1.583 1.583 0 01-.28 1.03.915.915 0 01-.7.33.89.89 0 01-.7-.35 1.6 1.6 0 01-.3-1.06 1.651 1.651 0 01.28-1.07zM105.34.8V.09h-.62V.8h.62zm0 4.37V1.49h-.62v3.68h.62zm2.63 0l1.39-3.68h-.64l-.82 2.24c-.1.28-.18.51-.23.71q-.1-.39-.24-.75l-.79-2.2h-.66l1.4 3.68h.59zM110.61.8V.09h-.62V.8h.62zm0 4.37V1.49h-.62v3.68h.62zm1.25-.21a1.8 1.8 0 001.1.29 1.856 1.856 0 00.77-.15 1.186 1.186 0 00.53-.42 1.074 1.074 0 00.18-.59.951.951 0 00-.15-.54.883.883 0 00-.41-.32 6.9 6.9 0 00-.92-.29c-.31-.09-.49-.14-.55-.16a.57.57 0 01-.24-.17.349.349 0 01-.08-.22.415.415 0 01.18-.33 1.015 1.015 0 01.62-.14.85.85 0 01.56.16.663.663 0 01.24.44l.61-.08a1.36 1.36 0 00-.21-.57 1.075 1.075 0 00-.49-.34 2.155 2.155 0 00-.76-.13 1.905 1.905 0 00-.54.08 1.292 1.292 0 00-.39.18.948.948 0 00-.31.35.9.9 0 00-.11.46.922.922 0 00.13.49.94.94 0 00.41.35 6.419 6.419 0 00.95.3 3.5 3.5 0 01.64.21.376.376 0 01.18.33.54.54 0 01-.21.42 1.236 1.236 0 01-1.3-.03.83.83 0 01-.29-.57l-.62.1a1.413 1.413 0 00.48.89zM115.88.8V.09h-.62V.8h.62zm0 4.37V1.49h-.62v3.68h.62zm1.27-.41a1.65 1.65 0 001.25.49 1.807 1.807 0 00.89-.22 1.506 1.506 0 00.62-.63 2.512 2.512 0 00.21-1.12 1.9 1.9 0 00-.48-1.38 1.665 1.665 0 00-1.24-.5 1.731 1.731 0 00-1.16.41 1.911 1.911 0 00-.57 1.52 1.978 1.978 0 00.48 1.43zm.47-2.49a1.019 1.019 0 01.78-.35 1 1 0 01.77.35 1.521 1.521 0 01.31 1.04 1.6 1.6 0 01-.31 1.08.983.983 0 01-.77.35 1.019 1.019 0 01-.78-.35 1.614 1.614 0 01-.31-1.06 1.6 1.6 0 01.31-1.06zm3.93 2.9V3.16a1.264 1.264 0 01.29-.96.994.994 0 01.69-.25.767.767 0 01.43.11.545.545 0 01.26.3 1.686 1.686 0 01.07.57v2.24h.63V2.91a2.853 2.853 0 00-.04-.61 1.12 1.12 0 00-.19-.46.94.94 0 00-.42-.32 1.544 1.544 0 00-.61-.12 1.333 1.333 0 00-1.17.61v-.52h-.57v3.68h.63zm3.63-.21a1.77 1.77 0 001.09.29 1.938 1.938 0 00.78-.15 1.157 1.157 0 00.52-.42 1.074 1.074 0 00.18-.59 1.032 1.032 0 00-.14-.54.911.911 0 00-.42-.32 6.9 6.9 0 00-.92-.29c-.3-.09-.49-.14-.55-.16a.57.57 0 01-.24-.17.349.349 0 01-.08-.22.4.4 0 01.19-.33.962.962 0 01.61-.14.85.85 0 01.56.16.635.635 0 01.25.44l.61-.08a1.36 1.36 0 00-.22-.57.991.991 0 00-.48-.34 2.24 2.24 0 00-.76-.13 1.8 1.8 0 00-.54.08 1.362 1.362 0 00-.4.18 1.046 1.046 0 00-.31.35 1.007 1.007 0 00-.11.46.931.931 0 00.14.49.861.861 0 00.4.35 6.858 6.858 0 00.95.3 3.5 3.5 0 01.64.21.376.376 0 01.18.33.54.54 0 01-.21.42.988.988 0 01-.63.17 1.03 1.03 0 01-.67-.2.872.872 0 01-.29-.57l-.61.1a1.413 1.413 0 00.48.89zm5.68-.2a1.635 1.635 0 001.25.49 1.834 1.834 0 00.89-.22 1.566 1.566 0 00.62-.63 2.512 2.512 0 00.21-1.12 1.9 1.9 0 00-.48-1.38 1.665 1.665 0 00-1.24-.5 1.731 1.731 0 00-1.16.41 1.911 1.911 0 00-.57 1.52 1.978 1.978 0 00.48 1.43zm.47-2.49a1.033 1.033 0 011.55 0 1.521 1.521 0 01.31 1.04 1.6 1.6 0 01-.31 1.08 1.033 1.033 0 01-1.55 0 1.56 1.56 0 01-.31-1.06 1.543 1.543 0 01.31-1.06zm4.07 2.9v-3.2h.72v-.48h-.72v-.34a.669.669 0 01.12-.46.547.547 0 01.4-.12 1.61 1.61 0 01.37.04l.09-.55a3.089 3.089 0 00-.58-.06 1.129 1.129 0 00-.63.15.757.757 0 00-.32.39 1.585 1.585 0 00-.07.56v.39h-.55v.48h.55v3.2h.62zm5.24 0V.69h1.68v-.6h-4.03v.6h1.68v4.48h.67zm3.71-.61a.953.953 0 01-.58.18 1.025 1.025 0 01-.77-.32 1.455 1.455 0 01-.35-.93h2.75v-.17a1.939 1.939 0 00-.47-1.41 1.55 1.55 0 00-1.2-.51 1.629 1.629 0 00-1.24.52 2.02 2.02 0 00-.48 1.44 1.991 1.991 0 00.47 1.4 1.688 1.688 0 001.28.49 1.709 1.709 0 001.06-.31 1.587 1.587 0 00.56-.88l-.64-.08a1.234 1.234 0 01-.39.58zm-1.34-2.35a1.031 1.031 0 011.5.07 1.185 1.185 0 01.23.7h-2.05a1.136 1.136 0 01.32-.77zm3.57 2.96l.96-1.45.21.31.75 1.14h.77l-1.37-1.95 1.27-1.73h-.75l-.62.87c-.08.12-.18.25-.28.4-.06-.11-.15-.24-.25-.41l-.57-.86h-.78l1.25 1.77-1.35 1.91h.76zm5.81 0h.65a1.459 1.459 0 01-.16-.44 8.21 8.21 0 01-.04-1.1v-.84a3.666 3.666 0 00-.03-.57 1.128 1.128 0 00-.19-.43 1.036 1.036 0 00-.44-.27 2.016 2.016 0 00-.76-.12 2.646 2.646 0 00-.84.13 1.182 1.182 0 00-.55.38 1.528 1.528 0 00-.28.63l.61.08a.94.94 0 01.32-.54 1.037 1.037 0 01.65-.16 1.056 1.056 0 01.71.21.743.743 0 01.17.54v.16a5.207 5.207 0 01-1.11.22 5.053 5.053 0 00-.56.09 1.847 1.847 0 00-.45.21 1.015 1.015 0 00-.32.36.988.988 0 00-.12.49 1 1 0 00.32.76 1.391 1.391 0 00.94.29 1.907 1.907 0 00.68-.12 2.329 2.329 0 00.67-.41 1.246 1.246 0 00.13.45zm-.18-1.62a1.5 1.5 0 01-.1.63 1.058 1.058 0 01-.41.43 1.343 1.343 0 01-.64.15.832.832 0 01-.56-.16.553.553 0 01-.19-.42.476.476 0 01.09-.29.577.577 0 01.25-.21 2.2 2.2 0 01.54-.12 5.135 5.135 0 001.02-.24v.23zm1.9 1.41a1.791 1.791 0 001.09.29 1.938 1.938 0 00.78-.15 1.186 1.186 0 00.53-.42 1.074 1.074 0 00.18-.59.951.951 0 00-.15-.54.936.936 0 00-.41-.32 7.183 7.183 0 00-.93-.29c-.3-.09-.48-.14-.55-.16a.57.57 0 01-.24-.17.341.341 0 01-.07-.22.415.415 0 01.18-.33 1 1 0 01.62-.14.85.85 0 01.56.16.663.663 0 01.24.44l.61-.08a1.239 1.239 0 00-.22-.57.991.991 0 00-.48-.34 2.2 2.2 0 00-.76-.13 1.905 1.905 0 00-.54.08 1.362 1.362 0 00-.4.18.922.922 0 00-.3.35.9.9 0 00-.12.46.931.931 0 00.14.49.913.913 0 00.4.35 7.124 7.124 0 00.96.3 3.045 3.045 0 01.63.21.365.365 0 01.19.33.54.54 0 01-.21.42 1.236 1.236 0 01-1.3-.03.83.83 0 01-.29-.57l-.62.1a1.413 1.413 0 00.48.89zm8.61-.6a1.474 1.474 0 01-.95.32 1.678 1.678 0 01-.87-.24 1.466 1.466 0 01-.59-.72 3.46 3.46 0 01-.03-2.11 1.512 1.512 0 01.56-.75 1.622 1.622 0 01.98-.28 1.332 1.332 0 01.84.25 1.567 1.567 0 01.52.81l.66-.16a2.022 2.022 0 00-.73-1.09 2.052 2.052 0 00-1.28-.39 2.444 2.444 0 00-1.23.31 2.055 2.055 0 00-.86.89 2.937 2.937 0 00-.31 1.39 3.4 3.4 0 00.27 1.36 2.06 2.06 0 00.78.97 2.38 2.38 0 001.34.34 2.077 2.077 0 001.34-.44 2.247 2.247 0 00.77-1.26l-.68-.17a1.669 1.669 0 01-.53.97zm4.55.81h.66a1.459 1.459 0 01-.16-.44 8.21 8.21 0 01-.04-1.1v-.84a3.666 3.666 0 00-.03-.57 1.006 1.006 0 00-.2-.43.938.938 0 00-.43-.27 2.073 2.073 0 00-.77-.12 2.628 2.628 0 00-.83.13 1.133 1.133 0 00-.55.38 1.528 1.528 0 00-.28.63l.61.08a.933.933 0 01.31-.54 1.056 1.056 0 01.65-.16 1.038 1.038 0 01.71.21.7.7 0 01.18.54v.16a5.191 5.191 0 01-1.12.22 5.211 5.211 0 00-.55.09 1.555 1.555 0 00-.45.21 1.015 1.015 0 00-.32.36.994.994 0 00-.13.49.978.978 0 00.33.76 1.38 1.38 0 00.93.29 1.923 1.923 0 00.69-.12 2.329 2.329 0 00.67-.41 1.483 1.483 0 00.12.45zm-.17-1.62a1.685 1.685 0 01-.1.63 1.022 1.022 0 01-.42.43 1.316 1.316 0 01-.64.15.82.82 0 01-.55-.16.522.522 0 01-.19-.42.476.476 0 01.09-.29.549.549 0 01.24-.21 2.445 2.445 0 01.55-.12 5.135 5.135 0 001.02-.24v.23zm2.29 3.03V4.79a1.354 1.354 0 00.41.33 1.13 1.13 0 00.56.13 1.524 1.524 0 00.81-.24 1.483 1.483 0 00.59-.69 2.383 2.383 0 00.2-1.02 2.575 2.575 0 00-.18-.97 1.47 1.47 0 00-.54-.68 1.485 1.485 0 00-.84-.25 1.278 1.278 0 00-.61.14 1.408 1.408 0 00-.45.43v-.48h-.57v5.09h.62zm.25-4.31a.854.854 0 011.4-.03 2.106 2.106 0 01-.01 2.15.924.924 0 01-.71.35.866.866 0 01-.7-.34 2.041 2.041 0 01.02-2.13zM173.42.8V.09h-.63V.8h.63zm0 4.37V1.49h-.63v3.68h.63zm2.11-.53a.42.42 0 01-.22-.05.234.234 0 01-.1-.12.844.844 0 01-.04-.34V1.97h.63v-.48h-.63V.2l-.62.38v.91h-.46v.48h.46v2.12a2.24 2.24 0 00.08.74.586.586 0 00.26.28 1.1 1.1 0 00.53.11 2.158 2.158 0 00.47-.06l-.09-.55a1.573 1.573 0 01-.27.03zm3.48.53h.65a1.459 1.459 0 01-.16-.44 10.531 10.531 0 01-.04-1.1v-.84a3.666 3.666 0 00-.03-.57.994.994 0 00-.19-.43.976.976 0 00-.44-.27 2.016 2.016 0 00-.76-.12 2.646 2.646 0 00-.84.13 1.182 1.182 0 00-.55.38 1.4 1.4 0 00-.27.63l.61.08a.884.884 0 01.31-.54 1.037 1.037 0 01.65-.16 1.056 1.056 0 01.71.21.7.7 0 01.18.54c0 .02-.01.08-.01.16a5.207 5.207 0 01-1.11.22 5.5 5.5 0 00-.56.09 1.625 1.625 0 00-.44.21.954.954 0 00-.33.36.988.988 0 00-.12.49.978.978 0 00.33.76 1.345 1.345 0 00.93.29 2 2 0 00.69-.12 2.431 2.431 0 00.66-.41 1.246 1.246 0 00.13.45zm-.18-1.62a1.5 1.5 0 01-.1.63 1 1 0 01-.41.43 1.343 1.343 0 01-.64.15.85.85 0 01-.56-.16.545.545 0 01-.18-.42.47.47 0 01.08-.29.577.577 0 01.25-.21 2.328 2.328 0 01.54-.12 4.8 4.8 0 001.02-.24v.23zm2.28 1.62V.09h-.62v5.08h.62zm5.08 0a3.856 3.856 0 00.82-.08 1.479 1.479 0 00.55-.26 1.212 1.212 0 00.38-.47 1.485 1.485 0 00.15-.66 1.246 1.246 0 00-.25-.77 1.321 1.321 0 00-.71-.46 1.229 1.229 0 00.53-.47 1.139 1.139 0 00.18-.61 1.249 1.249 0 00-.2-.67 1.167 1.167 0 00-.55-.48 2.464 2.464 0 00-.94-.15h-1.9v5.08h1.94zM184.92.69h1.02a2.8 2.8 0 01.77.07.577.577 0 01.35.26.841.841 0 01.12.45.788.788 0 01-.13.44.718.718 0 01-.39.25 2.392 2.392 0 01-.64.06h-1.1V.69zm0 2.13h1.18a2.352 2.352 0 01.74.09.7.7 0 01.4.29.845.845 0 01.15.5.816.816 0 01-.1.42.736.736 0 01-.26.29 1.181 1.181 0 01-.39.14 4.1 4.1 0 01-.45.02h-1.27V2.82zm6.61 2.35h.65a1.434 1.434 0 01-.15-.44 8.21 8.21 0 01-.04-1.1v-.84a2.542 2.542 0 00-.04-.57.835.835 0 00-.62-.7 2.073 2.073 0 00-.77-.12 2.582 2.582 0 00-.83.13 1.164 1.164 0 00-.56.38 1.665 1.665 0 00-.27.63l.61.08a.933.933 0 01.31-.54 1.056 1.056 0 01.65-.16 1.038 1.038 0 01.71.21.7.7 0 01.18.54v.16a5.191 5.191 0 01-1.12.22 4.789 4.789 0 00-.55.09 1.555 1.555 0 00-.45.21.929.929 0 00-.32.36.9.9 0 00-.13.49.978.978 0 00.33.76 1.38 1.38 0 00.93.29 1.923 1.923 0 00.69-.12 2.47 2.47 0 00.67-.41 1.483 1.483 0 00.12.45zm-.17-1.62a1.483 1.483 0 01-.11.63.943.943 0 01-.41.43 1.343 1.343 0 01-.64.15.8.8 0 01-.55-.16.522.522 0 01-.19-.42.547.547 0 01.08-.29.577.577 0 01.25-.21 2.445 2.445 0 01.55-.12 5.135 5.135 0 001.02-.24v.23zm2.29 1.62V3.16a1.264 1.264 0 01.29-.96.994.994 0 01.69-.25.767.767 0 01.43.11.545.545 0 01.26.3 1.686 1.686 0 01.07.57v2.24h.63V2.91a2.853 2.853 0 00-.04-.61 1.12 1.12 0 00-.19-.46.94.94 0 00-.42-.32 1.544 1.544 0 00-.61-.12 1.333 1.333 0 00-1.17.61v-.52h-.57v3.68h.63zm4.02 0V3.71l.44-.42 1.22 1.88h.77l-1.55-2.32 1.41-1.36h-.81l-1.48 1.5V.09h-.62v5.08h.62zm3.51 0a1.011 1.011 0 01-.1.48.57.57 0 01-.29.26l.17.27a.924.924 0 00.44-.38 1.177 1.177 0 00.14-.63v-.71h-.71v.71h.35zm4.29 0V1.18l2.67 3.99h.69V.09h-.64v3.99L205.52.09h-.69v5.08h.64zm5.37 0v-.71h-.71v.71h.71zm1.4 0l.55-1.54h2.13l.59 1.54h.77L214.2.09h-.73l-1.95 5.08h.72zm1.31-3.58a5.6 5.6 0 00.27-.97q.12.42.36 1.05l.53 1.41h-1.72zm4.15 3.58v-.71h-.71v.71h.71zm3.91 0V.84l1.47 4.33h.6l1.48-4.25v4.25h.65V.09h-.91l-1.21 3.53c-.13.36-.22.63-.27.82-.06-.17-.14-.42-.25-.75l-1.2-3.6h-1.01v5.08h.65zm7.41-.61a.953.953 0 01-.58.18 1.025 1.025 0 01-.77-.32 1.4 1.4 0 01-.35-.93h2.75v-.17a1.939 1.939 0 00-.47-1.41 1.55 1.55 0 00-1.2-.51 1.614 1.614 0 00-1.24.52 2.02 2.02 0 00-.48 1.44 1.946 1.946 0 00.47 1.4 1.688 1.688 0 001.28.49 1.709 1.709 0 001.06-.31 1.587 1.587 0 00.56-.88l-.64-.08a1.234 1.234 0 01-.39.58zm-1.34-2.35a1.031 1.031 0 011.5.07 1.185 1.185 0 01.23.7h-2.05a1.136 1.136 0 01.32-.77zm3.85 2.96V3.26a2.2 2.2 0 01.1-.77.883.883 0 01.32-.41.947.947 0 01.49-.13.571.571 0 01.5.2 1.084 1.084 0 01.15.63v2.39h.63V3.03a1.161 1.161 0 01.25-.83.9.9 0 01.65-.25.641.641 0 01.37.1.467.467 0 01.22.26 1.427 1.427 0 01.07.54v2.32h.62V2.64a1.268 1.268 0 00-.3-.93 1.141 1.141 0 00-.84-.31 1.326 1.326 0 00-1.14.65.926.926 0 00-.37-.48 1.232 1.232 0 00-.67-.17 1.285 1.285 0 00-.65.17 1.3 1.3 0 00-.47.43v-.51h-.55v3.68h.62zm5.94-.46a1.179 1.179 0 001.02.54 1.493 1.493 0 001.13-.51 2.141 2.141 0 00.46-1.47 2.349 2.349 0 00-.11-.75 1.727 1.727 0 00-.3-.59 1.283 1.283 0 00-.5-.39 1.616 1.616 0 00-.65-.14 1.25 1.25 0 00-1.01.5V.09h-.62v5.08h.58v-.46zm.29-2.44a.909.909 0 01.71-.35.861.861 0 01.69.34 1.648 1.648 0 01.29 1.07 1.585 1.585 0 01-.3 1.05.895.895 0 01-1.51-.12 1.94 1.94 0 01-.18-.96 1.562 1.562 0 01.3-1.03zm5.29 2.29a.962.962 0 01-.59.18 1.057 1.057 0 01-.77-.32 1.45 1.45 0 01-.34-.93h2.75v-.17a1.939 1.939 0 00-.47-1.41 1.55 1.55 0 00-1.2-.51 1.651 1.651 0 00-1.25.52 2.063 2.063 0 00-.47 1.44 1.946 1.946 0 00.47 1.4 1.688 1.688 0 001.28.49 1.709 1.709 0 001.06-.31 1.587 1.587 0 00.56-.88l-.64-.08a1.234 1.234 0 01-.39.58zm-1.34-2.35a1.031 1.031 0 011.5.07 1.258 1.258 0 01.23.7h-2.05a1.092 1.092 0 01.32-.77zm3.84 2.96V3.24a2.478 2.478 0 01.11-.73.63.63 0 01.23-.34.607.607 0 01.37-.12.861.861 0 01.45.13l.22-.57a1.185 1.185 0 00-.64-.21.707.707 0 00-.4.13 1.405 1.405 0 00-.4.52v-.56h-.56v3.68h.62zm4.65 0V2.86h2.39v-.6h-2.39V.69h2.76v-.6h-3.43v5.08h.67zm5.54 0a3.373 3.373 0 00.82-.09 1.723 1.723 0 00.6-.25 2.035 2.035 0 00.47-.46 2.542 2.542 0 00.34-.74 3.564 3.564 0 00.14-1.03 3.487 3.487 0 00-.2-1.21 2.158 2.158 0 00-.6-.87 1.871 1.871 0 00-.75-.36 4.179 4.179 0 00-.9-.07h-1.76v5.08h1.84zM254.58.69h1.07a2.632 2.632 0 01.87.1 1.317 1.317 0 01.63.57 2.345 2.345 0 01.26 1.23 3.144 3.144 0 01-.13.98 1.591 1.591 0 01-.37.64 1.219 1.219 0 01-.46.27 2.717 2.717 0 01-.79.09h-1.08V.69zm5.31 4.48V.09h-.67v5.08h.67zm4.36-.81a1.5 1.5 0 01-.96.32 1.617 1.617 0 01-.86-.24 1.368 1.368 0 01-.59-.72 3.007 3.007 0 01-.19-1.13 2.961 2.961 0 01.16-.98 1.439 1.439 0 01.55-.75 1.622 1.622 0 01.98-.28 1.381 1.381 0 01.85.25 1.621 1.621 0 01.51.81l.66-.16a2.007 2.007 0 00-.72-1.09 2.1 2.1 0 00-1.29-.39 2.5 2.5 0 00-1.23.31 2.055 2.055 0 00-.86.89 3.061 3.061 0 00-.31 1.39 3.4 3.4 0 00.27 1.36 2.02 2.02 0 00.79.97 2.345 2.345 0 001.33.34 2.125 2.125 0 001.35-.44 2.291 2.291 0 00.76-1.26l-.67-.17a1.726 1.726 0 01-.53.97zm2.91.81v-.71h-.71v.71h.71z" fill="#fff" fill-rule="evenodd"/></svg>