<svg xmlns="http://www.w3.org/2000/svg" width="257.843" height="31.406"><path data-name="pennies to perks" d="M10.412 7.341a6.478 6.478 0 00-3.324.849 4.993 4.993 0 00-2.112 2.321l-.328-2.746h-4.65a38.6 38.6 0 01.262 4.74v18.893h4.945v-9.512a5 5 0 002.1 1.994 6.615 6.615 0 003.111.719 7.058 7.058 0 003.831-1.046 6.885 6.885 0 002.583-2.991 10.428 10.428 0 00.917-4.494 10.6 10.6 0 00-.933-4.544 7.279 7.279 0 00-2.6-3.088 6.77 6.77 0 00-3.8-1.1zm-1.409 13.5a3.422 3.422 0 01-2.832-1.242 5.621 5.621 0 01-1-3.595 5.7 5.7 0 011-3.612 3.406 3.406 0 012.832-1.259 3.32 3.32 0 012.8 1.308 5.851 5.851 0 011 3.628 5.558 5.558 0 01-.982 3.546 3.4 3.4 0 01-2.817 1.226zm26.821-5.1a8.859 8.859 0 00-2.031-6.129 7.047 7.047 0 00-5.534-2.271 8.189 8.189 0 00-4.224 1.1 7.505 7.505 0 00-2.9 3.072 9.585 9.585 0 00-1.031 4.5 8.334 8.334 0 002.39 6.292 9.091 9.091 0 006.583 2.3 11.922 11.922 0 003.52-.539 8.725 8.725 0 002.931-1.487l-1.31-3.334a8.247 8.247 0 01-4.906 1.661 4.395 4.395 0 01-3.209-1.063 4.989 4.989 0 01-1.212-3.383h10.938v-.719zm-7.434-4.936q2.783 0 3.176 3.2h-6.582a4.09 4.09 0 011.13-2.386 3.183 3.183 0 012.276-.818zm20.794-3.464a6.569 6.569 0 00-3.225.784 6.1 6.1 0 00-2.309 2.255l-.328-2.618h-4.65a38.406 38.406 0 01.262 4.74v11.833h4.945v-9.283a3.939 3.939 0 01.983-2.811 3.421 3.421 0 012.619-1.046 2.422 2.422 0 012.014.8 4.06 4.06 0 01.639 2.534v9.806h4.945V14.303q0-6.963-5.9-6.962zm20.074 0a6.569 6.569 0 00-3.225.784 6.1 6.1 0 00-2.309 2.255l-.327-2.615h-4.651a38.406 38.406 0 01.262 4.74v11.833h4.945v-9.283a3.939 3.939 0 01.983-2.811 3.421 3.421 0 012.619-1.046 2.422 2.422 0 012.014.8 4.06 4.06 0 01.639 2.534v9.806h4.945V14.303q0-6.963-5.895-6.962zm14.769 17V7.762h-4.945v16.573h4.945zm-5.108-19.71h5.272V-.011h-5.272v4.642zm24.036 11.113a8.863 8.863 0 00-2.03-6.129 7.05 7.05 0 00-5.535-2.271 8.189 8.189 0 00-4.224 1.1 7.5 7.5 0 00-2.9 3.072 9.574 9.574 0 00-1.032 4.5 8.331 8.331 0 002.391 6.292 9.087 9.087 0 006.582 2.3 11.922 11.922 0 003.52-.539 8.725 8.725 0 002.931-1.487l-1.31-3.334a8.247 8.247 0 01-4.912 1.667 4.4 4.4 0 01-3.209-1.063 4.989 4.989 0 01-1.212-3.383h10.938v-.719zm-7.434-4.936q2.784 0 3.177 3.2h-6.586a4.1 4.1 0 011.13-2.386 3.183 3.183 0 012.276-.818zm16.9 13.794a8.734 8.734 0 005.207-1.373 4.361 4.361 0 001.9-3.726 4.307 4.307 0 00-1.146-3.138 7.43 7.43 0 00-3.7-1.765l-2.783-.621a3.531 3.531 0 01-1.458-.572 1.116 1.116 0 01-.409-.9 1.319 1.319 0 01.688-1.177 3.606 3.606 0 011.9-.425 7.865 7.865 0 012.571.458 10.755 10.755 0 012.6 1.34l1.376-3.3a10.487 10.487 0 00-3.046-1.52 11.414 11.414 0 00-3.471-.539 9.535 9.535 0 00-3.7.67 5.833 5.833 0 00-2.5 1.879 4.478 4.478 0 00-.9 2.746 4.139 4.139 0 001.129 3.04 6.95 6.95 0 003.521 1.667l2.712.616a4.776 4.776 0 011.735.621 1.151 1.151 0 01.492.98 1.246 1.246 0 01-.688 1.144 4.007 4.007 0 01-1.965.393 10.812 10.812 0 01-3.275-.507 10.113 10.113 0 01-2.914-1.455l-1.31 3.433a12.184 12.184 0 007.434 2.026zm29.767-13.14v-3.7h-4.225V2.271l-4.945 1.6v3.891h-3.143v3.7h3.137v6.537a6.86 6.86 0 001.621 4.871 6.125 6.125 0 004.7 1.732 7.912 7.912 0 002.849-.457V20.32a6.836 6.836 0 01-1.638.229 2.71 2.71 0 01-1.866-.637 2.551 2.551 0 01-.721-2.011v-6.439h4.225zm10.446 13.14a9.611 9.611 0 004.585-1.046 7.252 7.252 0 003.029-3.007 10.372 10.372 0 000-9.152 7.26 7.26 0 00-3.029-3.008 9.622 9.622 0 00-4.585-1.045A9.792 9.792 0 00148 8.389a7.229 7.229 0 00-3.045 3.008 10.363 10.363 0 000 9.152A7.221 7.221 0 00148 23.556a9.781 9.781 0 004.634 1.046zm0-3.759q-3.831 0-3.831-4.87a5.74 5.74 0 01.982-3.645 3.437 3.437 0 012.849-1.225 3.353 3.353 0 012.8 1.225 7.39 7.39 0 010 7.306 3.373 3.373 0 01-2.8 1.209zm31.208-13.5a6.478 6.478 0 00-3.324.849 4.993 4.993 0 00-2.112 2.321l-.328-2.746h-4.65a38.406 38.406 0 01.262 4.74V31.4h4.945v-9.512a5 5 0 002.1 1.994 6.615 6.615 0 003.111.719 7.058 7.058 0 003.831-1.046 6.885 6.885 0 002.581-2.993 10.428 10.428 0 00.917-4.494 10.6 10.6 0 00-.933-4.544 7.284 7.284 0 00-2.6-3.088 6.775 6.775 0 00-3.8-1.1zm-1.408 13.5a3.424 3.424 0 01-2.833-1.242 5.621 5.621 0 01-1-3.595 5.7 5.7 0 011-3.612 3.408 3.408 0 012.833-1.259 3.323 3.323 0 012.8 1.308 5.857 5.857 0 011 3.628 5.558 5.558 0 01-.982 3.546 3.4 3.4 0 01-2.816 1.226zm26.82-5.1a8.863 8.863 0 00-2.03-6.129 7.05 7.05 0 00-5.535-2.271 8.189 8.189 0 00-4.224 1.1 7.5 7.5 0 00-2.9 3.072 9.574 9.574 0 00-1.032 4.5 8.331 8.331 0 002.391 6.292 9.087 9.087 0 006.582 2.3 11.922 11.922 0 003.52-.539 8.725 8.725 0 002.931-1.487l-1.31-3.334a8.247 8.247 0 01-4.912 1.667 4.4 4.4 0 01-3.209-1.063 4.989 4.989 0 01-1.214-3.389h10.94v-.719zm-7.434-4.936q2.784 0 3.177 3.2h-6.585a4.1 4.1 0 011.13-2.386 3.183 3.183 0 012.276-.818zm20.205-3.432a5.51 5.51 0 00-3 .834 4.854 4.854 0 00-1.949 2.4l-.327-2.844h-4.65a38.6 38.6 0 01.262 4.74v11.833h4.951v-8.662a4.066 4.066 0 011.032-2.958 3.989 3.989 0 013-1.063 5.781 5.781 0 012.424.556L223.8 7.7a4.281 4.281 0 00-1.768-.327zm13.819 8.368l7.041-7.943h-5.927l-6.222 7.093V.28h-4.945v24.058h4.945v-7.42l6.516 7.42h6.06zm14.9 8.858a8.734 8.734 0 005.207-1.373 4.361 4.361 0 001.9-3.726 4.307 4.307 0 00-1.146-3.138 7.43 7.43 0 00-3.7-1.765l-2.783-.621a3.531 3.531 0 01-1.458-.572 1.116 1.116 0 01-.409-.9 1.319 1.319 0 01.688-1.177 3.606 3.606 0 011.9-.425 7.865 7.865 0 012.571.458 10.755 10.755 0 012.6 1.34l1.376-3.3a10.487 10.487 0 00-3.046-1.52 11.414 11.414 0 00-3.471-.539 9.535 9.535 0 00-3.7.67 5.833 5.833 0 00-2.5 1.879 4.484 4.484 0 00-.9 2.746 4.139 4.139 0 001.129 3.04 6.95 6.95 0 003.521 1.667l2.718.621a4.79 4.79 0 011.736.621 1.152 1.152 0 01.491.98 1.246 1.246 0 01-.688 1.144 4.007 4.007 0 01-1.965.393 10.812 10.812 0 01-3.275-.507 10.113 10.113 0 01-2.914-1.455l-1.314 3.431a12.184 12.184 0 007.434 2.026z" fill="#f36a20" fill-rule="evenodd"/></svg>