<svg xmlns="http://www.w3.org/2000/svg" width="424.875" height="31.875"><path data-name="Save to earn AAdvantage®" d="M9.148 24.846a11.64 11.64 0 007.107-1.913 6.129 6.129 0 002.554-5.18 5.169 5.169 0 00-1.981-4.282 16.3 16.3 0 00-6.468-2.55 19.076 19.076 0 01-2.98-.8 3.687 3.687 0 01-1.49-.931 1.956 1.956 0 01-.442-1.308 2.433 2.433 0 011.179-2.125 5.6 5.6 0 013.144-.784 10.9 10.9 0 016.778 2.353l1.638-3.661A9.775 9.775 0 0014.519 1.7 15.891 15.891 0 009.738.981a11.833 11.833 0 00-4.847.932 7.645 7.645 0 00-3.258 2.6A6.419 6.419 0 00.47 8.272a5.82 5.82 0 00.835 3.22 6.455 6.455 0 002.653 2.19 20.353 20.353 0 004.9 1.52 14.375 14.375 0 013.848 1.226 1.949 1.949 0 011.1 1.748 2.188 2.188 0 01-1.2 1.978 6.815 6.815 0 01-3.422.7A12.861 12.861 0 011.652 18.5L.015 22.161a11.584 11.584 0 004.044 1.978 18.323 18.323 0 005.092.7zm24.79-16.867v2.354a5.449 5.449 0 00-2.128-2.027 6.382 6.382 0 00-3.111-.752 6.771 6.771 0 00-3.8 1.1 7.287 7.287 0 00-2.6 3.089 10.59 10.59 0 00-.934 4.544 10.26 10.26 0 00.934 4.494 6.8 6.8 0 006.4 4.037 6.618 6.618 0 003.111-.719 5.216 5.216 0 002.128-1.994v2.451h4.88V7.979h-4.88zm-3.8 13.075a3.485 3.485 0 01-2.866-1.226 5.492 5.492 0 01-1-3.546 5.787 5.787 0 011.016-3.629 3.4 3.4 0 012.849-1.307 3.364 3.364 0 012.816 1.258 5.764 5.764 0 01.982 3.612 5.692 5.692 0 01-.982 3.6 3.38 3.38 0 01-2.816 1.242zm19.779-2.321L45.66 8.012h-5.174l7.2 16.539h4.192l7.3-16.539h-4.879zm25.477-2.778a8.863 8.863 0 00-2.03-6.129 7.05 7.05 0 00-5.534-2.272 8.2 8.2 0 00-4.225 1.1 7.518 7.518 0 00-2.9 3.073 9.572 9.572 0 00-1.032 4.494 8.328 8.328 0 002.391 6.292 9.084 9.084 0 006.582 2.3 11.928 11.928 0 003.521-.539 8.717 8.717 0 002.931-1.488l-1.31-3.334a8.152 8.152 0 01-2.358 1.242 8.032 8.032 0 01-2.554.425 4.4 4.4 0 01-3.21-1.062 5 5 0 01-1.211-3.383h10.937v-.719zm-7.433-4.936q2.783 0 3.176 3.2h-6.582a4.087 4.087 0 011.13-2.386 3.187 3.187 0 012.276-.817zm30.192.654V7.979h-4.224V2.488l-4.945 1.6v3.89H85.84v3.694h3.144v6.537a6.856 6.856 0 001.621 4.871 6.124 6.124 0 004.7 1.732 7.885 7.885 0 002.849-.458V20.53a6.822 6.822 0 01-1.637.229 2.711 2.711 0 01-1.867-.638 2.553 2.553 0 01-.72-2.01v-6.439h4.224zm10.447 13.14a9.607 9.607 0 004.584-1.046 7.252 7.252 0 003.029-3.007 10.366 10.366 0 000-9.153 7.257 7.257 0 00-3.029-3.007 9.618 9.618 0 00-4.584-1.046 9.787 9.787 0 00-4.634 1.046 7.235 7.235 0 00-3.046 3.007 10.374 10.374 0 000 9.153 7.229 7.229 0 003.046 3.007 9.775 9.775 0 004.634 1.046zm0-3.759q-3.833 0-3.832-4.87a5.74 5.74 0 01.983-3.645 3.436 3.436 0 012.849-1.226 3.355 3.355 0 012.8 1.226 7.39 7.39 0 010 7.306 3.375 3.375 0 01-2.8 1.209zm35.956-5.1a8.863 8.863 0 00-2.03-6.129 7.05 7.05 0 00-5.535-2.272 8.189 8.189 0 00-4.224 1.1 7.505 7.505 0 00-2.9 3.073 9.572 9.572 0 00-1.032 4.494 8.328 8.328 0 002.391 6.292 9.083 9.083 0 006.582 2.3 11.922 11.922 0 003.52-.539 8.708 8.708 0 002.931-1.488l-1.31-3.334a8.126 8.126 0 01-2.358 1.242 8.023 8.023 0 01-2.554.425 4.4 4.4 0 01-3.209-1.062 4.991 4.991 0 01-1.212-3.383h10.938v-.719zm-7.434-4.936q2.784 0 3.177 3.2h-6.58a4.093 4.093 0 011.13-2.386 3.187 3.187 0 012.276-.817zm22.3-3.04v2.354a5.458 5.458 0 00-2.129-2.027 6.382 6.382 0 00-3.111-.752 6.77 6.77 0 00-3.8 1.1 7.282 7.282 0 00-2.6 3.089 10.6 10.6 0 00-.933 4.544 10.274 10.274 0 00.933 4.494 6.8 6.8 0 006.4 4.037 6.618 6.618 0 003.111-.719 5.225 5.225 0 002.129-1.994v2.451h4.879V7.979h-4.879zm-3.8 13.075a3.483 3.483 0 01-2.865-1.226 5.492 5.492 0 01-1-3.546 5.787 5.787 0 011.015-3.629 3.4 3.4 0 012.849-1.307 3.361 3.361 0 012.816 1.258 5.764 5.764 0 01.983 3.612 5.692 5.692 0 01-.983 3.6 3.378 3.378 0 01-2.816 1.242zm22.334-13.467a5.521 5.521 0 00-3 .833 4.859 4.859 0 00-1.948 2.4l-.328-2.844h-4.65a38.406 38.406 0 01.262 4.74v11.832h4.945v-8.662a4.069 4.069 0 011.032-2.958 3.987 3.987 0 013-1.062 5.765 5.765 0 012.423.556l.033-4.511a4.268 4.268 0 00-1.768-.327zm14.015-.033a6.57 6.57 0 00-3.225.785 6.1 6.1 0 00-2.309 2.255l-.327-2.615h-4.651a38.406 38.406 0 01.262 4.74V24.55h4.945v-9.283a3.942 3.942 0 01.983-2.811 3.424 3.424 0 012.619-1.046 2.42 2.42 0 012.014.8 4.056 4.056 0 01.639 2.533v9.806h4.945V14.517q0-6.963-5.895-6.963zm42.211 17L223.474 1.28h-4.126l-10.709 23.273h5.142l2.227-5.164h10.9l2.227 5.164h5.043zM221.48 6.77l3.766 8.727h-7.527zm37.562 17.781L248.333 1.278h-4.126l-10.709 23.273h5.142l2.227-5.164h10.9l2.226 5.164h5.044zM246.335 6.77l3.766 8.727h-7.532zM272.402.494V10.2a5.191 5.191 0 00-2.128-1.945 6.6 6.6 0 00-3.046-.7 6.9 6.9 0 00-3.815 1.063 7.147 7.147 0 00-2.587 3.007 10.274 10.274 0 00-.933 4.494 10.489 10.489 0 00.933 4.527 7.3 7.3 0 002.6 3.073 6.775 6.775 0 003.8 1.1 6.618 6.618 0 003.111-.719 5.225 5.225 0 002.129-1.994v2.451h4.879V.494H272.4zm-3.733 20.56a3.415 3.415 0 01-2.849-1.291 5.772 5.772 0 01-1.015-3.645 5.442 5.442 0 011.015-3.53 3.472 3.472 0 012.849-1.242 3.375 3.375 0 012.8 1.258 5.638 5.638 0 011 3.58 5.759 5.759 0 01-.983 3.611 3.359 3.359 0 01-2.816 1.259zm19.779-2.321l-4.257-10.721h-5.172l7.2 16.539h4.192l7.3-16.539h-4.88zm22.334-10.754v2.354a5.458 5.458 0 00-2.129-2.027 6.382 6.382 0 00-3.111-.752 6.775 6.775 0 00-3.8 1.1 7.287 7.287 0 00-2.6 3.089 10.6 10.6 0 00-.933 4.544 10.274 10.274 0 00.933 4.494 6.8 6.8 0 006.4 4.037 6.618 6.618 0 003.111-.719 5.225 5.225 0 002.129-1.994v2.451h4.879V7.979h-4.879zm-3.8 13.075a3.483 3.483 0 01-2.865-1.226 5.486 5.486 0 01-1-3.546 5.787 5.787 0 011.015-3.629 3.4 3.4 0 012.849-1.307 3.363 3.363 0 012.816 1.258 5.764 5.764 0 01.983 3.612 5.692 5.692 0 01-.983 3.6 3.379 3.379 0 01-2.816 1.242zm22.923-13.5a6.576 6.576 0 00-3.226.785 6.107 6.107 0 00-2.308 2.255l-.328-2.615h-4.65a38.406 38.406 0 01.262 4.74v11.832h4.945v-9.283a3.942 3.942 0 01.982-2.811 3.425 3.425 0 012.62-1.046 2.421 2.421 0 012.014.8 4.056 4.056 0 01.639 2.533v9.806h4.945V14.517q0-6.963-5.895-6.963zm20.271 4.119V7.979h-4.225V2.488l-4.945 1.6v3.89h-3.143v3.694h3.143v6.537a6.86 6.86 0 001.621 4.871 6.125 6.125 0 004.7 1.732 7.889 7.889 0 002.849-.458V20.53a6.836 6.836 0 01-1.638.229 2.711 2.711 0 01-1.866-.638 2.55 2.55 0 01-.721-2.01v-6.439h4.225zm14.277-3.694v2.354a5.449 5.449 0 00-2.128-2.027 6.382 6.382 0 00-3.111-.752 6.773 6.773 0 00-3.8 1.1 7.287 7.287 0 00-2.6 3.089 10.59 10.59 0 00-.934 4.544 10.26 10.26 0 00.934 4.494 6.8 6.8 0 006.4 4.037 6.618 6.618 0 003.111-.719 5.216 5.216 0 002.128-1.994v2.451h4.88V7.979h-4.88zm-3.8 13.075a3.485 3.485 0 01-2.866-1.226 5.492 5.492 0 01-1-3.546 5.787 5.787 0 011.015-3.629 3.4 3.4 0 012.849-1.307 3.364 3.364 0 012.816 1.258 5.764 5.764 0 01.982 3.612 5.692 5.692 0 01-.982 3.6 3.38 3.38 0 01-2.816 1.242zm24.56-13.075v2.354a5.4 5.4 0 00-2.161-2.027 6.573 6.573 0 00-3.144-.752 7.143 7.143 0 00-3.831 1.03 7.069 7.069 0 00-2.62 2.909 10.347 10.347 0 000 8.662 7.069 7.069 0 002.62 2.909 7.143 7.143 0 003.831 1.03 6.383 6.383 0 005.3-2.811v2.876a3.989 3.989 0 01-1.048 3.024 4.46 4.46 0 01-3.176 1 13.27 13.27 0 01-5.96-1.5l-.754 3.661a14.556 14.556 0 006.877 1.536q4.389 0 6.681-2.059a7.669 7.669 0 002.292-6.014V7.979h-4.901zm-3.864 12.356a3.612 3.612 0 01-2.882-1.21 4.868 4.868 0 01-1.048-3.3 4.808 4.808 0 011.048-3.285 3.638 3.638 0 012.882-1.193 3.539 3.539 0 012.849 1.193 5.839 5.839 0 01-.016 6.6 3.552 3.552 0 01-2.833 1.193zm27.638-4.38a8.859 8.859 0 00-2.03-6.129 7.048 7.048 0 00-5.534-2.272 8.2 8.2 0 00-4.225 1.1 7.518 7.518 0 00-2.9 3.073 9.572 9.572 0 00-1.031 4.494 8.327 8.327 0 002.39 6.292 9.086 9.086 0 006.582 2.3 11.928 11.928 0 003.521-.539 8.708 8.708 0 002.931-1.488l-1.31-3.334a8.152 8.152 0 01-2.358 1.242 8.027 8.027 0 01-2.554.425 4.4 4.4 0 01-3.21-1.062 5 5 0 01-1.211-3.383h10.937v-.719zm-7.433-4.936q2.783 0 3.176 3.2h-6.582a4.087 4.087 0 011.13-2.386 3.187 3.187 0 012.276-.817zM417.969 0a6.909 6.909 0 00-3.5.9 6.658 6.658 0 00-2.482 2.468 7.176 7.176 0 000 6.984 6.693 6.693 0 002.482 2.487 7.146 7.146 0 007 0 6.676 6.676 0 002.492-2.487 7.156 7.156 0 000-6.974A6.641 6.641 0 00421.479.9a6.91 6.91 0 00-3.5-.9zm4.124 10.843l-1.05-2.058a1.865 1.865 0 00-.6-.667 1.7 1.7 0 00-.793-.286 2.583 2.583 0 001.442-.905 2.474 2.474 0 00.506-1.553 2.385 2.385 0 00-.8-1.886 3.363 3.363 0 00-2.291-.706h-3.898v8.157h2.539V8.004h.459a.487.487 0 01.4.305l1.3 2.63h2.712a5.34 5.34 0 01-1.8 1.21 5.831 5.831 0 01-2.244.428 5.713 5.713 0 01-2.911-.743 5.279 5.279 0 01-2.014-2.048 5.916 5.916 0 01-.726-2.925 5.823 5.823 0 01.726-2.9 5.3 5.3 0 012.014-2.039 6.039 6.039 0 015.8 0 5.3 5.3 0 012.014 2.039 5.822 5.822 0 01.725 2.9 6.091 6.091 0 01-.391 2.2 5.318 5.318 0 01-1.117 1.781zm-3.914-4.592h-1.05V4.71h1.05a1.258 1.258 0 01.754.181.731.731 0 01.239.62.655.655 0 01-.239.571 1.3 1.3 0 01-.754.172z" fill="#fff" fill-rule="evenodd"/></svg>