<svg xmlns="http://www.w3.org/2000/svg" width="218.656" height="31.531"><path data-name="Upgrade from" d="M10.009 24.502q4.879 0 7.45-2.534t2.571-7.371V.934h-5.043v13.892a6.231 6.231 0 01-1.277 4.233 4.664 4.664 0 01-3.7 1.455 4.711 4.711 0 01-3.717-1.455A6.178 6.178 0 015 14.826V.934H-.011v13.663q0 4.872 2.555 7.388t7.466 2.517zM34.373 7.21a6.481 6.481 0 00-3.324.85 4.988 4.988 0 00-2.112 2.321l-.328-2.746h-4.65a38.406 38.406 0 01.262 4.74v18.893h4.945v-9.512a5 5 0 002.1 1.994 6.618 6.618 0 003.111.719 7.058 7.058 0 003.831-1.046 6.885 6.885 0 002.587-2.991 10.431 10.431 0 00.917-4.494 10.6 10.6 0 00-.933-4.544 7.287 7.287 0 00-2.6-3.089 6.775 6.775 0 00-3.8-1.1zm-1.408 13.5a3.427 3.427 0 01-2.833-1.242 5.624 5.624 0 01-1-3.6 5.7 5.7 0 011-3.612 3.41 3.41 0 012.833-1.258 3.324 3.324 0 012.8 1.307 5.862 5.862 0 011 3.629 5.558 5.558 0 01-.983 3.546 3.4 3.4 0 01-2.816 1.226zM56.772 7.635v2.354a5.4 5.4 0 00-2.161-2.027 6.573 6.573 0 00-3.144-.752 7.143 7.143 0 00-3.831 1.03 7.069 7.069 0 00-2.62 2.909 10.347 10.347 0 000 8.662 7.069 7.069 0 002.62 2.909 7.143 7.143 0 003.831 1.03 6.383 6.383 0 005.3-2.811v2.876a3.989 3.989 0 01-1.048 3.024 4.46 4.46 0 01-3.176 1 13.27 13.27 0 01-5.96-1.5L45.83 30a14.55 14.55 0 006.877 1.536q4.387 0 6.68-2.059a7.669 7.669 0 002.292-6.014V7.635h-4.912zm-3.864 12.356a3.612 3.612 0 01-2.882-1.21 4.868 4.868 0 01-1.048-3.3 4.808 4.808 0 011.048-3.285 3.638 3.638 0 012.882-1.193 3.539 3.539 0 012.849 1.193 5.839 5.839 0 01-.016 6.6 3.552 3.552 0 01-2.833 1.193zm22.4-12.748a5.518 5.518 0 00-3 .833 4.861 4.861 0 00-1.949 2.4l-.327-2.844h-4.648a38.406 38.406 0 01.262 4.74v11.832h4.945v-8.662a4.069 4.069 0 011.032-2.958 3.989 3.989 0 013-1.062 5.766 5.766 0 012.424.556l.032-4.511a4.268 4.268 0 00-1.768-.327zm15.2.392v2.354a5.458 5.458 0 00-2.129-2.027 6.382 6.382 0 00-3.111-.752 6.775 6.775 0 00-3.8 1.1 7.287 7.287 0 00-2.6 3.089 10.6 10.6 0 00-.933 4.544 10.274 10.274 0 00.933 4.494 6.8 6.8 0 006.4 4.037 6.618 6.618 0 003.111-.719 5.225 5.225 0 002.129-1.994v2.451h4.879V7.635h-4.879zm-3.8 13.075a3.483 3.483 0 01-2.865-1.226 5.486 5.486 0 01-1-3.546 5.787 5.787 0 011.015-3.629 3.4 3.4 0 012.849-1.307 3.364 3.364 0 012.816 1.258 5.764 5.764 0 01.983 3.612 5.692 5.692 0 01-.983 3.6 3.38 3.38 0 01-2.816 1.242zM111.072.15v9.706a5.193 5.193 0 00-2.129-1.945 6.6 6.6 0 00-3.045-.7 6.9 6.9 0 00-3.815 1.063 7.147 7.147 0 00-2.587 3.007 10.26 10.26 0 00-.934 4.494 10.474 10.474 0 00.934 4.527 7.3 7.3 0 002.6 3.073 6.771 6.771 0 003.8 1.1 6.618 6.618 0 003.111-.719 5.216 5.216 0 002.128-1.994v2.451h4.88V.15h-4.945zm-3.733 20.56a3.415 3.415 0 01-2.849-1.291 5.772 5.772 0 01-1.016-3.645 5.442 5.442 0 011.016-3.53 3.472 3.472 0 012.849-1.242 3.377 3.377 0 012.8 1.258 5.644 5.644 0 011 3.58 5.759 5.759 0 01-.982 3.611 3.359 3.359 0 01-2.816 1.259zm27.573-5.1a8.859 8.859 0 00-2.031-6.129 7.047 7.047 0 00-5.534-2.272 8.189 8.189 0 00-4.224 1.1 7.514 7.514 0 00-2.9 3.073 9.584 9.584 0 00-1.031 4.494 8.328 8.328 0 002.391 6.292 9.083 9.083 0 006.582 2.3 11.922 11.922 0 003.52-.539 8.708 8.708 0 002.931-1.488l-1.31-3.334a8.126 8.126 0 01-2.358 1.242 8.027 8.027 0 01-2.554.425 4.4 4.4 0 01-3.209-1.062 4.991 4.991 0 01-1.212-3.383h10.938v-.719zm-7.434-4.936q2.783 0 3.177 3.2h-6.583a4.093 4.093 0 011.13-2.386 3.187 3.187 0 012.276-.817zm28.457-6.635a7.087 7.087 0 011.605.228V.41a8 8 0 00-2.817-.425 6.027 6.027 0 00-4.65 1.733 6.9 6.9 0 00-1.6 4.87v1.046h-3.111v3.694h3.111v12.878h4.945V11.329h3.471V7.635h-3.471V6.72a2.672 2.672 0 01.687-2.043 2.592 2.592 0 011.834-.637zm13.557 3.2a5.518 5.518 0 00-3 .833 4.859 4.859 0 00-1.948 2.4l-.328-2.844h-4.65a38.6 38.6 0 01.262 4.74V24.2h4.945v-8.662a4.073 4.073 0 011.031-2.958 3.991 3.991 0 013-1.062 5.765 5.765 0 012.423.556l.033-4.511a4.273 4.273 0 00-1.769-.327zm11.364 17.226a9.607 9.607 0 004.584-1.046 7.26 7.26 0 003.03-3.007 10.374 10.374 0 000-9.153 7.266 7.266 0 00-3.03-3.007 9.618 9.618 0 00-4.584-1.046 9.79 9.79 0 00-4.634 1.046 7.241 7.241 0 00-3.046 3.007 10.374 10.374 0 000 9.153 7.235 7.235 0 003.046 3.007 9.778 9.778 0 004.634 1.046zm0-3.759q-3.832 0-3.832-4.87a5.74 5.74 0 01.983-3.645 3.436 3.436 0 012.849-1.226 3.355 3.355 0 012.8 1.226 7.39 7.39 0 010 7.306 3.375 3.375 0 01-2.8 1.209zm32.157-13.5a6.312 6.312 0 00-3.192.834 6.049 6.049 0 00-2.276 2.239q-1.212-3.072-4.913-3.073a6.357 6.357 0 00-3.127.752 5.24 5.24 0 00-2.112 2.157l-.295-2.484h-4.654a38.6 38.6 0 01.262 4.74v11.832h4.945v-9.147a4.608 4.608 0 01.835-2.942 2.827 2.827 0 012.341-1.046 2.1 2.1 0 011.818.785 4.258 4.258 0 01.573 2.484v9.871h4.945v-9.152a4.674 4.674 0 01.819-2.942 2.779 2.779 0 012.325-1.046 2.113 2.113 0 011.833.768 4.35 4.35 0 01.557 2.5v9.871h4.947V14.173a8.236 8.236 0 00-1.392-5.247 5.137 5.137 0 00-4.241-1.716z" fill="#f36a20" fill-rule="evenodd"/></svg>