<svg xmlns="http://www.w3.org/2000/svg" width="288.124" height="29.031"><path data-name="miles, not interest." d="M20.563 7.341a6.317 6.317 0 00-3.193.833 6.061 6.061 0 00-2.275 2.239q-1.212-3.072-4.913-3.072a6.354 6.354 0 00-3.127.751 5.236 5.236 0 00-2.112 2.158l-.295-2.485h-4.65a38.6 38.6 0 01.262 4.74v11.833h4.945v-9.153a4.6 4.6 0 01.835-2.941 2.824 2.824 0 012.341-1.046 2.1 2.1 0 011.818.784 4.265 4.265 0 01.573 2.484v9.872h4.945v-9.153a4.669 4.669 0 01.818-2.941 2.78 2.78 0 012.326-1.046 2.11 2.11 0 011.833.768 4.344 4.344 0 01.557 2.5v9.872h4.945V14.303a8.232 8.232 0 00-1.392-5.246 5.137 5.137 0 00-4.241-1.716zm14.475 17V7.762h-4.945v16.573h4.945zm-5.109-19.71h5.272V-.011h-5.272v4.642zm14.081 19.71V.28h-4.945v24.058h4.947zm18.928-8.6a8.859 8.859 0 00-2.031-6.129 7.046 7.046 0 00-5.534-2.271 8.189 8.189 0 00-4.224 1.1 7.5 7.5 0 00-2.9 3.072 9.574 9.574 0 00-1.032 4.5 8.331 8.331 0 002.391 6.292 9.087 9.087 0 006.582 2.3 11.922 11.922 0 003.52-.539 8.725 8.725 0 002.931-1.487l-1.31-3.334a8.247 8.247 0 01-4.912 1.667 4.4 4.4 0 01-3.209-1.063 4.989 4.989 0 01-1.212-3.383h10.938v-.719zm-7.434-4.936q2.783 0 3.177 3.2h-6.583a4.09 4.09 0 011.13-2.386 3.183 3.183 0 012.276-.818zm16.9 13.794a8.729 8.729 0 005.206-1.373 4.359 4.359 0 001.9-3.726 4.307 4.307 0 00-1.146-3.138 7.43 7.43 0 00-3.7-1.765l-2.783-.621a3.531 3.531 0 01-1.458-.572 1.116 1.116 0 01-.409-.9 1.319 1.319 0 01.688-1.177 3.606 3.606 0 011.9-.425 7.874 7.874 0 012.571.458 10.755 10.755 0 012.6 1.34l1.376-3.3a10.487 10.487 0 00-3.046-1.52 11.414 11.414 0 00-3.471-.539 9.535 9.535 0 00-3.7.67 5.833 5.833 0 00-2.5 1.879 4.479 4.479 0 00-.9 2.746 4.139 4.139 0 001.13 3.04 6.946 6.946 0 003.521 1.667l2.718.621a4.776 4.776 0 011.735.621 1.151 1.151 0 01.492.98 1.246 1.246 0 01-.688 1.144 4.012 4.012 0 01-1.965.393 10.812 10.812 0 01-3.275-.507 10.113 10.113 0 01-2.914-1.455l-1.31 3.433a12.184 12.184 0 007.434 2.026zm9.562-5.524v5.263h2.456a7.477 7.477 0 01-2 3.2l1.932 1.5a10.053 10.053 0 002.276-3.122 8.677 8.677 0 00.672-3.481v-3.367h-5.338zM110.39 7.341a6.569 6.569 0 00-3.225.784 6.1 6.1 0 00-2.309 2.255l-.328-2.615h-4.65a38.406 38.406 0 01.262 4.74v11.833h4.945v-9.283a3.939 3.939 0 01.983-2.811 3.419 3.419 0 012.619-1.046 2.422 2.422 0 012.014.8 4.06 4.06 0 01.639 2.534v9.806h4.945V14.303q0-6.963-5.895-6.962zm17.749 17.258a9.608 9.608 0 004.585-1.046 7.252 7.252 0 003.029-3.007 10.372 10.372 0 000-9.152 7.26 7.26 0 00-3.029-3.008 9.619 9.619 0 00-4.585-1.045 9.792 9.792 0 00-4.634 1.045 7.229 7.229 0 00-3.045 3.008 10.372 10.372 0 000 9.152 7.221 7.221 0 003.045 3.007 9.781 9.781 0 004.634 1.046zm0-3.759q-3.831 0-3.831-4.87a5.74 5.74 0 01.982-3.645 3.437 3.437 0 012.849-1.225 3.352 3.352 0 012.8 1.225 7.39 7.39 0 010 7.306 3.372 3.372 0 01-2.8 1.209zm22.138-9.381V7.762h-4.225V2.271l-4.945 1.6v3.891h-3.144v3.7h3.144v6.537a6.86 6.86 0 001.621 4.871 6.125 6.125 0 004.7 1.732 7.912 7.912 0 002.849-.457V20.32a6.836 6.836 0 01-1.638.229 2.71 2.71 0 01-1.866-.637 2.551 2.551 0 01-.721-2.011v-6.439h4.225zm16.668 12.879V7.762H162v16.573h4.945zm-5.109-19.71h5.272V-.014h-5.272v4.642zm19.386 2.713a6.569 6.569 0 00-3.225.784 6.1 6.1 0 00-2.309 2.255l-.328-2.615h-4.648a38.406 38.406 0 01.262 4.74v11.833h4.938v-9.283a3.939 3.939 0 01.983-2.811 3.419 3.419 0 012.619-1.046 2.422 2.422 0 012.014.8 4.06 4.06 0 01.639 2.534v9.806h4.945V14.303q0-6.963-5.895-6.962zm20.271 4.118V7.762h-4.225V2.271l-4.945 1.6v3.891h-3.143v3.7h3.143v6.537a6.86 6.86 0 001.621 4.871 6.125 6.125 0 004.7 1.732 7.912 7.912 0 002.849-.457V20.32a6.836 6.836 0 01-1.638.229 2.71 2.71 0 01-1.866-.637 2.551 2.551 0 01-.721-2.011v-6.439h4.225zm17.421 4.282a8.863 8.863 0 00-2.03-6.129 7.047 7.047 0 00-5.534-2.271 8.2 8.2 0 00-4.225 1.1 7.51 7.51 0 00-2.9 3.072 9.573 9.573 0 00-1.031 4.5 8.33 8.33 0 002.39 6.292 9.088 9.088 0 006.582 2.3 11.928 11.928 0 003.521-.539 8.734 8.734 0 002.931-1.487l-1.306-3.34a8.152 8.152 0 01-2.358 1.242 8.055 8.055 0 01-2.554.425 4.4 4.4 0 01-3.21-1.063 4.994 4.994 0 01-1.211-3.383h10.933v-.719zm-7.433-4.936q2.783 0 3.176 3.2h-6.582a4.084 4.084 0 011.13-2.386 3.183 3.183 0 012.276-.818zm20.2-3.432a5.511 5.511 0 00-3 .834 4.852 4.852 0 00-1.948 2.4l-.321-2.845h-4.65a38.406 38.406 0 01.262 4.74v11.833h4.945v-8.662A4.07 4.07 0 01228 12.715a3.991 3.991 0 013-1.063 5.78 5.78 0 012.423.556l.033-4.511a4.287 4.287 0 00-1.768-.327zm18.338 8.368a8.863 8.863 0 00-2.03-6.129 7.05 7.05 0 00-5.535-2.271 8.189 8.189 0 00-4.224 1.1 7.5 7.5 0 00-2.9 3.072 9.574 9.574 0 00-1.032 4.5 8.331 8.331 0 002.391 6.292 9.087 9.087 0 006.582 2.3 11.922 11.922 0 003.52-.539 8.725 8.725 0 002.931-1.487l-1.31-3.334a8.242 8.242 0 01-4.912 1.667 4.4 4.4 0 01-3.209-1.063 4.994 4.994 0 01-1.212-3.383h10.943v-.719zm-7.434-4.936q2.784 0 3.177 3.2h-6.582a4.09 4.09 0 011.132-2.382 3.185 3.185 0 012.276-.818zm16.9 13.794a8.732 8.732 0 005.207-1.373 4.358 4.358 0 001.9-3.726 4.307 4.307 0 00-1.146-3.138 7.43 7.43 0 00-3.7-1.765l-2.783-.621a3.52 3.52 0 01-1.457-.572 1.114 1.114 0 01-.41-.9 1.319 1.319 0 01.688-1.177 3.606 3.606 0 011.9-.425 7.865 7.865 0 012.571.458 10.755 10.755 0 012.6 1.34l1.376-3.3a10.487 10.487 0 00-3.046-1.52 11.414 11.414 0 00-3.471-.539 9.539 9.539 0 00-3.7.67 5.839 5.839 0 00-2.5 1.879 4.484 4.484 0 00-.9 2.746 4.135 4.135 0 001.13 3.04 6.942 6.942 0 003.52 1.667l2.718.621a4.79 4.79 0 011.736.621 1.152 1.152 0 01.491.98 1.245 1.245 0 01-.688 1.144 4.007 4.007 0 01-1.965.393 10.812 10.812 0 01-3.275-.507 10.125 10.125 0 01-2.914-1.455l-1.31 3.433a12.184 12.184 0 007.434 2.026zm20.4-13.14V7.762h-4.225V2.271l-4.945 1.6v3.891h-3.144v3.7h3.144v6.537a6.86 6.86 0 001.621 4.871 6.125 6.125 0 004.7 1.732 7.912 7.912 0 002.849-.457V20.32a6.836 6.836 0 01-1.638.229 2.71 2.71 0 01-1.866-.637 2.551 2.551 0 01-.721-2.011v-6.439h4.225zm2.914 12.879h5.337v-5.263h-5.334v5.263z" fill="#fff" fill-rule="evenodd"/></svg>