<svg xmlns="http://www.w3.org/2000/svg" width="105.594" height="61.032"><path data-name="today for tomorrow’s getaways." d="M7.196 6.673V4.497H4.73V1.262l-2.886.943v2.292H.01v2.176h1.835v3.852a4.065 4.065 0 00.946 2.87 3.557 3.557 0 002.743 1.02 4.58 4.58 0 001.663-.269v-2.253a4 4 0 01-.956.134 1.574 1.574 0 01-1.089-.375 1.513 1.513 0 01-.42-1.185V6.673h2.465zm6.1 7.742a5.566 5.566 0 002.676-.616 4.252 4.252 0 001.768-1.772 6.161 6.161 0 000-5.392 4.252 4.252 0 00-1.768-1.772 5.566 5.566 0 00-2.676-.616 5.665 5.665 0 00-2.7.616 4.236 4.236 0 00-1.777 1.772 6.162 6.162 0 000 5.392 4.236 4.236 0 001.777 1.772 5.665 5.665 0 002.7.616zm0-2.214q-2.236 0-2.236-2.87a3.4 3.4 0 01.573-2.147 2 2 0 011.663-.723 1.948 1.948 0 011.634.723 4.389 4.389 0 010 4.3 1.96 1.96 0 01-1.634.713zM27.033.088v5.72a3.036 3.036 0 00-1.242-1.146 3.82 3.82 0 00-1.777-.414 4 4 0 00-2.227.626 4.2 4.2 0 00-1.51 1.771 6.1 6.1 0 00-.545 2.649 6.229 6.229 0 00.545 2.667 4.285 4.285 0 001.519 1.81 3.918 3.918 0 002.217.645 3.835 3.835 0 001.816-.423 3.063 3.063 0 001.242-1.175v1.444h2.848V.088h-2.886zm-2.179 12.114a1.987 1.987 0 01-1.663-.761 3.423 3.423 0 01-.593-2.147 3.228 3.228 0 01.593-2.08 2.018 2.018 0 011.663-.732 1.961 1.961 0 011.634.741 3.347 3.347 0 01.583 2.109 3.42 3.42 0 01-.573 2.128 1.953 1.953 0 01-1.644.742zm14.257-7.7v1.386a3.19 3.19 0 00-1.242-1.2 3.687 3.687 0 00-1.816-.443 3.925 3.925 0 00-2.217.645 4.279 4.279 0 00-1.519 1.82 6.293 6.293 0 00-.545 2.677 6.1 6.1 0 00.545 2.648 4.135 4.135 0 001.51 1.762 4.045 4.045 0 002.227.616 3.835 3.835 0 001.816-.423 3.064 3.064 0 001.242-1.175v1.444h2.847V4.495h-2.847zm-2.217 7.7a2.023 2.023 0 01-1.672-.723 3.255 3.255 0 01-.583-2.089 3.432 3.432 0 01.593-2.138 1.978 1.978 0 011.663-.77 1.955 1.955 0 011.644.741 3.422 3.422 0 01.573 2.128 3.378 3.378 0 01-.573 2.119 1.965 1.965 0 01-1.644.732zm14.1-7.7l-2.561 6.336-2.485-6.336h-3.014l3.994 9.264-.287.635a2.935 2.935 0 01-1.06 1.287 6.158 6.158 0 01-2.016.731l.669 2.234a6.917 6.917 0 003.068-1.126 6.376 6.376 0 002.073-2.745l4.472-10.284h-2.848zm14.257-2.118a4.13 4.13 0 01.936.134V.246a4.614 4.614 0 00-1.644-.251 3.5 3.5 0 00-2.713 1.021 4.088 4.088 0 00-.937 2.87v.616h-1.815v2.176h1.815v7.588h2.886V6.678h2.026V4.502h-2.026v-.544a1.584 1.584 0 01.4-1.2 1.505 1.505 0 011.071-.375zm6.8 12.036a5.565 5.565 0 002.676-.616 4.249 4.249 0 001.768-1.772 6.163 6.163 0 000-5.392 4.249 4.249 0 00-1.768-1.772 5.565 5.565 0 00-2.676-.616 5.664 5.664 0 00-2.7.616 4.236 4.236 0 00-1.777 1.772 6.163 6.163 0 000 5.392 4.236 4.236 0 001.777 1.772 5.664 5.664 0 002.7.616zm0-2.214q-2.235 0-2.236-2.87a3.405 3.405 0 01.574-2.147 2 2 0 011.662-.723 1.946 1.946 0 011.634.723 4.388 4.388 0 010 4.3 1.958 1.958 0 01-1.634.713zm12.557-7.935a3.2 3.2 0 00-1.749.491 2.854 2.854 0 00-1.137 1.416l-.191-1.676h-2.714a22.871 22.871 0 01.153 2.793v6.971h2.885v-5.1a2.408 2.408 0 01.6-1.743 2.314 2.314 0 011.748-.626 3.343 3.343 0 011.414.327l.02-2.657a2.466 2.466 0 00-1.032-.193zM7.196 27.858v-2.176H4.73v-3.236l-2.886.944v2.292H.01v2.176h1.835v3.852a4.065 4.065 0 00.946 2.87 3.557 3.557 0 002.743 1.02 4.58 4.58 0 001.663-.269v-2.254a3.957 3.957 0 01-.956.135 1.574 1.574 0 01-1.089-.375 1.514 1.514 0 01-.42-1.185v-3.794h2.465zm6.1 7.742a5.566 5.566 0 002.676-.616 4.252 4.252 0 001.768-1.772 6.161 6.161 0 000-5.392 4.252 4.252 0 00-1.768-1.772 5.566 5.566 0 00-2.676-.616 5.665 5.665 0 00-2.7.616 4.236 4.236 0 00-1.777 1.772 6.162 6.162 0 000 5.392 4.236 4.236 0 001.777 1.772 5.665 5.665 0 002.7.616zm0-2.214q-2.236 0-2.236-2.87a3.4 3.4 0 01.573-2.147 2 2 0 011.663-.723 1.948 1.948 0 011.634.723 4.389 4.389 0 010 4.3 1.96 1.96 0 01-1.634.713zm18.767-7.954a3.654 3.654 0 00-1.863.491 3.55 3.55 0 00-1.328 1.319 2.777 2.777 0 00-2.867-1.81 3.672 3.672 0 00-1.825.443 3.066 3.066 0 00-1.233 1.271l-.172-1.464h-2.717a22.913 22.913 0 01.153 2.793v6.971h2.886v-5.392a2.734 2.734 0 01.487-1.734 1.645 1.645 0 011.367-.616 1.221 1.221 0 011.061.462 2.533 2.533 0 01.334 1.464v5.816h2.886v-5.392a2.773 2.773 0 01.478-1.734 1.618 1.618 0 011.357-.616 1.227 1.227 0 011.07.453 2.581 2.581 0 01.325 1.473v5.816h2.886v-5.912a4.886 4.886 0 00-.812-3.091 2.985 2.985 0 00-2.475-1.011zM42.249 35.6a5.567 5.567 0 002.67-.612 4.25 4.25 0 001.767-1.772 6.154 6.154 0 000-5.392 4.25 4.25 0 00-1.767-1.776 5.567 5.567 0 00-2.676-.616 5.665 5.665 0 00-2.7.616 4.235 4.235 0 00-1.777 1.772 6.162 6.162 0 000 5.392 4.235 4.235 0 001.777 1.772 5.665 5.665 0 002.7.616zm0-2.214q-2.236 0-2.236-2.87a3.4 3.4 0 01.573-2.147 2 2 0 011.663-.723 1.948 1.948 0 011.634.723 4.389 4.389 0 010 4.3 1.96 1.96 0 01-1.634.713zm12.556-7.935a3.2 3.2 0 00-1.749.491 2.856 2.856 0 00-1.137 1.415l-.191-1.675h-2.714a22.871 22.871 0 01.153 2.793v6.971h2.886v-5.1a2.411 2.411 0 01.6-1.743 2.315 2.315 0 011.749-.626 3.347 3.347 0 011.414.327l.019-2.658a2.476 2.476 0 00-1.032-.192zm7.836 0a3.2 3.2 0 00-1.749.491 2.856 2.856 0 00-1.137 1.415l-.191-1.675H56.85a22.871 22.871 0 01.153 2.793v6.971h2.886v-5.1a2.407 2.407 0 01.6-1.743 2.314 2.314 0 011.748-.626 3.351 3.351 0 011.415.327l.019-2.658a2.482 2.482 0 00-1.032-.192zM69.272 35.6a5.57 5.57 0 002.676-.616 4.26 4.26 0 001.768-1.772 6.163 6.163 0 000-5.392 4.26 4.26 0 00-1.768-1.772 5.57 5.57 0 00-2.676-.616 5.664 5.664 0 00-2.7.616 4.23 4.23 0 00-1.777 1.772 6.154 6.154 0 000 5.392 4.23 4.23 0 001.777 1.772 5.664 5.664 0 002.7.616zm0-2.214q-2.235 0-2.236-2.87a3.4 3.4 0 01.574-2.147 2 2 0 011.662-.723 1.947 1.947 0 011.634.723 4.388 4.388 0 010 4.3 1.96 1.96 0 01-1.634.713zm17.447-1.349l-2.332-6.355h-1.968l-2.313 6.3-2.331-6.3h-2.943l3.917 9.764h2.447l2.1-5.662 2.2 5.662h2.423l3.918-9.764h-2.79zm6.268-10.3v3.1h1.432a4.188 4.188 0 01-1.166 1.887l1.128.905a6.425 6.425 0 001.328-1.868 5.092 5.092 0 00.392-2.041v-1.984h-3.116zm8.448 13.866a5.059 5.059 0 003.039-.809 2.577 2.577 0 001.108-2.2 2.551 2.551 0 00-.669-1.849 4.318 4.318 0 00-2.159-1.04l-1.625-.366a2.048 2.048 0 01-.85-.337.658.658 0 01-.239-.529.777.777 0 01.4-.694 2.088 2.088 0 011.108-.25 4.568 4.568 0 011.5.269 6.252 6.252 0 011.519.79l.8-1.945a6.114 6.114 0 00-1.778-.9 6.63 6.63 0 00-2.025-.317 5.523 5.523 0 00-2.16.394 3.42 3.42 0 00-1.462 1.108 2.652 2.652 0 00-.526 1.618 2.452 2.452 0 00.66 1.791 4.034 4.034 0 002.054.982l1.589.369a2.783 2.783 0 011.012.366.678.678 0 01.287.577.738.738 0 01-.4.675 2.328 2.328 0 01-1.147.231 6.254 6.254 0 01-1.911-.3 5.864 5.864 0 01-1.7-.857l-.765 2.022a7.057 7.057 0 004.339 1.194zM8.035 46.87v1.386a3.172 3.172 0 00-1.261-1.194 3.808 3.808 0 00-1.835-.443 4.052 4.052 0 00-3.765 2.321 6.153 6.153 0 000 5.1 4.052 4.052 0 003.765 2.321 3.588 3.588 0 001.816-.472 3.651 3.651 0 001.28-1.185v1.695a2.366 2.366 0 01-.612 1.782 2.589 2.589 0 01-1.854.587 7.691 7.691 0 01-3.478-.886l-.44 2.157a8.431 8.431 0 004.013.905 5.617 5.617 0 003.9-1.213 4.542 4.542 0 001.338-3.544v-9.321H8.037zM5.78 54.15a2.1 2.1 0 01-1.682-.713 2.887 2.887 0 01-.612-1.945 2.851 2.851 0 01.612-1.936 2.114 2.114 0 011.682-.7 2.057 2.057 0 011.663.7 3.467 3.467 0 01-.009 3.891 2.061 2.061 0 01-1.653.7zm16.13-2.581a5.253 5.253 0 00-1.185-3.611 4.1 4.1 0 00-3.23-1.339 4.747 4.747 0 00-2.465.646 4.4 4.4 0 00-1.691 1.81 5.687 5.687 0 00-.6 2.648 4.931 4.931 0 001.4 3.707 5.27 5.27 0 003.841 1.358 6.885 6.885 0 002.055-.318 5.045 5.045 0 001.71-.876l-.764-1.964a4.744 4.744 0 01-1.376.732 4.654 4.654 0 01-1.491.25 2.554 2.554 0 01-1.873-.626 2.957 2.957 0 01-.707-1.993h6.383v-.424zm-4.338-2.908a1.8 1.8 0 011.854 1.887h-3.841a2.421 2.421 0 01.659-1.406 1.852 1.852 0 011.328-.481zm12.059.385V46.87h-2.464v-3.236l-2.886.944v2.292h-1.835v2.176h1.835v3.852a4.066 4.066 0 00.946 2.87 3.557 3.557 0 002.743 1.02 4.579 4.579 0 001.663-.269v-2.254a3.957 3.957 0 01-.956.135 1.574 1.574 0 01-1.089-.375 1.514 1.514 0 01-.42-1.185v-3.794h2.465zm8.333-2.176v1.386a3.2 3.2 0 00-1.245-1.197 3.7 3.7 0 00-1.816-.443 3.926 3.926 0 00-2.217.646 4.279 4.279 0 00-1.519 1.82 6.293 6.293 0 00-.545 2.677 6.1 6.1 0 00.545 2.648 4.136 4.136 0 001.51 1.762 4.045 4.045 0 002.227.616 3.835 3.835 0 001.815-.423 3.069 3.069 0 001.242-1.175v1.444h2.848v-9.764h-2.844zm-2.217 7.7a2.023 2.023 0 01-1.672-.722 3.257 3.257 0 01-.583-2.089 3.432 3.432 0 01.593-2.138 1.978 1.978 0 011.663-.77 1.955 1.955 0 011.644.741 3.42 3.42 0 01.573 2.128 3.378 3.378 0 01-.573 2.119 1.964 1.964 0 01-1.644.731zm18.118-1.348l-2.332-6.355h-1.969l-2.312 6.3-2.332-6.3h-2.942l3.918 9.764h2.446l2.1-5.662 2.2 5.662h2.428l3.917-9.764h-2.79zm12.976-6.355v1.386a3.2 3.2 0 00-1.242-1.194 3.7 3.7 0 00-1.816-.443 3.928 3.928 0 00-2.217.646 4.283 4.283 0 00-1.519 1.82 6.3 6.3 0 00-.545 2.677 6.1 6.1 0 00.545 2.648 4.131 4.131 0 001.51 1.762 4.045 4.045 0 002.226.616 3.834 3.834 0 001.816-.423 3.068 3.068 0 001.242-1.175v1.444h2.848v-9.764h-2.848zm-2.217 7.7a2.023 2.023 0 01-1.672-.722 3.255 3.255 0 01-.583-2.089 3.433 3.433 0 01.593-2.138 1.976 1.976 0 011.662-.77 1.954 1.954 0 011.644.741 3.421 3.421 0 01.573 2.128 3.379 3.379 0 01-.573 2.119 1.964 1.964 0 01-1.644.731zm14.1-7.7l-2.561 6.336-2.485-6.336h-3.02l4 9.263-.287.636a2.93 2.93 0 01-1.061 1.29 6.125 6.125 0 01-2.016.732l.669 2.234a6.911 6.911 0 003.067-1.126 6.376 6.376 0 002.074-2.745l4.472-10.284h-2.847zm7.415 9.918a5.059 5.059 0 003.039-.809 2.577 2.577 0 001.108-2.2 2.549 2.549 0 00-.669-1.849 4.318 4.318 0 00-2.16-1.04l-1.624-.366a2.048 2.048 0 01-.85-.337.658.658 0 01-.239-.53.777.777 0 01.4-.693 2.088 2.088 0 011.108-.25 4.568 4.568 0 011.5.269 6.252 6.252 0 011.519.79l.8-1.945a6.114 6.114 0 00-1.778-.9 6.6 6.6 0 00-2.025-.318 5.523 5.523 0 00-2.16.4 3.42 3.42 0 00-1.462 1.108 2.651 2.651 0 00-.526 1.617 2.452 2.452 0 00.66 1.792 4.034 4.034 0 002.054.982l1.586.366a2.764 2.764 0 011.013.366.68.68 0 01.287.577.735.735 0 01-.4.674 2.327 2.327 0 01-1.147.232 6.254 6.254 0 01-1.911-.3 5.864 5.864 0 01-1.7-.857l-.765 2.022a7.063 7.063 0 004.339 1.194zm5.58-.154h3.116v-3.1h-3.116v3.1z" fill="#f36a20" fill-rule="evenodd"/></svg>