<svg xmlns="http://www.w3.org/2000/svg" width="126.188" height="81.562"><path data-name="Earn AAdvantage® miles for saving." d="M10.955 13.7v-2.33H4.476V7.903h6.078V5.554H4.476V2.318h6.479v-2.33H1.571V13.7h9.384zm8.734-9.764v1.387a3.19 3.19 0 00-1.242-1.194 3.7 3.7 0 00-1.816-.443 3.925 3.925 0 00-2.217.645 4.279 4.279 0 00-1.519 1.82 6.293 6.293 0 00-.545 2.677 6.1 6.1 0 00.545 2.648 4.135 4.135 0 001.51 1.762 4.046 4.046 0 002.227.617 3.835 3.835 0 001.816-.424 3.057 3.057 0 001.242-1.175V13.7h2.848V3.936h-2.849zm-2.217 7.7a2.026 2.026 0 01-1.672-.722 3.26 3.26 0 01-.583-2.09 3.432 3.432 0 01.592-2.138 1.978 1.978 0 011.663-.77 1.955 1.955 0 011.644.741 3.422 3.422 0 01.573 2.128 3.378 3.378 0 01-.573 2.119 1.965 1.965 0 01-1.644.732zm13.034-7.935a3.2 3.2 0 00-1.749.491 2.858 2.858 0 00-1.137 1.42l-.191-1.676h-2.714a22.913 22.913 0 01.153 2.793V13.7h2.886V8.6a2.41 2.41 0 01.6-1.743 2.316 2.316 0 011.749-.626 3.345 3.345 0 011.414.327l.019-2.657a2.463 2.463 0 00-1.032-.193zm8.18-.019a3.809 3.809 0 00-1.883.462 3.575 3.575 0 00-1.347 1.329l-.191-1.541h-2.714a22.914 22.914 0 01.153 2.793v6.971h2.886V8.227a2.335 2.335 0 01.573-1.656 1.988 1.988 0 011.529-.617 1.408 1.408 0 011.175.472 2.409 2.409 0 01.373 1.493v5.777h2.886V7.784q0-4.1-3.44-4.1zm-23.774 31.2L8.662 21.17H6.254L0 34.885h3l1.3-3.043h6.364l1.3 3.043h2.943zM7.5 24.412l2.2 5.143H5.3zm21.921 10.477l-6.249-13.712h-2.413L14.51 34.885h3l1.3-3.043h6.364l1.3 3.043h2.943zM22 24.412l2.2 5.143h-4.4zm15.213-3.7v5.72a3.036 3.036 0 00-1.242-1.146 3.819 3.819 0 00-1.777-.414 4 4 0 00-2.227.626 4.2 4.2 0 00-1.51 1.771 6.1 6.1 0 00-.545 2.649 6.231 6.231 0 00.545 2.667 4.285 4.285 0 001.519 1.81 3.918 3.918 0 002.217.645 3.835 3.835 0 001.816-.423 3.064 3.064 0 001.242-1.175v1.444H40.1V20.712h-2.886zm-2.179 12.114a1.987 1.987 0 01-1.663-.761 3.423 3.423 0 01-.592-2.147 3.228 3.228 0 01.592-2.08 2.018 2.018 0 011.663-.732 1.961 1.961 0 011.634.741 3.347 3.347 0 01.583 2.109 3.419 3.419 0 01-.573 2.128 1.953 1.953 0 01-1.644.742zm11.543-1.368l-2.484-6.317h-3.02l4.2 9.745h2.446l4.262-9.745h-2.848zm13.034-6.336v1.39a3.188 3.188 0 00-1.241-1.2 3.686 3.686 0 00-1.816-.443 3.922 3.922 0 00-2.216.645 4.278 4.278 0 00-1.52 1.82 6.3 6.3 0 00-.545 2.677 6.1 6.1 0 00.545 2.648 4.131 4.131 0 001.51 1.762 4.045 4.045 0 002.226.616 3.834 3.834 0 001.816-.423 3.062 3.062 0 001.242-1.175v1.444h2.848v-9.764h-2.848zm-2.217 7.7a2.024 2.024 0 01-1.672-.723 3.254 3.254 0 01-.583-2.089 3.433 3.433 0 01.593-2.138 1.976 1.976 0 011.662-.77 1.954 1.954 0 011.644.741 3.423 3.423 0 01.573 2.128 3.379 3.379 0 01-.573 2.119 1.964 1.964 0 01-1.644.732zm13.378-7.954a3.806 3.806 0 00-1.882.462 3.579 3.579 0 00-1.348 1.329l-.191-1.541h-2.714a22.871 22.871 0 01.153 2.793v6.971h2.886v-5.47a2.33 2.33 0 01.574-1.656 1.987 1.987 0 011.529-.617 1.408 1.408 0 011.175.472 2.412 2.412 0 01.373 1.493v5.777h2.885v-5.912q0-4.1-3.44-4.1zm11.83 2.426v-2.176h-2.465v-3.235l-2.886.943v2.292h-1.835v2.176h1.835v3.852a4.063 4.063 0 00.946 2.87 3.558 3.558 0 002.743 1.02 4.576 4.576 0 001.662-.269v-2.253a4 4 0 01-.955.134 1.576 1.576 0 01-1.09-.375 1.514 1.514 0 01-.42-1.185v-3.794H82.6zm8.333-2.176v1.394a3.188 3.188 0 00-1.241-1.2 3.692 3.692 0 00-1.816-.443 3.927 3.927 0 00-2.217.645 4.276 4.276 0 00-1.519 1.82 6.3 6.3 0 00-.545 2.677 6.1 6.1 0 00.545 2.648 4.136 4.136 0 001.509 1.762 4.048 4.048 0 002.227.616 3.839 3.839 0 001.816-.423 3.062 3.062 0 001.242-1.175v1.444h2.847v-9.764h-2.847zm-2.217 7.7a2.022 2.022 0 01-1.672-.723 3.254 3.254 0 01-.583-2.089 3.432 3.432 0 01.592-2.138 1.978 1.978 0 011.663-.77 1.954 1.954 0 011.643.741 3.417 3.417 0 01.574 2.128 3.373 3.373 0 01-.574 2.119 1.964 1.964 0 01-1.643.732zm14.333-7.7v1.394a3.154 3.154 0 00-1.26-1.2 3.8 3.8 0 00-1.835-.443 4.049 4.049 0 00-3.765 2.32 6.155 6.155 0 000 5.1 4.052 4.052 0 003.765 2.321 3.578 3.578 0 001.816-.472 3.631 3.631 0 001.28-1.185v1.7a2.368 2.368 0 01-.611 1.782 2.589 2.589 0 01-1.854.587 7.676 7.676 0 01-3.478-.886l-.44 2.157a8.421 8.421 0 004.014.905 5.616 5.616 0 003.9-1.213 4.541 4.541 0 001.338-3.544V25.12h-2.867zm-2.255 7.28a2.1 2.1 0 01-1.682-.713 2.884 2.884 0 01-.611-1.945 2.849 2.849 0 01.611-1.935 2.112 2.112 0 011.682-.7 2.054 2.054 0 011.663.7 3.467 3.467 0 01-.01 3.89 2.059 2.059 0 01-1.653.7zm16.13-2.581a5.252 5.252 0 00-1.185-3.611 4.093 4.093 0 00-3.23-1.338 4.745 4.745 0 00-2.465.645 4.406 4.406 0 00-1.691 1.81 5.679 5.679 0 00-.6 2.648 4.936 4.936 0 001.4 3.708 5.273 5.273 0 003.841 1.357 6.887 6.887 0 002.055-.317 5.068 5.068 0 001.71-.877l-.764-1.964a4.749 4.749 0 01-1.376.732 4.656 4.656 0 01-1.491.25 2.55 2.55 0 01-1.873-.626 2.96 2.96 0 01-.707-1.993h6.383v-.424zm-4.338-2.908a1.8 1.8 0 011.854 1.888H110.6a2.418 2.418 0 01.66-1.406 1.847 1.847 0 011.328-.482zm9.578-6.49a4 4 0 00-2.044.533 3.9 3.9 0 00-1.449 1.454 4.266 4.266 0 000 4.115 3.962 3.962 0 003.493 2 3.968 3.968 0 002.039-.539 3.909 3.909 0 001.454-1.465 4.247 4.247 0 000-4.109 3.888 3.888 0 00-1.448-1.46 4.008 4.008 0 00-2.045-.533zm2.407 6.388l-.613-1.212a1.079 1.079 0 00-.351-.393.985.985 0 00-.462-.169 1.506 1.506 0 00.841-.533 1.464 1.464 0 00.295-.915 1.414 1.414 0 00-.468-1.112 1.953 1.953 0 00-1.337-.415h-2.273v4.806h1.482v-1.73h.268a.283.283 0 01.234.18l.757 1.55h1.582a3.1 3.1 0 01-1.053.712 3.36 3.36 0 01-1.309.253 3.313 3.313 0 01-1.7-.438 3.1 3.1 0 01-1.175-1.207 3.5 3.5 0 01-.424-1.723 3.452 3.452 0 01.424-1.707 3.11 3.11 0 011.175-1.2 3.493 3.493 0 013.387 0 3.113 3.113 0 011.176 1.2 3.462 3.462 0 01.423 1.707 3.628 3.628 0 01-.228 1.3 3.152 3.152 0 01-.652 1.049zm-2.284-2.706h-.613v-.909h.613a.728.728 0 01.44.107.431.431 0 01.139.365.386.386 0 01-.139.336.754.754 0 01-.44.1zM13.229 46.056a3.654 3.654 0 00-1.863.491 3.55 3.55 0 00-1.328 1.319 2.777 2.777 0 00-2.867-1.81 3.672 3.672 0 00-1.825.443 3.066 3.066 0 00-1.233 1.271l-.172-1.464H1.227a22.913 22.913 0 01.153 2.793v6.971h2.886v-5.392a2.734 2.734 0 01.487-1.734 1.645 1.645 0 011.366-.616 1.221 1.221 0 011.061.462 2.533 2.533 0 01.334 1.464v5.816H10.4v-5.392a2.773 2.773 0 01.478-1.734 1.618 1.618 0 011.357-.616 1.227 1.227 0 011.07.453 2.581 2.581 0 01.325 1.473v5.816h2.886v-5.912a4.886 4.886 0 00-.812-3.091 2.985 2.985 0 00-2.475-1.011zm8.447 10.014v-9.764h-2.885v9.764h2.886zM18.7 44.457h3.077v-2.735H18.7v2.735zm8.218 11.613V41.896h-2.891V56.07h2.886zm11.046-5.065a5.253 5.253 0 00-1.185-3.611 4.1 4.1 0 00-3.23-1.338 4.746 4.746 0 00-2.465.645 4.4 4.4 0 00-1.691 1.81 5.687 5.687 0 00-.6 2.648 4.935 4.935 0 001.4 3.708 5.274 5.274 0 003.841 1.357 6.915 6.915 0 002.055-.317 5.064 5.064 0 001.71-.877l-.764-1.964a4.743 4.743 0 01-1.376.732 4.654 4.654 0 01-1.491.25 2.55 2.55 0 01-1.873-.626 2.957 2.957 0 01-.707-1.993h6.383v-.424zm-4.338-2.908a1.794 1.794 0 011.854 1.887h-3.847a2.419 2.419 0 01.659-1.405 1.848 1.848 0 011.328-.482zm9.861 8.127a5.058 5.058 0 003.039-.809 2.8 2.8 0 00.439-4.044 4.315 4.315 0 00-2.159-1.04l-1.624-.366a2.051 2.051 0 01-.85-.337.659.659 0 01-.239-.529.778.778 0 01.4-.694 2.088 2.088 0 011.109-.25 4.568 4.568 0 011.5.269 6.232 6.232 0 011.519.79l.8-1.945a6.106 6.106 0 00-1.777-.9 6.638 6.638 0 00-2.026-.317 5.523 5.523 0 00-2.16.394 3.42 3.42 0 00-1.462 1.108 2.655 2.655 0 00-.526 1.618 2.453 2.453 0 00.659 1.791 4.037 4.037 0 002.055.982l1.585.367a2.79 2.79 0 011.013.366.68.68 0 01.287.577.737.737 0 01-.4.675 2.326 2.326 0 01-1.147.231 6.256 6.256 0 01-1.911-.3 5.878 5.878 0 01-1.7-.857l-.764 2.022a7.054 7.054 0 004.338 1.194zM6.464 65.372a4.078 4.078 0 01.936.135v-2.272a4.615 4.615 0 00-1.644-.251 3.5 3.5 0 00-2.714 1.021 4.09 4.09 0 00-.937 2.87v.616H.291v2.176h1.816v7.588h2.886v-7.588h2.026v-2.176H4.992v-.539a1.582 1.582 0 01.4-1.2 1.5 1.5 0 011.07-.376zm6.8 12.037a5.567 5.567 0 002.676-.616 4.258 4.258 0 001.768-1.772 6.161 6.161 0 000-5.392 4.252 4.252 0 00-1.768-1.772 5.567 5.567 0 00-2.676-.617 5.665 5.665 0 00-2.7.617 4.235 4.235 0 00-1.777 1.772 6.162 6.162 0 000 5.392 4.241 4.241 0 001.777 1.772 5.665 5.665 0 002.7.616zm0-2.215q-2.236 0-2.236-2.869a3.409 3.409 0 01.573-2.148 2 2 0 011.663-.722 1.95 1.95 0 011.634.722 4.391 4.391 0 010 4.3 1.96 1.96 0 01-1.634.712zM25.82 67.26a3.19 3.19 0 00-1.749.491 2.856 2.856 0 00-1.137 1.415l-.191-1.675h-2.71a22.9 22.9 0 01.153 2.792v6.972h2.886v-5.1a2.41 2.41 0 01.6-1.743 2.316 2.316 0 011.749-.626 3.345 3.345 0 011.414.327l.019-2.658a2.479 2.479 0 00-1.032-.192zM37.1 77.412a5.057 5.057 0 003.039-.809 2.576 2.576 0 001.108-2.2 2.549 2.549 0 00-.669-1.849 4.317 4.317 0 00-2.16-1.04l-1.624-.366a2.051 2.051 0 01-.85-.337.66.66 0 01-.239-.53.778.778 0 01.4-.693 2.088 2.088 0 011.109-.25 4.569 4.569 0 011.5.269 6.252 6.252 0 011.519.79l.8-1.945a6.113 6.113 0 00-1.777-.9 6.609 6.609 0 00-2.026-.318 5.523 5.523 0 00-2.16.4 3.419 3.419 0 00-1.462 1.108 2.653 2.653 0 00-.526 1.617 2.454 2.454 0 00.659 1.792 4.037 4.037 0 002.054.982l1.586.366a2.77 2.77 0 011.013.366.68.68 0 01.287.577.735.735 0 01-.4.674 2.324 2.324 0 01-1.147.232 6.256 6.256 0 01-1.911-.3 5.876 5.876 0 01-1.7-.857l-.762 2.021a7.061 7.061 0 004.339 1.2zm12.767-9.918v1.386a3.211 3.211 0 00-1.243-1.194 3.7 3.7 0 00-1.815-.443 3.927 3.927 0 00-2.217.646 4.279 4.279 0 00-1.519 1.82 6.293 6.293 0 00-.545 2.677 6.1 6.1 0 00.545 2.648 4.136 4.136 0 001.51 1.762 4.046 4.046 0 002.227.616 3.833 3.833 0 001.815-.423 3.077 3.077 0 001.243-1.175v1.444h2.847v-9.764h-2.847zm-2.217 7.7a2.023 2.023 0 01-1.673-.722 3.257 3.257 0 01-.583-2.089 3.432 3.432 0 01.592-2.138 1.979 1.979 0 011.663-.77 1.954 1.954 0 011.643.741 3.421 3.421 0 01.574 2.128 3.379 3.379 0 01-.574 2.119 1.963 1.963 0 01-1.643.731zm11.543-1.367l-2.485-6.317h-3.019l4.2 9.745h2.446l4.265-9.743h-2.847zm9.25 3.428v-9.764h-2.886v9.764h2.886zM65.46 65.642h3.077v-2.73H65.46v2.735zm11.314 1.6a3.813 3.813 0 00-1.883.463 3.576 3.576 0 00-1.347 1.329l-.191-1.541h-2.714a22.854 22.854 0 01.153 2.792v6.972h2.886v-5.469a2.337 2.337 0 01.573-1.657 1.991 1.991 0 011.529-.616 1.408 1.408 0 011.176.472 2.411 2.411 0 01.372 1.492v5.778h2.886v-5.912q0-4.1-3.44-4.1zm12.671.251v1.386a3.17 3.17 0 00-1.262-1.194 3.806 3.806 0 00-1.834-.443 4.052 4.052 0 00-3.765 2.321 6.145 6.145 0 000 5.1 4.052 4.052 0 003.765 2.321 3.587 3.587 0 001.815-.472 3.652 3.652 0 001.281-1.185v1.695a2.365 2.365 0 01-.612 1.782 2.589 2.589 0 01-1.854.587 7.692 7.692 0 01-3.478-.886l-.439 2.157a8.426 8.426 0 004.013.905 5.618 5.618 0 003.9-1.213 4.544 4.544 0 001.338-3.544v-9.321h-2.867zm-2.255 7.28a2.1 2.1 0 01-1.682-.713 2.886 2.886 0 01-.612-1.945 2.851 2.851 0 01.612-1.936 2.113 2.113 0 011.682-.7 2.056 2.056 0 011.662.7 3.466 3.466 0 01-.009 3.891 2.062 2.062 0 01-1.653.7zm7.2 2.484h3.116v-3.1H94.39v3.1z" fill="#fff" fill-rule="evenodd"/></svg>