<svg xmlns="http://www.w3.org/2000/svg" width="44" height="14.062"><path d="M5.33 14.062a6.746 6.746 0 004.147-1.127 3.624 3.624 0 001.491-3.052A3.056 3.056 0 009.812 7.36a9.461 9.461 0 00-3.774-1.5 11.105 11.105 0 01-1.739-.471 2.156 2.156 0 01-.869-.549 1.16 1.16 0 01-.258-.771 1.435 1.435 0 01.688-1.251 3.234 3.234 0 011.835-.463 6.331 6.331 0 013.956 1.387l.956-2.157A5.682 5.682 0 008.467.429a9.2 9.2 0 00-2.79-.423 6.846 6.846 0 00-2.828.549 4.466 4.466 0 00-1.9 1.531A3.8 3.8 0 00.271 4.3a3.449 3.449 0 00.487 1.9 3.772 3.772 0 001.548 1.291 11.781 11.781 0 002.857.895 8.307 8.307 0 012.246.723 1.149 1.149 0 01.64 1.03 1.29 1.29 0 01-.7 1.165 3.95 3.95 0 01-2 .414 7.458 7.458 0 01-4.4-1.386L0 12.483a6.743 6.743 0 002.36 1.165 10.589 10.589 0 002.972.414zM19.8 4.124v1.387a3.189 3.189 0 00-1.242-1.194 3.7 3.7 0 00-1.816-.443 3.926 3.926 0 00-2.217.645A4.279 4.279 0 0013 6.339a6.293 6.293 0 00-.545 2.677A6.1 6.1 0 0013 11.664a4.136 4.136 0 001.51 1.762 4.046 4.046 0 002.227.617 3.836 3.836 0 001.816-.424 3.056 3.056 0 001.242-1.175v1.444h2.848V4.124H19.8zm-2.217 7.7a2.025 2.025 0 01-1.672-.722 3.26 3.26 0 01-.583-2.09 3.432 3.432 0 01.593-2.138 1.978 1.978 0 011.663-.77 1.955 1.955 0 011.644.741 3.422 3.422 0 01.573 2.128 3.378 3.378 0 01-.573 2.119 1.965 1.965 0 01-1.644.732zm11.543-1.368l-2.484-6.317H23.62l4.2 9.745h2.45l4.262-9.745h-2.847zm14.869-1.637a5.253 5.253 0 00-1.185-3.611 4.1 4.1 0 00-3.23-1.338 4.746 4.746 0 00-2.465.645 4.408 4.408 0 00-1.691 1.81 5.687 5.687 0 00-.6 2.648 4.934 4.934 0 001.4 3.708 5.274 5.274 0 003.841 1.358 6.885 6.885 0 002.054-.318 5.064 5.064 0 001.711-.877l-.765-1.964a4.743 4.743 0 01-1.376.732 4.654 4.654 0 01-1.491.25 2.55 2.55 0 01-1.873-.626 2.957 2.957 0 01-.707-1.993h6.383v-.424zm-4.338-2.908a1.8 1.8 0 011.854 1.888h-3.845a2.418 2.418 0 01.659-1.406 1.848 1.848 0 011.328-.482z" fill="#f36a20" fill-rule="evenodd"/></svg>