<svg xmlns="http://www.w3.org/2000/svg" width="136.75" height="14.656"><path data-name="Bask Bank and BankDirect are divisions of Texas Capital Bank," d="M2.209 5.076a3.367 3.367 0 00.82-.085 1.544 1.544 0 00.557-.251 1.288 1.288 0 00.373-.473 1.486 1.486 0 00.151-.664 1.235 1.235 0 00-.248-.77 1.33 1.33 0 00-.709-.462 1.255 1.255 0 00.534-.464 1.155 1.155 0 00.177-.614 1.252 1.252 0 00-.2-.671 1.2 1.2 0 00-.551-.475 2.358 2.358 0 00-.935-.155H.27v5.084h1.939zM.943.592h1.016a2.861 2.861 0 01.773.072.613.613 0 01.347.263.818.818 0 01.121.446.73.73 0 01-.13.444.713.713 0 01-.387.253 2.467 2.467 0 01-.642.059h-1.1V.592zm0 2.137h1.176a2.493 2.493 0 01.744.085.768.768 0 01.4.294.847.847 0 01.146.5.887.887 0 01-.1.428.737.737 0 01-.257.283 1.116 1.116 0 01-.388.138 2.947 2.947 0 01-.458.024H.943V2.734zM7.55 5.076h.652a1.381 1.381 0 01-.158-.442 8.812 8.812 0 01-.04-1.1v-.832a3.521 3.521 0 00-.031-.576.989.989 0 00-.194-.425 1.011 1.011 0 00-.434-.279 2.212 2.212 0 00-.766-.111 2.476 2.476 0 00-.836.13 1.208 1.208 0 00-.551.371 1.516 1.516 0 00-.274.633l.61.084a.943.943 0 01.31-.547 1.1 1.1 0 01.65-.154 1.045 1.045 0 01.711.212.688.688 0 01.177.537v.163a5.714 5.714 0 01-1.113.215 4.317 4.317 0 00-.555.094 1.513 1.513 0 00-.449.2 1.019 1.019 0 00-.323.359 1.008 1.008 0 00-.123.494.979.979 0 00.326.758 1.338 1.338 0 00.933.3 1.928 1.928 0 00.688-.122 2.317 2.317 0 00.668-.416 1.312 1.312 0 00.125.454zm-.172-1.62a1.508 1.508 0 01-.1.624.97.97 0 01-.413.432 1.29 1.29 0 01-.642.158.813.813 0 01-.553-.167.551.551 0 01-.1-.712.541.541 0 01.246-.2 2.316 2.316 0 01.544-.125 4.564 4.564 0 001.02-.236v.226zm1.9 1.4a1.729 1.729 0 001.094.3 1.922 1.922 0 00.777-.151 1.179 1.179 0 00.525-.427 1.047 1.047 0 00.182-.588.918.918 0 00-.149-.534.938.938 0 00-.411-.327 7.7 7.7 0 00-.924-.29q-.458-.125-.551-.159a.552.552 0 01-.239-.167.343.343 0 01-.076-.218.415.415 0 01.184-.333 1.019 1.019 0 01.614-.142.884.884 0 01.564.159.666.666 0 01.241.444l.61-.083a1.325 1.325 0 00-.215-.571 1.035 1.035 0 00-.484-.338 2.137 2.137 0 00-.761-.125 1.878 1.878 0 00-.539.075 1.286 1.286 0 00-.4.182 1.012 1.012 0 00-.307.348.95.95 0 00-.113.456.908.908 0 00.539.845 5.9 5.9 0 00.952.3 2.712 2.712 0 01.638.211.379.379 0 01.184.333.521.521 0 01-.208.411.974.974 0 01-.638.175 1.008 1.008 0 01-.664-.2.865.865 0 01-.29-.569l-.617.1a1.383 1.383 0 00.482.888zm4.019.215v-1.46l.441-.423 1.212 1.888h.77L14.17 2.76l1.408-1.366h-.803l-1.477 1.5v-2.9h-.625v5.084h.624zm7.029 0a3.369 3.369 0 00.82-.085 1.545 1.545 0 00.557-.251 1.291 1.291 0 00.373-.473 1.487 1.487 0 00.151-.664 1.235 1.235 0 00-.248-.77 1.331 1.331 0 00-.709-.462 1.255 1.255 0 00.534-.464 1.155 1.155 0 00.177-.614 1.252 1.252 0 00-.2-.671 1.2 1.2 0 00-.551-.475 2.358 2.358 0 00-.935-.155h-1.907v5.084h1.939zM19.06.587h1.016a2.861 2.861 0 01.773.072.613.613 0 01.347.263.818.818 0 01.121.446.73.73 0 01-.13.444.713.713 0 01-.387.253 2.466 2.466 0 01-.642.059h-1.1V.587zm0 2.137h1.176a2.493 2.493 0 01.744.085.768.768 0 01.4.294.847.847 0 01.146.5.887.887 0 01-.1.428.738.738 0 01-.257.283 1.118 1.118 0 01-.388.138 2.948 2.948 0 01-.458.024h-1.262V2.729zm6.612 2.347h.652a1.386 1.386 0 01-.158-.442 8.812 8.812 0 01-.04-1.1v-.832a3.521 3.521 0 00-.031-.576.988.988 0 00-.194-.425 1.011 1.011 0 00-.434-.279 2.212 2.212 0 00-.766-.111 2.477 2.477 0 00-.836.13 1.209 1.209 0 00-.551.371 1.517 1.517 0 00-.274.633l.61.084a.943.943 0 01.31-.547 1.1 1.1 0 01.65-.154 1.045 1.045 0 01.711.212.688.688 0 01.177.537v.163a5.718 5.718 0 01-1.113.215 4.316 4.316 0 00-.555.094 1.513 1.513 0 00-.449.2 1.018 1.018 0 00-.323.359 1.007 1.007 0 00-.123.494.979.979 0 00.326.758 1.337 1.337 0 00.933.3 1.928 1.928 0 00.688-.122 2.316 2.316 0 00.668-.416 1.316 1.316 0 00.125.454zm-.176-1.615a1.508 1.508 0 01-.1.624.97.97 0 01-.413.432 1.29 1.29 0 01-.642.158.813.813 0 01-.553-.167.551.551 0 01-.1-.712.542.542 0 01.246-.2 2.317 2.317 0 01.544-.125 4.565 4.565 0 001.02-.236v.226zm2.294 1.619V3.064a1.249 1.249 0 01.29-.961 1.015 1.015 0 01.688-.253.823.823 0 01.435.113.6.6 0 01.258.3 1.681 1.681 0 01.073.57v2.24h.624V2.809a3.581 3.581 0 00-.035-.607 1.2 1.2 0 00-.194-.461.961.961 0 00-.418-.314 1.534 1.534 0 00-.612-.12 1.325 1.325 0 00-1.172.607v-.523h-.562v3.682h.624zm4.025 0v-1.46l.44-.423 1.217 1.883h.77l-1.55-2.316L34.1 1.393h-.809l-1.477 1.5v-2.9h-.624v5.084h.624zm7.567 0h.652a1.386 1.386 0 01-.158-.442 8.82 8.82 0 01-.04-1.1v-.832a3.506 3.506 0 00-.031-.576.988.988 0 00-.194-.425 1.011 1.011 0 00-.433-.279 2.212 2.212 0 00-.766-.111 2.476 2.476 0 00-.836.13 1.208 1.208 0 00-.551.371 1.516 1.516 0 00-.274.633l.61.084a.943.943 0 01.31-.547 1.1 1.1 0 01.65-.154 1.045 1.045 0 01.711.212.688.688 0 01.177.537v.163a5.716 5.716 0 01-1.113.215 4.319 4.319 0 00-.555.094 1.514 1.514 0 00-.449.2 1.018 1.018 0 00-.322.359 1.007 1.007 0 00-.123.494.979.979 0 00.326.758 1.337 1.337 0 00.933.3 1.927 1.927 0 00.688-.122 2.314 2.314 0 00.668-.416 1.314 1.314 0 00.125.454zm-.178-1.619a1.506 1.506 0 01-.1.624.97.97 0 01-.413.432 1.289 1.289 0 01-.642.158.813.813 0 01-.553-.167.551.551 0 01-.1-.712.542.542 0 01.246-.2 2.316 2.316 0 01.544-.125 4.565 4.565 0 001.02-.236v.226zm2.294 1.619V3.064a1.25 1.25 0 01.29-.961 1.015 1.015 0 01.688-.253.823.823 0 01.435.113.6.6 0 01.258.3 1.681 1.681 0 01.073.57v2.24h.624V2.809a3.584 3.584 0 00-.035-.607 1.2 1.2 0 00-.194-.461.961.961 0 00-.418-.314 1.534 1.534 0 00-.612-.12 1.325 1.325 0 00-1.172.607v-.523h-.561v3.682h.624zm6.365 0V-.009h-.621v1.825a1.23 1.23 0 00-1.016-.507 1.471 1.471 0 00-.822.24 1.448 1.448 0 00-.551.688 2.616 2.616 0 00-.184 1 2.344 2.344 0 00.2 1 1.6 1.6 0 00.572.678 1.443 1.443 0 00.81.243 1.146 1.146 0 001.03-.548v.464h.579zM45.59 2.166a.864.864 0 01.7-.34.9.9 0 01.718.354 1.73 1.73 0 01.291 1.109 1.544 1.544 0 01-.286 1.022.882.882 0 01-.7.334.9.9 0 01-.7-.35 1.6 1.6 0 01-.3-1.058 1.676 1.676 0 01.277-1.07zm7.36 2.91a3.367 3.367 0 00.82-.085 1.544 1.544 0 00.557-.251 1.288 1.288 0 00.373-.473 1.486 1.486 0 00.151-.664 1.235 1.235 0 00-.248-.77 1.33 1.33 0 00-.709-.462 1.255 1.255 0 00.534-.464 1.155 1.155 0 00.177-.614 1.252 1.252 0 00-.2-.671 1.2 1.2 0 00-.551-.475 2.358 2.358 0 00-.935-.155h-1.907v5.084h1.938zM51.684.592H52.7a2.861 2.861 0 01.773.072.613.613 0 01.347.263.818.818 0 01.121.446.73.73 0 01-.13.444.713.713 0 01-.387.253 2.467 2.467 0 01-.642.059h-1.1V.592zm0 2.137h1.176a2.493 2.493 0 01.744.085.768.768 0 01.4.294.847.847 0 01.146.5.887.887 0 01-.1.428.737.737 0 01-.257.283 1.116 1.116 0 01-.388.138 2.947 2.947 0 01-.458.024h-1.262V2.734zm6.611 2.347h.655a1.381 1.381 0 01-.158-.442 8.812 8.812 0 01-.04-1.1v-.832a3.521 3.521 0 00-.031-.576.989.989 0 00-.194-.425 1.011 1.011 0 00-.433-.279 2.212 2.212 0 00-.766-.111 2.476 2.476 0 00-.836.13 1.208 1.208 0 00-.551.371 1.516 1.516 0 00-.274.633l.61.084a.943.943 0 01.31-.547 1.1 1.1 0 01.65-.154 1.045 1.045 0 01.711.212.688.688 0 01.177.537v.163a5.714 5.714 0 01-1.113.215 4.317 4.317 0 00-.555.094 1.513 1.513 0 00-.449.2 1.019 1.019 0 00-.323.359 1.008 1.008 0 00-.123.494.979.979 0 00.326.758 1.338 1.338 0 00.933.3 1.928 1.928 0 00.688-.122 2.317 2.317 0 00.668-.416 1.312 1.312 0 00.125.454zm-.176-1.62a1.508 1.508 0 01-.1.624.97.97 0 01-.413.432 1.29 1.29 0 01-.642.158.813.813 0 01-.553-.167.551.551 0 01-.1-.712.541.541 0 01.246-.2 2.316 2.316 0 01.544-.125 4.564 4.564 0 001.019-.236v.226zm2.294 1.619V3.064a1.25 1.25 0 01.29-.961 1.014 1.014 0 01.688-.253.819.819 0 01.435.113.6.6 0 01.259.3 1.693 1.693 0 01.073.57v2.24h.624V2.809a3.583 3.583 0 00-.035-.607 1.208 1.208 0 00-.194-.461.959.959 0 00-.418-.314 1.533 1.533 0 00-.612-.12 1.324 1.324 0 00-1.172.607v-.523h-.562v3.682h.624zm4.025 0v-1.46l.44-.423 1.217 1.883h.77l-1.55-2.316 1.408-1.366h-.808l-1.477 1.5v-2.9h-.624v5.084h.624zm4.909 0a3.452 3.452 0 00.816-.086 1.9 1.9 0 00.607-.255 1.838 1.838 0 00.463-.461 2.5 2.5 0 00.347-.741 3.553 3.553 0 00.135-1.026 3.414 3.414 0 00-.2-1.209 2.079 2.079 0 00-.6-.869 1.728 1.728 0 00-.746-.364 4.276 4.276 0 00-.905-.073h-1.751v5.084h1.837zM68.185.591h1.065a2.636 2.636 0 01.87.1 1.327 1.327 0 01.637.574 2.375 2.375 0 01.262 1.226 3.144 3.144 0 01-.134.98 1.6 1.6 0 01-.373.643 1.124 1.124 0 01-.456.264 2.654 2.654 0 01-.789.093h-1.085V.587zm5.075.118v-.718h-.624v.718h.624zm0 4.366V1.393h-.624v3.682h.624zm1.639 0V3.147a2.412 2.412 0 01.1-.728.666.666 0 01.232-.342.6.6 0 01.368-.123.884.884 0 01.457.136l.215-.58a1.217 1.217 0 00-.641-.2.7.7 0 00-.4.125 1.526 1.526 0 00-.4.517v-.558h-.562v3.682h.625zm3.955-.61a.958.958 0 01-.586.18 1.02 1.02 0 01-.77-.322 1.414 1.414 0 01-.344-.929h2.747v-.167a2 2 0 00-.468-1.415 1.575 1.575 0 00-1.207-.5 1.617 1.617 0 00-1.241.514 2.034 2.034 0 00-.479 1.442 1.943 1.943 0 00.474 1.4 1.914 1.914 0 002.335.186 1.581 1.581 0 00.566-.878l-.645-.08a1.2 1.2 0 01-.386.57zM77.513 2.11a.992.992 0 01.723-.287.959.959 0 01.774.36 1.253 1.253 0 01.236.7h-2.057a1.143 1.143 0 01.324-.772zm5.317 2.31a.878.878 0 01-.614.225.925.925 0 01-.742-.336 1.656 1.656 0 01-.285-1.078 1.6 1.6 0 01.3-1.07.966.966 0 01.766-.338.8.8 0 01.533.187 1.009 1.009 0 01.307.558l.607-.094a1.392 1.392 0 00-.489-.861 1.527 1.527 0 00-.982-.3 1.785 1.785 0 00-.879.224 1.382 1.382 0 00-.6.671 2.576 2.576 0 00-.2 1.044 2 2 0 00.459 1.416 1.581 1.581 0 001.216.5 1.5 1.5 0 001.017-.359 1.591 1.591 0 00.515-.994l-.613-.08a1.118 1.118 0 01-.316.686zm2.619.121a.417.417 0 01-.213-.045.256.256 0 01-.107-.121 1.084 1.084 0 01-.033-.343V1.878h.627v-.485h-.627V.106l-.621.374v.913h-.458v.485h.458v2.119a2.237 2.237 0 00.076.737.6.6 0 00.264.282 1.062 1.062 0 00.527.108 2.387 2.387 0 00.472-.055l-.091-.552a2.041 2.041 0 01-.274.024zm5.528.534h.652a1.411 1.411 0 01-.158-.442 9.014 9.014 0 01-.039-1.1v-.832a3.472 3.472 0 00-.032-.576.982.982 0 00-.194-.425 1.009 1.009 0 00-.433-.279 2.215 2.215 0 00-.767-.111 2.479 2.479 0 00-.836.13 1.208 1.208 0 00-.551.371 1.525 1.525 0 00-.274.633l.61.084a.943.943 0 01.311-.547 1.1 1.1 0 01.65-.154 1.047 1.047 0 01.711.212.688.688 0 01.177.537v.163a5.71 5.71 0 01-1.113.215 4.35 4.35 0 00-.555.094 1.519 1.519 0 00-.449.2 1.028 1.028 0 00-.445.853.977.977 0 00.326.758 1.336 1.336 0 00.932.3 1.932 1.932 0 00.689-.122 2.308 2.308 0 00.667-.416 1.32 1.32 0 00.125.454zM90.8 3.456a1.509 1.509 0 01-.1.624.972.972 0 01-.413.432 1.288 1.288 0 01-.641.158.815.815 0 01-.554-.167.55.55 0 01-.1-.712.544.544 0 01.246-.2 2.327 2.327 0 01.545-.125 4.551 4.551 0 001.019-.236v.226zm2.287 1.619V3.147a2.444 2.444 0 01.1-.728.674.674 0 01.233-.342.593.593 0 01.367-.123.884.884 0 01.458.136l.215-.58a1.217 1.217 0 00-.641-.2.7.7 0 00-.4.125 1.526 1.526 0 00-.4.517v-.558h-.562v3.682h.624zm3.955-.61a.954.954 0 01-.586.18 1.019 1.019 0 01-.769-.322 1.414 1.414 0 01-.344-.929h2.747v-.167a2 2 0 00-.468-1.415 1.575 1.575 0 00-1.207-.5 1.617 1.617 0 00-1.241.514 2.034 2.034 0 00-.479 1.442 1.943 1.943 0 00.474 1.4 1.914 1.914 0 002.335.186 1.575 1.575 0 00.565-.878l-.645-.08a1.188 1.188 0 01-.382.57zm-1.34-2.355a.991.991 0 01.723-.287.959.959 0 01.774.36 1.245 1.245 0 01.235.7h-2.056a1.143 1.143 0 01.324-.772zm8.238 2.965V-.009h-.621v1.825a1.23 1.23 0 00-1.016-.507 1.471 1.471 0 00-.822.24 1.445 1.445 0 00-.551.688 2.608 2.608 0 00-.184 1 2.348 2.348 0 00.2 1 1.6 1.6 0 00.572.678 1.443 1.443 0 00.81.243 1.147 1.147 0 001.03-.548v.464h.579zm-2.273-2.909a.864.864 0 01.695-.34.9.9 0 01.718.354 1.731 1.731 0 01.291 1.109 1.543 1.543 0 01-.286 1.022.882.882 0 01-.7.334.9.9 0 01-.7-.35 1.6 1.6 0 01-.3-1.058 1.677 1.677 0 01.282-1.07zM105.62.709v-.718h-.624v.718h.624zm0 4.366V1.393h-.624v3.682h.624zm2.627 0l1.394-3.682H109l-.819 2.247c-.1.273-.177.506-.232.7-.072-.256-.15-.5-.236-.742l-.791-2.2h-.659l1.4 3.682h.587zm2.644-4.366v-.718h-.624v.718h.624zm0 4.366V1.393h-.624v3.682h.624zm1.252-.215a1.73 1.73 0 001.094.3 1.923 1.923 0 00.777-.151 1.175 1.175 0 00.525-.427 1.043 1.043 0 00.183-.588.914.914 0 00-.15-.534.933.933 0 00-.411-.327 7.633 7.633 0 00-.924-.29q-.458-.125-.551-.159a.544.544 0 01-.239-.167.344.344 0 01-.077-.218.416.416 0 01.184-.333 1.02 1.02 0 01.614-.142.882.882 0 01.563.159.663.663 0 01.241.444l.611-.083a1.32 1.32 0 00-.215-.571 1.033 1.033 0 00-.484-.338 2.134 2.134 0 00-.761-.125 1.872 1.872 0 00-.539.075 1.28 1.28 0 00-.4.182 1.006 1.006 0 00-.307.348.969.969 0 00.024.951.917.917 0 00.4.35 5.9 5.9 0 00.952.3 2.7 2.7 0 01.638.211.379.379 0 01.184.333.521.521 0 01-.208.411.976.976 0 01-.638.175 1.006 1.006 0 01-.664-.2.864.864 0 01-.29-.569l-.617.1a1.381 1.381 0 00.485.884zm4.019-4.151v-.718h-.624v.718h.624zm0 4.366V1.393h-.624v3.682h.624zm1.266-.412a1.658 1.658 0 001.25.5 1.8 1.8 0 00.89-.226 1.516 1.516 0 00.621-.633 2.435 2.435 0 00.213-1.118 1.9 1.9 0 00-.482-1.375 1.653 1.653 0 00-1.242-.5 1.718 1.718 0 00-1.158.409 1.9 1.9 0 00-.569 1.516 1.981 1.981 0 00.477 1.428zm.474-2.487a1.029 1.029 0 011.548 0 1.522 1.522 0 01.31 1.035 1.612 1.612 0 01-.308 1.079 1.028 1.028 0 01-1.55 0 1.967 1.967 0 010-2.113zm3.927 2.9V3.065a1.25 1.25 0 01.289-.961 1.016 1.016 0 01.689-.253.824.824 0 01.435.113.6.6 0 01.258.3 1.668 1.668 0 01.073.57v2.24h.624V2.81a3.613 3.613 0 00-.034-.607 1.208 1.208 0 00-.194-.461.965.965 0 00-.418-.314 1.533 1.533 0 00-.612-.12 1.327 1.327 0 00-1.173.607v-.523h-.561v3.682h.624zm3.627-.215a1.73 1.73 0 001.094.3 1.923 1.923 0 00.777-.151 1.184 1.184 0 00.526-.427 1.05 1.05 0 00.182-.588.921.921 0 00-.149-.534.944.944 0 00-.411-.327 7.726 7.726 0 00-.925-.29q-.458-.125-.551-.159a.55.55 0 01-.239-.167.344.344 0 01-.077-.218.416.416 0 01.184-.333 1.02 1.02 0 01.614-.142.885.885 0 01.564.159.671.671 0 01.241.444l.61-.083a1.32 1.32 0 00-.215-.571 1.033 1.033 0 00-.484-.338 2.134 2.134 0 00-.761-.125 1.872 1.872 0 00-.539.075 1.28 1.28 0 00-.4.182 1.006 1.006 0 00-.307.348.951.951 0 00-.113.456.932.932 0 00.137.5.917.917 0 00.4.35 5.9 5.9 0 00.952.3 2.7 2.7 0 01.638.211.379.379 0 01.184.333.521.521 0 01-.208.411.974.974 0 01-.638.175 1.008 1.008 0 01-.664-.2.864.864 0 01-.29-.569l-.617.1a1.381 1.381 0 00.485.878zM.463 12.829a1.658 1.658 0 001.25.5 1.811 1.811 0 00.89-.226 1.507 1.507 0 00.621-.633 2.432 2.432 0 00.213-1.118 1.894 1.894 0 00-.482-1.375 1.652 1.652 0 00-1.242-.5 1.717 1.717 0 00-1.158.409 1.9 1.9 0 00-.569 1.516 1.981 1.981 0 00.477 1.427zm.473-2.487a1.029 1.029 0 011.548 0 1.523 1.523 0 01.31 1.035 1.608 1.608 0 01-.309 1.079 1.028 1.028 0 01-1.55 0 1.97 1.97 0 01.001-2.114zm4.073 2.9v-3.2h.718v-.486h-.718v-.339a.66.66 0 01.118-.455.547.547 0 01.4-.121 2.015 2.015 0 01.368.035l.094-.545a3.023 3.023 0 00-.583-.062 1.14 1.14 0 00-.636.151.793.793 0 00-.317.393 1.714 1.714 0 00-.066.552v.391h-.55v.486h.551v3.2h.621zm5.236 0V8.756h1.682v-.6h-4.03v.6h1.675v4.484h.678zm3.712-.61a.956.956 0 01-.586.18 1.021 1.021 0 01-.77-.322 1.416 1.416 0 01-.343-.93h2.747v-.166a2 2 0 00-.468-1.415 1.575 1.575 0 00-1.207-.5 1.62 1.62 0 00-1.241.513 2.038 2.038 0 00-.479 1.443 1.945 1.945 0 00.473 1.4 1.912 1.912 0 002.336.185 1.573 1.573 0 00.565-.877l-.645-.08a1.2 1.2 0 01-.381.568zm-1.34-2.355a.991.991 0 01.723-.288.959.959 0 01.773.361 1.248 1.248 0 01.236.7h-2.056a1.14 1.14 0 01.325-.774zm3.565 2.965l.968-1.453.2.309.756 1.144h.766l-1.37-1.949 1.273-1.734h-.744l-.621.871q-.128.177-.281.406-.1-.166-.257-.413l-.565-.864h-.78l1.245 1.769-1.346 1.914h.756zm5.81 0h.652a1.386 1.386 0 01-.158-.442 8.843 8.843 0 01-.04-1.1v-.834a3.5 3.5 0 00-.031-.576.982.982 0 00-.194-.425 1.012 1.012 0 00-.433-.279 2.213 2.213 0 00-.767-.111 2.476 2.476 0 00-.836.13 1.208 1.208 0 00-.551.371 1.516 1.516 0 00-.274.633l.61.083a.943.943 0 01.31-.546 1.1 1.1 0 01.65-.154 1.045 1.045 0 01.711.211.691.691 0 01.177.538v.163a5.716 5.716 0 01-1.113.215 4.319 4.319 0 00-.555.094 1.514 1.514 0 00-.449.2 1.019 1.019 0 00-.322.359 1.007 1.007 0 00-.123.494.979.979 0 00.326.758 1.337 1.337 0 00.933.3 1.927 1.927 0 00.688-.122 2.314 2.314 0 00.668-.416 1.32 1.32 0 00.125.454zm-.177-1.619a1.506 1.506 0 01-.1.624.97.97 0 01-.413.432 1.289 1.289 0 01-.642.158.813.813 0 01-.553-.167.552.552 0 01-.1-.713.54.54 0 01.246-.2 2.316 2.316 0 01.544-.125 4.622 4.622 0 001.02-.236v.229zm1.9 1.4a1.73 1.73 0 001.094.3 1.922 1.922 0 00.777-.151 1.179 1.179 0 00.525-.427 1.049 1.049 0 00.184-.589.918.918 0 00-.149-.534.938.938 0 00-.411-.327 7.523 7.523 0 00-.924-.29q-.458-.125-.551-.16a.542.542 0 01-.239-.166.345.345 0 01-.076-.218.412.412 0 01.184-.333 1.018 1.018 0 01.614-.143.884.884 0 01.564.16.666.666 0 01.241.444l.61-.083a1.323 1.323 0 00-.215-.571 1.035 1.035 0 00-.484-.338 2.136 2.136 0 00-.761-.125 1.877 1.877 0 00-.539.075 1.262 1.262 0 00-.4.182 1 1 0 00-.307.348.948.948 0 00-.113.456.908.908 0 00.539.845 5.9 5.9 0 00.952.3 2.715 2.715 0 01.638.211.379.379 0 01.184.333.525.525 0 01-.208.411.974.974 0 01-.638.175 1.013 1.013 0 01-.664-.2.865.865 0 01-.29-.569l-.617.1a1.384 1.384 0 00.481.887zm8.613-.6a1.443 1.443 0 01-.957.326 1.644 1.644 0 01-.864-.239 1.4 1.4 0 01-.588-.723 3.1 3.1 0 01-.189-1.132 3.035 3.035 0 01.159-.976 1.487 1.487 0 01.553-.755 1.645 1.645 0 01.98-.281 1.372 1.372 0 01.846.253 1.575 1.575 0 01.513.809l.669-.149a2.018 2.018 0 00-.725-1.092 2.084 2.084 0 00-1.283-.388 2.518 2.518 0 00-1.233.307 2.076 2.076 0 00-.864.9 3 3 0 00-.3 1.385 3.456 3.456 0 00.269 1.363 2.088 2.088 0 00.784.969 2.407 2.407 0 001.337.335 2.1 2.1 0 001.344-.435 2.267 2.267 0 00.761-1.264l-.673-.17a1.665 1.665 0 01-.538.96zm4.552.815h.652a1.381 1.381 0 01-.158-.442 8.835 8.835 0 01-.04-1.1v-.83a3.513 3.513 0 00-.031-.576.983.983 0 00-.194-.425 1.011 1.011 0 00-.434-.279 2.212 2.212 0 00-.766-.111 2.476 2.476 0 00-.836.13 1.208 1.208 0 00-.551.371 1.516 1.516 0 00-.274.633l.61.083a.943.943 0 01.31-.546 1.1 1.1 0 01.65-.154 1.045 1.045 0 01.711.211.691.691 0 01.177.538v.163a5.714 5.714 0 01-1.113.215 4.322 4.322 0 00-.555.094 1.515 1.515 0 00-.449.2 1.02 1.02 0 00-.322.359 1.007 1.007 0 00-.123.494.979.979 0 00.326.758 1.338 1.338 0 00.933.3 1.928 1.928 0 00.688-.122 2.315 2.315 0 00.668-.416 1.32 1.32 0 00.125.454zm-.177-1.619a1.506 1.506 0 01-.1.624.969.969 0 01-.413.432 1.29 1.29 0 01-.642.158.813.813 0 01-.553-.167.552.552 0 01-.1-.713.539.539 0 01.246-.2 2.316 2.316 0 01.544-.125 4.62 4.62 0 001.02-.236v.229zm2.294 3.031v-1.794a1.277 1.277 0 00.407.333 1.173 1.173 0 00.56.132 1.542 1.542 0 001.4-.935 2.462 2.462 0 00.2-1.018 2.5 2.5 0 00-.184-.969 1.491 1.491 0 00-.544-.685 1.454 1.454 0 00-.832-.243 1.244 1.244 0 00-.614.141 1.4 1.4 0 00-.454.421v-.477h-.563v5.1h.624zm.248-4.316a.9.9 0 01.706-.373.873.873 0 01.692.35 1.629 1.629 0 01.29 1.055 1.668 1.668 0 01-.3 1.09.9.9 0 01-.713.352.881.881 0 01-.7-.34 1.6 1.6 0 01-.288-1.05 1.668 1.668 0 01.318-1.081zm3.776-1.462v-.716h-.623v.718h.624zm0 4.366V9.556h-.623v3.683h.624zm2.11-.534a.416.416 0 01-.213-.045.258.258 0 01-.108-.121 1.089 1.089 0 01-.033-.344v-2.153h.628v-.485h-.627V8.27l-.621.374v.912H43.7v.486h.458v2.119a2.238 2.238 0 00.076.737.6.6 0 00.264.282 1.063 1.063 0 00.527.108 2.318 2.318 0 00.472-.056l-.09-.551a2.053 2.053 0 01-.274.024zm3.484.534h.652a1.386 1.386 0 01-.158-.442 8.843 8.843 0 01-.04-1.1v-.83a3.5 3.5 0 00-.031-.576.982.982 0 00-.194-.425 1.012 1.012 0 00-.433-.279 2.213 2.213 0 00-.767-.111 2.476 2.476 0 00-.836.13 1.208 1.208 0 00-.551.371 1.516 1.516 0 00-.274.633l.61.083a.943.943 0 01.31-.546 1.1 1.1 0 01.65-.154 1.045 1.045 0 01.711.211.691.691 0 01.177.538v.163a5.716 5.716 0 01-1.113.215 4.319 4.319 0 00-.555.094 1.514 1.514 0 00-.449.2 1.019 1.019 0 00-.323.359 1.007 1.007 0 00-.123.494.979.979 0 00.326.758 1.337 1.337 0 00.933.3 1.927 1.927 0 00.688-.122 2.314 2.314 0 00.668-.416 1.32 1.32 0 00.125.454zm-.177-1.619a1.506 1.506 0 01-.1.624.97.97 0 01-.413.432 1.289 1.289 0 01-.641.158.813.813 0 01-.553-.167.552.552 0 01-.1-.713.54.54 0 01.246-.2 2.316 2.316 0 01.544-.125 4.622 4.622 0 001.02-.236v.229zm2.28 1.619V8.156h-.623v5.084h.624zm5.073 0a3.367 3.367 0 00.82-.085 1.544 1.544 0 00.557-.251 1.291 1.291 0 00.373-.473 1.487 1.487 0 00.151-.665 1.234 1.234 0 00-.248-.769 1.33 1.33 0 00-.709-.462 1.262 1.262 0 00.534-.464 1.154 1.154 0 00.181-.613 1.252 1.252 0 00-.2-.671 1.2 1.2 0 00-.551-.475 2.358 2.358 0 00-.938-.154H53.85v5.084h1.938zm-1.265-4.482h1.016a2.915 2.915 0 01.773.071.62.62 0 01.347.264.818.818 0 01.121.446.725.725 0 01-.13.443.714.714 0 01-.387.254 2.466 2.466 0 01-.642.059h-1.1V8.756zm0 2.137h1.176a2.493 2.493 0 01.744.085.763.763 0 01.4.294.846.846 0 01.146.494.887.887 0 01-.1.429.735.735 0 01-.257.282 1.1 1.1 0 01-.388.139 2.948 2.948 0 01-.458.024h-1.263v-1.747zm6.612 2.347h.652a1.387 1.387 0 01-.158-.442 8.954 8.954 0 01-.04-1.1v-.832a3.5 3.5 0 00-.031-.576.988.988 0 00-.194-.425 1.013 1.013 0 00-.434-.279 2.209 2.209 0 00-.766-.111 2.476 2.476 0 00-.836.13 1.208 1.208 0 00-.551.371 1.516 1.516 0 00-.274.633l.61.083a.943.943 0 01.31-.546 1.1 1.1 0 01.65-.154 1.047 1.047 0 01.711.211.69.69 0 01.177.538v.163a5.71 5.71 0 01-1.113.215 4.318 4.318 0 00-.555.094 1.514 1.514 0 00-.449.2 1.02 1.02 0 00-.323.359 1.007 1.007 0 00-.123.494.979.979 0 00.326.758 1.338 1.338 0 00.933.3 1.931 1.931 0 00.689-.122 2.321 2.321 0 00.667-.416 1.327 1.327 0 00.125.454zm-.177-1.619a1.509 1.509 0 01-.1.624.972.972 0 01-.413.432 1.289 1.289 0 01-.642.158.813.813 0 01-.553-.167.552.552 0 01-.1-.713.54.54 0 01.246-.2 2.315 2.315 0 01.545-.125 4.622 4.622 0 001.019-.236v.229zm2.294 1.619v-2.011a1.25 1.25 0 01.29-.961 1.014 1.014 0 01.688-.253.822.822 0 01.435.113.6.6 0 01.259.3 1.7 1.7 0 01.072.57v2.24h.625v-2.264a3.583 3.583 0 00-.035-.607 1.208 1.208 0 00-.194-.461.965.965 0 00-.418-.314 1.533 1.533 0 00-.612-.12 1.322 1.322 0 00-1.172.607v-.523h-.562v3.683h.624zm4.025 0v-1.46l.44-.423 1.217 1.883h.77l-1.55-2.316 1.408-1.367h-.808l-1.477 1.5V8.156h-.625v5.084h.625zm3.511 0a1.092 1.092 0 01-.1.484.6.6 0 01-.292.255l.174.267a.9.9 0 00.44-.373 1.253 1.253 0 00.139-.633v-.711h-.711v.711h.354zm4.289 0v-4l2.671 4h.69V8.156h-.645v3.992l-2.671-3.992h-.69v5.084h.645zm5.37 0v-.711h-.711v.711h.711zm1.393 0l.558-1.539h2.126l.593 1.539h.766l-2.08-5.084h-.725l-1.953 5.084h.715zm1.311-3.579a6.489 6.489 0 00.274-.971q.117.414.36 1.055l.531 1.411h-1.724zm4.149 3.579v-.711h-.711v.711h.711zm3.908 0V8.912l1.471 4.328h.606l1.478-4.255v4.255h.648V8.156h-.905l-1.217 3.538q-.184.537-.271.815a35.415 35.415 0 00-.242-.753l-1.2-3.6h-1.012v5.084h.648zm7.416-.61a.956.956 0 01-.586.18 1.023 1.023 0 01-.77-.322 1.414 1.414 0 01-.343-.93h2.747v-.166a2 2 0 00-.468-1.415 1.576 1.576 0 00-1.207-.5 1.622 1.622 0 00-1.242.513 2.038 2.038 0 00-.478 1.443 1.947 1.947 0 00.473 1.4 1.913 1.913 0 002.336.185 1.574 1.574 0 00.565-.877l-.645-.08a1.2 1.2 0 01-.382.57zm-1.34-2.355a.99.99 0 01.723-.288.957.957 0 01.773.361 1.245 1.245 0 01.236.7h-2.056a1.134 1.134 0 01.324-.772zm3.849 2.965v-1.91a2.281 2.281 0 01.1-.77.786.786 0 01.324-.406.9.9 0 01.487-.139.581.581 0 01.5.208 1.059 1.059 0 01.152.624v2.393h.624v-2.139a1.136 1.136 0 01.257-.827.869.869 0 01.645-.259.692.692 0 01.375.1.525.525 0 01.22.265 1.722 1.722 0 01.061.539v2.32h.62v-2.528a1.3 1.3 0 00-.294-.934 1.121 1.121 0 00-.843-.3 1.324 1.324 0 00-1.138.645.9.9 0 00-.369-.475 1.214 1.214 0 00-.671-.17 1.29 1.29 0 00-.655.165 1.322 1.322 0 00-.462.435v-.521h-.558v3.683h.624zm5.939-.461a1.172 1.172 0 001.023.545 1.468 1.468 0 001.124-.517 2.105 2.105 0 00.468-1.464 2.472 2.472 0 00-.111-.749 1.875 1.875 0 00-.307-.6 1.323 1.323 0 00-.5-.385 1.547 1.547 0 00-.643-.137 1.235 1.235 0 00-1.009.5V8.156h-.624v5.084h.579v-.461zm.291-2.436a.9.9 0 01.708-.356.873.873 0 01.692.344 1.647 1.647 0 01.286 1.064 1.615 1.615 0 01-.3 1.06.892.892 0 01-1.5-.127 1.911 1.911 0 01-.18-.957 1.56 1.56 0 01.294-1.027zm5.29 2.287a.954.954 0 01-.586.18 1.019 1.019 0 01-.769-.322 1.415 1.415 0 01-.344-.93h2.747v-.166a2 2 0 00-.468-1.415 1.575 1.575 0 00-1.207-.5 1.62 1.62 0 00-1.241.513 2.039 2.039 0 00-.479 1.443 1.943 1.943 0 00.474 1.4 1.912 1.912 0 002.335.185 1.568 1.568 0 00.565-.877l-.645-.08a1.188 1.188 0 01-.382.57zm-1.34-2.355a.99.99 0 01.723-.288.959.959 0 01.774.361 1.245 1.245 0 01.235.7h-2.056a1.143 1.143 0 01.324-.772zm3.843 2.965v-1.928a2.412 2.412 0 01.1-.728.662.662 0 01.232-.342.6.6 0 01.368-.123.892.892 0 01.457.135l.215-.579a1.217 1.217 0 00-.641-.2.7.7 0 00-.4.125 1.516 1.516 0 00-.4.517v-.561h-.562v3.683h.625zm4.65 0v-2.309h2.386v-.6h-2.386V8.756h2.757v-.6h-3.43v5.084h.673zm5.536 0a3.508 3.508 0 00.817-.086 1.9 1.9 0 00.607-.255 1.838 1.838 0 00.463-.461 2.5 2.5 0 00.347-.741 3.553 3.553 0 00.135-1.026 3.432 3.432 0 00-.2-1.209 2.072 2.072 0 00-.6-.869 1.728 1.728 0 00-.746-.364 4.283 4.283 0 00-.905-.073h-1.751v5.084h1.838zm-1.161-4.484h1.066a2.636 2.636 0 01.87.1 1.322 1.322 0 01.637.574 2.373 2.373 0 01.261 1.226 3.146 3.146 0 01-.133.98 1.6 1.6 0 01-.373.643 1.135 1.135 0 01-.456.264 2.654 2.654 0 01-.789.093h-1.085v-3.88zm5.314 4.484V8.156h-.673v5.084h.673zm4.354-.815a1.442 1.442 0 01-.957.326 1.645 1.645 0 01-.864-.239 1.4 1.4 0 01-.587-.723 3.1 3.1 0 01-.189-1.132 3.043 3.043 0 01.159-.976 1.487 1.487 0 01.553-.755 1.647 1.647 0 01.98-.281 1.371 1.371 0 01.846.253 1.577 1.577 0 01.513.809l.663-.157a2.02 2.02 0 00-.725-1.092 2.085 2.085 0 00-1.283-.388 2.517 2.517 0 00-1.233.307 2.083 2.083 0 00-.864.9 3 3 0 00-.3 1.385 3.46 3.46 0 00.269 1.363 2.088 2.088 0 00.783.969 2.409 2.409 0 001.337.335 2.1 2.1 0 001.344-.435 2.262 2.262 0 00.761-1.264l-.672-.17a1.669 1.669 0 01-.536.966zm2.911.815v-.711h-.713v.711h.711z" fill-rule="evenodd"/></svg>