<svg xmlns="http://www.w3.org/2000/svg" width="81.687" height="6.938"><path data-name="Outsmart Interest copy" d="M3.243 6.94a3.346 3.346 0 001.713-.423 2.808 2.808 0 001.117-1.211 4.111 4.111 0 00.391-1.843 4.053 4.053 0 00-.391-1.834 2.822 2.822 0 00-1.117-1.2 3.691 3.691 0 00-3.431 0 2.84 2.84 0 00-1.126 1.2 4 4 0 00-.4 1.834 4.059 4.059 0 00.4 1.843 2.826 2.826 0 001.126 1.211 3.369 3.369 0 001.718.423zm0-1.159a1.574 1.574 0 01-1.308-.593 2.727 2.727 0 01-.47-1.724 2.691 2.691 0 01.47-1.71 1.747 1.747 0 012.616 0 2.692 2.692 0 01.47 1.71 2.732 2.732 0 01-.47 1.719 1.57 1.57 0 01-1.308.6zm7.448-3.743v2.669a1.16 1.16 0 01-.27.8.9.9 0 01-.708.3.718.718 0 01-.736-.874v-2.9H7.572v2.869a2.264 2.264 0 00.437 1.52 1.658 1.658 0 001.322.5 1.678 1.678 0 00.82-.2 1.524 1.524 0 00.586-.58v.7h1.369V2.038h-1.415zm5.613 1.073V2.038h-1.2v-1.6l-1.405.465v1.131h-.893v1.073h.894v1.9a2.023 2.023 0 00.46 1.416 1.721 1.721 0 001.336.5 2.188 2.188 0 00.81-.133V5.688a1.921 1.921 0 01-.465.066.681.681 0 01-.736-.769V3.113h1.2zM18.92 6.93a2.445 2.445 0 001.481-.4 1.391 1.391 0 00.214-2 2.1 2.1 0 00-1.052-.513l-.792-.18a1 1 0 01-.414-.166.328.328 0 01-.116-.262.386.386 0 01.2-.342 1.014 1.014 0 01.54-.123 2.182 2.182 0 01.731.133 3.047 3.047 0 01.74.389l.391-.959a2.962 2.962 0 00-.866-.442 3.192 3.192 0 00-.986-.157 2.654 2.654 0 00-1.052.2 1.667 1.667 0 00-.713.546 1.329 1.329 0 00-.256.8 1.219 1.219 0 00.321.884 1.957 1.957 0 001 .484l.773.181a1.359 1.359 0 01.493.18.336.336 0 01.14.285.364.364 0 01-.2.333 1.124 1.124 0 01-.559.114 3.015 3.015 0 01-.931-.147 2.861 2.861 0 01-.829-.423l-.372 1a3.406 3.406 0 002.113.589zm8.742-5.016a1.759 1.759 0 00-.907.243 1.732 1.732 0 00-.647.65 1.354 1.354 0 00-1.4-.893 1.77 1.77 0 00-.889.219 1.5 1.5 0 00-.6.627l-.084-.722h-1.319a11.555 11.555 0 01.074 1.377v3.439h1.406v-2.66a1.363 1.363 0 01.237-.855.8.8 0 01.666-.3.592.592 0 01.517.228 1.265 1.265 0 01.163.722v2.869h1.406v-2.66a1.382 1.382 0 01.232-.855.786.786 0 01.661-.3.6.6 0 01.522.224 1.289 1.289 0 01.158.726v2.869h1.406V3.938a2.433 2.433 0 00-.4-1.525 1.448 1.448 0 00-1.206-.5zm6.145.124v.684a1.572 1.572 0 00-.605-.589 1.781 1.781 0 00-.885-.219 1.9 1.9 0 00-1.08.319 2.107 2.107 0 00-.74.9 3.141 3.141 0 00-.265 1.321 3.04 3.04 0 00.265 1.306 2.025 2.025 0 00.736.869 1.949 1.949 0 001.084.3 1.842 1.842 0 00.885-.209 1.5 1.5 0 00.605-.579v.712h1.387V2.038h-1.388zm-1.08 3.8a.983.983 0 01-.815-.356 1.625 1.625 0 01-.284-1.031 1.713 1.713 0 01.289-1.055 1.056 1.056 0 011.611-.014 1.705 1.705 0 01.279 1.05 1.683 1.683 0 01-.279 1.045.954.954 0 01-.8.361zm6.442-3.914a1.543 1.543 0 00-.851.242 1.4 1.4 0 00-.554.7l-.094-.826h-1.322a11.334 11.334 0 01.075 1.377v3.439h1.406V4.339a1.2 1.2 0 01.293-.86 1.119 1.119 0 01.852-.309 1.61 1.61 0 01.689.162l.009-1.311a1.194 1.194 0 00-.5-.1zm4.6 1.187V2.038h-1.2v-1.6l-1.406.465v1.131h-.893v1.073h.893v1.9a2.023 2.023 0 00.461 1.416 1.721 1.721 0 001.336.5 2.188 2.188 0 00.81-.133V5.688a1.921 1.921 0 01-.465.066.681.681 0 01-.736-.769V3.113h1.2zm5.065 3.743V.088h-1.453v6.764h1.453zm4.245-4.94a1.837 1.837 0 00-.917.228 1.75 1.75 0 00-.656.656l-.093-.76h-1.322a11.555 11.555 0 01.074 1.377v3.439h1.406v-2.7a1.162 1.162 0 01.279-.817.966.966 0 01.745-.3.682.682 0 01.573.233 1.2 1.2 0 01.181.736v2.85h1.406V3.938q0-2.024-1.676-2.024zm5.856 1.2V2.038h-1.2v-1.6l-1.406.465v1.131h-.894v1.073h.894v1.9a2.023 2.023 0 00.461 1.416 1.719 1.719 0 001.336.5 2.188 2.188 0 00.81-.133V5.688a1.921 1.921 0 01-.465.066.757.757 0 01-.531-.185.748.748 0 01-.205-.584V3.113h1.2zm5.046 1.245a2.61 2.61 0 00-.577-1.781 1.985 1.985 0 00-1.574-.661 2.292 2.292 0 00-1.2.319 2.17 2.17 0 00-.824.893 2.837 2.837 0 00-.293 1.306 2.452 2.452 0 00.68 1.829 2.552 2.552 0 001.871.669 3.333 3.333 0 001-.156 2.458 2.458 0 00.833-.433l-.372-.969a2.271 2.271 0 01-.671.361 2.225 2.225 0 01-.726.124 1.234 1.234 0 01-.912-.309 1.47 1.47 0 01-.345-.983h3.11v-.209zm-2.113-1.435a.88.88 0 01.9.931h-1.872a1.2 1.2 0 01.322-.693.894.894 0 01.647-.238zm5.837-1a1.544 1.544 0 00-.852.242 1.411 1.411 0 00-.554.7l-.093-.826h-1.322a11.349 11.349 0 01.074 1.377v3.439h1.406V4.339a1.2 1.2 0 01.293-.86 1.121 1.121 0 01.852-.309 1.6 1.6 0 01.689.162l.01-1.311a1.2 1.2 0 00-.5-.1zm5.307 2.432a2.61 2.61 0 00-.578-1.781 1.983 1.983 0 00-1.573-.661 2.292 2.292 0 00-1.2.319 2.157 2.157 0 00-.824.893 2.825 2.825 0 00-.293 1.306 2.452 2.452 0 00.679 1.829 2.553 2.553 0 001.872.669 3.327 3.327 0 001-.156 2.472 2.472 0 00.834-.433l-.373-.969a2.278 2.278 0 01-.67.361 2.225 2.225 0 01-.726.124 1.235 1.235 0 01-.913-.309 1.475 1.475 0 01-.344-.983h3.11v-.209zm-2.114-1.435a.879.879 0 01.9.931h-1.871a1.2 1.2 0 01.321-.693.894.894 0 01.647-.238zm4.9 4.009a2.442 2.442 0 001.48-.4 1.391 1.391 0 00.214-2 2.088 2.088 0 00-1.052-.513l-.791-.18a.989.989 0 01-.414-.166.329.329 0 01-.117-.262.387.387 0 01.2-.342 1.009 1.009 0 01.54-.123 2.186 2.186 0 01.731.133 3.047 3.047 0 01.74.389l.391-.959a2.975 2.975 0 00-.866-.442 3.2 3.2 0 00-.987-.157 2.657 2.657 0 00-1.052.2 1.67 1.67 0 00-.712.546 1.322 1.322 0 00-.256.8 1.219 1.219 0 00.321.884 1.953 1.953 0 001 .484l.773.181a1.359 1.359 0 01.493.18.338.338 0 01.14.285.363.363 0 01-.2.333 1.117 1.117 0 01-.558.114 3.015 3.015 0 01-.931-.147 2.848 2.848 0 01-.829-.423l-.372 1a3.4 3.4 0 002.113.589zm5.893-3.819V2.038h-1.2v-1.6l-1.405.465v1.131h-.894v1.073h.894v1.9a2.023 2.023 0 00.46 1.416 1.721 1.721 0 001.336.5 2.188 2.188 0 00.81-.133V5.688a1.921 1.921 0 01-.465.066.681.681 0 01-.736-.769V3.113h1.2z" fill="#5d5656" fill-rule="evenodd"/></svg>