<svg xmlns="http://www.w3.org/2000/svg" width="124.625" height="41.187"><path data-name="from pennies to perks" d="M6.419 2.55a4.258 4.258 0 01.972.14V.331a4.8 4.8 0 00-1.706-.26 3.63 3.63 0 00-2.818 1.06 4.243 4.243 0 00-.972 2.979v.64H.013v2.259h1.885v7.878h3V7.009h2.1V4.75h-2.1v-.56a1.644 1.644 0 01.417-1.25 1.56 1.56 0 011.111-.39zm8.214 1.96a3.316 3.316 0 00-1.815.51 2.969 2.969 0 00-1.181 1.469l-.2-1.739H8.619a23.765 23.765 0 01.159 2.9v7.238h3v-5.3a2.5 2.5 0 01.625-1.809 2.4 2.4 0 011.816-.65 3.479 3.479 0 011.468.34l.02-2.759a2.571 2.571 0 00-1.071-.2zm6.886 10.537a5.776 5.776 0 002.778-.64 4.418 4.418 0 001.835-1.839 6.4 6.4 0 000-5.6 4.412 4.412 0 00-1.835-1.839 5.776 5.776 0 00-2.778-.64 5.878 5.878 0 00-2.808.64 4.394 4.394 0 00-1.845 1.839 6.4 6.4 0 000 5.6 4.4 4.4 0 001.845 1.839 5.878 5.878 0 002.808.64zm0-2.3q-2.322 0-2.322-2.98a3.535 3.535 0 01.6-2.229 2.073 2.073 0 011.726-.75 2.023 2.023 0 011.7.75 4.558 4.558 0 010 4.469 2.036 2.036 0 01-1.7.74zm19.484-8.258a3.8 3.8 0 00-1.934.51 3.689 3.689 0 00-1.379 1.369 2.885 2.885 0 00-2.971-1.878 3.815 3.815 0 00-1.895.46 3.186 3.186 0 00-1.28 1.319l-.179-1.519h-2.821a23.745 23.745 0 01.159 2.9v7.238h3v-5.6a2.839 2.839 0 01.506-1.8 1.707 1.707 0 011.419-.64 1.267 1.267 0 011.1.48 2.628 2.628 0 01.347 1.52v6.038h3v-5.6a2.879 2.879 0 01.5-1.8 1.679 1.679 0 011.409-.64 1.275 1.275 0 011.111.47 2.68 2.68 0 01.337 1.53v6.038h3V8.746a5.071 5.071 0 00-.843-3.209 3.1 3.1 0 00-2.569-1.05zm17.5 0a3.889 3.889 0 00-2.014.52 3.045 3.045 0 00-1.28 1.419l-.2-1.679h-2.818a23.7 23.7 0 01.159 2.9v11.557h3v-5.819a3.041 3.041 0 001.27 1.22 3.975 3.975 0 001.885.44 4.121 4.121 0 003.889-2.469 6.439 6.439 0 00.555-2.75 6.536 6.536 0 00-.565-2.779 4.436 4.436 0 00-1.578-1.889 4.07 4.07 0 00-2.3-.67zm-.854 8.258a2.065 2.065 0 01-1.716-.76 3.469 3.469 0 01-.6-2.2 3.511 3.511 0 01.6-2.209 2.056 2.056 0 011.716-.77 2.007 2.007 0 011.7.8 3.607 3.607 0 01.6 2.219 3.424 3.424 0 01-.595 2.17 2.052 2.052 0 01-1.707.75zM73.9 9.627a5.451 5.451 0 00-1.231-3.748 4.248 4.248 0 00-3.353-1.39 4.922 4.922 0 00-2.559.67 4.566 4.566 0 00-1.756 1.879 5.9 5.9 0 00-.625 2.749 5.118 5.118 0 001.448 3.849 5.473 5.473 0 003.988 1.41 7.148 7.148 0 002.133-.33 5.253 5.253 0 001.776-.91l-.794-2.039a4.911 4.911 0 01-1.428.76 4.845 4.845 0 01-1.548.26 2.649 2.649 0 01-1.944-.65 3.066 3.066 0 01-.734-2.07H73.9v-.44zm-4.5-3.019q1.686 0 1.924 1.96h-3.988a2.515 2.515 0 01.685-1.46 1.919 1.919 0 011.379-.5zM82 4.489a3.955 3.955 0 00-1.955.48 3.729 3.729 0 00-1.4 1.379l-.2-1.6h-2.817a23.918 23.918 0 01.158 2.9v7.238h3V9.208a2.425 2.425 0 01.6-1.72 2.064 2.064 0 011.587-.64 1.462 1.462 0 011.22.49 2.5 2.5 0 01.387 1.55v6h3V8.75q0-4.258-3.571-4.259zm12.162 0a3.951 3.951 0 00-1.954.48 3.722 3.722 0 00-1.4 1.379l-.2-1.6H87.79a23.7 23.7 0 01.159 2.9v7.238h3V9.208a2.425 2.425 0 01.595-1.72 2.067 2.067 0 011.588-.64 1.462 1.462 0 011.22.49 2.5 2.5 0 01.387 1.55v6h3V8.75q0-4.258-3.572-4.259zm8.949 10.4V4.75h-3v10.137h3zm-3.1-12.057h3.195V-.007h-3.195v2.839zm14.564 6.8a5.451 5.451 0 00-1.23-3.748 4.25 4.25 0 00-3.354-1.39 4.922 4.922 0 00-2.559.67 4.573 4.573 0 00-1.756 1.879 5.9 5.9 0 00-.625 2.749 5.122 5.122 0 001.448 3.849 5.475 5.475 0 003.988 1.41 7.143 7.143 0 002.133-.33 5.253 5.253 0 001.776-.91l-.793-2.039a4.929 4.929 0 01-1.429.76 4.845 4.845 0 01-1.548.26 2.649 2.649 0 01-1.944-.65 3.066 3.066 0 01-.734-2.07h6.627v-.44zm-4.5-3.019q1.686 0 1.924 1.96h-3.988a2.515 2.515 0 01.685-1.46 1.919 1.919 0 011.379-.5zm10.238 8.438a5.256 5.256 0 003.155-.84 2.9 2.9 0 00.456-4.2 4.487 4.487 0 00-2.242-1.079l-1.687-.38a2.134 2.134 0 01-.883-.35.687.687 0 01-.248-.55.81.81 0 01.417-.72 2.171 2.171 0 011.151-.26 4.736 4.736 0 011.557.28 6.5 6.5 0 011.578.82l.833-2.019a6.337 6.337 0 00-1.845-.93 6.865 6.865 0 00-2.1-.33 5.734 5.734 0 00-2.242.41 3.532 3.532 0 00-1.518 1.149 2.76 2.76 0 00-.546 1.68 2.541 2.541 0 00.685 1.859 4.183 4.183 0 002.133 1.02l1.646.38a2.882 2.882 0 011.052.38.708.708 0 01.3.6.763.763 0 01-.417.7 2.416 2.416 0 01-1.191.24 6.515 6.515 0 01-1.984-.31 6.123 6.123 0 01-1.766-.89l-.793 2.1a7.326 7.326 0 004.5 1.24zM7.473 29.003v-2.259H4.914v-3.359l-3 .979v2.38h-1.9v2.259h1.9v4a4.217 4.217 0 00.982 2.979 3.689 3.689 0 002.847 1.06 4.729 4.729 0 001.726-.28v-2.339a4.129 4.129 0 01-.992.14 1.633 1.633 0 01-1.131-.39 1.57 1.57 0 01-.437-1.23v-3.939h2.56zm6.329 8.038a5.776 5.776 0 002.778-.64 4.417 4.417 0 001.835-1.839 6.4 6.4 0 000-5.6 4.411 4.411 0 00-1.835-1.839 5.776 5.776 0 00-2.778-.64 5.878 5.878 0 00-2.808.64 4.394 4.394 0 00-1.845 1.839 6.4 6.4 0 000 5.6 4.4 4.4 0 001.845 1.839 5.878 5.878 0 002.808.64zm0-2.3q-2.322 0-2.322-2.98a3.535 3.535 0 01.6-2.229 2.073 2.073 0 011.726-.75 2.023 2.023 0 011.7.75 4.557 4.557 0 010 4.469 2.036 2.036 0 01-1.7.74zm18.909-8.258a3.889 3.889 0 00-2.014.52 3.049 3.049 0 00-1.28 1.419l-.2-1.679h-2.816a23.765 23.765 0 01.159 2.9V41.2h3v-5.819a3.042 3.042 0 001.27 1.22 3.978 3.978 0 001.885.44 4.247 4.247 0 002.322-.64 4.2 4.2 0 001.567-1.829 6.438 6.438 0 00.556-2.75 6.536 6.536 0 00-.566-2.779 4.437 4.437 0 00-1.577-1.889 4.072 4.072 0 00-2.3-.67zm-.853 8.258a2.066 2.066 0 01-1.716-.76 3.465 3.465 0 01-.605-2.2 3.507 3.507 0 01.605-2.209 2.057 2.057 0 011.716-.77 2.006 2.006 0 011.7.8 3.606 3.606 0 01.605 2.219 3.426 3.426 0 01-.6 2.17 2.051 2.051 0 01-1.706.75zm16.25-3.12a5.455 5.455 0 00-1.23-3.749 4.253 4.253 0 00-3.354-1.389 4.923 4.923 0 00-2.56.67 4.57 4.57 0 00-1.756 1.879 5.9 5.9 0 00-.625 2.749 5.12 5.12 0 001.448 3.849 5.474 5.474 0 003.988 1.41 7.145 7.145 0 002.132-.33 5.253 5.253 0 001.776-.91l-.793-2.039a4.929 4.929 0 01-1.429.76 4.842 4.842 0 01-1.548.26 2.651 2.651 0 01-1.944-.65 3.072 3.072 0 01-.734-2.07h6.627v-.44zm-4.5-3.019q1.686 0 1.925 1.96H41.54a2.512 2.512 0 01.685-1.46 1.919 1.919 0 011.379-.5zm12.242-2.1a3.318 3.318 0 00-1.816.51 2.967 2.967 0 00-1.18 1.469l-.2-1.739h-2.817a23.7 23.7 0 01.159 2.9v7.238h3v-5.3a2.5 2.5 0 01.625-1.809 2.4 2.4 0 011.815-.65 3.477 3.477 0 011.468.34l.02-2.759a2.569 2.569 0 00-1.071-.2zm8.373 5.118l4.266-4.858h-3.592l-3.77 4.339v-8.936h-3v14.716h3v-4.539l3.949 4.539h3.671zm9.028 5.419a5.256 5.256 0 003.155-.84 2.9 2.9 0 00.456-4.2 4.479 4.479 0 00-2.242-1.079l-1.687-.38a2.134 2.134 0 01-.883-.35.687.687 0 01-.248-.55.81.81 0 01.417-.72 2.171 2.171 0 011.151-.26 4.736 4.736 0 011.557.28 6.5 6.5 0 011.578.82l.833-2.019a6.337 6.337 0 00-1.845-.93 6.865 6.865 0 00-2.1-.33 5.73 5.73 0 00-2.242.41 3.532 3.532 0 00-1.518 1.149 2.76 2.76 0 00-.546 1.68 2.541 2.541 0 00.685 1.859 4.183 4.183 0 002.133 1.02l1.646.38a2.882 2.882 0 011.052.38.708.708 0 01.3.6.763.763 0 01-.417.7 2.416 2.416 0 01-1.191.24 6.515 6.515 0 01-1.984-.31 6.123 6.123 0 01-1.766-.89l-.793 2.1a7.326 7.326 0 004.5 1.24z" fill="#f36a20" fill-rule="evenodd"/></svg>