<svg xmlns="http://www.w3.org/2000/svg" width="81.75" height="19.188"><path d="M6.084 14.888a5.443 5.443 0 006.072-6.058V.472H9.1v8.5a3.835 3.835 0 01-.774 2.589 2.812 2.812 0 01-2.242.89 2.842 2.842 0 01-2.252-.89 3.8 3.8 0 01-.784-2.589v-8.5H.013V8.83a5.421 5.421 0 006.072 6.058zM20.846 4.311a3.89 3.89 0 00-2.014.52 3.048 3.048 0 00-1.28 1.419l-.2-1.679h-2.816a23.767 23.767 0 01.159 2.9v11.557h3v-5.819a3.042 3.042 0 001.27 1.22 3.978 3.978 0 001.885.44 4.247 4.247 0 002.321-.64 4.2 4.2 0 001.567-1.829 6.436 6.436 0 00.555-2.75 6.536 6.536 0 00-.565-2.779 4.438 4.438 0 00-1.577-1.889 4.072 4.072 0 00-2.3-.67zm-.853 8.258a2.066 2.066 0 01-1.716-.76 3.465 3.465 0 01-.605-2.2 3.506 3.506 0 01.605-2.209 2.057 2.057 0 011.716-.77 2.006 2.006 0 011.7.8 3.6 3.6 0 01.605 2.219 3.425 3.425 0 01-.6 2.17 2.051 2.051 0 01-1.706.75zm14.425-8v1.439a3.291 3.291 0 00-1.31-1.239 3.945 3.945 0 00-1.9-.46 4.207 4.207 0 00-3.909 2.409 6.388 6.388 0 000 5.3 4.207 4.207 0 003.909 2.409 3.715 3.715 0 001.885-.49 3.78 3.78 0 001.329-1.229v1.759a2.457 2.457 0 01-.635 1.85 2.687 2.687 0 01-1.925.609 7.977 7.977 0 01-3.611-.919l-.456 2.239a8.753 8.753 0 004.167.94 5.832 5.832 0 004.048-1.26 4.715 4.715 0 001.389-3.679V4.57h-2.981zm-2.341 7.558a2.18 2.18 0 01-1.746-.74 3 3 0 01-.635-2.019 2.961 2.961 0 01.635-2.01 2.195 2.195 0 011.746-.73 2.136 2.136 0 011.726.73 3.6 3.6 0 01-.01 4.039 2.139 2.139 0 01-1.716.73zm13.572-7.8a3.317 3.317 0 00-1.816.51 2.97 2.97 0 00-1.181 1.469l-.2-1.739h-2.816a23.745 23.745 0 01.159 2.9v7.238h3v-5.3a2.5 2.5 0 01.625-1.81 2.4 2.4 0 011.816-.65 3.477 3.477 0 011.468.34l.02-2.759a2.569 2.569 0 00-1.071-.2zm9.206.24v1.439a3.324 3.324 0 00-1.29-1.239 3.83 3.83 0 00-1.885-.46 4.068 4.068 0 00-2.3.67 4.436 4.436 0 00-1.578 1.889 6.536 6.536 0 00-.565 2.779 6.337 6.337 0 00.565 2.75 4.291 4.291 0 001.568 1.829 4.194 4.194 0 002.311.64 3.978 3.978 0 001.885-.44 3.177 3.177 0 001.29-1.22v1.5h2.956V4.569h-2.956zm-2.3 8a2.1 2.1 0 01-1.736-.75 3.382 3.382 0 01-.6-2.17 3.562 3.562 0 01.615-2.219 2.052 2.052 0 011.726-.8 2.03 2.03 0 011.707.77 3.556 3.556 0 01.595 2.209 3.513 3.513 0 01-.595 2.2 2.04 2.04 0 01-1.707.76zM67.314-.012v5.938a3.153 3.153 0 00-1.29-1.189 3.956 3.956 0 00-1.845-.43 4.151 4.151 0 00-2.311.65A4.361 4.361 0 0060.3 6.796a6.335 6.335 0 00-.565 2.749 6.472 6.472 0 00.565 2.77 4.449 4.449 0 001.578 1.879 4.068 4.068 0 002.3.67 3.978 3.978 0 001.885-.44 3.177 3.177 0 001.29-1.22v1.5h2.956V-.012h-3zm-2.262 12.577a2.061 2.061 0 01-1.726-.79 3.558 3.558 0 01-.615-2.23 3.354 3.354 0 01.615-2.159 2.1 2.1 0 011.726-.76 2.038 2.038 0 011.7.77 3.473 3.473 0 01.605 2.189 3.557 3.557 0 01-.595 2.21 2.03 2.03 0 01-1.707.77zm16.707-3.119a5.452 5.452 0 00-1.231-3.749 4.248 4.248 0 00-3.353-1.39 4.922 4.922 0 00-2.559.67 4.566 4.566 0 00-1.756 1.879 5.9 5.9 0 00-.625 2.749 5.118 5.118 0 001.448 3.849 5.473 5.473 0 003.988 1.41 7.153 7.153 0 002.133-.33 5.253 5.253 0 001.776-.91l-.794-2.039a4.911 4.911 0 01-1.428.76 4.845 4.845 0 01-1.548.26 2.649 2.649 0 01-1.944-.65 3.071 3.071 0 01-.735-2.07h6.628v-.437zm-4.5-3.02q1.688 0 1.925 1.96h-3.988a2.515 2.515 0 01.685-1.46 1.918 1.918 0 011.378-.5z" fill="#f36a20" fill-rule="evenodd"/></svg>