<svg xmlns="http://www.w3.org/2000/svg" width="131" height="80.562"><path data-name="Save to earn AAdvantage® miles, not interest." d="M6.564 14.606a7 7 0 004.306-1.17 3.763 3.763 0 001.548-3.169 3.174 3.174 0 00-1.2-2.619A9.821 9.821 0 007.3 6.086a11.446 11.446 0 01-1.806-.49 2.226 2.226 0 01-.9-.57 1.2 1.2 0 01-.268-.8 1.491 1.491 0 01.714-1.3 3.365 3.365 0 011.9-.48 6.57 6.57 0 014.107 1.44l.992-2.239a5.893 5.893 0 00-2.222-1.2 9.542 9.542 0 00-2.9-.44 7.11 7.11 0 00-2.937.57 4.638 4.638 0 00-1.974 1.589 3.951 3.951 0 00-.7 2.3 3.582 3.582 0 00.506 1.97 3.92 3.92 0 001.607 1.34 12.247 12.247 0 002.966.93 8.66 8.66 0 012.331.75 1.194 1.194 0 01.665 1.07 1.34 1.34 0 01-.724 1.21 4.1 4.1 0 01-2.073.43 7.741 7.741 0 01-4.564-1.44l-.992 2.239a6.985 6.985 0 002.45 1.21 11 11 0 003.085.43zm15.02-10.317v1.44a3.316 3.316 0 00-1.29-1.24 3.837 3.837 0 00-1.885-.46 4.076 4.076 0 00-2.3.67 4.445 4.445 0 00-1.579 1.887 6.537 6.537 0 00-.565 2.779 6.335 6.335 0 00.565 2.749 4.292 4.292 0 001.57 1.83 4.2 4.2 0 002.312.64 3.978 3.978 0 001.885-.44 3.176 3.176 0 001.29-1.22v1.5h2.953V4.287h-2.956zm-2.3 8a2.1 2.1 0 01-1.736-.75 3.382 3.382 0 01-.605-2.169 3.562 3.562 0 01.615-2.219 2.052 2.052 0 011.726-.8 2.03 2.03 0 011.706.77 3.551 3.551 0 01.6 2.209 3.506 3.506 0 01-.6 2.2 2.04 2.04 0 01-1.706.76zm11.984-1.42l-2.581-6.563h-3.135l4.365 10.117h2.54l4.424-10.117h-2.956zM46.7 9.166a5.453 5.453 0 00-1.23-3.749 4.25 4.25 0 00-3.353-1.39 4.928 4.928 0 00-2.559.67A4.575 4.575 0 0037.8 6.576a5.9 5.9 0 00-.625 2.749 5.122 5.122 0 001.448 3.849 5.475 5.475 0 003.988 1.41 7.149 7.149 0 002.133-.33 5.262 5.262 0 001.776-.91l-.79-2.038a4.914 4.914 0 01-1.429.76 4.832 4.832 0 01-1.548.26 2.65 2.65 0 01-1.944-.65 3.071 3.071 0 01-.734-2.069H46.7v-.441zm-4.5-3.02q1.686 0 1.925 1.959h-3.99a2.513 2.513 0 01.684-1.46 1.919 1.919 0 011.379-.5zm18.293.4V4.287h-2.561V.928l-3 .98v2.379h-1.9v2.259h1.9v4a4.218 4.218 0 00.982 2.979 3.69 3.69 0 002.847 1.06 4.74 4.74 0 001.726-.28v-2.34a4.1 4.1 0 01-.992.14 1.633 1.633 0 01-1.131-.39 1.569 1.569 0 01-.436-1.23V6.546h2.56zm6.329 8.038a5.778 5.778 0 002.778-.64 4.416 4.416 0 001.835-1.84 5.826 5.826 0 00.645-2.8 5.827 5.827 0 00-.645-2.8 4.419 4.419 0 00-1.835-1.84 5.783 5.783 0 00-2.778-.64 5.885 5.885 0 00-2.808.64 4.4 4.4 0 00-1.845 1.84 5.823 5.823 0 00-.645 2.8 5.822 5.822 0 00.645 2.8 4.4 4.4 0 001.845 1.84 5.88 5.88 0 002.808.64zm0-2.3q-2.322 0-2.322-2.979a3.535 3.535 0 01.6-2.229 2.073 2.073 0 011.726-.75 2.023 2.023 0 011.7.75 3.581 3.581 0 01.574 2.23 3.574 3.574 0 01-.585 2.239 2.035 2.035 0 01-1.7.74zm21.786-3.119a5.453 5.453 0 00-1.23-3.749 4.252 4.252 0 00-3.354-1.39 4.927 4.927 0 00-2.559.67 4.577 4.577 0 00-1.756 1.88 5.9 5.9 0 00-.625 2.749 5.124 5.124 0 001.448 3.849 5.476 5.476 0 003.988 1.41 7.143 7.143 0 002.133-.33 5.256 5.256 0 001.776-.91l-.793-2.04a4.921 4.921 0 01-1.429.76 4.834 4.834 0 01-1.548.26 2.648 2.648 0 01-1.944-.65 3.065 3.065 0 01-.734-2.069h6.627v-.439zm-4.5-3.019q1.686 0 1.924 1.959h-3.988a2.513 2.513 0 01.685-1.46 1.919 1.919 0 011.379-.5zm13.512-1.86v1.44a3.319 3.319 0 00-1.29-1.24 3.838 3.838 0 00-1.885-.46 4.078 4.078 0 00-2.3.67 4.448 4.448 0 00-1.577 1.889A6.535 6.535 0 0090 9.366a6.334 6.334 0 00.565 2.749 4.291 4.291 0 001.567 1.829 4.2 4.2 0 002.312.64 3.979 3.979 0 001.885-.44 3.178 3.178 0 001.29-1.22v1.5h2.956V4.287h-2.956zm-2.3 8a2.1 2.1 0 01-1.736-.75 3.38 3.38 0 01-.605-2.169 3.564 3.564 0 01.615-2.219 2.052 2.052 0 011.726-.8 2.027 2.027 0 011.706.77 3.549 3.549 0 01.6 2.209 3.5 3.5 0 01-.6 2.2 2.037 2.037 0 01-1.706.76zm13.532-8.238a3.318 3.318 0 00-1.816.51 2.968 2.968 0 00-1.18 1.47l-.2-1.74h-2.817a23.928 23.928 0 01.158 2.9v7.238h3v-5.3a2.5 2.5 0 01.625-1.809 2.4 2.4 0 011.815-.65 3.469 3.469 0 011.468.34l.02-2.759a2.568 2.568 0 00-1.071-.2zm8.492-.02a3.956 3.956 0 00-1.955.48 3.724 3.724 0 00-1.4 1.38l-.2-1.6h-2.817a23.928 23.928 0 01.158 2.9v7.238h3v-5.68a2.424 2.424 0 01.6-1.719 2.062 2.062 0 011.587-.64 1.461 1.461 0 011.22.49 2.5 2.5 0 01.387 1.55v6h3V8.286q0-4.259-3.571-4.259zM15.472 36.418L8.984 22.182h-2.5L0 36.418h3.115l1.349-3.159h6.607l1.349 3.159h3.056zm-7.7-10.877l2.282 5.339H5.492zm22.76 10.877l-6.488-14.236h-2.5l-6.489 14.236h3.115l1.349-3.159h6.607l1.349 3.159h3.056zm-7.7-10.877l2.282 5.339h-4.562zm15.795-3.835v5.938a3.155 3.155 0 00-1.29-1.19 3.966 3.966 0 00-1.845-.43 4.154 4.154 0 00-2.312.65 4.363 4.363 0 00-1.567 1.84 6.335 6.335 0 00-.566 2.749 6.467 6.467 0 00.566 2.769 4.451 4.451 0 001.577 1.874 4.073 4.073 0 002.3.67 3.978 3.978 0 001.885-.44 3.177 3.177 0 001.29-1.22v1.5h2.956v-14.71h-3zm-2.262 12.573a2.061 2.061 0 01-1.726-.79 3.554 3.554 0 01-.615-2.229 3.353 3.353 0 01.615-2.159 2.1 2.1 0 011.726-.76 2.036 2.036 0 011.7.77 3.472 3.472 0 01.605 2.189 3.549 3.549 0 01-.6 2.209 2.028 2.028 0 01-1.706.77zm11.984-1.42l-2.579-6.558h-3.135L47 36.418h2.54l4.425-10.117h-2.957zm13.532-6.578v1.44a3.316 3.316 0 00-1.29-1.24 3.837 3.837 0 00-1.885-.46 4.076 4.076 0 00-2.3.67 4.444 4.444 0 00-1.577 1.889 6.535 6.535 0 00-.566 2.779 6.334 6.334 0 00.566 2.749 4.291 4.291 0 001.567 1.83 4.2 4.2 0 002.312.64 3.978 3.978 0 001.885-.44 3.176 3.176 0 001.29-1.22v1.5h2.956V26.281h-2.958zm-2.3 8a2.1 2.1 0 01-1.736-.75 3.382 3.382 0 01-.605-2.169 3.562 3.562 0 01.615-2.219 2.052 2.052 0 011.726-.8 2.03 2.03 0 011.706.77 3.551 3.551 0 01.6 2.209 3.506 3.506 0 01-.6 2.2 2.039 2.039 0 01-1.706.76zm13.889-8.258a3.952 3.952 0 00-1.954.48 3.715 3.715 0 00-1.4 1.38l-.2-1.6H67.1a23.776 23.776 0 01.159 2.9v7.238h3V30.74a2.424 2.424 0 01.6-1.719 2.064 2.064 0 011.587-.64 1.46 1.46 0 011.22.49 2.5 2.5 0 01.387 1.55v6h3V30.28q0-4.259-3.572-4.259zm12.282 2.519v-2.261h-2.56v-3.359l-3 .98v2.379h-1.9v2.259h1.9v4a4.222 4.222 0 00.982 2.979 3.691 3.691 0 002.848 1.06 4.74 4.74 0 001.726-.28v-2.34a4.117 4.117 0 01-.992.14 1.632 1.632 0 01-1.131-.39 1.57 1.57 0 01-.437-1.23V28.54h2.56zm8.651-2.259v1.44a3.325 3.325 0 00-1.29-1.24 3.838 3.838 0 00-1.885-.46 4.078 4.078 0 00-2.3.67 4.448 4.448 0 00-1.577 1.889 6.535 6.535 0 00-.566 2.779 6.334 6.334 0 00.566 2.749 4.292 4.292 0 001.567 1.83 4.2 4.2 0 002.312.64 3.979 3.979 0 001.885-.44 3.184 3.184 0 001.29-1.22v1.5h2.956V26.281H94.4zm-2.3 8a2.1 2.1 0 01-1.736-.75 3.38 3.38 0 01-.605-2.169 3.564 3.564 0 01.615-2.219 2.052 2.052 0 011.726-.8 2.029 2.029 0 011.706.77 3.55 3.55 0 01.6 2.209 3.5 3.5 0 01-.6 2.2 2.038 2.038 0 01-1.706.76zm14.881-8v1.44a3.287 3.287 0 00-1.31-1.24 3.948 3.948 0 00-1.9-.46 4.2 4.2 0 00-3.909 2.409 6.381 6.381 0 000 5.3 4.2 4.2 0 003.909 2.409 3.714 3.714 0 001.884-.49 3.786 3.786 0 001.33-1.23v1.76a2.456 2.456 0 01-.635 1.849 2.686 2.686 0 01-1.925.61 7.981 7.981 0 01-3.611-.92l-.456 2.239a8.748 8.748 0 004.167.94 5.832 5.832 0 004.047-1.26 4.715 4.715 0 001.389-3.679v-9.679h-2.984zm-2.341 7.558a2.178 2.178 0 01-1.746-.74 3 3 0 01-.635-2.02 2.956 2.956 0 01.635-2.009 2.193 2.193 0 011.746-.73 2.134 2.134 0 011.726.73 3.6 3.6 0 01-.01 4.039 2.14 2.14 0 01-1.716.73zm16.746-2.679a5.454 5.454 0 00-1.235-3.756 4.25 4.25 0 00-3.353-1.39 4.927 4.927 0 00-2.559.67 4.571 4.571 0 00-1.756 1.88 5.9 5.9 0 00-.625 2.749 5.12 5.12 0 001.448 3.849 5.474 5.474 0 003.988 1.41 7.156 7.156 0 002.133-.33 5.254 5.254 0 001.776-.91l-.794-2.039a4.906 4.906 0 01-1.428.76 4.834 4.834 0 01-1.548.26 2.648 2.648 0 01-1.944-.65 3.07 3.07 0 01-.735-2.069h6.628v-.44zm-4.5-3.019q1.686 0 1.924 1.96h-3.988a2.512 2.512 0 01.685-1.46 1.918 1.918 0 011.379-.5zm9.936-6.737a4.154 4.154 0 00-2.123.554 4.058 4.058 0 00-1.5 1.51 4.43 4.43 0 000 4.272 4.112 4.112 0 003.627 2.081 4.132 4.132 0 002.117-.56 4.064 4.064 0 001.509-1.521 4.412 4.412 0 000-4.266 4.03 4.03 0 00-1.5-1.515 4.15 4.15 0 00-2.13-.555zm2.5 6.633l-.636-1.259a1.128 1.128 0 00-.364-.408 1.025 1.025 0 00-.48-.175 1.565 1.565 0 00.873-.554 1.525 1.525 0 00.307-.95 1.467 1.467 0 00-.486-1.154 2.026 2.026 0 00-1.388-.431h-2.36v4.989h1.538v-1.8h.271a.294.294 0 01.243.186l.787 1.609h1.642a3.227 3.227 0 01-1.093.74 3.5 3.5 0 01-1.359.262 3.438 3.438 0 01-1.764-.455 3.217 3.217 0 01-1.221-1.253 3.647 3.647 0 01-.439-1.789 3.591 3.591 0 01.439-1.772 3.228 3.228 0 011.221-1.247 3.626 3.626 0 013.516 0 3.235 3.235 0 011.221 1.247 3.591 3.591 0 01.439 1.772 3.758 3.758 0 01-.232 1.348 3.258 3.258 0 01-.677 1.09zm-2.371-2.809h-.636v-.949h.636a.757.757 0 01.457.111.45.45 0 01.145.379.4.4 0 01-.145.35.789.789 0 01-.457.1zM13.726 48.015a3.8 3.8 0 00-1.934.51 3.69 3.69 0 00-1.379 1.37 2.884 2.884 0 00-2.976-1.879 3.822 3.822 0 00-1.895.46 3.187 3.187 0 00-1.28 1.32l-.179-1.52H1.266a23.776 23.776 0 01.159 2.9v7.238h3v-5.6a2.838 2.838 0 01.506-1.8 1.706 1.706 0 011.419-.64 1.267 1.267 0 011.1.48 2.626 2.626 0 01.347 1.52v6.038h3v-5.6a2.878 2.878 0 01.5-1.8 1.678 1.678 0 011.409-.64 1.275 1.275 0 011.111.47 2.68 2.68 0 01.337 1.53v6.038h3v-6.136a5.073 5.073 0 00-.843-3.209 3.1 3.1 0 00-2.569-1.05zm8.77 10.4v-10.14h-3v10.137h3zM19.4 46.355h3.2v-2.839h-3.2v2.839zm8.532 12.057V43.696h-3v14.716h3zM39.4 53.154a5.453 5.453 0 00-1.23-3.748 4.25 4.25 0 00-3.353-1.39 4.927 4.927 0 00-2.559.67 4.574 4.574 0 00-1.758 1.878 5.9 5.9 0 00-.625 2.749 5.122 5.122 0 001.448 3.849 5.475 5.475 0 003.988 1.41 7.153 7.153 0 002.133-.33 5.262 5.262 0 001.776-.91l-.794-2.039a4.917 4.917 0 01-1.429.76 4.832 4.832 0 01-1.548.26 2.65 2.65 0 01-1.944-.65 3.071 3.071 0 01-.734-2.07H39.4v-.44zm-4.5-3.019q1.686 0 1.925 1.959h-3.992a2.513 2.513 0 01.684-1.46 1.919 1.919 0 011.379-.5zm10.238 8.438a5.255 5.255 0 003.155-.84 2.675 2.675 0 001.151-2.279 2.648 2.648 0 00-.695-1.919 4.481 4.481 0 00-2.242-1.08l-1.687-.38a2.13 2.13 0 01-.883-.35.685.685 0 01-.248-.55.808.808 0 01.417-.72 2.17 2.17 0 011.151-.26 4.727 4.727 0 011.558.28 6.5 6.5 0 011.577.82l.833-2.02a6.335 6.335 0 00-1.845-.93 6.864 6.864 0 00-2.1-.33 5.733 5.733 0 00-2.242.41 3.544 3.544 0 00-1.518 1.15 2.757 2.757 0 00-.546 1.68 2.544 2.544 0 00.685 1.859 4.189 4.189 0 002.133 1.02l1.647.38a2.892 2.892 0 011.052.38.707.707 0 01.3.6.763.763 0 01-.417.7 2.413 2.413 0 01-1.19.24 6.485 6.485 0 01-1.984-.31 6.109 6.109 0 01-1.766-.89l-.794 2.1a7.329 7.329 0 004.5 1.24zm5.794-3.379v3.219h1.488a4.585 4.585 0 01-1.21 1.96l1.171.92a6.162 6.162 0 001.379-1.909 5.361 5.361 0 00.407-2.13v-2.061h-3.239zM7.635 70.006a3.953 3.953 0 00-1.954.48 3.715 3.715 0 00-1.4 1.38l-.2-1.6H1.266a23.776 23.776 0 01.159 2.9v7.24h3v-5.678a2.425 2.425 0 01.6-1.72 2.065 2.065 0 011.587-.64 1.461 1.461 0 011.22.49 2.5 2.5 0 01.378 1.548v6h3v-6.138q0-4.259-3.571-4.259zm10.754 10.56a5.778 5.778 0 002.778-.64A4.416 4.416 0 0023 78.087a6.4 6.4 0 000-5.6 4.418 4.418 0 00-1.835-1.84 5.782 5.782 0 00-2.778-.64 5.884 5.884 0 00-2.808.64 4.4 4.4 0 00-1.845 1.84 6.4 6.4 0 000 5.6 4.4 4.4 0 001.845 1.84 5.88 5.88 0 002.808.64zm0-2.3q-2.321 0-2.322-2.979a3.536 3.536 0 01.6-2.229 2.073 2.073 0 011.726-.75 2.023 2.023 0 011.7.75 4.557 4.557 0 010 4.469 2.035 2.035 0 01-1.7.74zM31.8 72.528v-2.259h-2.558v-3.363l-3 .98v2.379h-1.9v2.259h1.9v4a4.218 4.218 0 00.982 2.979 3.69 3.69 0 002.847 1.06 4.739 4.739 0 001.726-.28v-2.336a4.107 4.107 0 01-.992.14 1.633 1.633 0 01-1.131-.39 1.569 1.569 0 01-.437-1.23v-3.939H31.8zm10.1 7.878V70.269h-3v10.137h3zm-3.1-12.057H42v-2.843h-3.194v2.839zm11.751 1.657a3.953 3.953 0 00-1.954.48 3.715 3.715 0 00-1.4 1.38l-.2-1.6h-2.815a23.776 23.776 0 01.159 2.9v7.24h3v-5.678a2.425 2.425 0 01.6-1.72 2.065 2.065 0 011.587-.64 1.46 1.46 0 011.22.49 2.5 2.5 0 01.379 1.548v6h3v-6.138q0-4.259-3.572-4.259zm12.282 2.519v-2.256h-2.559v-3.363l-3 .98v2.379h-1.9v2.259h1.9v4a4.218 4.218 0 00.986 2.982 3.69 3.69 0 002.847 1.06 4.739 4.739 0 001.726-.28v-2.339a4.107 4.107 0 01-.992.14 1.633 1.633 0 01-1.131-.39 1.569 1.569 0 01-.436-1.23v-3.939h2.56zm10.556 2.619a5.453 5.453 0 00-1.23-3.749 4.251 4.251 0 00-3.353-1.39 4.927 4.927 0 00-2.56.67 4.574 4.574 0 00-1.756 1.879 5.9 5.9 0 00-.625 2.749 5.121 5.121 0 001.448 3.849 5.474 5.474 0 003.987 1.414 7.15 7.15 0 002.133-.33 5.261 5.261 0 001.776-.91l-.794-2.039a4.914 4.914 0 01-1.429.76 4.832 4.832 0 01-1.548.26 2.65 2.65 0 01-1.944-.65 3.072 3.072 0 01-.734-2.07h6.627v-.44zm-4.5-3.019q1.686 0 1.925 1.959h-3.993a2.513 2.513 0 01.684-1.46 1.919 1.919 0 011.379-.5zm12.242-2.1a3.318 3.318 0 00-1.816.51 2.967 2.967 0 00-1.18 1.47l-.2-1.74h-2.82a23.776 23.776 0 01.159 2.9v7.241h3v-5.3a2.5 2.5 0 01.625-1.81 2.4 2.4 0 011.816-.65 3.469 3.469 0 011.468.34l.02-2.759a2.568 2.568 0 00-1.071-.2zm11.111 5.119a5.453 5.453 0 00-1.23-3.749 4.252 4.252 0 00-3.354-1.39 4.926 4.926 0 00-2.559.67 4.576 4.576 0 00-1.756 1.879 5.9 5.9 0 00-.625 2.749 5.124 5.124 0 001.448 3.849 5.476 5.476 0 003.988 1.41 7.143 7.143 0 002.133-.33 5.254 5.254 0 001.776-.91l-.793-2.039a4.921 4.921 0 01-1.429.76 4.834 4.834 0 01-1.548.26 2.648 2.648 0 01-1.944-.65 3.066 3.066 0 01-.734-2.07h6.627v-.44zm-4.5-3.019q1.686 0 1.924 1.959H85.67a2.513 2.513 0 01.685-1.46 1.919 1.919 0 011.379-.5zm10.238 8.438a5.258 5.258 0 003.155-.84 2.674 2.674 0 001.15-2.279 2.647 2.647 0 00-.694-1.919 4.481 4.481 0 00-2.242-1.08l-1.687-.38a2.136 2.136 0 01-.883-.35.686.686 0 01-.248-.55.808.808 0 01.417-.72 2.17 2.17 0 011.151-.26 4.723 4.723 0 011.557.28 6.5 6.5 0 011.578.82l.833-2.019a6.336 6.336 0 00-1.845-.93 6.865 6.865 0 00-2.1-.33 5.734 5.734 0 00-2.242.41 3.536 3.536 0 00-1.518 1.15 2.757 2.757 0 00-.546 1.68 2.542 2.542 0 00.685 1.859 4.187 4.187 0 002.133 1.02l1.646.38a2.886 2.886 0 011.052.38.708.708 0 01.3.6.763.763 0 01-.417.7 2.416 2.416 0 01-1.191.24 6.491 6.491 0 01-1.984-.31 6.117 6.117 0 01-1.766-.89l-.793 2.1a7.329 7.329 0 004.5 1.24zm12.361-8.038v-2.256h-2.56v-3.363l-3 .98v2.379h-1.9v2.259h1.9v4a4.217 4.217 0 00.983 2.979 3.688 3.688 0 002.847 1.06 4.74 4.74 0 001.726-.28v-2.336a4.1 4.1 0 01-.992.14 1.633 1.633 0 01-1.131-.39 1.57 1.57 0 01-.437-1.23v-3.939h2.56zm1.759 7.881h3.234v-3.219H112.1v3.219z" fill="#fff" fill-rule="evenodd"/></svg>