<svg xmlns="http://www.w3.org/2000/svg" viewBox="0 0 427.6 148.5"><path d="M243.6 49.5c7.1 0 14.8 3.1 14.8 12.4 0 6.4-4.2 9.9-7.2 11.2 3.5.9 9 4.1 9 11.7 0 6.7-5 14.1-15.8 14.1h-22.1V49.5h21.3zm-1 20.9c4.5 0 8.1-2.6 8.1-7.4 0-4.8-3.3-6.8-7.9-6.8H230v14.2h12.6zm.5 22c5.9 0 9.1-2.9 9.1-8 0-4.7-3.7-7.5-9.4-7.5h-12.7v15.5h13zm46.8 6.6c-.1-.4-.1-.7-.1-1.2-.1-.8-.1-1.8-.1-2.8-1.7 1.7-4.9 4.5-12.4 4.5-7.4 0-13.2-4.2-13.2-11.7 0-8.2 6.9-10.5 10.6-11 2-.3 5.7-.8 8.8-1.3 1.9-.2 3.8-.5 5.9-.8v-1.5c0-3.7-1.3-6.7-8-6.7-7.1 0-8.1 3.7-8.3 6.2h-7.6c0-5 2.5-12.4 15.7-12.4 13.3 0 15.6 6.8 15.6 12.7v20c0 2.2 0 4.7.5 6h-7.4zm-.5-18.5l-4.2.6-6.9 1.1c-3.5.6-6.4 1.8-6.4 5.6 0 2.6 1.8 5.8 6.8 5.8 3.9 0 6.5-1.1 8.4-2.8 1.6-1.6 2.4-3.9 2.4-6.1v-4.2zM328.7 99V75c0-5.4-2.8-8.2-7.8-8.2-5.4 0-9.9 3.7-9.9 11V99h-7.5V60.8h7.4v4.7c2.2-2.8 6.2-5.2 11.8-5.2 8.3 0 13.4 4.8 13.4 12.4V99h-7.4zm14.1-49.5h7.5V99h-7.5zm19.7 30l12.3-18.6h-9l-12.5 19L368.5 99h9.6zM117.4 99c-.1-.4-.1-.7-.1-1.2-.1-.8-.1-1.8-.1-2.8-1.7 1.7-5 4.5-12.4 4.5s-13.2-4.2-13.2-11.7c0-8.2 6.9-10.5 10.6-11 2-.3 5.7-.8 8.8-1.3 1.9-.2 3.8-.5 5.9-.8v-1.5c0-3.7-1.3-6.7-8-6.7-7.1 0-8.1 3.7-8.3 6.2H93c0-5 2.5-12.4 15.7-12.4 13.3 0 15.6 6.8 15.6 12.7v20c0 2.2 0 4.7.5 6h-7.4zm-.5-18.5l-4.2.6-6.9 1.1c-3.5.6-6.4 1.8-6.4 5.6 0 2.6 1.8 5.8 6.8 5.8 3.9 0 6.5-1.1 8.4-2.8 1.6-1.6 2.4-3.9 2.4-6.1v-4.2zm36.8-8.9c-.4-4-3.4-5.2-7.8-5.2-3 0-7.9.9-7.9 4.8 0 2.3 1.5 3.5 4 4.1 6.9 1.7 19.8.6 19.8 12.2 0 5.2-3.1 12.1-16.6 12.1-8.5 0-15.1-4.2-15.3-12.1h7.8c0 3 2.1 6.1 8 6.1 6.4 0 8.6-2.9 8.6-5.4 0-2.5-1.3-3.5-4.5-4.3-7.1-1.7-19.2-.4-19.2-12.2 0-6.4 5.5-11.2 15.6-11.2 12.7 0 14.8 7.6 15 11.2h-7.5zm14.1-22.1h7.5V99h-7.5zm19.7 30l12.2-18.6h-8.9l-12.6 19L193.5 99h9.6zM73.3 69.9H60.9v7.7h12.4c3.7 0 6.7 3 6.7 6.8s-3 6.8-6.7 6.8h-16v-34h13.2c3.7 0 6.7 2.8 6.7 6.3 0 1-.2 1.9-.7 2.7l7.3 2.5c.7-1.6 1.1-3.4 1.1-5.2 0-7.8-6.5-14.1-14.4-14.1h-21V99h23.8c7.9 0 14.4-6.5 14.4-14.5s-6.5-14.6-14.4-14.6zm307.5-19.5v4.2h-1v-4.2h-1.7v-.9h4.5v.9h-1.8zm4.8 4.2l-1.3-3.8v3.8h-1v-5.1h1.4l1.3 3.8 1.3-3.8h1.4v5.1h-1v-3.8l-1.3 3.8h-.8z" fill="#fff"/></svg>