<svg xmlns="http://www.w3.org/2000/svg" width="83.562" height="7.094"><path data-name="Outsmart Interest" d="M3.377 7.079a3.536 3.536 0 001.784-.431 2.883 2.883 0 001.164-1.237 4.112 4.112 0 00.408-1.882 4.049 4.049 0 00-.408-1.872A2.9 2.9 0 005.161.43a3.912 3.912 0 00-3.574 0A2.927 2.927 0 00.413 1.657a4.012 4.012 0 00-.412 1.872 4.075 4.075 0 00.412 1.882 2.912 2.912 0 001.174 1.237 3.567 3.567 0 001.79.431zm0-1.183a1.654 1.654 0 01-1.363-.606 2.743 2.743 0 01-.49-1.761 2.7 2.7 0 01.49-1.746 1.845 1.845 0 012.725 0 2.7 2.7 0 01.49 1.746 2.747 2.747 0 01-.49 1.756 1.648 1.648 0 01-1.362.611zm7.663-3.822V4.8a1.166 1.166 0 01-.282.815.946.946 0 01-.737.31.738.738 0 01-.766-.892V2.074H7.79v2.93a2.281 2.281 0 00.456 1.552 1.748 1.748 0 001.377.514 1.77 1.77 0 00.854-.2 1.577 1.577 0 00.611-.592v.718h1.424V2.078h-1.474zm5.752 1.1v-1.1H15.54V.445L14.076.92v1.154h-.932v1.1h.932v1.94a2.039 2.039 0 00.48 1.446 1.815 1.815 0 001.392.514 2.348 2.348 0 00.844-.136V5.803a2.047 2.047 0 01-.485.068.8.8 0 01-.553-.189.756.756 0 01-.214-.6V3.171h1.252zm2.628 3.9a2.58 2.58 0 001.542-.408 1.4 1.4 0 00.224-2.037 2.2 2.2 0 00-1.1-.523l-.824-.185a1.044 1.044 0 01-.432-.17.328.328 0 01-.121-.266.391.391 0 01.2-.349 1.066 1.066 0 01.562-.127 2.342 2.342 0 01.762.136 3.18 3.18 0 01.771.4l.407-.98a3.114 3.114 0 00-.9-.451 3.369 3.369 0 00-1.028-.16 2.831 2.831 0 00-1.1.2 1.737 1.737 0 00-.742.558 1.33 1.33 0 00-.267.815 1.231 1.231 0 00.335.9 2.051 2.051 0 001.043.494l.805.185a1.412 1.412 0 01.514.184.341.341 0 01.145.291.369.369 0 01-.2.339 1.184 1.184 0 01-.582.117 3.17 3.17 0 01-.97-.151 3.015 3.015 0 01-.864-.431l-.388 1.018a3.6 3.6 0 002.2.6zm9.011-5.122a1.875 1.875 0 00-.945.247 1.8 1.8 0 00-.675.665 1.41 1.41 0 00-1.455-.912 1.885 1.885 0 00-.926.223 1.557 1.557 0 00-.626.64l-.087-.737H22.34a11.6 11.6 0 01.077 1.407v3.511h1.465V4.28a1.374 1.374 0 01.247-.873.836.836 0 01.694-.31.618.618 0 01.538.233 1.266 1.266 0 01.17.737v2.929h1.465V4.28a1.393 1.393 0 01.242-.873.823.823 0 01.689-.31.625.625 0 01.543.228 1.29 1.29 0 01.165.742v2.929H30.1V4.018a2.455 2.455 0 00-.412-1.557 1.523 1.523 0 00-1.257-.509zm6.3.126v.7a1.617 1.617 0 00-.63-.6 1.9 1.9 0 00-.922-.223 2 2 0 00-1.125.325 2.155 2.155 0 00-.771.917 3.153 3.153 0 00-.276 1.348 3.061 3.061 0 00.276 1.334 2.016 2.016 0 001.9 1.2 1.962 1.962 0 00.922-.214 1.55 1.55 0 00.63-.591v.727h1.446V2.083h-1.446zm-1.125 3.88a1.032 1.032 0 01-.849-.364 1.632 1.632 0 01-.3-1.052 1.724 1.724 0 01.3-1.077 1.009 1.009 0 01.844-.388 1 1 0 01.834.374 1.713 1.713 0 01.291 1.072 1.693 1.693 0 01-.291 1.067 1 1 0 01-.834.368zm6.615-4a1.63 1.63 0 00-.887.247 1.439 1.439 0 00-.577.713l-.1-.844h-1.378a11.384 11.384 0 01.078 1.407v3.511h1.465v-2.57a1.207 1.207 0 01.305-.878 1.182 1.182 0 01.888-.315 1.716 1.716 0 01.717.164l.01-1.338a1.257 1.257 0 00-.524-.1zm4.695 1.212v-1.1h-1.251V.441L42.2.916V2.07h-.931v1.1h.931v1.94a2.039 2.039 0 00.48 1.446 1.815 1.815 0 001.392.514 2.344 2.344 0 00.844-.136V5.799a2.04 2.04 0 01-.485.068.8.8 0 01-.553-.189.759.759 0 01-.213-.6V3.167h1.251zm5.083 3.822V.086h-1.514v6.906h1.514zm4.326-5.044a1.95 1.95 0 00-.956.233 1.813 1.813 0 00-.684.669l-.1-.776h-1.373a11.384 11.384 0 01.078 1.407v3.511h1.464V4.238a1.17 1.17 0 01.291-.834 1.013 1.013 0 01.776-.31.718.718 0 01.6.237 1.208 1.208 0 01.189.752v2.91h1.465V4.015q0-2.065-1.746-2.066zm6 1.222v-1.1h-1.251V.441l-1.465.475V2.07h-.931v1.1h.931v1.94a2.039 2.039 0 00.48 1.446 1.815 1.815 0 001.392.514 2.344 2.344 0 00.844-.136V5.799a2.04 2.04 0 01-.485.068.8.8 0 01-.553-.189.759.759 0 01-.213-.6V3.167h1.251zm5.16 1.271a2.633 2.633 0 00-.6-1.819 2.086 2.086 0 00-1.639-.674 2.422 2.422 0 00-1.252.325 2.234 2.234 0 00-.858.912 2.842 2.842 0 00-.306 1.334 2.474 2.474 0 00.708 1.867 2.689 2.689 0 001.95.684 3.546 3.546 0 001.043-.16 2.579 2.579 0 00.868-.442l-.388-.989a2.433 2.433 0 01-1.455.5 1.3 1.3 0 01-.951-.316 1.48 1.48 0 01-.358-1h3.239v-.225zm-2.2-1.465a.907.907 0 01.941.951h-1.949a1.215 1.215 0 01.334-.708.942.942 0 01.674-.243zm5.985-1.018a1.628 1.628 0 00-.887.247 1.446 1.446 0 00-.578.713l-.1-.844h-1.377a11.384 11.384 0 01.078 1.407v3.511h1.464v-2.57a1.208 1.208 0 01.306-.878 1.18 1.18 0 01.887-.315 1.717 1.717 0 01.718.164l.01-1.338a1.257 1.257 0 00-.524-.1zm5.442 2.48a2.633 2.633 0 00-.6-1.819 2.088 2.088 0 00-1.64-.674 2.421 2.421 0 00-1.251.325 2.228 2.228 0 00-.858.912 2.842 2.842 0 00-.306 1.334 2.474 2.474 0 00.708 1.867 2.689 2.689 0 001.95.684 3.546 3.546 0 001.043-.16 2.579 2.579 0 00.868-.442l-.388-.989a2.4 2.4 0 01-.7.369 2.378 2.378 0 01-.756.126 1.3 1.3 0 01-.951-.316 1.485 1.485 0 01-.359-1h3.24v-.217zm-2.2-1.465a.907.907 0 01.941.951h-1.95a1.222 1.222 0 01.335-.708.94.94 0 01.674-.243zm5 4.094a2.586 2.586 0 001.543-.408 1.4 1.4 0 00.223-2.037 2.2 2.2 0 00-1.1-.523l-.825-.185a1.044 1.044 0 01-.432-.17.331.331 0 01-.121-.266.391.391 0 01.2-.349 1.067 1.067 0 01.563-.127 2.341 2.341 0 01.761.136 3.18 3.18 0 01.771.4l.408-.98a3.119 3.119 0 00-.9-.451 3.369 3.369 0 00-1.028-.16 2.831 2.831 0 00-1.1.2 1.737 1.737 0 00-.742.558 1.33 1.33 0 00-.267.815 1.231 1.231 0 00.335.9 2.055 2.055 0 001.043.494l.805.185a1.412 1.412 0 01.514.184.341.341 0 01.145.291.367.367 0 01-.2.339 1.184 1.184 0 01-.582.117 3.17 3.17 0 01-.97-.151 3.015 3.015 0 01-.864-.431l-.38 1.02a3.6 3.6 0 002.2.6zm6.043-3.9v-1.1h-1.251V.438l-1.465.475v1.154h-.927v1.1h.931v1.94a2.035 2.035 0 00.481 1.446 1.815 1.815 0 001.392.514 2.338 2.338 0 00.843-.136V5.796a2.033 2.033 0 01-.485.068.8.8 0 01-.552-.189.756.756 0 01-.214-.6V3.164h1.251z" fill="#fff" fill-rule="evenodd"/></svg>