<svg xmlns="http://www.w3.org/2000/svg" width="212.375" height="26.469"><path data-name="miles for saving." d="M17.039 6.15a5.2 5.2 0 00-2.644.7 5.043 5.043 0 00-1.885 1.873 3.942 3.942 0 00-4.068-2.57 5.223 5.223 0 00-2.59.629 4.347 4.347 0 00-1.749 1.8l-.244-2.077H.007a32.391 32.391 0 01.217 3.963v9.895h4.1V12.71a3.883 3.883 0 01.687-2.46 2.332 2.332 0 011.939-.874 1.732 1.732 0 011.506.656 3.59 3.59 0 01.474 2.077v8.255h4.1v-7.653a3.932 3.932 0 01.678-2.461 2.291 2.291 0 011.925-.874 1.743 1.743 0 011.519.642 3.666 3.666 0 01.461 2.091v8.255h4.1v-8.391a6.94 6.94 0 00-1.152-4.388 4.238 4.238 0 00-3.513-1.435zm11.988 14.214V6.501h-4.1v13.858h4.1zM24.796 3.881h4.367V0h-4.367v3.881zm11.662 16.483V.241h-4.1v20.118h4.1zm15.675-7.189a7.455 7.455 0 00-1.681-5.125 5.811 5.811 0 00-4.584-1.9 6.736 6.736 0 00-3.5.916 6.249 6.249 0 00-2.4 2.569 8.068 8.068 0 00-.855 3.759 7 7 0 001.98 5.262 7.482 7.482 0 005.451 1.927 9.762 9.762 0 002.916-.451 7.193 7.193 0 002.427-1.244L50.802 16.1a6.711 6.711 0 01-1.952 1.039 6.608 6.608 0 01-2.116.355 3.625 3.625 0 01-2.658-.888 4.2 4.2 0 01-1-2.829h9.058v-.6zm-6.156-4.127q2.305 0 2.631 2.679h-5.452a3.442 3.442 0 01.936-2 2.624 2.624 0 011.885-.683zm13.994 11.535a7.183 7.183 0 004.31-1.153 3.655 3.655 0 001.573-3.116 3.618 3.618 0 00-.949-2.624 6.123 6.123 0 00-3.065-1.476l-2.305-.52a2.911 2.911 0 01-1.207-.478.939.939 0 01-.339-.752 1.1 1.1 0 01.57-.984 2.963 2.963 0 011.573-.355 6.456 6.456 0 012.129.382 8.908 8.908 0 012.156 1.121l1.139-2.761a8.69 8.69 0 00-2.522-1.271 9.41 9.41 0 00-2.875-.451 7.828 7.828 0 00-3.065.561 4.835 4.835 0 00-2.074 1.571 3.768 3.768 0 00-.746 2.3 3.483 3.483 0 00.935 2.543 5.734 5.734 0 002.916 1.394l2.251.519a3.953 3.953 0 011.437.519.964.964 0 01.407.82 1.045 1.045 0 01-.569.957 3.3 3.3 0 01-1.628.328 8.861 8.861 0 01-2.712-.424 8.34 8.34 0 01-2.414-1.216l-1.084 2.87a10.014 10.014 0 006.156 1.695zM83.186 3.499a5.815 5.815 0 011.329.191V.46a6.547 6.547 0 00-2.332-.356 4.962 4.962 0 00-3.851 1.449 5.8 5.8 0 00-1.329 4.073v.875h-2.577v3.088h2.577v10.77h4.1V9.589h2.875V6.501h-2.875v-.766a2.244 2.244 0 01.57-1.708 2.127 2.127 0 011.518-.533zm9.656 17.084a7.893 7.893 0 003.8-.875 6.033 6.033 0 002.508-2.515 8.742 8.742 0 000-7.653 6.033 6.033 0 00-2.508-2.515 7.9 7.9 0 00-3.8-.875 8.043 8.043 0 00-3.838.875 6.009 6.009 0 00-2.522 2.515 8.742 8.742 0 000 7.653 6.009 6.009 0 002.522 2.515 8.031 8.031 0 003.838.875zm0-3.143q-3.174 0-3.174-4.073a4.836 4.836 0 01.814-3.048 2.832 2.832 0 012.36-1.025 2.762 2.762 0 012.318 1.025 6.224 6.224 0 010 6.109 2.778 2.778 0 01-2.318 1.012zM110.66 6.178a4.534 4.534 0 00-2.482.7 4.05 4.05 0 00-1.613 2.009l-.272-2.378h-3.851a32.391 32.391 0 01.217 3.963v9.895h4.095v-7.243a3.42 3.42 0 01.855-2.474 3.285 3.285 0 012.481-.889 4.738 4.738 0 012.007.465l.027-3.772a3.507 3.507 0 00-1.464-.273zm16 14.4a7.185 7.185 0 004.312-1.148 3.657 3.657 0 001.573-3.116 3.618 3.618 0 00-.949-2.624 6.128 6.128 0 00-3.065-1.476l-2.3-.52a2.911 2.911 0 01-1.207-.478.939.939 0 01-.339-.752 1.1 1.1 0 01.57-.984 2.958 2.958 0 011.573-.355 6.465 6.465 0 012.129.382 8.908 8.908 0 012.156 1.121l1.139-2.761a8.7 8.7 0 00-2.522-1.271 9.41 9.41 0 00-2.875-.451 7.824 7.824 0 00-3.065.561 4.838 4.838 0 00-2.075 1.571 3.774 3.774 0 00-.746 2.3 3.479 3.479 0 00.936 2.543 5.734 5.734 0 002.916 1.394l2.251.519a3.953 3.953 0 011.437.519.967.967 0 01.407.82 1.044 1.044 0 01-.57.957 3.293 3.293 0 01-1.627.328 8.861 8.861 0 01-2.712-.424 8.34 8.34 0 01-2.414-1.216l-1.085 2.87a10.019 10.019 0 006.157 1.695zm18.121-14.077v1.968a4.538 4.538 0 00-1.763-1.695 5.248 5.248 0 00-2.577-.629 5.574 5.574 0 00-3.146.916 6.077 6.077 0 00-2.156 2.583 8.942 8.942 0 00-.773 3.8 8.664 8.664 0 00.773 3.758 5.857 5.857 0 002.143 2.5 5.731 5.731 0 003.159.875 5.449 5.449 0 002.577-.6 4.352 4.352 0 001.763-1.668v2.05h4.041V6.501h-4.041zm-3.147 10.934a2.873 2.873 0 01-2.373-1.026 4.626 4.626 0 01-.827-2.965 4.873 4.873 0 01.841-3.035 2.806 2.806 0 012.359-1.093 2.775 2.775 0 012.333 1.052 4.86 4.86 0 01.814 3.021 4.8 4.8 0 01-.814 3.007 2.788 2.788 0 01-2.333 1.039zm16.381-1.941l-3.525-8.966h-4.289l5.967 13.831h3.472l6.048-13.831h-4.041zm13.127 4.865V6.501h-4.1v13.858h4.1zm-4.231-16.483h4.366V-.005h-4.366v3.881zm16.055 2.269a5.4 5.4 0 00-2.671.656 5.078 5.078 0 00-1.912 1.886l-.272-2.186h-3.851a32.391 32.391 0 01.217 3.963v9.895h4.1v-7.763a3.318 3.318 0 01.804-2.346 2.823 2.823 0 012.17-.874 2 2 0 011.668.669 3.424 3.424 0 01.529 2.119v8.2h4.095v-8.391q0-5.823-4.882-5.823zm17.981.356v1.968a4.486 4.486 0 00-1.79-1.695 5.4 5.4 0 00-2.6-.629 5.746 5.746 0 00-5.343 3.294 8.728 8.728 0 000 7.244 5.746 5.746 0 005.343 3.294 5.074 5.074 0 002.576-.67 5.173 5.173 0 001.817-1.681v2.405a3.355 3.355 0 01-.868 2.529 3.67 3.67 0 01-2.63.834 10.9 10.9 0 01-4.936-1.258l-.624 3.062a11.958 11.958 0 005.695 1.284 7.972 7.972 0 005.533-1.722 6.448 6.448 0 001.9-5.029V6.501h-4.068zm-3.2 10.332a2.98 2.98 0 01-2.387-1.011 4.1 4.1 0 01-.868-2.761 4.044 4.044 0 01.868-2.747 3 3 0 012.387-1 2.919 2.919 0 012.36 1 4.922 4.922 0 01-.014 5.521 2.924 2.924 0 01-2.346 1zm10.224 3.526h4.421v-4.4h-4.421v4.4z" fill="#fff" fill-rule="evenodd"/></svg>