<svg xmlns="http://www.w3.org/2000/svg" width="192.594" height="26.469"><path data-name="Save today for" d="M7.562 20.49a9.57 9.57 0 005.885-1.6 5.145 5.145 0 002.115-4.332 4.34 4.34 0 00-1.64-3.581 13.433 13.433 0 00-5.357-2.132 15.691 15.691 0 01-2.468-.67 3.032 3.032 0 01-1.234-.779 1.644 1.644 0 01-.366-1.093 2.038 2.038 0 01.976-1.777 4.6 4.6 0 012.6-.656 8.98 8.98 0 015.614 1.968l1.356-3.061a8.044 8.044 0 00-3.037-1.641 13.066 13.066 0 00-3.96-.6 9.722 9.722 0 00-4.014.779 6.345 6.345 0 00-2.7 2.173A5.4 5.4 0 00.37 6.632a4.895 4.895 0 00.691 2.692 5.363 5.363 0 002.2 1.832 16.773 16.773 0 004.055 1.271 11.812 11.812 0 013.186 1.025 1.631 1.631 0 01.909 1.462 1.832 1.832 0 01-.99 1.654 5.6 5.6 0 01-2.834.588 10.578 10.578 0 01-6.238-1.968l-1.356 3.061a9.552 9.552 0 003.349 1.654 15.055 15.055 0 004.218.588zm20.53-14.105v1.968a4.529 4.529 0 00-1.762-1.695 5.248 5.248 0 00-2.577-.629 5.571 5.571 0 00-3.146.916 6.077 6.077 0 00-2.156 2.583 8.942 8.942 0 00-.773 3.8 8.664 8.664 0 00.773 3.758 5.861 5.861 0 002.142 2.5 5.737 5.737 0 003.16.875 5.449 5.449 0 002.577-.6 4.343 4.343 0 001.762-1.668v2.05h4.041V6.385h-4.039zm-3.146 10.934a2.875 2.875 0 01-2.373-1.025 4.625 4.625 0 01-.827-2.966 4.868 4.868 0 01.841-3.034A2.8 2.8 0 0124.946 9.2a2.773 2.773 0 012.333 1.053 4.855 4.855 0 01.813 3.02 4.8 4.8 0 01-.813 3.007 2.788 2.788 0 01-2.333 1.039zm16.381-1.941l-3.526-8.966h-4.285l5.967 13.831h3.472l6.048-13.831h-4.042zm21.1-2.324a7.455 7.455 0 00-1.681-5.125 5.811 5.811 0 00-4.584-1.9 6.736 6.736 0 00-3.5.916 6.255 6.255 0 00-2.4 2.57 8.073 8.073 0 00-.854 3.758 7 7 0 001.98 5.262 7.482 7.482 0 005.451 1.927 9.767 9.767 0 002.916-.451 7.193 7.193 0 002.427-1.244l-1.088-2.788a6.711 6.711 0 01-1.952 1.039 6.608 6.608 0 01-2.116.355 3.625 3.625 0 01-2.658-.888 4.2 4.2 0 01-1-2.829h9.058v-.6zm-6.156-4.127q2.3 0 2.631 2.679H53.45a3.442 3.442 0 01.936-2 2.624 2.624 0 011.885-.683zm25 .547V6.385h-3.5V1.792l-4.1 1.34v3.253h-2.6v3.089h2.6v5.467a5.765 5.765 0 001.343 4.072 5.04 5.04 0 003.891 1.449 6.476 6.476 0 002.36-.383v-3.2a5.6 5.6 0 01-1.356.192 2.233 2.233 0 01-1.546-.533 2.147 2.147 0 01-.6-1.681V9.472h3.5zm8.652 10.988a7.886 7.886 0 003.8-.875 6.039 6.039 0 002.509-2.514 8.744 8.744 0 000-7.654 6.041 6.041 0 00-2.509-2.515 7.9 7.9 0 00-3.8-.875 8.043 8.043 0 00-3.838.875 6.015 6.015 0 00-2.522 2.515 8.744 8.744 0 000 7.654 6.013 6.013 0 002.522 2.514 8.031 8.031 0 003.838.875zm0-3.143q-3.174 0-3.174-4.073a4.836 4.836 0 01.814-3.048 2.835 2.835 0 012.36-1.025 2.765 2.765 0 012.318 1.025 6.231 6.231 0 010 6.109 2.778 2.778 0 01-2.318 1.012zm19.5-17.194v8.118a4.31 4.31 0 00-1.763-1.626 5.414 5.414 0 00-2.522-.588 5.675 5.675 0 00-3.159.889 5.956 5.956 0 00-2.143 2.515 8.664 8.664 0 00-.773 3.758 8.846 8.846 0 00.773 3.786 6.078 6.078 0 002.156 2.569 5.566 5.566 0 003.146.916 5.449 5.449 0 002.577-.6 4.352 4.352 0 001.763-1.668v2.05h4.041V.125h-4.1zm-3.091 17.194a2.818 2.818 0 01-2.36-1.08 4.858 4.858 0 01-.841-3.048 4.582 4.582 0 01.841-2.952 2.866 2.866 0 012.36-1.039 2.779 2.779 0 012.318 1.053 4.741 4.741 0 01.828 2.993 4.855 4.855 0 01-.814 3.02 2.772 2.772 0 01-2.332 1.053zm20.232-10.934v1.968a4.538 4.538 0 00-1.763-1.695 5.248 5.248 0 00-2.577-.629 5.574 5.574 0 00-3.146.916 6.077 6.077 0 00-2.156 2.583 8.942 8.942 0 00-.773 3.8 8.664 8.664 0 00.773 3.758 5.857 5.857 0 002.143 2.5 5.731 5.731 0 003.159.875 5.449 5.449 0 002.577-.6 4.352 4.352 0 001.763-1.668v2.05h4.041V6.385h-4.041zm-3.146 10.934a2.876 2.876 0 01-2.374-1.025 4.631 4.631 0 01-.827-2.966 4.868 4.868 0 01.841-3.034 2.805 2.805 0 012.36-1.094 2.772 2.772 0 012.332 1.053 4.855 4.855 0 01.814 3.02 4.8 4.8 0 01-.814 3.007 2.786 2.786 0 01-2.332 1.039zm20.015-10.934l-3.635 8.993-3.525-8.993h-4.279l5.668 13.148-.407.9a4.162 4.162 0 01-1.5 1.831 8.741 8.741 0 01-2.861 1.039l.949 3.171a9.816 9.816 0 004.353-1.6 9.044 9.044 0 002.942-3.9l6.347-14.6h-4.041zm20.232-3.007a5.814 5.814 0 011.328.191V.344a6.543 6.543 0 00-2.332-.356 4.964 4.964 0 00-3.851 1.449 5.806 5.806 0 00-1.329 4.073v.875h-2.577v3.089h2.577v10.769h4.1V9.474h2.875V6.385h-2.875v-.766a2.244 2.244 0 01.57-1.708 2.132 2.132 0 011.519-.533zm9.655 17.084a7.893 7.893 0 003.8-.875 6.031 6.031 0 002.508-2.514 8.744 8.744 0 000-7.654 6.033 6.033 0 00-2.508-2.515 7.9 7.9 0 00-3.8-.875 8.043 8.043 0 00-3.838.875 6.015 6.015 0 00-2.522 2.515 8.744 8.744 0 000 7.654 6.013 6.013 0 002.522 2.514 8.031 8.031 0 003.838.875zm0-3.143q-3.174 0-3.173-4.073a4.836 4.836 0 01.813-3.048 2.836 2.836 0 012.36-1.025 2.768 2.768 0 012.319 1.025 6.231 6.231 0 010 6.109 2.781 2.781 0 01-2.319 1.012zm17.818-11.262a4.528 4.528 0 00-2.481.7 4.046 4.046 0 00-1.614 2.009l-.271-2.378h-3.848a32.391 32.391 0 01.217 3.963v9.895h4.1v-7.243a3.42 3.42 0 01.854-2.474 3.287 3.287 0 012.482-.888 4.759 4.759 0 012.007.464l.027-3.772a3.512 3.512 0 00-1.465-.273z" fill="#f36a20" fill-rule="evenodd"/></svg>