<svg xmlns="http://www.w3.org/2000/svg" width="292.938" height="25.688"><path data-name="tomorrow’s getaways." d="M10.194 8.679V5.59h-3.5V.997l-4.1 1.34V5.59h-2.6v3.089h2.6v5.465a5.765 5.765 0 001.343 4.072 5.04 5.04 0 003.891 1.449 6.476 6.476 0 002.36-.383v-3.2a5.6 5.6 0 01-1.356.192 2.235 2.235 0 01-1.546-.533 2.147 2.147 0 01-.6-1.681V8.675h3.5zm8.652 10.988a7.893 7.893 0 003.8-.875 6.043 6.043 0 002.508-2.514 8.744 8.744 0 000-7.654 6.045 6.045 0 00-2.508-2.515 7.9 7.9 0 00-3.8-.875 8.043 8.043 0 00-3.838.875 6.015 6.015 0 00-2.522 2.515 8.744 8.744 0 000 7.654 6.013 6.013 0 002.522 2.514 8.031 8.031 0 003.838.875zm0-3.143q-3.174 0-3.174-4.073a4.836 4.836 0 01.814-3.048 2.835 2.835 0 012.36-1.025 2.765 2.765 0 012.318 1.025 6.231 6.231 0 010 6.109 2.778 2.778 0 01-2.318 1.012zm26.632-11.29a5.2 5.2 0 00-2.644.7 5.05 5.05 0 00-1.885 1.873 3.942 3.942 0 00-4.068-2.57 5.22 5.22 0 00-2.59.629 4.356 4.356 0 00-1.75 1.8l-.244-2.077h-3.851a32.391 32.391 0 01.217 3.963v9.892h4.1v-7.653a3.878 3.878 0 01.692-2.46 2.331 2.331 0 011.939-.875 1.732 1.732 0 011.5.656 3.582 3.582 0 01.475 2.077v8.255h4.1v-7.653a3.934 3.934 0 01.678-2.46 2.3 2.3 0 011.926-.875 1.743 1.743 0 011.519.642 3.668 3.668 0 01.461 2.091v8.255h4.1v-8.391A6.936 6.936 0 0049 6.665a4.236 4.236 0 00-3.512-1.435zm14.456 14.433a7.893 7.893 0 003.8-.875 6.031 6.031 0 002.508-2.514 8.744 8.744 0 000-7.654 6.033 6.033 0 00-2.508-2.515 7.9 7.9 0 00-3.8-.875 8.043 8.043 0 00-3.838.875 6.015 6.015 0 00-2.522 2.515 8.744 8.744 0 000 7.654 6.013 6.013 0 002.522 2.514 8.031 8.031 0 003.838.875zm0-3.143q-3.174 0-3.173-4.073a4.836 4.836 0 01.813-3.048 2.836 2.836 0 012.36-1.025 2.768 2.768 0 012.319 1.025 6.231 6.231 0 010 6.109 2.781 2.781 0 01-2.319 1.012zM77.752 5.262a4.534 4.534 0 00-2.482.7 4.05 4.05 0 00-1.613 2.009l-.272-2.378h-3.851a32.391 32.391 0 01.217 3.963v9.888h4.1v-7.243a3.42 3.42 0 01.854-2.474 3.285 3.285 0 012.481-.888 4.752 4.752 0 012.007.464l.028-3.772a3.515 3.515 0 00-1.465-.273zm11.119 0a4.528 4.528 0 00-2.481.7 4.052 4.052 0 00-1.614 2.009l-.271-2.378h-3.851a32.592 32.592 0 01.217 3.963v9.888h4.095v-7.243a3.424 3.424 0 01.854-2.474 3.287 3.287 0 012.482-.888 4.752 4.752 0 012.007.464l.027-3.772a3.512 3.512 0 00-1.465-.273zm9.411 14.4a7.89 7.89 0 003.8-.875 6.039 6.039 0 002.509-2.514 8.753 8.753 0 000-7.654 6.041 6.041 0 00-2.509-2.515 7.9 7.9 0 00-3.8-.875 8.039 8.039 0 00-3.837.875 6.017 6.017 0 00-2.523 2.515 8.753 8.753 0 000 7.654 6.015 6.015 0 002.523 2.514 8.027 8.027 0 003.837.875zm0-3.143q-3.173 0-3.173-4.073a4.83 4.83 0 01.814-3.048 2.834 2.834 0 012.359-1.025 2.765 2.765 0 012.312 1.03 6.231 6.231 0 010 6.109 2.778 2.778 0 01-2.319 1.012zm24.762-1.914l-3.309-9.02h-2.794l-3.281 8.938-3.309-8.938h-4.177l5.56 13.858h3.472l2.983-8.036 3.119 8.036h3.444l5.56-13.858h-3.96zm8.895-14.624v4.4h2.034a5.929 5.929 0 01-1.654 2.679l1.6 1.285a9.1 9.1 0 001.885-2.652 7.234 7.234 0 00.556-2.9V-.023h-4.426zm11.988 19.681a7.185 7.185 0 004.312-1.148 3.969 3.969 0 00.624-5.74 6.128 6.128 0 00-3.065-1.476l-2.3-.52a2.911 2.911 0 01-1.207-.478.937.937 0 01-.339-.752 1.1 1.1 0 01.57-.984 2.968 2.968 0 011.573-.355 6.467 6.467 0 012.129.383 8.868 8.868 0 012.156 1.12l1.139-2.761a8.7 8.7 0 00-2.522-1.271 9.41 9.41 0 00-2.875-.451 7.824 7.824 0 00-3.065.561 4.846 4.846 0 00-2.075 1.571 3.775 3.775 0 00-.746 2.3 3.479 3.479 0 00.936 2.542 5.726 5.726 0 002.916 1.394l2.251.519a3.932 3.932 0 011.437.52.966.966 0 01.407.82 1.042 1.042 0 01-.57.956 3.293 3.293 0 01-1.627.328 8.89 8.89 0 01-2.712-.423 8.368 8.368 0 01-2.414-1.217l-1.085 2.87a10.012 10.012 0 006.157 1.695zm25.846-14.077v1.968a4.486 4.486 0 00-1.79-1.695 5.4 5.4 0 00-2.6-.629 5.749 5.749 0 00-5.343 3.294 8.738 8.738 0 000 7.244 5.749 5.749 0 005.343 3.294 5.08 5.08 0 002.577-.67 5.173 5.173 0 001.817-1.681v2.405a3.359 3.359 0 01-.868 2.529 3.67 3.67 0 01-2.631.834 10.906 10.906 0 01-4.936-1.258l-.624 3.062a11.962 11.962 0 005.7 1.284 7.974 7.974 0 005.533-1.722 6.446 6.446 0 001.9-5.029V5.585h-4.068zm-3.2 10.332a2.979 2.979 0 01-2.387-1.011 4.1 4.1 0 01-.868-2.761 4.044 4.044 0 01.868-2.747 3 3 0 012.387-1 2.917 2.917 0 012.359 1 4.919 4.919 0 01-.014 5.522 2.923 2.923 0 01-2.345 1zm22.889-3.663a7.455 7.455 0 00-1.681-5.125 5.811 5.811 0 00-4.584-1.9 6.736 6.736 0 00-3.5.916 6.246 6.246 0 00-2.4 2.57 8.061 8.061 0 00-.855 3.758 7 7 0 001.98 5.262 7.482 7.482 0 005.451 1.927 9.762 9.762 0 002.916-.451 7.193 7.193 0 002.427-1.244l-1.084-2.788a6.729 6.729 0 01-1.953 1.039 6.608 6.608 0 01-2.116.355 3.625 3.625 0 01-2.658-.888 4.2 4.2 0 01-1-2.829h9.058v-.6zm-6.156-4.127q2.306 0 2.631 2.679h-5.452a3.442 3.442 0 01.936-2 2.624 2.624 0 011.885-.683zm17.113.547V5.585h-3.5V.992l-4.1 1.34v3.253h-2.6v3.089h2.6v5.47a5.765 5.765 0 001.343 4.072 5.041 5.041 0 003.892 1.449 6.474 6.474 0 002.359-.383v-3.2a5.6 5.6 0 01-1.356.192 2.235 2.235 0 01-1.546-.533 2.146 2.146 0 01-.6-1.681V8.675h3.5zm11.825-3.089v1.968a4.531 4.531 0 00-1.763-1.695 5.241 5.241 0 00-2.576-.629 5.577 5.577 0 00-3.147.916 6.084 6.084 0 00-2.164 2.588 8.942 8.942 0 00-.773 3.8 8.664 8.664 0 00.773 3.758 5.87 5.87 0 002.143 2.5 5.735 5.735 0 003.16.875 5.442 5.442 0 002.576-.6 4.346 4.346 0 001.763-1.668v2.05h4.041V5.59h-4.041zm-3.15 10.939a2.872 2.872 0 01-2.373-1.025 4.625 4.625 0 01-.827-2.966 4.874 4.874 0 01.84-3.034 2.806 2.806 0 012.36-1.094 2.772 2.772 0 012.332 1.053 4.848 4.848 0 01.814 3.02 4.789 4.789 0 01-.814 3.007 2.786 2.786 0 01-2.332 1.039zm25.71-1.914l-3.308-9.02h-2.794l-3.281 8.938-3.309-8.938h-4.178l5.56 13.854h3.471l2.984-8.036 3.119 8.036h3.444l5.56-13.858h-3.96zm18.416-9.02v1.968a4.531 4.531 0 00-1.763-1.695 5.248 5.248 0 00-2.577-.629 5.574 5.574 0 00-3.146.916 6.077 6.077 0 00-2.156 2.583 8.942 8.942 0 00-.773 3.8 8.664 8.664 0 00.773 3.758 5.857 5.857 0 002.143 2.5 5.731 5.731 0 003.159.875 5.449 5.449 0 002.577-.6 4.346 4.346 0 001.763-1.668v2.05h4.041V5.59h-4.041zm-3.146 10.934a2.876 2.876 0 01-2.374-1.025 4.631 4.631 0 01-.827-2.966 4.868 4.868 0 01.841-3.034 2.805 2.805 0 012.36-1.094 2.772 2.772 0 012.332 1.053 4.855 4.855 0 01.814 3.02 4.8 4.8 0 01-.814 3.007 2.786 2.786 0 01-2.332 1.039zM270.089 5.59l-3.635 8.993-3.525-8.993h-4.285l5.668 13.148-.407.9a4.162 4.162 0 01-1.5 1.831 8.741 8.741 0 01-2.861 1.039l.949 3.171a9.816 9.816 0 004.353-1.6 9.044 9.044 0 002.942-3.895l6.347-14.6h-4.041zm10.523 14.077a7.185 7.185 0 004.312-1.148 3.969 3.969 0 00.624-5.74 6.128 6.128 0 00-3.065-1.476l-2.305-.52a2.911 2.911 0 01-1.207-.478.937.937 0 01-.339-.752 1.106 1.106 0 01.569-.984 2.973 2.973 0 011.573-.355 6.458 6.458 0 012.129.383 8.874 8.874 0 012.157 1.12l1.139-2.761a8.7 8.7 0 00-2.523-1.271 9.4 9.4 0 00-2.874-.451 7.824 7.824 0 00-3.065.561 4.846 4.846 0 00-2.075 1.571 3.775 3.775 0 00-.746 2.3 3.479 3.479 0 00.936 2.542 5.722 5.722 0 002.915 1.394l2.252.519a3.939 3.939 0 011.437.52.966.966 0 01.407.82 1.042 1.042 0 01-.57.956 3.293 3.293 0 01-1.627.328 8.89 8.89 0 01-2.712-.423 8.368 8.368 0 01-2.414-1.217l-1.085 2.87a10.012 10.012 0 006.157 1.695zm7.919-.219h4.421v-4.4h-4.421v4.4z" fill="#f36a20" fill-rule="evenodd"/></svg>